<svg width="133" height="25" viewBox="0 0 133 25" fill="none" xmlns="http://www.w3.org/2000/svg">
<g id="group_estrelas">
<path id="Star 1" d="M12.0244 3.08203C12.1741 2.62138 12.8259 2.62137 12.9756 3.08203L14.6064 8.10059C14.8073 8.71862 15.3834 9.1377 16.0332 9.1377H21.3105C21.7949 9.13771 21.9963 9.75729 21.6045 10.042L17.335 13.1436C16.8092 13.5255 16.5892 14.2033 16.79 14.8213L18.4209 19.8398C18.5706 20.3004 18.0432 20.6839 17.6514 20.3994L13.3818 17.2969C12.8561 16.9149 12.1439 16.9149 11.6182 17.2969L7.34863 20.3994C6.95679 20.6839 6.42944 20.3004 6.5791 19.8398L8.20996 14.8213C8.41077 14.2033 8.19077 13.5255 7.66504 13.1436L3.39551 10.042C3.00366 9.7573 3.20511 9.13772 3.68945 9.1377H8.9668C9.61664 9.1377 10.1927 8.71862 10.3936 8.10059L12.0244 3.08203Z" fill="#FFBB00" stroke="white"/>
<path id="Star 2" d="M39.0244 3.08203C39.1741 2.62138 39.8259 2.62137 39.9756 3.08203L41.6064 8.10059C41.8073 8.71862 42.3834 9.1377 43.0332 9.1377H48.3105C48.7949 9.13771 48.9963 9.75729 48.6045 10.042L44.335 13.1436C43.8092 13.5255 43.5892 14.2033 43.79 14.8213L45.4209 19.8398C45.5706 20.3004 45.0432 20.6839 44.6514 20.3994L40.3818 17.2969C39.8561 16.9149 39.1439 16.9149 38.6182 17.2969L34.3486 20.3994C33.9568 20.6839 33.4294 20.3004 33.5791 19.8398L35.21 14.8213C35.4108 14.2033 35.1908 13.5255 34.665 13.1436L30.3955 10.042C30.0037 9.7573 30.2051 9.13772 30.6895 9.1377H35.9668C36.6166 9.1377 37.1927 8.71862 37.3936 8.10059L39.0244 3.08203Z" fill="#FFBB00" stroke="white"/>
<path id="Star 3" d="M39.0244 3.08203C39.1741 2.62138 39.8259 2.62137 39.9756 3.08203L41.6064 8.10059C41.8073 8.71862 42.3834 9.1377 43.0332 9.1377H48.3105C48.7949 9.13771 48.9963 9.75729 48.6045 10.042L44.335 13.1436C43.8092 13.5255 43.5892 14.2033 43.79 14.8213L45.4209 19.8398C45.5706 20.3004 45.0432 20.6839 44.6514 20.3994L40.3818 17.2969C39.8561 16.9149 39.1439 16.9149 38.6182 17.2969L34.3486 20.3994C33.9568 20.6839 33.4294 20.3004 33.5791 19.8398L35.21 14.8213C35.4108 14.2033 35.1908 13.5255 34.665 13.1436L30.3955 10.042C30.0037 9.7573 30.2051 9.13772 30.6895 9.1377H35.9668C36.6166 9.1377 37.1927 8.71862 37.3936 8.10059L39.0244 3.08203Z" fill="#FFBB00" stroke="white"/>
<path id="Star 4" d="M66.0244 3.08203C66.1741 2.62138 66.8259 2.62137 66.9756 3.08203L68.6064 8.10059C68.8073 8.71862 69.3834 9.1377 70.0332 9.1377H75.3105C75.7949 9.13771 75.9963 9.75729 75.6045 10.042L71.335 13.1436C70.8092 13.5255 70.5892 14.2033 70.79 14.8213L72.4209 19.8398C72.5706 20.3004 72.0432 20.6839 71.6514 20.3994L67.3818 17.2969C66.8561 16.9149 66.1439 16.9149 65.6182 17.2969L61.3486 20.3994C60.9568 20.6839 60.4294 20.3004 60.5791 19.8398L62.21 14.8213C62.4108 14.2033 62.1908 13.5255 61.665 13.1436L57.3955 10.042C57.0037 9.7573 57.2051 9.13772 57.6895 9.1377H62.9668C63.6166 9.1377 64.1927 8.71862 64.3936 8.10059L66.0244 3.08203Z" fill="#FFBB00" stroke="white"/>
<path id="Star 5" d="M93.0244 3.08203C93.1741 2.62138 93.8259 2.62137 93.9756 3.08203L95.6064 8.10059C95.8073 8.71862 96.3834 9.1377 97.0332 9.1377H102.311C102.795 9.13771 102.996 9.75729 102.604 10.042L98.335 13.1436C97.8092 13.5255 97.5892 14.2033 97.79 14.8213L99.4209 19.8398C99.5706 20.3004 99.0432 20.6839 98.6514 20.3994L94.3818 17.2969C93.8561 16.9149 93.1439 16.9149 92.6182 17.2969L88.3486 20.3994C87.9568 20.6839 87.4294 20.3004 87.5791 19.8398L89.21 14.8213C89.4108 14.2033 89.1908 13.5255 88.665 13.1436L84.3955 10.042C84.0037 9.7573 84.2051 9.13772 84.6895 9.1377H89.9668C90.6166 9.1377 91.1927 8.71862 91.3936 8.10059L93.0244 3.08203Z" fill="#FFBB00" stroke="white"/>
<path id="Star 6" d="M93.0244 3.08203C93.1741 2.62138 93.8259 2.62137 93.9756 3.08203L95.6064 8.10059C95.8073 8.71862 96.3834 9.1377 97.0332 9.1377H102.311C102.795 9.13771 102.996 9.75729 102.604 10.042L98.335 13.1436C97.8092 13.5255 97.5892 14.2033 97.79 14.8213L99.4209 19.8398C99.5706 20.3004 99.0432 20.6839 98.6514 20.3994L94.3818 17.2969C93.8561 16.9149 93.1439 16.9149 92.6182 17.2969L88.3486 20.3994C87.9568 20.6839 87.4294 20.3004 87.5791 19.8398L89.21 14.8213C89.4108 14.2033 89.1908 13.5255 88.665 13.1436L84.3955 10.042C84.0037 9.7573 84.2051 9.13772 84.6895 9.1377H89.9668C90.6166 9.1377 91.1927 8.71862 91.3936 8.10059L93.0244 3.08203Z" fill="#FFBB00" stroke="white"/>
<path id="Star 7" d="M120.024 3.08203C120.174 2.62138 120.826 2.62137 120.976 3.08203L122.606 8.10059C122.807 8.71862 123.383 9.1377 124.033 9.1377H129.311C129.795 9.13771 129.996 9.75729 129.604 10.042L125.335 13.1436C124.809 13.5255 124.589 14.2033 124.79 14.8213L126.421 19.8398C126.571 20.3004 126.043 20.6839 125.651 20.3994L121.382 17.2969C120.856 16.9149 120.144 16.9149 119.618 17.2969L115.349 20.3994C114.957 20.6839 114.429 20.3004 114.579 19.8398L116.21 14.8213C116.411 14.2033 116.191 13.5255 115.665 13.1436L111.396 10.042C111.004 9.7573 111.205 9.13772 111.689 9.1377H116.967C117.617 9.1377 118.193 8.71862 118.394 8.10059L120.024 3.08203Z" fill="#FFBB00" stroke="white"/>
</g>
</svg>
