<svg width="970" height="240" viewBox="0 0 970 240" fill="none" xmlns="http://www.w3.org/2000/svg">
<path d="M45.156 207.272C36.8253 207.272 28.7787 206.325 21.016 204.432C13.2533 202.539 6.86333 200.077 1.846 197.048L12.638 172.624C17.3713 175.369 22.6253 177.594 28.4 179.298C34.2693 180.907 39.9493 181.712 45.44 181.712C48.6587 181.712 51.1673 181.523 52.966 181.144C54.8593 180.671 56.232 180.055 57.084 179.298C57.936 178.446 58.362 177.452 58.362 176.316C58.362 174.517 57.368 173.097 55.38 172.056C53.392 171.015 50.7413 170.163 47.428 169.5C44.2093 168.743 40.6593 167.985 36.778 167.228C32.8967 166.376 28.968 165.287 24.992 163.962C21.1107 162.637 17.5133 160.885 14.2 158.708C10.9813 156.531 8.378 153.691 6.39 150.188C4.402 146.591 3.408 142.141 3.408 136.84C3.408 130.687 5.112 125.101 8.52 120.084C12.0227 114.972 17.182 110.901 23.998 107.872C30.9087 104.843 39.476 103.328 49.7 103.328C56.4213 103.328 63.048 104.038 69.58 105.458C76.112 106.878 81.9813 109.055 87.188 111.99L77.106 136.272C72.1833 133.811 67.4027 131.965 62.764 130.734C58.22 129.503 53.7707 128.888 49.416 128.888C46.1973 128.888 43.6413 129.172 41.748 129.74C39.8547 130.308 38.482 131.065 37.63 132.012C36.8727 132.959 36.494 134 36.494 135.136C36.494 136.84 37.488 138.213 39.476 139.254C41.464 140.201 44.0673 141.005 47.286 141.668C50.5993 142.331 54.1967 143.041 58.078 143.798C62.054 144.555 65.9827 145.597 69.864 146.922C73.7453 148.247 77.2953 149.999 80.514 152.176C83.8273 154.353 86.478 157.193 88.466 160.696C90.454 164.199 91.448 168.553 91.448 173.76C91.448 179.819 89.6967 185.404 86.194 190.516C82.786 195.533 77.674 199.604 70.858 202.728C64.042 205.757 55.4747 207.272 45.156 207.272ZM160.492 142.52H204.796V166.66H160.492V142.52ZM162.764 179.724H212.464V205H129.82V105.6H210.618V130.876H162.764V179.724ZM253.765 205V105.6H301.619C310.896 105.6 318.896 107.115 325.617 110.144C332.433 113.173 337.687 117.528 341.379 123.208C345.071 128.793 346.917 135.42 346.917 143.088C346.917 150.756 345.071 157.383 341.379 162.968C337.687 168.459 332.433 172.671 325.617 175.606C318.896 178.541 310.896 180.008 301.619 180.008H272.367L287.277 166.234V205H253.765ZM313.263 205L288.839 168.79H324.339L349.047 205H313.263ZM287.277 169.926L272.367 154.732H299.489C304.128 154.732 307.536 153.691 309.713 151.608C311.985 149.525 313.121 146.685 313.121 143.088C313.121 139.491 311.985 136.651 309.713 134.568C307.536 132.485 304.128 131.444 299.489 131.444H272.367L287.277 116.25V169.926ZM419.212 205L377.18 105.6H413.248L447.47 189.522H426.028L461.244 105.6H494.188L452.156 205H419.212ZM525.922 205V105.6H559.434V205H525.922ZM655.371 207.272C647.419 207.272 640.035 206.041 633.219 203.58C626.498 201.024 620.628 197.427 615.611 192.788C610.688 188.149 606.854 182.659 604.109 176.316C601.364 169.973 599.991 162.968 599.991 155.3C599.991 147.632 601.364 140.627 604.109 134.284C606.854 127.941 610.688 122.451 615.611 117.812C620.628 113.173 626.498 109.623 633.219 107.162C640.035 104.606 647.419 103.328 655.371 103.328C665.122 103.328 673.736 105.032 681.215 108.44C688.788 111.848 695.036 116.771 699.959 123.208L678.801 142.094C675.866 138.402 672.6 135.562 669.003 133.574C665.5 131.491 661.524 130.45 657.075 130.45C653.572 130.45 650.401 131.018 647.561 132.154C644.721 133.29 642.26 134.947 640.177 137.124C638.189 139.301 636.627 141.952 635.491 145.076C634.355 148.105 633.787 151.513 633.787 155.3C633.787 159.087 634.355 162.542 635.491 165.666C636.627 168.695 638.189 171.299 640.177 173.476C642.26 175.653 644.721 177.31 647.561 178.446C650.401 179.582 653.572 180.15 657.075 180.15C661.524 180.15 665.5 179.156 669.003 177.168C672.6 175.085 675.866 172.198 678.801 168.506L699.959 187.392C695.036 193.735 688.788 198.657 681.215 202.16C673.736 205.568 665.122 207.272 655.371 207.272ZM645.715 239.08C643.348 239.08 640.84 238.796 638.189 238.228C635.538 237.66 633.408 236.95 631.799 236.098L635.775 224.312C636.816 224.691 638.047 225.069 639.467 225.448C640.982 225.827 642.591 226.016 644.295 226.016C646.756 226.016 648.508 225.685 649.549 225.022C650.59 224.359 651.111 223.555 651.111 222.608C651.111 221.756 650.638 221.046 649.691 220.478C648.839 220.005 647.372 219.768 645.289 219.768H639.467L643.301 203.58H659.773L657.785 212.384C662.234 212.952 665.358 214.372 667.157 216.644C668.956 218.916 669.855 221.283 669.855 223.744C669.855 228.477 667.63 232.217 663.181 234.962C658.826 237.707 653.004 239.08 645.715 239.08ZM788.069 207.272C780.022 207.272 772.544 205.994 765.633 203.438C758.817 200.882 752.9 197.285 747.883 192.646C742.866 187.913 738.937 182.375 736.097 176.032C733.352 169.689 731.979 162.779 731.979 155.3C731.979 147.727 733.352 140.816 736.097 134.568C738.937 128.225 742.866 122.735 747.883 118.096C752.9 113.363 758.817 109.718 765.633 107.162C772.544 104.606 780.022 103.328 788.069 103.328C796.21 103.328 803.689 104.606 810.505 107.162C817.321 109.718 823.238 113.363 828.255 118.096C833.272 122.735 837.154 128.225 839.899 134.568C842.739 140.816 844.159 147.727 844.159 155.3C844.159 162.779 842.739 169.689 839.899 176.032C837.154 182.375 833.272 187.913 828.255 192.646C823.238 197.285 817.321 200.882 810.505 203.438C803.689 205.994 796.21 207.272 788.069 207.272ZM788.069 180.15C791.193 180.15 794.08 179.582 796.731 178.446C799.476 177.31 801.843 175.701 803.831 173.618C805.914 171.441 807.523 168.837 808.659 165.808C809.795 162.684 810.363 159.181 810.363 155.3C810.363 151.419 809.795 147.963 808.659 144.934C807.523 141.81 805.914 139.207 803.831 137.124C801.843 134.947 799.476 133.29 796.731 132.154C794.08 131.018 791.193 130.45 788.069 130.45C784.945 130.45 782.01 131.018 779.265 132.154C776.614 133.29 774.248 134.947 772.165 137.124C770.177 139.207 768.615 141.81 767.479 144.934C766.343 147.963 765.775 151.419 765.775 155.3C765.775 159.181 766.343 162.684 767.479 165.808C768.615 168.837 770.177 171.441 772.165 173.618C774.248 175.701 776.614 177.31 779.265 178.446C782.01 179.582 784.945 180.15 788.069 180.15ZM921.784 207.272C913.453 207.272 905.407 206.325 897.644 204.432C889.881 202.539 883.491 200.077 878.474 197.048L889.266 172.624C893.999 175.369 899.253 177.594 905.028 179.298C910.897 180.907 916.577 181.712 922.068 181.712C925.287 181.712 927.795 181.523 929.594 181.144C931.487 180.671 932.86 180.055 933.712 179.298C934.564 178.446 934.99 177.452 934.99 176.316C934.99 174.517 933.996 173.097 932.008 172.056C930.02 171.015 927.369 170.163 924.056 169.5C920.837 168.743 917.287 167.985 913.406 167.228C909.525 166.376 905.596 165.287 901.62 163.962C897.739 162.637 894.141 160.885 890.828 158.708C887.609 156.531 885.006 153.691 883.018 150.188C881.03 146.591 880.036 142.141 880.036 136.84C880.036 130.687 881.74 125.101 885.148 120.084C888.651 114.972 893.81 110.901 900.626 107.872C907.537 104.843 916.104 103.328 926.328 103.328C933.049 103.328 939.676 104.038 946.208 105.458C952.74 106.878 958.609 109.055 963.816 111.99L953.734 136.272C948.811 133.811 944.031 131.965 939.392 130.734C934.848 129.503 930.399 128.888 926.044 128.888C922.825 128.888 920.269 129.172 918.376 129.74C916.483 130.308 915.11 131.065 914.258 132.012C913.501 132.959 913.122 134 913.122 135.136C913.122 136.84 914.116 138.213 916.104 139.254C918.092 140.201 920.695 141.005 923.914 141.668C927.227 142.331 930.825 143.041 934.706 143.798C938.682 144.555 942.611 145.597 946.492 146.922C950.373 148.247 953.923 149.999 957.142 152.176C960.455 154.353 963.106 157.193 965.094 160.696C967.082 164.199 968.076 168.553 968.076 173.76C968.076 179.819 966.325 185.404 962.822 190.516C959.414 195.533 954.302 199.604 947.486 202.728C940.67 205.757 932.103 207.272 921.784 207.272Z" fill="white"/>
<mask id="path-2-outside-1_2085_2" maskUnits="userSpaceOnUse" x="199" y="20" width="580" height="122" fill="black">
<rect fill="white" x="199" y="20" width="580" height="122"/>
<path d="M201.12 137V25H232.16L276.96 98.12H260.64L304.16 25H335.2L335.52 137H301.12L300.8 76.84H306.24L276.48 126.92H259.84L228.8 76.84H235.52V137H201.12ZM420.336 66.6H470.256V93.8H420.336V66.6ZM422.896 108.52H478.896V137H385.776V25H476.816V53.48H422.896V108.52ZM579.033 139.56C561.859 139.56 548.473 134.92 538.873 125.64C529.273 116.36 524.473 103.347 524.473 86.6V25H562.233V85.48C562.233 94.0133 563.779 100.093 566.873 103.72C569.966 107.24 574.126 109 579.353 109C584.686 109 588.846 107.24 591.833 103.72C594.926 100.093 596.473 94.0133 596.473 85.48V25H633.593V86.6C633.593 103.347 628.793 116.36 619.193 125.64C609.593 134.92 596.206 139.56 579.033 139.56ZM724.661 139.56C715.275 139.56 706.208 138.493 697.461 136.36C688.715 134.227 681.515 131.453 675.861 128.04L688.021 100.52C693.355 103.613 699.275 106.12 705.781 108.04C712.395 109.853 718.795 110.76 724.981 110.76C728.608 110.76 731.435 110.547 733.461 110.12C735.595 109.587 737.141 108.893 738.101 108.04C739.061 107.08 739.541 105.96 739.541 104.68C739.541 102.653 738.421 101.053 736.181 99.88C733.941 98.7067 730.955 97.7467 727.221 97C723.595 96.1467 719.595 95.2933 715.221 94.44C710.848 93.48 706.421 92.2533 701.941 90.76C697.568 89.2667 693.515 87.2933 689.781 84.84C686.155 82.3867 683.221 79.1867 680.981 75.24C678.741 71.1867 677.621 66.1733 677.621 60.2C677.621 53.2667 679.541 46.9733 683.381 41.32C687.328 35.56 693.141 30.9733 700.821 27.56C708.608 24.1467 718.261 22.44 729.781 22.44C737.355 22.44 744.821 23.24 752.181 24.84C759.541 26.44 766.155 28.8933 772.021 32.2L760.661 59.56C755.115 56.7867 749.728 54.7067 744.501 53.32C739.381 51.9333 734.368 51.24 729.461 51.24C725.835 51.24 722.955 51.56 720.821 52.2C718.688 52.84 717.141 53.6933 716.181 54.76C715.328 55.8267 714.901 57 714.901 58.28C714.901 60.2 716.021 61.7467 718.261 62.92C720.501 63.9867 723.435 64.8933 727.061 65.64C730.795 66.3867 734.848 67.1867 739.221 68.04C743.701 68.8933 748.128 70.0667 752.501 71.56C756.875 73.0533 760.875 75.0267 764.501 77.48C768.235 79.9333 771.221 83.1333 773.461 87.08C775.701 91.0267 776.821 95.9333 776.821 101.8C776.821 108.627 774.848 114.92 770.901 120.68C767.061 126.333 761.301 130.92 753.621 134.44C745.941 137.853 736.288 139.56 724.661 139.56Z"/>
</mask>
<path d="M201.12 137H199.12V139H201.12V137ZM201.12 25V23H199.12V25H201.12ZM232.16 25L233.865 23.9551L233.28 23H232.16V25ZM276.96 98.12V100.12H280.531L278.665 97.0751L276.96 98.12ZM260.64 98.12L258.921 97.0971L257.122 100.12H260.64V98.12ZM304.16 25V23H303.023L302.441 23.9771L304.16 25ZM335.2 25L337.2 24.9943L337.194 23H335.2V25ZM335.52 137V139H337.526L337.52 136.994L335.52 137ZM301.12 137L299.12 137.011L299.131 139H301.12V137ZM300.8 76.84V74.84H298.789L298.8 76.8506L300.8 76.84ZM306.24 76.84L307.959 77.8617L309.755 74.84H306.24V76.84ZM276.48 126.92V128.92H277.618L278.199 127.942L276.48 126.92ZM259.84 126.92L258.14 127.974L258.727 128.92H259.84V126.92ZM228.8 76.84V74.84H225.207L227.1 77.8936L228.8 76.84ZM235.52 76.84H237.52V74.84H235.52V76.84ZM235.52 137V139H237.52V137H235.52ZM201.12 137H203.12V25H201.12H199.12V137H201.12ZM201.12 25V27H232.16V25V23H201.12V25ZM232.16 25L230.455 26.0449L275.255 99.1649L276.96 98.12L278.665 97.0751L233.865 23.9551L232.16 25ZM276.96 98.12V96.12H260.64V98.12V100.12H276.96V98.12ZM260.64 98.12L262.359 99.1429L305.879 26.0229L304.16 25L302.441 23.9771L258.921 97.0971L260.64 98.12ZM304.16 25V27H335.2V25V23H304.16V25ZM335.2 25L333.2 25.0057L333.52 137.006L335.52 137L337.52 136.994L337.2 24.9943L335.2 25ZM335.52 137V135H301.12V137V139H335.52V137ZM301.12 137L303.12 136.989L302.8 76.8294L300.8 76.84L298.8 76.8506L299.12 137.011L301.12 137ZM300.8 76.84V78.84H306.24V76.84V74.84H300.8V76.84ZM306.24 76.84L304.521 75.8183L274.761 125.898L276.48 126.92L278.199 127.942L307.959 77.8617L306.24 76.84ZM276.48 126.92V124.92H259.84V126.92V128.92H276.48V126.92ZM259.84 126.92L261.54 125.866L230.5 75.7864L228.8 76.84L227.1 77.8936L258.14 127.974L259.84 126.92ZM228.8 76.84V78.84H235.52V76.84V74.84H228.8V76.84ZM235.52 76.84H233.52V137H235.52H237.52V76.84H235.52ZM235.52 137V135H201.12V137V139H235.52V137ZM420.336 66.6V64.6H418.336V66.6H420.336ZM470.256 66.6H472.256V64.6H470.256V66.6ZM470.256 93.8V95.8H472.256V93.8H470.256ZM420.336 93.8H418.336V95.8H420.336V93.8ZM422.896 108.52H420.896V110.52H422.896V108.52ZM478.896 108.52H480.896V106.52H478.896V108.52ZM478.896 137V139H480.896V137H478.896ZM385.776 137H383.776V139H385.776V137ZM385.776 25V23H383.776V25H385.776ZM476.816 25H478.816V23H476.816V25ZM476.816 53.48V55.48H478.816V53.48H476.816ZM422.896 53.48V51.48H420.896V53.48H422.896ZM420.336 66.6V68.6H470.256V66.6V64.6H420.336V66.6ZM470.256 66.6H468.256V93.8H470.256H472.256V66.6H470.256ZM470.256 93.8V91.8H420.336V93.8V95.8H470.256V93.8ZM420.336 93.8H422.336V66.6H420.336H418.336V93.8H420.336ZM422.896 108.52V110.52H478.896V108.52V106.52H422.896V108.52ZM478.896 108.52H476.896V137H478.896H480.896V108.52H478.896ZM478.896 137V135H385.776V137V139H478.896V137ZM385.776 137H387.776V25H385.776H383.776V137H385.776ZM385.776 25V27H476.816V25V23H385.776V25ZM476.816 25H474.816V53.48H476.816H478.816V25H476.816ZM476.816 53.48V51.48H422.896V53.48V55.48H476.816V53.48ZM422.896 53.48H420.896V108.52H422.896H424.896V53.48H422.896ZM538.872 125.64L537.482 127.078L538.872 125.64ZM524.473 25V23H522.473V25H524.473ZM562.233 25H564.233V23H562.233V25ZM566.872 103.72L565.351 105.018L565.36 105.029L565.37 105.04L566.872 103.72ZM591.833 103.72L590.311 102.422L590.307 102.426L591.833 103.72ZM596.473 25V23H594.473V25H596.473ZM633.592 25H635.592V23H633.592V25ZM619.193 125.64L617.802 124.202L619.193 125.64ZM579.033 139.56V137.56C562.223 137.56 549.392 133.027 540.263 124.202L538.872 125.64L537.482 127.078C547.553 136.813 561.495 141.56 579.033 141.56V139.56ZM538.872 125.64L540.263 124.202C531.146 115.39 526.473 102.951 526.473 86.6H524.473H522.473C522.473 103.743 527.399 117.33 537.482 127.078L538.872 125.64ZM524.473 86.6H526.473V25H524.473H522.473V86.6H524.473ZM524.473 25V27H562.233V25V23H524.473V25ZM562.233 25H560.233V85.48H562.233H564.233V25H562.233ZM562.233 85.48H560.233C560.233 94.1524 561.784 100.836 565.351 105.018L566.872 103.72L568.394 102.422C565.774 99.3502 564.233 93.8743 564.233 85.48H562.233ZM566.872 103.72L565.37 105.04C568.89 109.045 573.625 111 579.353 111V109V107C574.627 107 571.042 105.435 568.375 102.4L566.872 103.72ZM579.353 109V111C585.172 111 589.93 109.054 593.358 105.014L591.833 103.72L590.307 102.426C587.762 105.426 584.2 107 579.353 107V109ZM591.833 103.72L593.354 105.018C596.921 100.836 598.473 94.1524 598.473 85.48H596.473H594.473C594.473 93.8743 592.931 99.3502 590.311 102.422L591.833 103.72ZM596.473 85.48H598.473V25H596.473H594.473V85.48H596.473ZM596.473 25V27H633.592V25V23H596.473V25ZM633.592 25H631.592V86.6H633.592H635.592V25H633.592ZM633.592 86.6H631.592C631.592 102.951 626.919 115.39 617.802 124.202L619.193 125.64L620.583 127.078C630.666 117.33 635.592 103.743 635.592 86.6H633.592ZM619.193 125.64L617.802 124.202C608.673 133.027 595.842 137.56 579.033 137.56V139.56V141.56C596.57 141.56 610.512 136.813 620.583 127.078L619.193 125.64ZM697.461 136.36L697.935 134.417L697.461 136.36ZM675.861 128.04L674.032 127.232L673.32 128.842L674.828 129.752L675.861 128.04ZM688.021 100.52L689.025 98.7899L687.094 97.6701L686.192 99.7117L688.021 100.52ZM705.781 108.04L705.215 109.958L705.234 109.964L705.252 109.969L705.781 108.04ZM733.461 110.12L733.873 112.077L733.91 112.069L733.946 112.06L733.461 110.12ZM738.101 108.04L739.43 109.535L739.474 109.496L739.515 109.454L738.101 108.04ZM736.181 99.88L735.253 101.652L736.181 99.88ZM727.221 97L726.763 98.9468L726.796 98.9546L726.829 98.9612L727.221 97ZM715.221 94.44L714.792 96.3935L714.815 96.3985L714.838 96.403L715.221 94.44ZM701.941 90.76L701.295 92.6527L701.302 92.6551L701.309 92.6574L701.941 90.76ZM689.781 84.84L688.661 86.4966L688.672 86.5041L688.683 86.5114L689.781 84.84ZM680.981 75.24L679.231 76.2074L679.236 76.2173L679.242 76.2272L680.981 75.24ZM683.381 41.32L681.731 40.1895L681.727 40.1962L683.381 41.32ZM700.821 27.56L700.018 25.7282L700.009 25.7324L700.821 27.56ZM752.181 24.84L751.756 26.7943L752.181 24.84ZM772.021 32.2L773.868 32.9669L774.549 31.3287L773.003 30.4577L772.021 32.2ZM760.661 59.56L759.767 61.3489L761.686 62.3083L762.508 60.3269L760.661 59.56ZM744.501 53.32L743.978 55.2505L743.988 55.2531L744.501 53.32ZM720.821 52.2L720.247 50.2843L720.821 52.2ZM716.181 54.76L714.695 53.4221L714.656 53.4652L714.62 53.5106L716.181 54.76ZM718.261 62.92L717.333 64.6917L717.367 64.7093L717.401 64.7257L718.261 62.92ZM727.061 65.64L726.658 67.5989L726.669 67.6012L727.061 65.64ZM739.221 68.04L738.838 70.003L738.847 70.0047L739.221 68.04ZM752.501 71.56L751.855 73.4527L752.501 71.56ZM764.501 77.48L763.381 79.1366L763.392 79.1441L763.403 79.1514L764.501 77.48ZM773.461 87.08L771.722 88.0672L773.461 87.08ZM770.901 120.68L769.251 119.55L769.247 119.556L770.901 120.68ZM753.621 134.44L754.434 136.268L754.444 136.263L754.455 136.258L753.621 134.44ZM724.661 139.56V137.56C715.427 137.56 706.52 136.511 697.935 134.417L697.461 136.36L696.987 138.303C705.896 140.476 715.122 141.56 724.661 141.56V139.56ZM697.461 136.36L697.935 134.417C689.319 132.316 682.324 129.606 676.895 126.328L675.861 128.04L674.828 129.752C680.705 133.301 688.11 136.138 696.987 138.303L697.461 136.36ZM675.861 128.04L677.691 128.848L689.851 101.328L688.021 100.52L686.192 99.7117L674.032 127.232L675.861 128.04ZM688.021 100.52L687.018 102.25C692.502 105.431 698.571 107.998 705.215 109.958L705.781 108.04L706.347 106.122C699.978 104.242 694.207 101.796 689.025 98.7899L688.021 100.52ZM705.781 108.04L705.252 109.969C712.02 111.824 718.598 112.76 724.981 112.76V110.76V108.76C718.991 108.76 712.77 107.882 706.31 106.111L705.781 108.04ZM724.981 110.76V112.76C728.66 112.76 731.647 112.546 733.873 112.077L733.461 110.12L733.049 108.163C731.222 108.547 728.556 108.76 724.981 108.76V110.76ZM733.461 110.12L733.946 112.06C736.199 111.497 738.114 110.705 739.43 109.535L738.101 108.04L736.773 106.545C736.168 107.082 734.99 107.676 732.976 108.18L733.461 110.12ZM738.101 108.04L739.515 109.454C740.825 108.144 741.541 106.525 741.541 104.68H739.541H737.541C737.541 105.395 737.297 106.016 736.687 106.626L738.101 108.04ZM739.541 104.68H741.541C741.541 101.713 739.815 99.5254 737.109 98.1083L736.181 99.88L735.253 101.652C737.028 102.581 737.541 103.593 737.541 104.68H739.541ZM736.181 99.88L737.109 98.1083C734.638 96.8141 731.449 95.806 727.613 95.0388L727.221 97L726.829 98.9612C730.46 99.6873 733.244 100.599 735.253 101.652L736.181 99.88ZM727.221 97L727.679 95.0532C724.023 94.193 719.998 93.3343 715.604 92.477L715.221 94.44L714.838 96.403C719.191 97.2523 723.166 98.1004 726.763 98.9468L727.221 97ZM715.221 94.44L715.65 92.4865C711.349 91.5424 706.99 90.3349 702.574 88.8626L701.941 90.76L701.309 92.6574C705.852 94.1718 710.347 95.4176 714.792 96.3935L715.221 94.44ZM701.941 90.76L702.588 88.8673C698.368 87.4265 694.467 85.5263 690.88 83.1686L689.781 84.84L688.683 86.5114C692.562 89.0604 696.768 91.1068 701.295 92.6527L701.941 90.76ZM689.781 84.84L690.902 83.1834C687.54 80.909 684.814 77.9417 682.721 74.2528L680.981 75.24L679.242 76.2272C681.628 80.4316 684.77 83.8643 688.661 86.4966L689.781 84.84ZM680.981 75.24L682.732 74.2726C680.696 70.5891 679.621 65.9305 679.621 60.2H677.621H675.621C675.621 66.4162 676.786 71.7842 679.231 76.2074L680.981 75.24ZM677.621 60.2H679.621C679.621 53.6612 681.424 47.7605 685.036 42.4438L683.381 41.32L681.727 40.1962C677.658 46.1862 675.621 52.8721 675.621 60.2H677.621ZM683.381 41.32L685.031 42.4505C688.729 37.0529 694.223 32.6814 701.634 29.3876L700.821 27.56L700.009 25.7324C692.06 29.2653 685.926 34.0671 681.731 40.1895L683.381 41.32ZM700.821 27.56L701.624 29.3917C709.085 26.1213 718.445 24.44 729.781 24.44V22.44V20.44C718.077 20.44 708.131 22.172 700.018 25.7283L700.821 27.56ZM729.781 22.44V24.44C737.213 24.44 744.537 25.2249 751.756 26.7943L752.181 24.84L752.606 22.8856C745.106 21.2551 737.497 20.44 729.781 20.44V22.44ZM752.181 24.84L751.756 26.7943C758.944 28.3569 765.366 30.7446 771.039 33.9423L772.021 32.2L773.003 30.4577C766.943 27.0421 760.139 24.5231 752.606 22.8856L752.181 24.84ZM772.021 32.2L770.174 31.4331L758.814 58.7931L760.661 59.56L762.508 60.3269L773.868 32.9669L772.021 32.2ZM760.661 59.56L761.556 57.7711C755.904 54.9455 750.39 52.8132 745.014 51.3869L744.501 53.32L743.988 55.2531C749.066 56.6002 754.325 58.6278 759.767 61.3489L760.661 59.56ZM744.501 53.32L745.024 51.3895C739.747 49.9604 734.558 49.24 729.461 49.24V51.24V53.24C734.178 53.24 739.015 53.9062 743.978 55.2505L744.501 53.32ZM729.461 51.24V49.24C725.746 49.24 722.646 49.5645 720.247 50.2843L720.821 52.2L721.396 54.1156C723.263 53.5555 725.923 53.24 729.461 53.24V51.24ZM720.821 52.2L720.247 50.2843C717.94 50.9763 716 51.9718 714.695 53.4221L716.181 54.76L717.668 56.0979C718.283 55.4149 719.436 54.7037 721.396 54.1156L720.821 52.2ZM716.181 54.76L714.62 53.5106C713.503 54.9063 712.901 56.5142 712.901 58.28H714.901H716.901C716.901 57.4858 717.153 56.747 717.743 56.0094L716.181 54.76ZM714.901 58.28H712.901C712.901 61.1836 714.678 63.3006 717.333 64.6917L718.261 62.92L719.189 61.1483C717.365 60.1927 716.901 59.2164 716.901 58.28H714.901ZM718.261 62.92L717.401 64.7257C719.839 65.8866 722.943 66.834 726.658 67.5989L727.061 65.64L727.465 63.6811C723.926 62.9526 721.163 62.0867 719.121 61.1143L718.261 62.92ZM727.061 65.64L726.669 67.6012C730.406 68.3485 734.462 69.1491 738.838 70.003L739.221 68.04L739.604 66.077C735.234 65.2242 731.183 64.4248 727.453 63.6788L727.061 65.64ZM739.221 68.04L738.847 70.0047C743.234 70.8402 747.569 71.9893 751.855 73.4527L752.501 71.56L753.148 69.6673C748.687 68.144 744.169 66.9465 739.595 66.0753L739.221 68.04ZM752.501 71.56L751.855 73.4527C756.07 74.8919 759.909 76.788 763.381 79.1366L764.501 77.48L765.622 75.8234C761.84 73.2653 757.679 71.2148 753.148 69.6673L752.501 71.56ZM764.501 77.48L763.403 79.1514C766.867 81.4278 769.636 84.3916 771.722 88.0672L773.461 87.08L775.201 86.0928C772.807 81.875 769.602 78.4388 765.6 75.8086L764.501 77.48ZM773.461 87.08L771.722 88.0672C773.748 91.6372 774.821 96.1805 774.821 101.8H776.821H778.821C778.821 95.6861 777.654 90.4161 775.201 86.0928L773.461 87.08ZM776.821 101.8H774.821C774.821 108.213 772.976 114.114 769.251 119.55L770.901 120.68L772.551 121.81C776.72 115.726 778.821 109.04 778.821 101.8H776.821ZM770.901 120.68L769.247 119.556C765.655 124.844 760.214 129.218 752.788 132.622L753.621 134.44L754.455 136.258C762.388 132.622 768.467 127.823 772.556 121.804L770.901 120.68ZM753.621 134.44L752.809 132.612C745.463 135.877 736.109 137.56 724.661 137.56V139.56V141.56C736.467 141.56 746.42 139.829 754.434 136.268L753.621 134.44Z" fill="#F2F2F2" mask="url(#path-2-outside-1_2085_2)"/>
</svg>
