<svg width="249" height="147" viewBox="0 0 249 147" fill="none" xmlns="http://www.w3.org/2000/svg">
<path d="M209.735 89.0734H39.9468C40.1169 90.0221 40.5468 90.922 41.2006 91.6979C42.6036 93.7028 42.0663 93.4189 44.5938 93.4189H107.85C108.337 93.3974 108.825 93.3974 109.313 93.4189C109.975 93.477 110.59 93.7411 111.044 94.1621C111.498 94.5831 111.76 95.1324 111.78 95.7077C111.78 96.2623 111.548 96.798 111.128 97.2168C110.707 97.6356 110.127 97.9094 109.492 97.988C109.01 98.0383 108.524 98.0585 108.039 98.0483C82.8307 98.0483 57.6457 98.0483 32.4838 98.0483C24.3542 98.0483 18.0455 95.0538 13.5179 89.1853C9.63811 84.1664 6.24338 78.8794 3.36825 73.3781C1.61192 70.1132 0.692067 66.5586 0.671631 62.9577C0.671631 48.2606 0.671631 33.5635 0.671631 18.8664C0.671631 11.862 4.32351 6.56143 11.2392 2.9732C13.8897 1.59854 16.8894 0.806734 19.9759 0.667109C20.9709 0.624085 22.0257 0.598256 23.0506 0.598256C90.9405 0.598256 158.83 0.598256 226.72 0.598256C231.086 0.453652 235.403 1.42972 239.129 3.40345C241.594 4.71868 243.706 6.47362 245.324 8.55105C246.942 10.6285 248.029 12.9806 248.512 15.4502C248.782 16.693 248.919 17.9547 248.92 19.2192C248.92 33.7098 248.92 48.1917 248.92 62.6823C248.905 66.4092 247.962 70.0896 246.154 73.4728C243.236 79.0997 239.75 84.4929 235.736 89.5897C233.843 92.119 231.269 94.2133 228.234 95.6927C225.199 97.172 221.794 97.9921 218.312 98.0827C217.675 98.0827 217.048 98.0827 216.411 98.0827H139.553C138.918 98.1031 138.283 98.0801 137.652 98.0139C137.016 97.9374 136.435 97.6589 136.023 97.2326C135.611 96.8064 135.397 96.2628 135.423 95.7077C135.428 95.1524 135.668 94.6178 136.097 94.2043C136.525 93.7908 137.114 93.5268 137.752 93.4619C138.385 93.4317 139.019 93.4317 139.652 93.4619H205.247C205.638 93.4878 206.03 93.4878 206.421 93.4619C206.739 93.4189 207.177 93.3586 207.326 93.1607C208.396 91.9287 209.211 90.5459 209.735 89.0734ZM131.652 42.0565H241.169C241.557 42.0565 241.955 42.0565 242.343 42.0565C243.278 42.0048 243.408 41.893 243.467 41.0755C243.467 40.8604 243.467 40.6539 243.467 40.4388C243.467 33.4688 243.467 26.5017 243.467 19.5376C243.475 18.7328 243.429 17.9283 243.328 17.1282C243.09 15.1651 242.339 13.2743 241.133 11.5988C239.926 9.92332 238.295 8.50683 236.362 7.45633C233.494 5.89757 230.145 5.12936 226.76 5.25349C158.724 5.25349 90.6917 5.25349 22.6625 5.25349C22.0755 5.25349 21.4884 5.25349 20.9013 5.25349C18.0537 5.34181 15.2905 6.11276 12.9201 7.48028C10.5498 8.84779 8.6656 10.7581 7.47786 12.9979C6.43422 14.9167 5.93286 17.0225 6.01512 19.1417C6.01512 31.1369 6.01512 43.1321 6.01512 55.1273C6.01028 55.6768 6.05017 56.226 6.13452 56.7708C6.34899 58.4817 7.12408 60.1042 8.36862 61.4472C9.61316 62.7902 11.2754 63.7978 13.1597 64.3516C14.7907 64.8033 16.5058 64.9843 18.2146 64.8852C89.1958 64.8852 160.204 64.8852 231.238 64.8852C232.018 64.927 232.801 64.9039 233.576 64.8163C234.87 64.6677 236.137 64.3786 237.348 63.9558C239.189 63.239 240.747 62.0696 241.826 60.5931C242.905 59.1167 243.459 57.3984 243.417 55.6521C243.487 53.3288 243.417 51.0055 243.417 48.6822C243.417 46.6859 243.597 46.7547 241.189 46.7547H158.956C158.665 46.7677 158.372 46.7677 158.081 46.7547C157.741 46.7143 157.395 46.7705 157.095 46.9148C156.796 47.0591 156.558 47.2838 156.419 47.555C155.573 48.7941 154.668 49.9987 153.802 51.2206C152.388 53.3625 150.322 55.1285 147.83 56.3269C145.337 57.5253 142.512 58.1103 139.662 58.0185H121.94C117.701 58.0185 113.452 58.0615 109.203 58.0185C106.675 58.0395 104.181 57.5137 101.948 56.4887C99.7148 55.4638 97.8134 53.9723 96.4167 52.15C95.2525 50.6957 94.2076 49.1641 93.1429 47.6496C92.9953 47.3597 92.7427 47.119 92.4233 46.9638C92.1039 46.8086 91.7349 46.7474 91.3717 46.7891C90.9342 46.8107 90.4957 46.8107 90.0582 46.7891H22.563C21.9291 46.8136 21.294 46.7992 20.6625 46.7461C19.9993 46.6842 19.3865 46.4112 18.9433 45.9802C18.5 45.5491 18.258 44.991 18.2644 44.4142C18.259 43.8366 18.5044 43.2783 18.9521 42.8497C19.3999 42.4211 20.0173 42.1533 20.6824 42.0995C21.2656 42.0693 21.8504 42.0693 22.4337 42.0995L131.652 42.0565ZM6.62212 66.7094C6.63365 67.0385 6.67356 67.3664 6.74153 67.6903C6.98558 68.5068 7.28121 69.3112 7.62712 70.0997C10.5746 76.1596 14.2641 81.9291 18.6325 87.3094C19.5151 88.3719 20.5518 89.332 21.7172 90.1662C25.6975 93.0574 30.4539 93.677 35.479 93.2726C35.5486 93.2726 35.5984 93.1521 35.7178 93.0402C35.6542 92.8585 35.5778 92.6803 35.4889 92.5067C33.9115 89.7892 32.6964 86.9255 31.8669 83.9707C31.3372 82.3211 31.5575 80.5587 32.4827 79.0451C33.4078 77.5314 34.9676 76.3813 36.8422 75.8305C38.0995 75.5025 39.4104 75.3543 40.723 75.3917C96.7384 75.3917 152.754 75.3917 208.769 75.3917C209.356 75.3917 209.944 75.3917 210.531 75.3917C211.704 75.4473 212.848 75.7298 213.879 76.2183C214.909 76.7069 215.8 77.389 216.486 78.2146C217.171 79.0402 217.634 79.9881 217.84 80.9887C218.046 81.9894 217.989 83.0172 217.675 83.9965C216.849 86.8648 215.678 89.6507 214.182 92.3088C214.024 92.6453 213.891 92.9902 213.784 93.3414C215.217 93.3414 216.431 93.3414 217.645 93.3414C220.32 93.334 222.95 92.757 225.306 91.6614C227.661 90.5659 229.667 88.9854 231.148 87.0599C234.292 83.1376 237.077 79.009 239.477 74.7119C240.591 72.6983 241.547 70.616 242.522 68.5508C242.733 67.9381 242.879 67.3103 242.96 66.675C242.373 66.9417 242.064 67.045 241.796 67.1999C239.015 68.7975 235.74 69.6313 232.402 69.592H17.1698C13.7811 69.6404 10.4582 68.7807 7.65697 67.131C7.41815 67.0536 7.15946 66.9589 6.62212 66.7094ZM124.676 84.4182H210.63C211.874 84.4182 211.934 84.3493 212.232 83.3512C212.232 83.1877 212.322 83.0242 212.362 82.8521C212.474 82.5253 212.494 82.1801 212.422 81.845C212.35 81.5099 212.186 81.1945 211.945 80.9248C211.704 80.655 211.393 80.4386 211.036 80.2935C210.679 80.1483 210.288 80.0786 209.894 80.0899C209.605 80.0899 209.307 80.0899 209.018 80.0899H40.4841C40.0454 80.0726 39.6058 80.0899 39.1707 80.1415C38.5325 80.2146 37.9532 80.5021 37.5584 80.9417C37.1635 81.3814 36.9849 81.9379 37.0611 82.4907C37.2502 84.2117 37.5089 84.4268 39.4592 84.4268H124.676V84.4182ZM150.399 46.9612C148.289 46.6428 100.327 46.7375 99.3322 47.0215C99.3322 47.0989 99.2825 47.2022 99.3322 47.2624C101.571 51.1174 104.905 53.3976 110.159 53.3546C119.92 53.2686 129.682 53.3546 139.433 53.3546C140.41 53.3664 141.386 53.3002 142.349 53.1567C146.329 52.4683 148.598 50.0676 150.399 46.9612Z" fill="black"/>
<path d="M209.735 89.0734H39.9468C40.1169 90.0221 40.5468 90.922 41.2006 91.6979C42.6036 93.7028 42.0663 93.4189 44.5938 93.4189H107.85C108.337 93.3974 108.825 93.3974 109.313 93.4189C109.975 93.477 110.59 93.7411 111.044 94.1621C111.498 94.5831 111.76 95.1324 111.78 95.7077C111.78 96.2623 111.548 96.798 111.128 97.2168C110.707 97.6356 110.127 97.9094 109.492 97.988C109.01 98.0383 108.524 98.0585 108.039 98.0483C82.8307 98.0483 57.6457 98.0483 32.4838 98.0483C24.3542 98.0483 18.0455 95.0538 13.5179 89.1853C9.63811 84.1664 6.24338 78.8794 3.36825 73.3781C1.61192 70.1132 0.692067 66.5586 0.671631 62.9577C0.671631 48.2606 0.671631 33.5635 0.671631 18.8664C0.671631 11.862 4.32351 6.56143 11.2392 2.9732C13.8897 1.59854 16.8894 0.806734 19.9759 0.667109C20.9709 0.624085 22.0257 0.598256 23.0506 0.598256C90.9405 0.598256 158.83 0.598256 226.72 0.598256C231.086 0.453652 235.403 1.42972 239.129 3.40345C241.594 4.71868 243.706 6.47362 245.324 8.55105C246.942 10.6285 248.029 12.9806 248.512 15.4502C248.782 16.693 248.919 17.9547 248.92 19.2192C248.92 33.7098 248.92 48.1917 248.92 62.6823C248.905 66.4092 247.962 70.0896 246.154 73.4728C243.236 79.0997 239.75 84.4929 235.736 89.5897C233.843 92.119 231.269 94.2133 228.234 95.6927C225.199 97.172 221.794 97.9921 218.312 98.0827C217.675 98.0827 217.048 98.0827 216.411 98.0827H139.553C138.918 98.1031 138.283 98.0801 137.652 98.0139C137.016 97.9374 136.435 97.6589 136.023 97.2326C135.611 96.8064 135.397 96.2628 135.423 95.7077C135.428 95.1524 135.668 94.6178 136.097 94.2043C136.525 93.7908 137.114 93.5268 137.752 93.4619C138.385 93.4317 139.019 93.4317 139.652 93.4619H205.247C205.638 93.4878 206.03 93.4878 206.421 93.4619C206.739 93.4189 207.177 93.3586 207.326 93.1607C208.396 91.9287 209.211 90.5459 209.735 89.0734ZM131.652 42.0565H241.169C241.557 42.0565 241.955 42.0565 242.343 42.0565C243.278 42.0048 243.408 41.893 243.467 41.0755C243.467 40.8604 243.467 40.6539 243.467 40.4388C243.467 33.4688 243.467 26.5017 243.467 19.5376C243.475 18.7328 243.429 17.9283 243.328 17.1282C243.09 15.1651 242.339 13.2743 241.133 11.5988C239.926 9.92332 238.295 8.50683 236.362 7.45633C233.494 5.89757 230.145 5.12936 226.76 5.25349C158.724 5.25349 90.6917 5.25349 22.6625 5.25349C22.0755 5.25349 21.4884 5.25349 20.9013 5.25349C18.0537 5.34181 15.2905 6.11276 12.9201 7.48028C10.5498 8.84779 8.6656 10.7581 7.47786 12.9979C6.43422 14.9167 5.93286 17.0225 6.01512 19.1417C6.01512 31.1369 6.01512 43.1321 6.01512 55.1273C6.01028 55.6768 6.05017 56.226 6.13452 56.7708C6.34899 58.4817 7.12408 60.1042 8.36862 61.4472C9.61316 62.7902 11.2754 63.7978 13.1597 64.3516C14.7907 64.8033 16.5058 64.9843 18.2146 64.8852C89.1958 64.8852 160.204 64.8852 231.238 64.8852C232.018 64.927 232.801 64.9039 233.576 64.8163C234.87 64.6677 236.137 64.3786 237.348 63.9558C239.189 63.239 240.747 62.0696 241.826 60.5931C242.905 59.1167 243.459 57.3984 243.417 55.6521C243.487 53.3288 243.417 51.0055 243.417 48.6822C243.417 46.6859 243.597 46.7547 241.189 46.7547H158.956C158.665 46.7677 158.372 46.7677 158.081 46.7547C157.741 46.7143 157.395 46.7705 157.095 46.9148C156.796 47.0591 156.558 47.2838 156.419 47.555C155.573 48.7941 154.668 49.9987 153.802 51.2206C152.388 53.3625 150.322 55.1285 147.83 56.3269C145.337 57.5253 142.512 58.1103 139.662 58.0185H121.94C117.701 58.0185 113.452 58.0615 109.203 58.0185C106.675 58.0395 104.181 57.5137 101.948 56.4887C99.7148 55.4638 97.8134 53.9723 96.4167 52.15C95.2525 50.6957 94.2076 49.1641 93.1429 47.6496C92.9953 47.3597 92.7427 47.119 92.4233 46.9638C92.1039 46.8086 91.7349 46.7474 91.3717 46.7891C90.9342 46.8107 90.4957 46.8107 90.0582 46.7891H22.563C21.9291 46.8136 21.294 46.7992 20.6625 46.7461C19.9993 46.6842 19.3865 46.4112 18.9433 45.9802C18.5 45.5491 18.258 44.991 18.2644 44.4142C18.259 43.8366 18.5044 43.2783 18.9521 42.8497C19.3999 42.4211 20.0173 42.1533 20.6824 42.0995C21.2656 42.0693 21.8504 42.0693 22.4337 42.0995L131.652 42.0565ZM6.62212 66.7094C6.63365 67.0385 6.67356 67.3664 6.74153 67.6903C6.98558 68.5068 7.28121 69.3112 7.62712 70.0997C10.5746 76.1596 14.2641 81.9291 18.6325 87.3094C19.5151 88.3719 20.5518 89.332 21.7172 90.1662C25.6975 93.0574 30.4539 93.677 35.479 93.2726C35.5486 93.2726 35.5984 93.1521 35.7178 93.0402C35.6542 92.8585 35.5778 92.6803 35.4889 92.5067C33.9115 89.7892 32.6964 86.9255 31.8669 83.9707C31.3372 82.3211 31.5575 80.5587 32.4827 79.0451C33.4078 77.5314 34.9676 76.3813 36.8422 75.8305C38.0995 75.5025 39.4104 75.3543 40.723 75.3917C96.7384 75.3917 152.754 75.3917 208.769 75.3917C209.356 75.3917 209.944 75.3917 210.531 75.3917C211.704 75.4473 212.848 75.7298 213.879 76.2183C214.909 76.7069 215.8 77.389 216.486 78.2146C217.171 79.0402 217.634 79.9881 217.84 80.9887C218.046 81.9894 217.989 83.0172 217.675 83.9965C216.849 86.8648 215.678 89.6507 214.182 92.3088C214.024 92.6453 213.891 92.9902 213.784 93.3414C215.217 93.3414 216.431 93.3414 217.645 93.3414C220.32 93.334 222.95 92.757 225.306 91.6614C227.661 90.5659 229.667 88.9854 231.148 87.0599C234.292 83.1376 237.077 79.009 239.477 74.7119C240.591 72.6983 241.547 70.616 242.522 68.5508C242.733 67.9381 242.879 67.3103 242.96 66.675C242.373 66.9417 242.064 67.045 241.796 67.1999C239.015 68.7975 235.74 69.6313 232.402 69.592H17.1698C13.7811 69.6404 10.4582 68.7807 7.65697 67.131C7.41815 67.0536 7.15946 66.9589 6.62212 66.7094ZM124.676 84.4182H210.63C211.874 84.4182 211.934 84.3493 212.232 83.3512C212.232 83.1877 212.322 83.0242 212.362 82.8521C212.474 82.5253 212.494 82.1801 212.422 81.845C212.35 81.5099 212.186 81.1945 211.945 80.9248C211.704 80.655 211.393 80.4386 211.036 80.2935C210.679 80.1483 210.288 80.0786 209.894 80.0899C209.605 80.0899 209.307 80.0899 209.018 80.0899H40.4841C40.0454 80.0726 39.6058 80.0899 39.1707 80.1415C38.5325 80.2146 37.9532 80.5021 37.5584 80.9417C37.1635 81.3814 36.9849 81.9379 37.0611 82.4907C37.2502 84.2117 37.5089 84.4268 39.4592 84.4268H124.676V84.4182ZM150.399 46.9612C148.289 46.6428 100.327 46.7375 99.3322 47.0215C99.3322 47.0989 99.2825 47.2022 99.3322 47.2624C101.571 51.1174 104.905 53.3976 110.159 53.3546C119.92 53.2686 129.682 53.3546 139.433 53.3546C140.41 53.3664 141.386 53.3002 142.349 53.1567C146.329 52.4683 148.598 50.0676 150.399 46.9612Z" fill="url(#paint0_linear_2009_58)"/>
<path d="M122.695 93.3929C123.087 93.3915 123.48 93.4116 123.869 93.4531C124.471 93.5585 125.011 93.8406 125.399 94.2515C125.788 94.6625 125.999 95.177 125.999 95.7076C126.027 96.2399 125.831 96.7632 125.447 97.1796C125.062 97.596 124.516 97.8772 123.909 97.9707C123.25 98.0575 122.582 98.0748 121.919 98.0223C121.228 97.9934 120.577 97.7345 120.102 97.2998C119.627 96.8651 119.365 96.2884 119.371 95.6904C119.408 95.0943 119.698 94.531 120.187 94.1097C120.676 93.6884 121.329 93.4391 122.018 93.4101H122.745L122.695 93.3929Z" fill="black"/>
<path d="M122.695 93.3929C123.087 93.3915 123.48 93.4116 123.869 93.4531C124.471 93.5585 125.011 93.8406 125.399 94.2515C125.788 94.6625 125.999 95.177 125.999 95.7076C126.027 96.2399 125.831 96.7632 125.447 97.1796C125.062 97.596 124.516 97.8772 123.909 97.9707C123.25 98.0575 122.582 98.0748 121.919 98.0223C121.228 97.9934 120.577 97.7345 120.102 97.2998C119.627 96.8651 119.365 96.2884 119.371 95.6904C119.408 95.0943 119.698 94.531 120.187 94.1097C120.676 93.6884 121.329 93.4391 122.018 93.4101H122.745L122.695 93.3929Z" fill="url(#paint1_linear_2009_58)"/>
<path d="M222.689 58.0184C221.975 57.9938 221.302 57.7254 220.817 57.2721C220.332 56.8188 220.075 56.2176 220.102 55.6005C220.112 55.2945 220.193 54.9935 220.34 54.7151C220.487 54.4367 220.697 54.1866 220.957 53.9796C221.218 53.7726 221.524 53.6129 221.857 53.51C222.191 53.4071 222.545 53.363 222.898 53.3804C223.589 53.4094 224.239 53.6701 224.711 54.1071C225.183 54.5442 225.439 55.1231 225.425 55.7209C225.42 56.0272 225.345 56.3295 225.205 56.6107C225.065 56.8919 224.862 57.1465 224.607 57.3598C224.353 57.5732 224.053 57.7412 223.724 57.8542C223.395 57.9672 223.043 58.023 222.689 58.0184Z" fill="black"/>
<path d="M222.689 58.0184C221.975 57.9938 221.302 57.7254 220.817 57.2721C220.332 56.8188 220.075 56.2176 220.102 55.6005C220.112 55.2945 220.193 54.9935 220.34 54.7151C220.487 54.4367 220.697 54.1866 220.957 53.9796C221.218 53.7726 221.524 53.6129 221.857 53.51C222.191 53.4071 222.545 53.363 222.898 53.3804C223.589 53.4094 224.239 53.6701 224.711 54.1071C225.183 54.5442 225.439 55.1231 225.425 55.7209C225.42 56.0272 225.345 56.3295 225.205 56.6107C225.065 56.8919 224.862 57.1465 224.607 57.3598C224.353 57.5732 224.053 57.7412 223.724 57.8542C223.395 57.9672 223.043 58.023 222.689 58.0184Z" fill="url(#paint2_linear_2009_58)"/>
<path d="M210.579 55.6866C210.566 56.3052 210.274 56.8948 209.764 57.3291C209.254 57.7634 208.568 58.0078 207.853 58.0099C207.138 57.9834 206.463 57.7203 205.966 57.275C205.47 56.8297 205.19 56.2363 205.186 55.6178C205.214 55.0201 205.504 54.4541 205.998 54.0352C206.491 53.6163 207.151 53.376 207.843 53.3633C208.561 53.361 209.251 53.6036 209.763 54.0386C210.276 54.4736 210.569 55.0658 210.579 55.6866Z" fill="black"/>
<path d="M210.579 55.6866C210.566 56.3052 210.274 56.8948 209.764 57.3291C209.254 57.7634 208.568 58.0078 207.853 58.0099C207.138 57.9834 206.463 57.7203 205.966 57.275C205.47 56.8297 205.19 56.2363 205.186 55.6178C205.214 55.0201 205.504 54.4541 205.998 54.0352C206.491 53.6163 207.151 53.376 207.843 53.3633C208.561 53.361 209.251 53.6036 209.763 54.0386C210.276 54.4736 210.569 55.0658 210.579 55.6866Z" fill="url(#paint3_linear_2009_58)"/>
<mask id="path-5-outside-1_2009_58" maskUnits="userSpaceOnUse" x="85.6897" y="66.7651" width="79" height="80" fill="black">
<rect fill="white" x="85.6897" y="66.7651" width="79" height="80"/>
<path d="M131.995 120.943C130.352 121.96 128.586 122.765 126.74 123.339C126.443 123.432 126.419 123.465 126.417 123.799C126.417 125.19 126.417 126.584 126.417 127.981C126.417 128.106 126.417 128.229 126.417 128.355C126.42 128.542 126.385 128.729 126.313 128.903C126.242 129.076 126.136 129.234 126.001 129.365C125.867 129.496 125.707 129.598 125.532 129.666C125.357 129.733 125.17 129.764 124.982 129.757C121.426 129.739 117.872 129.757 114.318 129.757C113.635 129.757 113.178 129.464 112.973 128.876C112.912 128.674 112.884 128.463 112.892 128.251C112.892 126.797 112.892 125.344 112.892 123.892C112.892 123.463 112.892 123.463 112.467 123.326C111.205 122.92 109.977 122.413 108.796 121.81C108.431 121.623 108.429 121.625 108.136 121.922L105.093 124.882C105.02 124.95 104.949 125.023 104.872 125.089C104.751 125.213 104.607 125.311 104.447 125.378C104.287 125.446 104.116 125.48 103.943 125.48C103.769 125.48 103.598 125.446 103.438 125.378C103.279 125.311 103.134 125.213 103.013 125.089C102.718 124.818 102.441 124.528 102.157 124.246L95.4537 117.556C95.2337 117.369 95.068 117.125 94.974 116.852C94.906 116.635 94.895 116.405 94.9421 116.183C94.9891 115.961 95.0926 115.755 95.2425 115.584C95.3745 115.433 95.5175 115.292 95.6584 115.144L98.5522 112.257C98.8009 112.011 98.8053 112.006 98.6381 111.689C97.9958 110.444 97.4606 109.147 97.0382 107.812C97.014 107.741 96.9832 107.673 96.9392 107.561H96.499C95.0598 107.561 93.6206 107.561 92.1814 107.561C91.9569 107.564 91.7336 107.528 91.5212 107.455C91.299 107.382 91.1032 107.245 90.9581 107.062C90.813 106.878 90.7249 106.656 90.7048 106.423C90.6912 106.258 90.6868 106.093 90.6915 105.928V95.585C90.6886 95.4382 90.693 95.2913 90.7048 95.1449C90.7346 94.8496 90.8654 94.5736 91.0751 94.3635C91.2847 94.1535 91.5604 94.0222 91.8557 93.9917C92.0163 93.9741 92.1814 93.9763 92.342 93.9741H96.9502C97.036 93.7189 97.113 93.4856 97.1922 93.2523C97.58 92.0896 98.0591 90.9594 98.6249 89.8722C98.8097 89.5245 98.8053 89.5201 98.5236 89.2406C97.4864 88.2048 96.4492 87.1705 95.4119 86.1377C95.0312 85.757 94.8243 85.3212 94.9586 84.7843C95.0251 84.5705 95.1262 84.369 95.2579 84.1879C95.3646 84.0495 95.4848 83.922 95.6166 83.8072C97.9889 81.432 100.361 79.0582 102.733 76.6859C102.854 76.5592 102.983 76.4402 103.119 76.3294C103.351 76.1443 103.639 76.0422 103.936 76.0394C104.233 76.0366 104.522 76.1333 104.758 76.314C104.877 76.4033 104.99 76.5011 105.095 76.6067C106.11 77.6102 107.123 78.6159 108.134 79.6238C108.42 79.9055 108.422 79.9099 108.768 79.7316C109.969 79.1127 111.22 78.5974 112.509 78.1912C112.828 78.0921 112.85 78.0525 112.85 77.7048C112.85 76.2634 112.85 74.822 112.85 73.3828C112.84 73.1335 112.872 72.8843 112.944 72.6456C113.016 72.4303 113.147 72.2393 113.321 72.0936C113.495 71.9479 113.706 71.8533 113.93 71.8203C114.127 71.7844 114.327 71.766 114.527 71.7653H124.742C124.889 71.7639 125.036 71.772 125.182 71.7895C125.531 71.8111 125.858 71.968 126.093 72.227C126.328 72.4859 126.453 72.8264 126.441 73.1759C126.454 73.638 126.441 74.1024 126.441 74.5667C126.441 75.6186 126.441 76.6705 126.441 77.7224C126.441 78.0745 126.441 78.0921 126.791 78.1978C128.091 78.6084 129.354 79.1281 130.567 79.7514C130.886 79.9143 130.888 79.9165 131.141 79.6634C132.17 78.6526 133.193 77.6337 134.211 76.6067C134.34 76.4709 134.482 76.3478 134.634 76.2392C134.85 76.096 135.104 76.0228 135.363 76.0295C135.621 76.0362 135.872 76.1225 136.08 76.2766C136.201 76.3653 136.314 76.4639 136.419 76.5715C138.88 79.0318 141.341 81.4936 143.802 83.9568C144.038 84.1697 144.211 84.4439 144.301 84.7491C144.352 84.9306 144.361 85.1211 144.329 85.3067C144.297 85.4924 144.225 85.6687 144.116 85.823C144.007 85.9756 143.884 86.1177 143.749 86.2477C142.759 87.2395 141.767 88.2305 140.774 89.2208C140.668 89.3242 140.573 89.4408 140.483 89.5355C140.804 90.2243 141.143 90.8712 141.41 91.5402C141.676 92.2092 141.951 92.9398 142.186 93.6506C142.286 93.9521 142.334 93.9873 142.666 93.9873C144.108 93.9873 145.547 93.9873 146.986 93.9873C147.209 93.9784 147.431 94.0036 147.646 94.0622C147.906 94.1415 148.135 94.299 148.302 94.5133C148.469 94.7275 148.566 94.988 148.579 95.2593C148.585 95.359 148.585 95.4589 148.579 95.5586C148.579 99.04 148.579 102.522 148.579 106.005C148.582 106.242 148.548 106.478 148.478 106.705C148.406 106.948 148.26 107.163 148.061 107.321C147.861 107.479 147.618 107.571 147.365 107.585C147.14 107.602 146.914 107.606 146.689 107.598H142.682C142.261 107.598 142.272 107.662 142.182 107.955C141.68 109.556 141.008 111.098 140.177 112.556C140.001 112.864 140.001 112.869 140.259 113.126L144.678 117.528C145.45 118.296 146.218 119.068 146.99 119.836C147.145 119.998 147.351 120.101 147.574 120.127C149.655 120.42 151.735 120.727 153.812 121.046C154.27 121.131 154.702 121.319 155.076 121.597C155.871 122.17 156.544 122.895 157.056 123.731C157.729 124.802 158.266 125.952 158.654 127.155C159.274 128.909 159.506 130.776 159.332 132.628C159.236 133.742 158.909 134.824 158.372 135.804C157.983 136.493 157.382 136.757 156.711 136.545C156.365 136.423 156.079 136.173 155.91 135.848C155.254 134.767 154.594 133.691 153.929 132.622C153.706 132.259 153.465 131.908 153.207 131.57C153.032 131.342 152.832 131.134 152.611 130.949C152.418 130.777 152.184 130.655 151.932 130.596C151.68 130.536 151.417 130.541 151.167 130.608C150.139 130.854 149.223 131.44 148.568 132.27C148.245 132.673 148.055 133.168 148.027 133.685C147.994 134.048 148.075 134.413 148.26 134.728C149.041 136.024 149.801 137.329 150.58 138.632C150.672 138.78 150.751 138.937 150.817 139.098C150.888 139.285 150.914 139.486 150.895 139.684C150.876 139.883 150.812 140.075 150.707 140.245C150.602 140.415 150.46 140.558 150.291 140.665C150.122 140.771 149.931 140.838 149.732 140.859C149.235 140.905 148.733 140.883 148.232 140.887C147.869 140.887 147.505 140.887 147.142 140.887C146.803 140.895 146.47 140.789 146.196 140.588C144.354 139.204 142.501 137.833 140.804 136.27C140.433 135.916 140.082 135.542 139.753 135.148C139.418 134.753 139.241 134.248 139.255 133.731C139.238 131.953 139.183 130.177 139.154 128.399C139.154 128.281 139.13 128.165 139.083 128.057C139.035 127.949 138.966 127.853 138.879 127.774C136.669 125.573 134.464 123.372 132.264 121.172C132.176 121.095 132.09 121.027 131.995 120.943ZM123.644 112.581C123.607 112.522 123.566 112.465 123.523 112.411C123.072 111.942 122.616 111.476 122.167 111.005C122.114 110.945 122.048 110.896 121.974 110.863C121.901 110.829 121.821 110.812 121.74 110.811C121.353 110.798 120.966 110.752 120.578 110.745C119.128 110.717 117.676 110.679 116.226 110.69C115.785 110.69 115.37 110.637 115.037 110.345C114.529 109.92 114.045 109.467 113.589 108.987C112.077 107.328 110.757 105.514 109.408 103.723C109.238 103.503 109.144 103.233 109.14 102.955C109.14 102.09 109.115 101.225 109.14 100.36C109.144 100.036 109.268 99.7251 109.488 99.4864C109.708 99.2478 110.007 99.0983 110.33 99.0664C110.683 99.0391 111.034 99.1339 111.325 99.3349C112.645 100.132 113.994 100.917 115.323 101.718C115.691 101.94 116.127 102.019 116.549 101.938C117.037 101.862 117.494 101.653 117.869 101.333C118.559 100.745 119.082 99.9863 119.386 99.1324C119.524 98.8056 119.558 98.4438 119.482 98.097C119.407 97.7502 119.225 97.4354 118.963 97.1959C118.799 97.0248 118.62 96.8686 118.428 96.7293C117.674 96.2144 116.917 95.7016 116.146 95.2109C115.486 94.7972 114.826 94.4143 114.148 94.0182C113.935 93.9035 113.756 93.7332 113.632 93.5253C113.508 93.3174 113.442 93.0797 113.442 92.8375C113.442 92.5953 113.508 92.3576 113.632 92.1497C113.756 91.9418 113.935 91.7715 114.148 91.6569C114.99 91.182 115.912 90.8664 116.868 90.726C118.243 90.5087 119.647 90.543 121.01 90.8272C122.696 91.1508 124.316 91.7548 125.803 92.6141C126.832 93.1688 127.725 93.9453 128.417 94.8874C128.72 95.2883 128.93 95.7512 129.033 96.243C129.148 96.8724 129.234 97.504 129.322 98.1377C129.52 99.5638 129.713 100.99 129.9 102.416C129.925 102.628 130.022 102.826 130.175 102.975C130.585 103.382 130.981 103.798 131.384 104.209C131.436 104.257 131.491 104.302 131.549 104.344C131.584 104.317 131.61 104.306 131.621 104.286C131.632 104.267 131.656 104.194 131.672 104.148C131.883 103.4 132.024 102.635 132.092 101.861C132.247 100.261 132.079 98.646 131.597 97.1123C130.92 94.8971 129.637 92.9153 127.893 91.3906C127.76 91.2762 127.634 91.1542 127.515 91.0253C127.332 90.832 127.215 90.586 127.181 90.3224C127.147 90.0588 127.196 89.7911 127.323 89.5575C127.435 89.3234 127.614 89.1282 127.838 88.9971C128.061 88.8661 128.319 88.8052 128.578 88.8224C128.942 88.8485 129.284 89.0047 129.542 89.2626C131.111 90.5991 132.385 92.2479 133.283 94.104C133.986 95.5459 134.454 97.0913 134.669 98.6813C134.891 100.297 134.854 101.938 134.559 103.543C134.403 104.446 134.153 105.331 133.813 106.183C133.762 106.282 133.748 106.396 133.773 106.504C133.798 106.613 133.861 106.709 133.95 106.775C135.224 108.034 136.485 109.304 137.752 110.569C137.829 110.646 137.915 110.712 137.985 110.776C138.04 110.745 138.071 110.739 138.082 110.721C138.153 110.604 138.225 110.488 138.289 110.364C139.002 108.986 139.556 107.531 139.942 106.027C140.01 105.677 140.203 105.364 140.485 105.147C140.765 104.953 141.101 104.856 141.44 104.872H145.842C145.945 104.46 145.932 96.978 145.826 96.6589H145.435C144.114 96.6589 142.781 96.6589 141.454 96.6589C140.593 96.6589 140.133 96.2804 139.913 95.4574C139.812 95.0591 139.693 94.6629 139.566 94.2712C139.099 92.843 138.485 91.4675 137.732 90.167C137.607 89.9524 137.518 89.718 137.471 89.4738C137.442 89.2557 137.469 89.034 137.548 88.8287C137.627 88.6235 137.756 88.4413 137.924 88.2987C138.888 87.3304 139.848 86.3599 140.804 85.3873C140.897 85.2926 140.983 85.1892 141.042 85.121L135.246 79.3355C135.197 79.3817 135.105 79.4631 135.026 79.5556C134.06 80.5194 133.1 81.4921 132.123 82.445C131.932 82.6243 131.708 82.7649 131.463 82.8587C131.023 83.0282 130.627 82.8829 130.248 82.6563C129.373 82.1195 128.45 81.6664 127.491 81.3029C126.599 80.975 125.691 80.6955 124.784 80.4226C124.563 80.3679 124.36 80.2586 124.193 80.1048C124.025 79.951 123.9 79.7576 123.827 79.5424C123.768 79.3379 123.743 79.1254 123.752 78.913C123.752 77.5596 123.752 76.2084 123.752 74.855C123.752 74.4875 123.73 74.4699 123.375 74.4611H116.122C115.55 74.4611 115.55 74.4611 115.55 75.0398C115.55 76.3602 115.55 77.6806 115.55 78.9856C115.55 79.7734 115.198 80.2179 114.436 80.4248C113.093 80.7774 111.789 81.2624 110.541 81.8728C109.982 82.1545 109.441 82.4626 108.886 82.7531C108.641 82.9087 108.35 82.9789 108.061 82.9526C107.771 82.9263 107.498 82.8051 107.284 82.6078C107.181 82.5176 107.084 82.4186 106.987 82.3218C106.073 81.4078 105.16 80.4945 104.247 79.582C104.155 79.4895 104.052 79.4059 103.928 79.2959L98.1165 85.0395C98.2639 85.209 98.3366 85.3036 98.4246 85.3895C98.9263 85.8956 99.4325 86.3995 99.9364 86.9057L101.343 88.3163C101.507 88.4638 101.63 88.6509 101.702 88.8597C101.773 89.0684 101.789 89.292 101.75 89.509C101.696 89.7521 101.603 89.9847 101.475 90.1978C100.512 91.8548 99.7817 93.6365 99.3048 95.4926C99.1992 95.9063 99.0188 96.2892 98.6094 96.4675C98.3474 96.5817 98.0656 96.6437 97.7798 96.6501C96.4594 96.6699 95.139 96.6501 93.8011 96.6501C93.6668 96.6501 93.5326 96.6611 93.4225 96.6655C93.4003 96.6986 93.3819 96.734 93.3675 96.7712C93.3581 96.8323 93.3529 96.8941 93.3521 96.956C93.3521 99.5131 93.3521 102.069 93.3521 104.623C93.3551 104.673 93.3625 104.722 93.3741 104.77C93.3741 104.781 93.3873 104.79 93.3961 104.799C93.4138 104.821 93.4329 104.841 93.4533 104.861H93.8275C95.1478 104.861 96.4682 104.861 97.771 104.861C98.6513 104.861 99.0914 105.233 99.3114 106.089C99.5595 107.097 99.9029 108.08 100.337 109.024C100.718 109.839 101.145 110.633 101.569 111.427C101.771 111.719 101.857 112.077 101.809 112.429C101.761 112.78 101.583 113.102 101.31 113.329L98.4708 116.187C98.3784 116.28 98.2948 116.383 98.2133 116.476C98.4708 116.85 103.755 122.116 104.019 122.259C104.111 122.169 104.21 122.076 104.305 121.979C105.205 121.086 106.1 120.193 106.987 119.299C107.006 119.283 107.024 119.265 107.04 119.246C107.643 118.553 108.374 118.516 109.089 118.949C110 119.5 110.963 119.958 111.965 120.318C112.81 120.624 113.677 120.875 114.538 121.139C114.739 121.19 114.925 121.29 115.078 121.43C115.232 121.57 115.348 121.746 115.418 121.942C115.488 122.168 115.52 122.405 115.51 122.642C115.51 123.934 115.51 125.223 115.51 126.513C115.51 126.601 115.51 126.689 115.51 126.777C115.524 127.037 115.557 127.067 115.827 127.081C115.876 127.081 115.926 127.081 115.977 127.081H123.338C123.459 127.081 123.58 127.067 123.732 127.059C123.732 126.882 123.756 126.735 123.756 126.59C123.756 125.223 123.756 123.859 123.756 122.494C123.745 122.205 123.828 121.921 123.992 121.683C124.156 121.445 124.393 121.266 124.667 121.174C124.808 121.126 124.953 121.082 125.107 121.042C126.75 120.596 128.332 119.95 129.817 119.116C129.886 119.067 129.95 119.01 130.008 118.947C129.975 118.9 129.94 118.854 129.903 118.811C128.582 117.503 127.262 116.201 125.963 114.885C125.897 114.812 125.807 114.765 125.71 114.752C125.613 114.739 125.514 114.761 125.431 114.814C123.207 115.746 120.791 116.123 118.389 115.915C115.879 115.725 113.46 114.891 111.367 113.494C107.333 110.8 105.044 107.015 104.531 102.198C104.257 99.643 104.666 97.0612 105.715 94.7158C106.839 92.1358 108.655 89.9173 110.962 88.3065C113.27 86.6956 115.978 85.7553 118.787 85.5897C119.087 85.5684 119.387 85.5626 119.687 85.5721C120.01 85.5821 120.317 85.7099 120.552 85.9312C120.787 86.1526 120.932 86.4523 120.961 86.7737C121.002 87.094 120.92 87.4179 120.733 87.6811C120.546 87.9443 120.267 88.1278 119.951 88.1953C119.743 88.2371 119.53 88.2571 119.317 88.2547C117.661 88.2966 116.029 88.6708 114.52 89.355C112.472 90.2778 110.71 91.7345 109.418 93.5724C108.127 95.4103 107.353 97.5618 107.179 99.8014C106.95 102.705 107.74 105.597 109.415 107.98C111.089 110.363 113.542 112.087 116.351 112.856C118.645 113.503 121.079 113.46 123.349 112.735C123.43 112.697 123.514 112.642 123.644 112.585V112.581ZM156.653 131.779L156.724 131.753C156.738 131.66 156.745 131.567 156.746 131.473C156.7 130.872 156.687 130.269 156.59 129.677C156.354 128.318 155.896 127.007 155.234 125.798C154.88 125.09 154.392 124.458 153.797 123.936C153.567 123.721 153.272 123.587 152.959 123.555C152.662 123.535 152.364 123.48 152.067 123.438C150.296 123.183 148.527 122.913 146.753 122.684C146.243 122.628 145.769 122.394 145.415 122.023C140.637 117.254 135.854 112.491 131.067 107.735C129.984 106.656 128.906 105.576 127.819 104.502C127.555 104.266 127.379 103.948 127.317 103.6C127.172 102.609 127.033 101.619 126.894 100.624C126.736 99.4977 126.562 98.371 126.432 97.2399C126.375 96.7531 126.14 96.3046 125.772 95.9811C125.159 95.4161 124.46 94.9526 123.701 94.6079C122.121 93.8091 120.385 93.3666 118.615 93.3118C118.483 93.3118 118.351 93.3118 118.222 93.325C118.268 93.4259 118.345 93.5098 118.442 93.5648C118.725 93.7497 119.014 93.9235 119.295 94.1128C119.979 94.531 120.595 95.0504 121.122 95.6532C122.051 96.7976 122.383 98.0739 122.026 99.5198C121.67 100.939 120.895 102.219 119.802 103.193C119.236 103.73 118.558 104.133 117.816 104.373C117.074 104.613 116.287 104.683 115.515 104.579C115.052 104.537 114.606 104.391 114.208 104.152C113.664 103.818 113.107 103.492 112.559 103.175C112.469 103.133 112.375 103.098 112.28 103.069C112.313 103.145 112.351 103.219 112.394 103.289C113.559 104.86 114.808 106.367 116.135 107.803C116.199 107.87 116.276 107.923 116.362 107.958C116.448 107.992 116.54 108.008 116.633 108.003C118.521 108.063 120.409 108.144 122.299 108.188C122.574 108.192 122.844 108.252 123.094 108.366C123.343 108.48 123.567 108.644 123.75 108.848C124.951 110.074 126.17 111.269 127.387 112.49C131.957 117.057 136.53 121.622 141.106 126.185C141.337 126.402 141.522 126.664 141.647 126.955C141.772 127.246 141.836 127.56 141.834 127.877C141.878 129.719 141.975 131.557 142.043 133.399C142.046 133.492 142.068 133.583 142.108 133.667C142.148 133.75 142.206 133.825 142.277 133.885C143.704 135.2 145.199 136.438 146.757 137.595C146.841 137.642 146.928 137.683 147.017 137.718C146.916 137.531 146.863 137.424 146.797 137.318C146.473 136.768 146.137 136.218 145.831 135.665C145.686 135.403 145.58 135.12 145.516 134.827C145.363 134.127 145.362 133.402 145.511 132.701C145.661 132 145.958 131.339 146.383 130.762C147.3 129.512 148.586 128.582 150.06 128.102C150.792 127.83 151.583 127.76 152.351 127.899C153.315 128.097 154.193 128.593 154.86 129.316C155.487 129.957 155.947 130.72 156.427 131.469C156.491 131.572 156.574 131.678 156.649 131.783L156.653 131.779Z"/>
</mask>
<path d="M131.995 120.943C130.352 121.96 128.586 122.765 126.74 123.339C126.443 123.432 126.419 123.465 126.417 123.799C126.417 125.19 126.417 126.584 126.417 127.981C126.417 128.106 126.417 128.229 126.417 128.355C126.42 128.542 126.385 128.729 126.313 128.903C126.242 129.076 126.136 129.234 126.001 129.365C125.867 129.496 125.707 129.598 125.532 129.666C125.357 129.733 125.17 129.764 124.982 129.757C121.426 129.739 117.872 129.757 114.318 129.757C113.635 129.757 113.178 129.464 112.973 128.876C112.912 128.674 112.884 128.463 112.892 128.251C112.892 126.797 112.892 125.344 112.892 123.892C112.892 123.463 112.892 123.463 112.467 123.326C111.205 122.92 109.977 122.413 108.796 121.81C108.431 121.623 108.429 121.625 108.136 121.922L105.093 124.882C105.02 124.95 104.949 125.023 104.872 125.089C104.751 125.213 104.607 125.311 104.447 125.378C104.287 125.446 104.116 125.48 103.943 125.48C103.769 125.48 103.598 125.446 103.438 125.378C103.279 125.311 103.134 125.213 103.013 125.089C102.718 124.818 102.441 124.528 102.157 124.246L95.4537 117.556C95.2337 117.369 95.068 117.125 94.974 116.852C94.906 116.635 94.895 116.405 94.9421 116.183C94.9891 115.961 95.0926 115.755 95.2425 115.584C95.3745 115.433 95.5175 115.292 95.6584 115.144L98.5522 112.257C98.8009 112.011 98.8053 112.006 98.6381 111.689C97.9958 110.444 97.4606 109.147 97.0382 107.812C97.014 107.741 96.9832 107.673 96.9392 107.561H96.499C95.0598 107.561 93.6206 107.561 92.1814 107.561C91.9569 107.564 91.7336 107.528 91.5212 107.455C91.299 107.382 91.1032 107.245 90.9581 107.062C90.813 106.878 90.7249 106.656 90.7048 106.423C90.6912 106.258 90.6868 106.093 90.6915 105.928V95.585C90.6886 95.4382 90.693 95.2913 90.7048 95.1449C90.7346 94.8496 90.8654 94.5736 91.0751 94.3635C91.2847 94.1535 91.5604 94.0222 91.8557 93.9917C92.0163 93.9741 92.1814 93.9763 92.342 93.9741H96.9502C97.036 93.7189 97.113 93.4856 97.1922 93.2523C97.58 92.0896 98.0591 90.9594 98.6249 89.8722C98.8097 89.5245 98.8053 89.5201 98.5236 89.2406C97.4864 88.2048 96.4492 87.1705 95.4119 86.1377C95.0312 85.757 94.8243 85.3212 94.9586 84.7843C95.0251 84.5705 95.1262 84.369 95.2579 84.1879C95.3646 84.0495 95.4848 83.922 95.6166 83.8072C97.9889 81.432 100.361 79.0582 102.733 76.6859C102.854 76.5592 102.983 76.4402 103.119 76.3294C103.351 76.1443 103.639 76.0422 103.936 76.0394C104.233 76.0366 104.522 76.1333 104.758 76.314C104.877 76.4033 104.99 76.5011 105.095 76.6067C106.11 77.6102 107.123 78.6159 108.134 79.6238C108.42 79.9055 108.422 79.9099 108.768 79.7316C109.969 79.1127 111.22 78.5974 112.509 78.1912C112.828 78.0921 112.85 78.0525 112.85 77.7048C112.85 76.2634 112.85 74.822 112.85 73.3828C112.84 73.1335 112.872 72.8843 112.944 72.6456C113.016 72.4303 113.147 72.2393 113.321 72.0936C113.495 71.9479 113.706 71.8533 113.93 71.8203C114.127 71.7844 114.327 71.766 114.527 71.7653H124.742C124.889 71.7639 125.036 71.772 125.182 71.7895C125.531 71.8111 125.858 71.968 126.093 72.227C126.328 72.4859 126.453 72.8264 126.441 73.1759C126.454 73.638 126.441 74.1024 126.441 74.5667C126.441 75.6186 126.441 76.6705 126.441 77.7224C126.441 78.0745 126.441 78.0921 126.791 78.1978C128.091 78.6084 129.354 79.1281 130.567 79.7514C130.886 79.9143 130.888 79.9165 131.141 79.6634C132.17 78.6526 133.193 77.6337 134.211 76.6067C134.34 76.4709 134.482 76.3478 134.634 76.2392C134.85 76.096 135.104 76.0228 135.363 76.0295C135.621 76.0362 135.872 76.1225 136.08 76.2766C136.201 76.3653 136.314 76.4639 136.419 76.5715C138.88 79.0318 141.341 81.4936 143.802 83.9568C144.038 84.1697 144.211 84.4439 144.301 84.7491C144.352 84.9306 144.361 85.1211 144.329 85.3067C144.297 85.4924 144.225 85.6687 144.116 85.823C144.007 85.9756 143.884 86.1177 143.749 86.2477C142.759 87.2395 141.767 88.2305 140.774 89.2208C140.668 89.3242 140.573 89.4408 140.483 89.5355C140.804 90.2243 141.143 90.8712 141.41 91.5402C141.676 92.2092 141.951 92.9398 142.186 93.6506C142.286 93.9521 142.334 93.9873 142.666 93.9873C144.108 93.9873 145.547 93.9873 146.986 93.9873C147.209 93.9784 147.431 94.0036 147.646 94.0622C147.906 94.1415 148.135 94.299 148.302 94.5133C148.469 94.7275 148.566 94.988 148.579 95.2593C148.585 95.359 148.585 95.4589 148.579 95.5586C148.579 99.04 148.579 102.522 148.579 106.005C148.582 106.242 148.548 106.478 148.478 106.705C148.406 106.948 148.26 107.163 148.061 107.321C147.861 107.479 147.618 107.571 147.365 107.585C147.14 107.602 146.914 107.606 146.689 107.598H142.682C142.261 107.598 142.272 107.662 142.182 107.955C141.68 109.556 141.008 111.098 140.177 112.556C140.001 112.864 140.001 112.869 140.259 113.126L144.678 117.528C145.45 118.296 146.218 119.068 146.99 119.836C147.145 119.998 147.351 120.101 147.574 120.127C149.655 120.42 151.735 120.727 153.812 121.046C154.27 121.131 154.702 121.319 155.076 121.597C155.871 122.17 156.544 122.895 157.056 123.731C157.729 124.802 158.266 125.952 158.654 127.155C159.274 128.909 159.506 130.776 159.332 132.628C159.236 133.742 158.909 134.824 158.372 135.804C157.983 136.493 157.382 136.757 156.711 136.545C156.365 136.423 156.079 136.173 155.91 135.848C155.254 134.767 154.594 133.691 153.929 132.622C153.706 132.259 153.465 131.908 153.207 131.57C153.032 131.342 152.832 131.134 152.611 130.949C152.418 130.777 152.184 130.655 151.932 130.596C151.68 130.536 151.417 130.541 151.167 130.608C150.139 130.854 149.223 131.44 148.568 132.27C148.245 132.673 148.055 133.168 148.027 133.685C147.994 134.048 148.075 134.413 148.26 134.728C149.041 136.024 149.801 137.329 150.58 138.632C150.672 138.78 150.751 138.937 150.817 139.098C150.888 139.285 150.914 139.486 150.895 139.684C150.876 139.883 150.812 140.075 150.707 140.245C150.602 140.415 150.46 140.558 150.291 140.665C150.122 140.771 149.931 140.838 149.732 140.859C149.235 140.905 148.733 140.883 148.232 140.887C147.869 140.887 147.505 140.887 147.142 140.887C146.803 140.895 146.47 140.789 146.196 140.588C144.354 139.204 142.501 137.833 140.804 136.27C140.433 135.916 140.082 135.542 139.753 135.148C139.418 134.753 139.241 134.248 139.255 133.731C139.238 131.953 139.183 130.177 139.154 128.399C139.154 128.281 139.13 128.165 139.083 128.057C139.035 127.949 138.966 127.853 138.879 127.774C136.669 125.573 134.464 123.372 132.264 121.172C132.176 121.095 132.09 121.027 131.995 120.943ZM123.644 112.581C123.607 112.522 123.566 112.465 123.523 112.411C123.072 111.942 122.616 111.476 122.167 111.005C122.114 110.945 122.048 110.896 121.974 110.863C121.901 110.829 121.821 110.812 121.74 110.811C121.353 110.798 120.966 110.752 120.578 110.745C119.128 110.717 117.676 110.679 116.226 110.69C115.785 110.69 115.37 110.637 115.037 110.345C114.529 109.92 114.045 109.467 113.589 108.987C112.077 107.328 110.757 105.514 109.408 103.723C109.238 103.503 109.144 103.233 109.14 102.955C109.14 102.09 109.115 101.225 109.14 100.36C109.144 100.036 109.268 99.7251 109.488 99.4864C109.708 99.2478 110.007 99.0983 110.33 99.0664C110.683 99.0391 111.034 99.1339 111.325 99.3349C112.645 100.132 113.994 100.917 115.323 101.718C115.691 101.94 116.127 102.019 116.549 101.938C117.037 101.862 117.494 101.653 117.869 101.333C118.559 100.745 119.082 99.9863 119.386 99.1324C119.524 98.8056 119.558 98.4438 119.482 98.097C119.407 97.7502 119.225 97.4354 118.963 97.1959C118.799 97.0248 118.62 96.8686 118.428 96.7293C117.674 96.2144 116.917 95.7016 116.146 95.2109C115.486 94.7972 114.826 94.4143 114.148 94.0182C113.935 93.9035 113.756 93.7332 113.632 93.5253C113.508 93.3174 113.442 93.0797 113.442 92.8375C113.442 92.5953 113.508 92.3576 113.632 92.1497C113.756 91.9418 113.935 91.7715 114.148 91.6569C114.99 91.182 115.912 90.8664 116.868 90.726C118.243 90.5087 119.647 90.543 121.01 90.8272C122.696 91.1508 124.316 91.7548 125.803 92.6141C126.832 93.1688 127.725 93.9453 128.417 94.8874C128.72 95.2883 128.93 95.7512 129.033 96.243C129.148 96.8724 129.234 97.504 129.322 98.1377C129.52 99.5638 129.713 100.99 129.9 102.416C129.925 102.628 130.022 102.826 130.175 102.975C130.585 103.382 130.981 103.798 131.384 104.209C131.436 104.257 131.491 104.302 131.549 104.344C131.584 104.317 131.61 104.306 131.621 104.286C131.632 104.267 131.656 104.194 131.672 104.148C131.883 103.4 132.024 102.635 132.092 101.861C132.247 100.261 132.079 98.646 131.597 97.1123C130.92 94.8971 129.637 92.9153 127.893 91.3906C127.76 91.2762 127.634 91.1542 127.515 91.0253C127.332 90.832 127.215 90.586 127.181 90.3224C127.147 90.0588 127.196 89.7911 127.323 89.5575C127.435 89.3234 127.614 89.1282 127.838 88.9971C128.061 88.8661 128.319 88.8052 128.578 88.8224C128.942 88.8485 129.284 89.0047 129.542 89.2626C131.111 90.5991 132.385 92.2479 133.283 94.104C133.986 95.5459 134.454 97.0913 134.669 98.6813C134.891 100.297 134.854 101.938 134.559 103.543C134.403 104.446 134.153 105.331 133.813 106.183C133.762 106.282 133.748 106.396 133.773 106.504C133.798 106.613 133.861 106.709 133.95 106.775C135.224 108.034 136.485 109.304 137.752 110.569C137.829 110.646 137.915 110.712 137.985 110.776C138.04 110.745 138.071 110.739 138.082 110.721C138.153 110.604 138.225 110.488 138.289 110.364C139.002 108.986 139.556 107.531 139.942 106.027C140.01 105.677 140.203 105.364 140.485 105.147C140.765 104.953 141.101 104.856 141.44 104.872H145.842C145.945 104.46 145.932 96.978 145.826 96.6589H145.435C144.114 96.6589 142.781 96.6589 141.454 96.6589C140.593 96.6589 140.133 96.2804 139.913 95.4574C139.812 95.0591 139.693 94.6629 139.566 94.2712C139.099 92.843 138.485 91.4675 137.732 90.167C137.607 89.9524 137.518 89.718 137.471 89.4738C137.442 89.2557 137.469 89.034 137.548 88.8287C137.627 88.6235 137.756 88.4413 137.924 88.2987C138.888 87.3304 139.848 86.3599 140.804 85.3873C140.897 85.2926 140.983 85.1892 141.042 85.121L135.246 79.3355C135.197 79.3817 135.105 79.4631 135.026 79.5556C134.06 80.5194 133.1 81.4921 132.123 82.445C131.932 82.6243 131.708 82.7649 131.463 82.8587C131.023 83.0282 130.627 82.8829 130.248 82.6563C129.373 82.1195 128.45 81.6664 127.491 81.3029C126.599 80.975 125.691 80.6955 124.784 80.4226C124.563 80.3679 124.36 80.2586 124.193 80.1048C124.025 79.951 123.9 79.7576 123.827 79.5424C123.768 79.3379 123.743 79.1254 123.752 78.913C123.752 77.5596 123.752 76.2084 123.752 74.855C123.752 74.4875 123.73 74.4699 123.375 74.4611H116.122C115.55 74.4611 115.55 74.4611 115.55 75.0398C115.55 76.3602 115.55 77.6806 115.55 78.9856C115.55 79.7734 115.198 80.2179 114.436 80.4248C113.093 80.7774 111.789 81.2624 110.541 81.8728C109.982 82.1545 109.441 82.4626 108.886 82.7531C108.641 82.9087 108.35 82.9789 108.061 82.9526C107.771 82.9263 107.498 82.8051 107.284 82.6078C107.181 82.5176 107.084 82.4186 106.987 82.3218C106.073 81.4078 105.16 80.4945 104.247 79.582C104.155 79.4895 104.052 79.4059 103.928 79.2959L98.1165 85.0395C98.2639 85.209 98.3366 85.3036 98.4246 85.3895C98.9263 85.8956 99.4325 86.3995 99.9364 86.9057L101.343 88.3163C101.507 88.4638 101.63 88.6509 101.702 88.8597C101.773 89.0684 101.789 89.292 101.75 89.509C101.696 89.7521 101.603 89.9847 101.475 90.1978C100.512 91.8548 99.7817 93.6365 99.3048 95.4926C99.1992 95.9063 99.0188 96.2892 98.6094 96.4675C98.3474 96.5817 98.0656 96.6437 97.7798 96.6501C96.4594 96.6699 95.139 96.6501 93.8011 96.6501C93.6668 96.6501 93.5326 96.6611 93.4225 96.6655C93.4003 96.6986 93.3819 96.734 93.3675 96.7712C93.3581 96.8323 93.3529 96.8941 93.3521 96.956C93.3521 99.5131 93.3521 102.069 93.3521 104.623C93.3551 104.673 93.3625 104.722 93.3741 104.77C93.3741 104.781 93.3873 104.79 93.3961 104.799C93.4138 104.821 93.4329 104.841 93.4533 104.861H93.8275C95.1478 104.861 96.4682 104.861 97.771 104.861C98.6513 104.861 99.0914 105.233 99.3114 106.089C99.5595 107.097 99.9029 108.08 100.337 109.024C100.718 109.839 101.145 110.633 101.569 111.427C101.771 111.719 101.857 112.077 101.809 112.429C101.761 112.78 101.583 113.102 101.31 113.329L98.4708 116.187C98.3784 116.28 98.2948 116.383 98.2133 116.476C98.4708 116.85 103.755 122.116 104.019 122.259C104.111 122.169 104.21 122.076 104.305 121.979C105.205 121.086 106.1 120.193 106.987 119.299C107.006 119.283 107.024 119.265 107.04 119.246C107.643 118.553 108.374 118.516 109.089 118.949C110 119.5 110.963 119.958 111.965 120.318C112.81 120.624 113.677 120.875 114.538 121.139C114.739 121.19 114.925 121.29 115.078 121.43C115.232 121.57 115.348 121.746 115.418 121.942C115.488 122.168 115.52 122.405 115.51 122.642C115.51 123.934 115.51 125.223 115.51 126.513C115.51 126.601 115.51 126.689 115.51 126.777C115.524 127.037 115.557 127.067 115.827 127.081C115.876 127.081 115.926 127.081 115.977 127.081H123.338C123.459 127.081 123.58 127.067 123.732 127.059C123.732 126.882 123.756 126.735 123.756 126.59C123.756 125.223 123.756 123.859 123.756 122.494C123.745 122.205 123.828 121.921 123.992 121.683C124.156 121.445 124.393 121.266 124.667 121.174C124.808 121.126 124.953 121.082 125.107 121.042C126.75 120.596 128.332 119.95 129.817 119.116C129.886 119.067 129.95 119.01 130.008 118.947C129.975 118.9 129.94 118.854 129.903 118.811C128.582 117.503 127.262 116.201 125.963 114.885C125.897 114.812 125.807 114.765 125.71 114.752C125.613 114.739 125.514 114.761 125.431 114.814C123.207 115.746 120.791 116.123 118.389 115.915C115.879 115.725 113.46 114.891 111.367 113.494C107.333 110.8 105.044 107.015 104.531 102.198C104.257 99.643 104.666 97.0612 105.715 94.7158C106.839 92.1358 108.655 89.9173 110.962 88.3065C113.27 86.6956 115.978 85.7553 118.787 85.5897C119.087 85.5684 119.387 85.5626 119.687 85.5721C120.01 85.5821 120.317 85.7099 120.552 85.9312C120.787 86.1526 120.932 86.4523 120.961 86.7737C121.002 87.094 120.92 87.4179 120.733 87.6811C120.546 87.9443 120.267 88.1278 119.951 88.1953C119.743 88.2371 119.53 88.2571 119.317 88.2547C117.661 88.2966 116.029 88.6708 114.52 89.355C112.472 90.2778 110.71 91.7345 109.418 93.5724C108.127 95.4103 107.353 97.5618 107.179 99.8014C106.95 102.705 107.74 105.597 109.415 107.98C111.089 110.363 113.542 112.087 116.351 112.856C118.645 113.503 121.079 113.46 123.349 112.735C123.43 112.697 123.514 112.642 123.644 112.585V112.581ZM156.653 131.779L156.724 131.753C156.738 131.66 156.745 131.567 156.746 131.473C156.7 130.872 156.687 130.269 156.59 129.677C156.354 128.318 155.896 127.007 155.234 125.798C154.88 125.09 154.392 124.458 153.797 123.936C153.567 123.721 153.272 123.587 152.959 123.555C152.662 123.535 152.364 123.48 152.067 123.438C150.296 123.183 148.527 122.913 146.753 122.684C146.243 122.628 145.769 122.394 145.415 122.023C140.637 117.254 135.854 112.491 131.067 107.735C129.984 106.656 128.906 105.576 127.819 104.502C127.555 104.266 127.379 103.948 127.317 103.6C127.172 102.609 127.033 101.619 126.894 100.624C126.736 99.4977 126.562 98.371 126.432 97.2399C126.375 96.7531 126.14 96.3046 125.772 95.9811C125.159 95.4161 124.46 94.9526 123.701 94.6079C122.121 93.8091 120.385 93.3666 118.615 93.3118C118.483 93.3118 118.351 93.3118 118.222 93.325C118.268 93.4259 118.345 93.5098 118.442 93.5648C118.725 93.7497 119.014 93.9235 119.295 94.1128C119.979 94.531 120.595 95.0504 121.122 95.6532C122.051 96.7976 122.383 98.0739 122.026 99.5198C121.67 100.939 120.895 102.219 119.802 103.193C119.236 103.73 118.558 104.133 117.816 104.373C117.074 104.613 116.287 104.683 115.515 104.579C115.052 104.537 114.606 104.391 114.208 104.152C113.664 103.818 113.107 103.492 112.559 103.175C112.469 103.133 112.375 103.098 112.28 103.069C112.313 103.145 112.351 103.219 112.394 103.289C113.559 104.86 114.808 106.367 116.135 107.803C116.199 107.87 116.276 107.923 116.362 107.958C116.448 107.992 116.54 108.008 116.633 108.003C118.521 108.063 120.409 108.144 122.299 108.188C122.574 108.192 122.844 108.252 123.094 108.366C123.343 108.48 123.567 108.644 123.75 108.848C124.951 110.074 126.17 111.269 127.387 112.49C131.957 117.057 136.53 121.622 141.106 126.185C141.337 126.402 141.522 126.664 141.647 126.955C141.772 127.246 141.836 127.56 141.834 127.877C141.878 129.719 141.975 131.557 142.043 133.399C142.046 133.492 142.068 133.583 142.108 133.667C142.148 133.75 142.206 133.825 142.277 133.885C143.704 135.2 145.199 136.438 146.757 137.595C146.841 137.642 146.928 137.683 147.017 137.718C146.916 137.531 146.863 137.424 146.797 137.318C146.473 136.768 146.137 136.218 145.831 135.665C145.686 135.403 145.58 135.12 145.516 134.827C145.363 134.127 145.362 133.402 145.511 132.701C145.661 132 145.958 131.339 146.383 130.762C147.3 129.512 148.586 128.582 150.06 128.102C150.792 127.83 151.583 127.76 152.351 127.899C153.315 128.097 154.193 128.593 154.86 129.316C155.487 129.957 155.947 130.72 156.427 131.469C156.491 131.572 156.574 131.678 156.649 131.783L156.653 131.779Z" fill="url(#paint4_linear_2009_58)"/>
<path d="M131.995 120.943C130.352 121.96 128.586 122.765 126.74 123.339C126.443 123.432 126.419 123.465 126.417 123.799C126.417 125.19 126.417 126.584 126.417 127.981C126.417 128.106 126.417 128.229 126.417 128.355C126.42 128.542 126.385 128.729 126.313 128.903C126.242 129.076 126.136 129.234 126.001 129.365C125.867 129.496 125.707 129.598 125.532 129.666C125.357 129.733 125.17 129.764 124.982 129.757C121.426 129.739 117.872 129.757 114.318 129.757C113.635 129.757 113.178 129.464 112.973 128.876C112.912 128.674 112.884 128.463 112.892 128.251C112.892 126.797 112.892 125.344 112.892 123.892C112.892 123.463 112.892 123.463 112.467 123.326C111.205 122.92 109.977 122.413 108.796 121.81C108.431 121.623 108.429 121.625 108.136 121.922L105.093 124.882C105.02 124.95 104.949 125.023 104.872 125.089C104.751 125.213 104.607 125.311 104.447 125.378C104.287 125.446 104.116 125.48 103.943 125.48C103.769 125.48 103.598 125.446 103.438 125.378C103.279 125.311 103.134 125.213 103.013 125.089C102.718 124.818 102.441 124.528 102.157 124.246L95.4537 117.556C95.2337 117.369 95.068 117.125 94.974 116.852C94.906 116.635 94.895 116.405 94.9421 116.183C94.9891 115.961 95.0926 115.755 95.2425 115.584C95.3745 115.433 95.5175 115.292 95.6584 115.144L98.5522 112.257C98.8009 112.011 98.8053 112.006 98.6381 111.689C97.9958 110.444 97.4606 109.147 97.0382 107.812C97.014 107.741 96.9832 107.673 96.9392 107.561H96.499C95.0598 107.561 93.6206 107.561 92.1814 107.561C91.9569 107.564 91.7336 107.528 91.5212 107.455C91.299 107.382 91.1032 107.245 90.9581 107.062C90.813 106.878 90.7249 106.656 90.7048 106.423C90.6912 106.258 90.6868 106.093 90.6915 105.928V95.585C90.6886 95.4382 90.693 95.2913 90.7048 95.1449C90.7346 94.8496 90.8654 94.5736 91.0751 94.3635C91.2847 94.1535 91.5604 94.0222 91.8557 93.9917C92.0163 93.9741 92.1814 93.9763 92.342 93.9741H96.9502C97.036 93.7189 97.113 93.4856 97.1922 93.2523C97.58 92.0896 98.0591 90.9594 98.6249 89.8722C98.8097 89.5245 98.8053 89.5201 98.5236 89.2406C97.4864 88.2048 96.4492 87.1705 95.4119 86.1377C95.0312 85.757 94.8243 85.3212 94.9586 84.7843C95.0251 84.5705 95.1262 84.369 95.2579 84.1879C95.3646 84.0495 95.4848 83.922 95.6166 83.8072C97.9889 81.432 100.361 79.0582 102.733 76.6859C102.854 76.5592 102.983 76.4402 103.119 76.3294C103.351 76.1443 103.639 76.0422 103.936 76.0394C104.233 76.0366 104.522 76.1333 104.758 76.314C104.877 76.4033 104.99 76.5011 105.095 76.6067C106.11 77.6102 107.123 78.6159 108.134 79.6238C108.42 79.9055 108.422 79.9099 108.768 79.7316C109.969 79.1127 111.22 78.5974 112.509 78.1912C112.828 78.0921 112.85 78.0525 112.85 77.7048C112.85 76.2634 112.85 74.822 112.85 73.3828C112.84 73.1335 112.872 72.8843 112.944 72.6456C113.016 72.4303 113.147 72.2393 113.321 72.0936C113.495 71.9479 113.706 71.8533 113.93 71.8203C114.127 71.7844 114.327 71.766 114.527 71.7653H124.742C124.889 71.7639 125.036 71.772 125.182 71.7895C125.531 71.8111 125.858 71.968 126.093 72.227C126.328 72.4859 126.453 72.8264 126.441 73.1759C126.454 73.638 126.441 74.1024 126.441 74.5667C126.441 75.6186 126.441 76.6705 126.441 77.7224C126.441 78.0745 126.441 78.0921 126.791 78.1978C128.091 78.6084 129.354 79.1281 130.567 79.7514C130.886 79.9143 130.888 79.9165 131.141 79.6634C132.17 78.6526 133.193 77.6337 134.211 76.6067C134.34 76.4709 134.482 76.3478 134.634 76.2392C134.85 76.096 135.104 76.0228 135.363 76.0295C135.621 76.0362 135.872 76.1225 136.08 76.2766C136.201 76.3653 136.314 76.4639 136.419 76.5715C138.88 79.0318 141.341 81.4936 143.802 83.9568C144.038 84.1697 144.211 84.4439 144.301 84.7491C144.352 84.9306 144.361 85.1211 144.329 85.3067C144.297 85.4924 144.225 85.6687 144.116 85.823C144.007 85.9756 143.884 86.1177 143.749 86.2477C142.759 87.2395 141.767 88.2305 140.774 89.2208C140.668 89.3242 140.573 89.4408 140.483 89.5355C140.804 90.2243 141.143 90.8712 141.41 91.5402C141.676 92.2092 141.951 92.9398 142.186 93.6506C142.286 93.9521 142.334 93.9873 142.666 93.9873C144.108 93.9873 145.547 93.9873 146.986 93.9873C147.209 93.9784 147.431 94.0036 147.646 94.0622C147.906 94.1415 148.135 94.299 148.302 94.5133C148.469 94.7275 148.566 94.988 148.579 95.2593C148.585 95.359 148.585 95.4589 148.579 95.5586C148.579 99.04 148.579 102.522 148.579 106.005C148.582 106.242 148.548 106.478 148.478 106.705C148.406 106.948 148.26 107.163 148.061 107.321C147.861 107.479 147.618 107.571 147.365 107.585C147.14 107.602 146.914 107.606 146.689 107.598H142.682C142.261 107.598 142.272 107.662 142.182 107.955C141.68 109.556 141.008 111.098 140.177 112.556C140.001 112.864 140.001 112.869 140.259 113.126L144.678 117.528C145.45 118.296 146.218 119.068 146.99 119.836C147.145 119.998 147.351 120.101 147.574 120.127C149.655 120.42 151.735 120.727 153.812 121.046C154.27 121.131 154.702 121.319 155.076 121.597C155.871 122.17 156.544 122.895 157.056 123.731C157.729 124.802 158.266 125.952 158.654 127.155C159.274 128.909 159.506 130.776 159.332 132.628C159.236 133.742 158.909 134.824 158.372 135.804C157.983 136.493 157.382 136.757 156.711 136.545C156.365 136.423 156.079 136.173 155.91 135.848C155.254 134.767 154.594 133.691 153.929 132.622C153.706 132.259 153.465 131.908 153.207 131.57C153.032 131.342 152.832 131.134 152.611 130.949C152.418 130.777 152.184 130.655 151.932 130.596C151.68 130.536 151.417 130.541 151.167 130.608C150.139 130.854 149.223 131.44 148.568 132.27C148.245 132.673 148.055 133.168 148.027 133.685C147.994 134.048 148.075 134.413 148.26 134.728C149.041 136.024 149.801 137.329 150.58 138.632C150.672 138.78 150.751 138.937 150.817 139.098C150.888 139.285 150.914 139.486 150.895 139.684C150.876 139.883 150.812 140.075 150.707 140.245C150.602 140.415 150.46 140.558 150.291 140.665C150.122 140.771 149.931 140.838 149.732 140.859C149.235 140.905 148.733 140.883 148.232 140.887C147.869 140.887 147.505 140.887 147.142 140.887C146.803 140.895 146.47 140.789 146.196 140.588C144.354 139.204 142.501 137.833 140.804 136.27C140.433 135.916 140.082 135.542 139.753 135.148C139.418 134.753 139.241 134.248 139.255 133.731C139.238 131.953 139.183 130.177 139.154 128.399C139.154 128.281 139.13 128.165 139.083 128.057C139.035 127.949 138.966 127.853 138.879 127.774C136.669 125.573 134.464 123.372 132.264 121.172C132.176 121.095 132.09 121.027 131.995 120.943ZM123.644 112.581C123.607 112.522 123.566 112.465 123.523 112.411C123.072 111.942 122.616 111.476 122.167 111.005C122.114 110.945 122.048 110.896 121.974 110.863C121.901 110.829 121.821 110.812 121.74 110.811C121.353 110.798 120.966 110.752 120.578 110.745C119.128 110.717 117.676 110.679 116.226 110.69C115.785 110.69 115.37 110.637 115.037 110.345C114.529 109.92 114.045 109.467 113.589 108.987C112.077 107.328 110.757 105.514 109.408 103.723C109.238 103.503 109.144 103.233 109.14 102.955C109.14 102.09 109.115 101.225 109.14 100.36C109.144 100.036 109.268 99.7251 109.488 99.4864C109.708 99.2478 110.007 99.0983 110.33 99.0664C110.683 99.0391 111.034 99.1339 111.325 99.3349C112.645 100.132 113.994 100.917 115.323 101.718C115.691 101.94 116.127 102.019 116.549 101.938C117.037 101.862 117.494 101.653 117.869 101.333C118.559 100.745 119.082 99.9863 119.386 99.1324C119.524 98.8056 119.558 98.4438 119.482 98.097C119.407 97.7502 119.225 97.4354 118.963 97.1959C118.799 97.0248 118.62 96.8686 118.428 96.7293C117.674 96.2144 116.917 95.7016 116.146 95.2109C115.486 94.7972 114.826 94.4143 114.148 94.0182C113.935 93.9035 113.756 93.7332 113.632 93.5253C113.508 93.3174 113.442 93.0797 113.442 92.8375C113.442 92.5953 113.508 92.3576 113.632 92.1497C113.756 91.9418 113.935 91.7715 114.148 91.6569C114.99 91.182 115.912 90.8664 116.868 90.726C118.243 90.5087 119.647 90.543 121.01 90.8272C122.696 91.1508 124.316 91.7548 125.803 92.6141C126.832 93.1688 127.725 93.9453 128.417 94.8874C128.72 95.2883 128.93 95.7512 129.033 96.243C129.148 96.8724 129.234 97.504 129.322 98.1377C129.52 99.5638 129.713 100.99 129.9 102.416C129.925 102.628 130.022 102.826 130.175 102.975C130.585 103.382 130.981 103.798 131.384 104.209C131.436 104.257 131.491 104.302 131.549 104.344C131.584 104.317 131.61 104.306 131.621 104.286C131.632 104.267 131.656 104.194 131.672 104.148C131.883 103.4 132.024 102.635 132.092 101.861C132.247 100.261 132.079 98.646 131.597 97.1123C130.92 94.8971 129.637 92.9153 127.893 91.3906C127.76 91.2762 127.634 91.1542 127.515 91.0253C127.332 90.832 127.215 90.586 127.181 90.3224C127.147 90.0588 127.196 89.7911 127.323 89.5575C127.435 89.3234 127.614 89.1282 127.838 88.9971C128.061 88.8661 128.319 88.8052 128.578 88.8224C128.942 88.8485 129.284 89.0047 129.542 89.2626C131.111 90.5991 132.385 92.2479 133.283 94.104C133.986 95.5459 134.454 97.0913 134.669 98.6813C134.891 100.297 134.854 101.938 134.559 103.543C134.403 104.446 134.153 105.331 133.813 106.183C133.762 106.282 133.748 106.396 133.773 106.504C133.798 106.613 133.861 106.709 133.95 106.775C135.224 108.034 136.485 109.304 137.752 110.569C137.829 110.646 137.915 110.712 137.985 110.776C138.04 110.745 138.071 110.739 138.082 110.721C138.153 110.604 138.225 110.488 138.289 110.364C139.002 108.986 139.556 107.531 139.942 106.027C140.01 105.677 140.203 105.364 140.485 105.147C140.765 104.953 141.101 104.856 141.44 104.872H145.842C145.945 104.46 145.932 96.978 145.826 96.6589H145.435C144.114 96.6589 142.781 96.6589 141.454 96.6589C140.593 96.6589 140.133 96.2804 139.913 95.4574C139.812 95.0591 139.693 94.6629 139.566 94.2712C139.099 92.843 138.485 91.4675 137.732 90.167C137.607 89.9524 137.518 89.718 137.471 89.4738C137.442 89.2557 137.469 89.034 137.548 88.8287C137.627 88.6235 137.756 88.4413 137.924 88.2987C138.888 87.3304 139.848 86.3599 140.804 85.3873C140.897 85.2926 140.983 85.1892 141.042 85.121L135.246 79.3355C135.197 79.3817 135.105 79.4631 135.026 79.5556C134.06 80.5194 133.1 81.4921 132.123 82.445C131.932 82.6243 131.708 82.7649 131.463 82.8587C131.023 83.0282 130.627 82.8829 130.248 82.6563C129.373 82.1195 128.45 81.6664 127.491 81.3029C126.599 80.975 125.691 80.6955 124.784 80.4226C124.563 80.3679 124.36 80.2586 124.193 80.1048C124.025 79.951 123.9 79.7576 123.827 79.5424C123.768 79.3379 123.743 79.1254 123.752 78.913C123.752 77.5596 123.752 76.2084 123.752 74.855C123.752 74.4875 123.73 74.4699 123.375 74.4611H116.122C115.55 74.4611 115.55 74.4611 115.55 75.0398C115.55 76.3602 115.55 77.6806 115.55 78.9856C115.55 79.7734 115.198 80.2179 114.436 80.4248C113.093 80.7774 111.789 81.2624 110.541 81.8728C109.982 82.1545 109.441 82.4626 108.886 82.7531C108.641 82.9087 108.35 82.9789 108.061 82.9526C107.771 82.9263 107.498 82.8051 107.284 82.6078C107.181 82.5176 107.084 82.4186 106.987 82.3218C106.073 81.4078 105.16 80.4945 104.247 79.582C104.155 79.4895 104.052 79.4059 103.928 79.2959L98.1165 85.0395C98.2639 85.209 98.3366 85.3036 98.4246 85.3895C98.9263 85.8956 99.4325 86.3995 99.9364 86.9057L101.343 88.3163C101.507 88.4638 101.63 88.6509 101.702 88.8597C101.773 89.0684 101.789 89.292 101.75 89.509C101.696 89.7521 101.603 89.9847 101.475 90.1978C100.512 91.8548 99.7817 93.6365 99.3048 95.4926C99.1992 95.9063 99.0188 96.2892 98.6094 96.4675C98.3474 96.5817 98.0656 96.6437 97.7798 96.6501C96.4594 96.6699 95.139 96.6501 93.8011 96.6501C93.6668 96.6501 93.5326 96.6611 93.4225 96.6655C93.4003 96.6986 93.3819 96.734 93.3675 96.7712C93.3581 96.8323 93.3529 96.8941 93.3521 96.956C93.3521 99.5131 93.3521 102.069 93.3521 104.623C93.3551 104.673 93.3625 104.722 93.3741 104.77C93.3741 104.781 93.3873 104.79 93.3961 104.799C93.4138 104.821 93.4329 104.841 93.4533 104.861H93.8275C95.1478 104.861 96.4682 104.861 97.771 104.861C98.6513 104.861 99.0914 105.233 99.3114 106.089C99.5595 107.097 99.9029 108.08 100.337 109.024C100.718 109.839 101.145 110.633 101.569 111.427C101.771 111.719 101.857 112.077 101.809 112.429C101.761 112.78 101.583 113.102 101.31 113.329L98.4708 116.187C98.3784 116.28 98.2948 116.383 98.2133 116.476C98.4708 116.85 103.755 122.116 104.019 122.259C104.111 122.169 104.21 122.076 104.305 121.979C105.205 121.086 106.1 120.193 106.987 119.299C107.006 119.283 107.024 119.265 107.04 119.246C107.643 118.553 108.374 118.516 109.089 118.949C110 119.5 110.963 119.958 111.965 120.318C112.81 120.624 113.677 120.875 114.538 121.139C114.739 121.19 114.925 121.29 115.078 121.43C115.232 121.57 115.348 121.746 115.418 121.942C115.488 122.168 115.52 122.405 115.51 122.642C115.51 123.934 115.51 125.223 115.51 126.513C115.51 126.601 115.51 126.689 115.51 126.777C115.524 127.037 115.557 127.067 115.827 127.081C115.876 127.081 115.926 127.081 115.977 127.081H123.338C123.459 127.081 123.58 127.067 123.732 127.059C123.732 126.882 123.756 126.735 123.756 126.59C123.756 125.223 123.756 123.859 123.756 122.494C123.745 122.205 123.828 121.921 123.992 121.683C124.156 121.445 124.393 121.266 124.667 121.174C124.808 121.126 124.953 121.082 125.107 121.042C126.75 120.596 128.332 119.95 129.817 119.116C129.886 119.067 129.95 119.01 130.008 118.947C129.975 118.9 129.94 118.854 129.903 118.811C128.582 117.503 127.262 116.201 125.963 114.885C125.897 114.812 125.807 114.765 125.71 114.752C125.613 114.739 125.514 114.761 125.431 114.814C123.207 115.746 120.791 116.123 118.389 115.915C115.879 115.725 113.46 114.891 111.367 113.494C107.333 110.8 105.044 107.015 104.531 102.198C104.257 99.643 104.666 97.0612 105.715 94.7158C106.839 92.1358 108.655 89.9173 110.962 88.3065C113.27 86.6956 115.978 85.7553 118.787 85.5897C119.087 85.5684 119.387 85.5626 119.687 85.5721C120.01 85.5821 120.317 85.7099 120.552 85.9312C120.787 86.1526 120.932 86.4523 120.961 86.7737C121.002 87.094 120.92 87.4179 120.733 87.6811C120.546 87.9443 120.267 88.1278 119.951 88.1953C119.743 88.2371 119.53 88.2571 119.317 88.2547C117.661 88.2966 116.029 88.6708 114.52 89.355C112.472 90.2778 110.71 91.7345 109.418 93.5724C108.127 95.4103 107.353 97.5618 107.179 99.8014C106.95 102.705 107.74 105.597 109.415 107.98C111.089 110.363 113.542 112.087 116.351 112.856C118.645 113.503 121.079 113.46 123.349 112.735C123.43 112.697 123.514 112.642 123.644 112.585V112.581ZM156.653 131.779L156.724 131.753C156.738 131.66 156.745 131.567 156.746 131.473C156.7 130.872 156.687 130.269 156.59 129.677C156.354 128.318 155.896 127.007 155.234 125.798C154.88 125.09 154.392 124.458 153.797 123.936C153.567 123.721 153.272 123.587 152.959 123.555C152.662 123.535 152.364 123.48 152.067 123.438C150.296 123.183 148.527 122.913 146.753 122.684C146.243 122.628 145.769 122.394 145.415 122.023C140.637 117.254 135.854 112.491 131.067 107.735C129.984 106.656 128.906 105.576 127.819 104.502C127.555 104.266 127.379 103.948 127.317 103.6C127.172 102.609 127.033 101.619 126.894 100.624C126.736 99.4977 126.562 98.371 126.432 97.2399C126.375 96.7531 126.14 96.3046 125.772 95.9811C125.159 95.4161 124.46 94.9526 123.701 94.6079C122.121 93.8091 120.385 93.3666 118.615 93.3118C118.483 93.3118 118.351 93.3118 118.222 93.325C118.268 93.4259 118.345 93.5098 118.442 93.5648C118.725 93.7497 119.014 93.9235 119.295 94.1128C119.979 94.531 120.595 95.0504 121.122 95.6532C122.051 96.7976 122.383 98.0739 122.026 99.5198C121.67 100.939 120.895 102.219 119.802 103.193C119.236 103.73 118.558 104.133 117.816 104.373C117.074 104.613 116.287 104.683 115.515 104.579C115.052 104.537 114.606 104.391 114.208 104.152C113.664 103.818 113.107 103.492 112.559 103.175C112.469 103.133 112.375 103.098 112.28 103.069C112.313 103.145 112.351 103.219 112.394 103.289C113.559 104.86 114.808 106.367 116.135 107.803C116.199 107.87 116.276 107.923 116.362 107.958C116.448 107.992 116.54 108.008 116.633 108.003C118.521 108.063 120.409 108.144 122.299 108.188C122.574 108.192 122.844 108.252 123.094 108.366C123.343 108.48 123.567 108.644 123.75 108.848C124.951 110.074 126.17 111.269 127.387 112.49C131.957 117.057 136.53 121.622 141.106 126.185C141.337 126.402 141.522 126.664 141.647 126.955C141.772 127.246 141.836 127.56 141.834 127.877C141.878 129.719 141.975 131.557 142.043 133.399C142.046 133.492 142.068 133.583 142.108 133.667C142.148 133.75 142.206 133.825 142.277 133.885C143.704 135.2 145.199 136.438 146.757 137.595C146.841 137.642 146.928 137.683 147.017 137.718C146.916 137.531 146.863 137.424 146.797 137.318C146.473 136.768 146.137 136.218 145.831 135.665C145.686 135.403 145.58 135.12 145.516 134.827C145.363 134.127 145.362 133.402 145.511 132.701C145.661 132 145.958 131.339 146.383 130.762C147.3 129.512 148.586 128.582 150.06 128.102C150.792 127.83 151.583 127.76 152.351 127.899C153.315 128.097 154.193 128.593 154.86 129.316C155.487 129.957 155.947 130.72 156.427 131.469C156.491 131.572 156.574 131.678 156.649 131.783L156.653 131.779Z" stroke="#1B1B1B" stroke-width="8.80256" mask="url(#path-5-outside-1_2009_58)"/>
<defs>
<linearGradient id="paint0_linear_2009_58" x1="124.796" y1="0.584229" x2="124.796" y2="98.0899" gradientUnits="userSpaceOnUse">
<stop stop-color="#68E0CF"/>
<stop offset="1" stop-color="#209CFF"/>
</linearGradient>
<linearGradient id="paint1_linear_2009_58" x1="122.686" y1="93.3928" x2="122.686" y2="98.0519" gradientUnits="userSpaceOnUse">
<stop stop-color="#68E0CF"/>
<stop offset="1" stop-color="#209CFF"/>
</linearGradient>
<linearGradient id="paint2_linear_2009_58" x1="222.763" y1="53.3767" x2="222.763" y2="58.0187" gradientUnits="userSpaceOnUse">
<stop stop-color="#68E0CF"/>
<stop offset="1" stop-color="#209CFF"/>
</linearGradient>
<linearGradient id="paint3_linear_2009_58" x1="207.883" y1="53.3633" x2="207.883" y2="58.0099" gradientUnits="userSpaceOnUse">
<stop stop-color="#68E0CF"/>
<stop offset="1" stop-color="#209CFF"/>
</linearGradient>
<linearGradient id="paint4_linear_2009_58" x1="122.984" y1="71.7651" x2="135.217" y2="139.42" gradientUnits="userSpaceOnUse">
<stop stop-color="#FFBB00"/>
<stop offset="1" stop-color="#FF3300"/>
</linearGradient>
</defs>
</svg>
