<svg width="130" height="167" viewBox="0 0 130 167" fill="none" xmlns="http://www.w3.org/2000/svg">
<path d="M51.853 61.7079V63.8841H67.7802C70.0717 63.8622 72.2803 64.741 73.9304 66.3313C75.5806 67.9215 76.5404 70.0961 76.6032 72.387C76.6032 72.7681 76.6032 73.1492 76.6032 73.5303V161.094C76.6032 161.395 76.6032 161.7 76.6032 162.001C76.5953 162.58 76.3619 163.132 75.9526 163.542C75.5433 163.951 74.9905 164.184 74.4117 164.192C72.1631 164.139 69.9106 164.192 67.662 164.192C65.6573 164.192 63.6526 164.139 61.6555 164.211C61.3557 164.219 61.0575 164.166 60.779 164.055C60.5005 163.943 60.2476 163.777 60.0358 163.564C59.8239 163.352 59.6575 163.099 59.5468 162.82C59.436 162.542 59.3832 162.243 59.3916 161.944C59.4564 160.16 59.3916 158.372 59.3916 156.589C59.3916 156.295 59.3649 155.998 59.3497 155.655H17.1059C17.1059 155.979 17.0563 156.272 17.0525 156.566C17.0525 158.376 17.0525 160.19 17.0525 162.001C17.0816 162.415 16.9832 162.828 16.7707 163.184C16.5581 163.54 16.2414 163.823 15.8634 163.994C15.5903 164.118 15.2942 164.183 14.9944 164.185C10.6623 164.185 6.32765 164.185 1.99046 164.185C0.74799 164.185 0.0314763 163.422 0.00860887 162.168C0.00860887 161.894 0.00860887 161.616 0.00860887 161.341V73.1149C0.00860887 72.81 0.00860887 72.5089 0.00860887 72.2078C-0.17052 68.7396 2.47448 65.6449 5.2605 64.5434C6.41066 64.0905 7.6375 63.864 8.87356 63.8765C13.7863 63.8765 18.6951 63.8765 23.6078 63.8765H24.5759C24.6975 63.1535 24.7155 62.4169 24.6292 61.6888C23.7984 61.4334 23.0285 61.2429 22.293 60.9532C20.5715 60.3269 19.0184 59.3109 17.7549 57.9846C16.4914 56.6582 15.5518 55.0576 15.0097 53.3079C14.5766 52.0315 14.3765 50.6876 14.4189 49.3404C14.4344 49.1117 14.3919 48.8827 14.2953 48.6749C14.1987 48.467 14.0511 48.2869 13.8663 48.1513C13.1957 47.6108 12.6548 46.927 12.2831 46.1501C11.9114 45.3732 11.7185 44.5229 11.7185 43.6616C11.7185 42.8004 11.9114 41.9501 12.2831 41.1732C12.6548 40.3962 13.1957 39.7124 13.8663 39.172C14.0406 39.0447 14.1804 38.8759 14.2729 38.6809C14.3654 38.4858 14.4077 38.2708 14.3961 38.0553C14.3961 32.7195 14.3961 27.394 14.3961 22.0785C14.4127 21.8659 14.3761 21.6525 14.2896 21.4575C14.2031 21.2626 14.0694 21.0922 13.9006 20.9618C13.2253 20.4271 12.6789 19.7474 12.3017 18.973C11.9244 18.1986 11.7261 17.3493 11.7214 16.4879C11.7166 15.6265 11.9055 14.7751 12.2742 13.9966C12.6428 13.2181 13.1817 12.5324 13.851 11.9902C14.0454 11.8435 14.1989 11.6495 14.297 11.4267C14.395 11.2038 14.4344 10.9596 14.4113 10.7172C14.3004 8.98316 14.6363 7.24965 15.387 5.68257C16.1937 3.99001 17.4611 2.55911 19.044 1.55401C20.6268 0.548909 22.4608 0.0103122 24.3358 0C33.6085 0 42.8813 0 52.1579 0C54.2998 0.0195764 56.3787 0.727416 58.0875 2.019C59.7964 3.31058 61.0446 5.11743 61.6479 7.17276C61.9899 8.36304 62.1252 9.60315 62.048 10.8392C62.0223 11.0407 62.0508 11.2455 62.1305 11.4324C62.2102 11.6193 62.3383 11.7816 62.5016 11.9025C63.1966 12.447 63.7578 13.1433 64.1421 13.9382C64.5265 14.733 64.7238 15.6053 64.7191 16.4882C64.7143 17.371 64.5075 18.2411 64.1145 19.0317C63.7216 19.8224 63.1529 20.5126 62.452 21.0495C62.3015 21.1652 62.1837 21.3182 62.1102 21.4932C62.0367 21.6683 62.01 21.8595 62.0328 22.048C62.0328 27.3838 62.0328 32.7106 62.0328 38.0286C62.0198 38.2568 62.0638 38.4847 62.161 38.6917C62.2581 38.8986 62.4053 39.0781 62.5892 39.2139C63.2518 39.7524 63.7865 40.4314 64.1545 41.2018C64.5226 41.9722 64.7148 42.8148 64.7174 43.6686C64.7199 44.5224 64.5327 45.3662 64.1693 46.1388C63.8059 46.9114 63.2753 47.5936 62.6159 48.136C62.42 48.279 62.2637 48.4694 62.1617 48.6894C62.0596 48.9095 62.0153 49.1518 62.0328 49.3937C62.0933 51.7351 61.4609 54.0421 60.2148 56.0253C59.3492 57.4329 58.2036 58.6477 56.8491 59.5944C55.4947 60.5411 53.9602 61.1995 52.3408 61.5287L52.0207 61.6011C51.9622 61.6325 51.9061 61.6681 51.853 61.7079ZM13.0812 160.183V159.199C13.0812 157.469 13.1383 155.739 13.0812 154.012C13.0202 152.488 14.0759 151.592 15.4441 151.592C30.6383 151.62 45.8337 151.62 61.0304 151.592C62.4597 151.592 63.462 152.556 63.4048 154.001C63.3401 155.754 63.4048 157.515 63.4048 159.272C63.4048 159.562 63.4391 159.851 63.462 160.164H72.5366C72.7348 159.295 72.7043 104.626 72.5366 104.02C71.5571 103.856 4.52493 103.906 3.93419 104.074C3.90043 104.145 3.87732 104.221 3.86559 104.299C3.86559 122.714 3.86559 141.135 3.86559 159.562C3.87334 159.725 3.89244 159.888 3.92276 160.049C3.93168 160.075 3.94752 160.097 3.96849 160.114L4.05615 160.194L13.0812 160.183ZM15.0668 99.9156V98.7722C15.0668 92.7314 15.0668 86.6906 15.0668 80.6535C15.0382 79.5893 15.2945 78.5367 15.8091 77.6046C16.3237 76.6726 17.078 75.8949 17.9939 75.3521C19.0094 74.7394 20.1816 74.4361 21.3668 74.4793C29.843 74.4793 38.3192 74.4793 46.7954 74.4793C49.6767 74.4793 52.558 74.4603 55.4393 74.4793C56.4199 74.4727 57.3858 74.7172 58.245 75.1895C59.1043 75.6618 59.8284 76.3463 60.3482 77.1777C61.0609 78.2637 61.424 79.5418 61.3887 80.8403C61.3735 86.8494 61.3735 92.861 61.3887 98.8751C61.3887 99.2181 61.4344 99.5611 61.4535 99.8813C62.6388 100.041 71.9611 99.9918 72.6319 99.8089V73.2597C72.6414 72.9305 72.6338 72.601 72.609 72.2726C72.5539 71.4893 72.304 70.7321 71.8821 70.0699C71.4601 69.4077 70.8794 68.8613 70.1927 68.4804C69.2888 68.0103 68.2753 67.7918 67.258 67.8478C55.5702 67.8478 43.8824 67.8478 32.1946 67.8478C24.5111 67.8478 16.8289 67.8478 9.14797 67.8478C8.57341 67.8327 7.99906 67.8851 7.43672 68.004C5.14998 68.5567 3.79317 70.6414 3.80461 72.8748C3.8351 81.6026 3.80461 90.3341 3.80461 99.0619C3.80461 99.3287 3.83891 99.5954 3.85797 99.9042L15.0668 99.9156ZM44.4744 78.5726C43.4301 78.3744 32.5719 78.424 32.0231 78.6145C31.8782 79.5712 31.9163 82.7383 32.0879 83.3786L32.469 83.4548C33.5628 83.6949 34.2755 84.5563 34.1955 85.5396C34.153 86.052 33.9169 86.5291 33.5354 86.8738C33.1538 87.2186 32.6553 87.4052 32.1412 87.3956C30.7425 87.4223 29.3438 87.4185 27.9488 87.3956C27.4462 87.427 26.9503 87.2662 26.5617 86.9458C26.1732 86.6254 25.9209 86.1692 25.856 85.6698C25.791 85.1703 25.9184 84.6648 26.2121 84.2557C26.5059 83.8466 26.9441 83.5644 27.4381 83.4663L27.8993 83.3252V78.5116C27.7526 78.4778 27.6035 78.4549 27.4534 78.443C25.342 78.443 23.2305 78.443 21.1191 78.443C20.8185 78.4489 20.5225 78.5177 20.2501 78.645C19.3088 79.0795 19.0153 79.8761 19.0191 80.8632C19.0191 86.9307 19.0191 92.9982 19.0191 99.0619C19.0191 99.3287 19.0496 99.5954 19.0686 99.9042H57.3564C57.3793 99.6183 57.4174 99.3782 57.4174 99.1419C57.4174 93.0172 57.4174 86.8964 57.4174 80.7755C57.4315 80.4616 57.38 80.1482 57.2662 79.8554C57.1524 79.5625 56.9788 79.2966 56.7564 79.0746C56.5341 78.8526 56.2679 78.6794 55.9748 78.566C55.6817 78.4527 55.3683 78.4017 55.0544 78.4164C53.0802 78.4697 51.106 78.4164 49.1317 78.4164C48.9516 78.425 48.7722 78.4441 48.5944 78.4735C48.4038 79.2701 48.419 82.6888 48.5944 83.3405C48.7125 83.371 48.8459 83.3938 48.9755 83.432C49.4528 83.5444 49.8715 83.8296 50.1512 84.2324C50.4308 84.6352 50.5514 85.1273 50.4899 85.6138C50.4284 86.1003 50.189 86.5468 49.818 86.8673C49.4469 87.1879 48.9703 87.3598 48.48 87.3499C47.0813 87.3728 45.6826 87.3766 44.2876 87.3499C43.7731 87.3592 43.2745 87.1713 42.894 86.8248C42.5134 86.4783 42.2798 85.9994 42.241 85.4862C42.1648 84.4953 42.8775 83.6454 43.9713 83.4091C44.1238 83.3748 44.2762 83.3176 44.4477 83.2681L44.4744 78.5726ZM18.436 37.7313H19.3735C20.8256 37.7313 22.2815 37.7085 23.7336 37.7313C24.2572 37.7349 24.7579 37.9463 25.1257 38.319C25.4934 38.6917 25.698 39.1953 25.6945 39.7189C25.691 40.2425 25.4796 40.7432 25.1068 41.111C24.7341 41.4787 24.2305 41.6833 23.7069 41.6798C21.9233 41.7064 20.1396 41.6798 18.3712 41.6798C18.1173 41.6657 17.8628 41.6657 17.6089 41.6798C17.1113 41.715 16.6435 41.9301 16.2928 42.285C15.9421 42.6399 15.7326 43.1102 15.7033 43.6083C15.6985 44.1217 15.8913 44.6174 16.2417 44.9926C16.5922 45.3679 17.0735 45.5941 17.5861 45.6244C17.8057 45.6359 18.0258 45.6359 18.2454 45.6244H58.1796C58.4259 45.6396 58.6728 45.6396 58.919 45.6244C59.3982 45.5617 59.8411 45.3356 60.173 44.9843C60.5049 44.6329 60.7054 44.1779 60.7408 43.6959C60.7561 43.2103 60.5876 42.7368 60.2689 42.3701C59.9503 42.0034 59.5049 41.7704 59.0219 41.7179C58.668 41.674 58.3111 41.6588 57.9548 41.6721H33.3456C33.0164 41.6817 32.6869 41.674 32.3585 41.6493C31.8795 41.5929 31.4377 41.3635 31.1161 41.0042C30.7945 40.6449 30.6151 40.1805 30.6119 39.6983C30.6086 39.2161 30.7816 38.7493 31.0983 38.3856C31.415 38.022 31.8537 37.7866 32.3318 37.7237C32.6607 37.7072 32.9903 37.7097 33.3189 37.7313H57.951C58.1644 36.7213 58.1186 31.0845 57.9205 30.5128C56.6399 30.3489 19.0458 30.4175 18.436 30.5967V37.7313ZM58.0729 49.7825C57.9243 49.7101 57.8747 49.6643 57.829 49.6643H18.9086C18.7998 49.6693 18.6916 49.682 18.5846 49.7024C18.5579 49.7024 18.5389 49.7291 18.516 49.7444L18.4131 49.8396C18.3813 50.9842 18.6577 52.1162 19.2135 53.1173C20.738 56.0482 23.1543 57.7289 26.4777 57.8699C26.7777 57.8654 27.0754 57.9234 27.3517 58.0402C27.6281 58.157 27.8771 58.3301 28.0829 58.5485C28.2887 58.7668 28.4468 59.0256 28.547 59.3084C28.6473 59.5912 28.6876 59.8918 28.6654 60.191C28.5968 61.1743 28.6463 62.1652 28.6654 63.1561C28.6805 63.386 28.7072 63.615 28.7454 63.8422H47.8016C47.8016 63.522 47.8473 63.2552 47.8512 62.9922C47.8512 62.0585 47.9083 61.1209 47.8512 60.191C47.8289 59.8921 47.8691 59.5918 47.9692 59.3093C48.0692 59.0268 48.227 58.7682 48.4323 58.5499C48.6377 58.3316 48.8863 58.1584 49.1622 58.0414C49.4381 57.9243 49.7353 57.8659 50.035 57.8699C53.3584 57.7251 55.7747 56.0558 57.2992 53.1173C57.8444 52.0916 58.1062 50.9392 58.0577 49.7787L58.0729 49.7825ZM58.0272 10.5267C58.059 10.303 58.0794 10.0778 58.0882 9.85207C58.0592 8.28161 57.4155 6.78515 56.2952 5.68414C55.175 4.58314 53.6676 3.96542 52.0969 3.96369C42.8508 3.96369 33.6035 3.96369 24.3548 3.96369C23.3161 3.94192 22.2911 4.20363 21.3899 4.72069C20.4888 5.23774 19.7455 5.9906 19.2401 6.89835C18.54 7.97253 18.2579 9.26613 18.4474 10.5343L58.0272 10.5267ZM18.436 26.4234H58.031C58.1207 25.0375 58.1207 23.6473 58.031 22.2615C56.8876 22.09 19.0534 22.1433 18.4474 22.3148L18.436 26.4234ZM38.2926 18.1987H58.111C58.4388 18.1987 58.7666 18.1987 59.0981 18.1987C59.3922 18.1833 59.6776 18.0937 59.9277 17.9384C60.1778 17.783 60.3846 17.5669 60.5287 17.3101C60.6729 17.0534 60.7498 16.7643 60.7522 16.4699C60.7546 16.1755 60.6825 15.8852 60.5426 15.6261C60.051 14.7343 59.243 14.5666 58.3054 14.5666C44.9203 14.5666 31.5352 14.5666 18.1501 14.5666C17.8481 14.5575 17.5458 14.5754 17.2469 14.6199C16.8799 14.6923 16.5414 14.8683 16.2712 15.1269C16.0011 15.3856 15.8106 15.7162 15.7224 16.0796C15.6508 16.4582 15.7057 16.8498 15.8786 17.1942C16.0514 17.5385 16.3327 17.8165 16.679 17.9853C17.0857 18.136 17.5186 18.2034 17.9519 18.1834C24.7385 18.2012 31.5187 18.2063 38.2926 18.1987Z" fill="url(#paint0_linear_2011_12)"/>
<path d="M49.5433 131.271C49.368 134.701 47.3938 137.879 43.754 139.987C41.6789 141.215 39.2461 141.697 36.8595 141.351C32.5185 140.738 29.4123 138.39 27.6858 134.377C27.0728 133.003 26.7843 131.507 26.8424 130.004C26.9006 128.501 27.3039 127.032 28.0212 125.71C28.37 125.089 28.765 124.496 29.2027 123.934C31.553 120.659 33.9083 117.386 36.2688 114.116C36.364 113.983 36.4593 113.85 36.566 113.735C37.5112 112.592 38.9557 112.561 39.8704 113.735C40.8804 115.035 41.8179 116.403 42.7784 117.722C44.3829 119.948 45.9722 122.185 47.5882 124.399C48.9221 126.213 49.5662 128.237 49.5433 131.271ZM38.1706 118.179C38.0029 118.434 37.919 118.56 37.8238 118.705C35.8076 121.51 33.7648 124.296 31.7829 127.124C31.2945 127.829 30.9754 128.637 30.8505 129.485C30.7255 130.333 30.7981 131.198 31.0626 132.014C31.3978 133.344 32.1086 134.55 33.1101 135.487C34.1115 136.424 35.3615 137.054 36.7109 137.3C39.5579 137.906 42.0161 136.995 43.9522 134.769C44.944 133.655 45.5206 132.231 45.5845 130.741C45.6484 129.25 45.1957 127.782 44.3029 126.587C42.3972 124.083 40.6174 121.472 38.7804 118.907C38.6394 118.713 38.4907 118.53 38.1782 118.179H38.1706Z" fill="url(#paint1_linear_2011_12)"/>
<path d="M13.7444 128.873C13.7444 132.304 13.7444 135.734 13.7444 139.164C13.7497 139.626 13.6602 140.083 13.4814 140.509C13.3064 140.87 13.021 141.165 12.6666 141.352C12.3122 141.539 11.9074 141.608 11.511 141.55C11.0862 141.485 10.6925 141.288 10.386 140.987C10.0794 140.686 9.87562 140.296 9.80353 139.873C9.77927 139.682 9.77035 139.489 9.77685 139.297C9.77685 132.353 9.77685 125.409 9.77685 118.465C9.74561 118.094 9.81474 117.721 9.97701 117.386C10.1393 117.051 10.3887 116.765 10.6992 116.559C10.9813 116.377 11.3055 116.27 11.6408 116.249C11.9761 116.227 12.3113 116.292 12.6142 116.438C12.9171 116.583 13.1776 116.804 13.3708 117.079C13.564 117.353 13.6835 117.673 13.7177 118.008C13.7393 118.281 13.7457 118.556 13.7367 118.831C13.7444 122.187 13.7469 125.535 13.7444 128.873Z" fill="url(#paint2_linear_2011_12)"/>
<path d="M13.8244 111.445C13.7667 111.926 13.662 112.401 13.5119 112.862C13.3422 113.275 13.0296 113.612 12.6313 113.813C12.2331 114.014 11.7759 114.065 11.3433 113.956C10.9256 113.867 10.5482 113.644 10.2679 113.322C9.98748 112.999 9.81921 112.595 9.7883 112.169C9.754 111.676 9.754 111.182 9.7883 110.69C9.82847 110.194 10.0545 109.731 10.4211 109.395C10.7878 109.058 11.268 108.873 11.7656 108.875C12.2633 108.878 12.7417 109.068 13.105 109.408C13.4684 109.748 13.6899 110.213 13.7253 110.709C13.7253 110.953 13.7253 111.201 13.7253 111.448L13.8244 111.445Z" fill="url(#paint3_linear_2011_12)"/>
<path d="M37.435 135.806C36.3869 135.909 35.415 134.43 35.9105 133.138C36.0412 132.774 36.2746 132.456 36.5823 132.222C36.8901 131.988 37.259 131.848 37.6446 131.819C37.997 131.794 38.345 131.726 38.6812 131.617C39.1029 131.442 39.4681 131.154 39.737 130.785C40.0059 130.416 40.168 129.98 40.2057 129.525C40.2286 129.2 40.2979 128.881 40.4116 128.576C40.6004 128.16 40.9295 127.824 41.3413 127.626C41.753 127.428 42.2212 127.381 42.664 127.494C43.0922 127.605 43.4715 127.855 43.7431 128.205C44.0146 128.554 44.1632 128.983 44.1656 129.426C44.1771 130.612 43.8362 131.776 43.1861 132.768C41.9437 134.632 40.2134 135.638 37.435 135.806Z" fill="url(#paint4_linear_2011_12)"/>
<ellipse cx="93.9706" cy="133.373" rx="27.9225" ry="27.3155" fill="#1B1B1B"/>
<ellipse cx="114.002" cy="148.548" rx="11.5332" ry="12.1402" fill="#1B1B1B"/>
<mask id="path-8-outside-1_2011_12" maskUnits="userSpaceOnUse" x="60.6199" y="99.8383" width="69" height="67" fill="black">
<rect fill="white" x="60.6199" y="99.8383" width="69" height="67"/>
<path d="M104.839 157.532C104.039 157.84 103.291 158.135 102.536 158.417C102.205 158.541 101.867 158.645 101.525 158.746C101.473 158.753 101.423 158.771 101.377 158.798C101.332 158.825 101.293 158.861 101.262 158.903C101.231 158.946 101.208 158.994 101.197 159.046C101.185 159.097 101.183 159.15 101.192 159.202C101.208 159.706 101.192 160.21 101.192 160.712C101.172 162.751 99.7917 164.149 97.7709 164.154C95.2559 164.163 92.7417 164.163 90.2282 164.154C88.2439 164.154 86.8549 162.751 86.8321 160.751C86.8321 160.135 86.8321 159.519 86.8321 158.88L85.7989 158.529C84.3886 158.063 83.0224 157.473 81.7162 156.766C81.3079 156.538 81.3056 156.538 80.9795 156.871C80.6533 157.204 80.277 157.589 79.9189 157.938C78.5732 159.243 76.6436 159.286 75.3094 157.977C73.4345 156.127 71.581 154.253 69.7487 152.355C68.4578 151.021 68.5011 149.048 69.792 147.709C70.2482 147.253 70.7044 146.797 71.1605 146.322C71.0944 146.174 71.0465 146.055 70.9872 145.944C70.1766 144.425 69.5195 142.83 69.0257 141.181C68.8911 140.725 68.8866 140.725 68.4327 140.725C67.9012 140.725 67.3698 140.725 66.8361 140.725C65.9722 140.712 65.1488 140.357 64.5461 139.738C63.9433 139.119 63.6104 138.286 63.6201 137.422C63.6201 134.807 63.6201 132.191 63.6201 129.574C63.6147 129.144 63.6944 128.717 63.8545 128.318C64.0147 127.918 64.2522 127.555 64.5534 127.248C64.8546 126.941 65.2136 126.696 65.6096 126.528C66.0057 126.36 66.431 126.272 66.8612 126.269C67.3767 126.269 67.8921 126.269 68.4076 126.269C68.8637 126.269 68.8752 126.269 69.0074 125.813C69.4679 124.273 70.0704 122.778 70.807 121.349C70.9165 121.135 71.0351 120.923 71.1537 120.688C71.0305 120.553 70.9256 120.433 70.8139 120.321C70.4284 119.926 70.027 119.548 69.6598 119.139C69.1131 118.539 68.8079 117.757 68.8028 116.945C68.7978 116.132 69.0933 115.347 69.6324 114.74C69.6552 114.715 69.6757 114.689 69.6985 114.667C71.5848 112.776 73.4459 110.86 75.3504 108.996C76.6436 107.728 78.5755 107.767 79.887 109.022C80.2952 109.414 80.6921 109.82 81.0844 110.228C81.1411 110.306 81.2264 110.359 81.3218 110.374C81.4171 110.39 81.5146 110.367 81.593 110.31C83.1608 109.443 84.818 108.749 86.5356 108.239C86.6315 108.223 86.7176 108.171 86.7758 108.093C86.8341 108.016 86.8599 107.918 86.8481 107.822C86.8344 107.302 86.8481 106.782 86.8481 106.262C86.8663 104.246 88.253 102.85 90.2305 102.838C92.7607 102.838 95.2901 102.838 97.8188 102.838C99.7826 102.838 101.16 104.23 101.194 106.212C101.194 106.716 101.194 107.22 101.194 107.724C101.194 108.125 101.194 108.13 101.557 108.239C103.224 108.747 104.837 109.421 106.37 110.251C106.714 110.438 106.719 110.436 106.99 110.169C107.369 109.792 107.736 109.405 108.13 109.028C109.499 107.717 111.431 107.71 112.774 109.044C114.609 110.869 116.434 112.708 118.248 114.562C119.587 115.93 119.573 117.899 118.248 119.281C117.81 119.737 117.336 120.159 116.891 120.599C116.966 120.777 117.005 120.898 117.064 121.007C117.874 122.526 118.532 124.12 119.03 125.767C119.176 126.251 119.181 126.251 119.701 126.251C120.221 126.251 120.732 126.251 121.247 126.251C122.084 126.265 122.882 126.605 123.472 127.197C124.062 127.79 124.398 128.589 124.409 129.426C124.443 131.114 124.42 132.806 124.42 134.496C124.42 135.39 124.406 136.284 124.42 137.176C124.445 137.639 124.376 138.103 124.217 138.539C124.058 138.975 123.812 139.374 123.494 139.712C123.459 139.762 123.428 139.815 123.403 139.87C123.496 139.986 123.592 140.111 123.695 140.232C125.305 142.123 126.327 144.444 126.635 146.908C127.111 150.628 126.085 153.913 123.77 156.814C123.672 156.942 123.563 157.062 123.444 157.172C123.283 157.323 123.073 157.409 122.853 157.414C122.633 157.419 122.418 157.343 122.251 157.199C122.075 157.052 121.96 156.844 121.928 156.617C121.896 156.389 121.951 156.158 122.08 155.968C122.163 155.849 122.253 155.735 122.349 155.626C127.289 149.643 124.719 140.572 117.391 138.123C111.426 136.134 104.942 139.751 103.443 145.907C103.087 147.326 103.018 148.801 103.24 150.247C103.461 151.692 103.97 153.079 104.734 154.326C105.499 155.572 106.505 156.654 107.693 157.506C108.882 158.359 110.228 158.966 111.654 159.291C114.002 159.831 116.463 159.555 118.634 158.511C118.78 158.442 118.923 158.367 119.069 158.301C119.639 158.046 120.155 158.198 120.392 158.689C120.629 159.179 120.438 159.699 119.865 159.971C119.22 160.3 118.55 160.579 117.86 160.803C113.087 162.201 108.856 161.195 105.179 157.82L104.839 157.532ZM98.6148 149.711C98.7813 149.68 98.9458 149.639 99.1075 149.588C99.6823 149.374 100.248 149.132 100.825 148.931C100.963 148.893 101.082 148.808 101.164 148.69C101.245 148.573 101.282 148.431 101.27 148.288C101.289 147.522 101.374 146.759 101.523 146.007C102.622 141.195 105.519 137.963 110.149 136.344C110.278 136.312 110.394 136.238 110.476 136.134C110.559 136.029 110.604 135.9 110.605 135.767C110.979 132.751 110.671 129.816 109.465 127.026C107.125 121.621 103.078 118.218 97.3627 116.961C93.581 116.131 89.9294 116.683 86.4603 118.421C86.3032 118.504 86.14 118.576 85.9722 118.635C85.8331 118.676 85.6862 118.684 85.5437 118.657C85.4011 118.63 85.2671 118.569 85.1527 118.48C85.0383 118.391 84.9468 118.275 84.8859 118.144C84.8249 118.012 84.7962 117.868 84.8022 117.723C84.8158 117.267 85.0964 117.039 85.4613 116.843C89.5007 114.79 93.7316 114.204 98.1404 115.228C103.031 116.368 106.858 119.105 109.606 123.322C111.99 126.99 112.904 131.043 112.505 135.411C112.494 135.532 112.505 135.657 112.505 135.826C114.186 135.634 115.889 135.779 117.514 136.251C119.139 136.723 120.654 137.514 121.97 138.577C122.162 138.435 122.314 138.248 122.415 138.033C122.515 137.817 122.56 137.58 122.545 137.343C122.545 134.793 122.534 132.24 122.545 129.688C122.556 129.482 122.523 129.276 122.449 129.083C122.375 128.89 122.261 128.715 122.115 128.569C121.969 128.423 121.794 128.309 121.602 128.235C121.409 128.16 121.203 128.127 120.997 128.137C120.242 128.165 119.482 128.137 118.716 128.137C117.92 128.137 117.669 127.936 117.457 127.152C117.065 125.642 116.527 124.174 115.851 122.768C115.58 122.216 115.279 121.678 114.989 121.135C114.676 120.551 114.72 120.223 115.185 119.737C115.32 119.598 115.456 119.461 115.593 119.324C116.027 118.886 116.465 118.455 116.889 118.01C117.532 117.326 117.539 116.564 116.923 115.885C116.868 115.823 116.809 115.768 116.752 115.709L111.661 110.573C111.539 110.444 111.407 110.324 111.267 110.214C111.075 110.066 110.846 109.972 110.604 109.944C110.363 109.917 110.119 109.956 109.898 110.057C109.68 110.162 109.483 110.306 109.316 110.481C108.751 111.036 108.203 111.622 107.638 112.167C107.182 112.607 106.839 112.646 106.285 112.342C106.057 112.21 105.811 112.066 105.569 111.936C103.94 111.045 102.213 110.349 100.421 109.861C99.5089 109.615 99.3515 109.405 99.3515 108.467C99.3515 107.767 99.3515 107.069 99.3515 106.369C99.3515 105.26 98.8087 104.711 97.723 104.709C95.2567 104.709 92.7911 104.709 90.3263 104.709C89.2406 104.709 88.7069 105.26 88.6978 106.371C88.6978 107.101 88.6978 107.833 88.6978 108.565C88.6978 109.373 88.5313 109.61 87.7672 109.818C85.6786 110.389 83.6742 111.233 81.8051 112.326C81.2053 112.675 80.8677 112.625 80.3796 112.139C79.8277 111.592 79.2871 111.033 78.7352 110.488C78.0007 109.761 77.2161 109.754 76.4908 110.488C74.7239 112.243 72.9662 114.008 71.2176 115.784C70.4672 116.544 70.4717 117.324 71.2176 118.083C71.7513 118.628 72.2895 119.162 72.8141 119.705C73.3387 120.248 73.3729 120.551 73.0126 121.181C71.9227 123.084 71.0868 125.122 70.5265 127.243C70.3508 127.905 70.0703 128.123 69.3861 128.128C68.5969 128.128 67.8054 128.149 67.0163 128.128C66.8103 128.12 66.6048 128.155 66.4129 128.23C66.221 128.306 66.0469 128.42 65.9015 128.566C65.7561 128.712 65.6427 128.887 65.5684 129.08C65.4941 129.272 65.4606 129.478 65.4699 129.684C65.4881 132.22 65.4881 134.755 65.4699 137.29C65.4578 137.5 65.4901 137.711 65.5646 137.908C65.6391 138.104 65.7542 138.283 65.9024 138.433C66.0506 138.582 66.2286 138.699 66.4248 138.775C66.621 138.851 66.8311 138.886 67.0414 138.875C67.8283 138.85 68.6197 138.875 69.4089 138.875C70.0612 138.875 70.3508 139.103 70.5196 139.735C71.0847 141.872 71.9282 143.924 73.0285 145.841C73.3729 146.443 73.3205 146.783 72.8347 147.278C72.2918 147.834 71.7376 148.379 71.197 148.936C70.4763 149.675 70.4717 150.46 71.197 151.201C72.9457 152.975 74.7004 154.745 76.4612 156.511C77.207 157.261 77.987 157.254 78.742 156.511C79.2917 155.963 79.8322 155.404 80.3842 154.857C80.8404 154.401 81.2007 154.344 81.7732 154.677C83.655 155.778 85.6744 156.626 87.7786 157.197C88.5085 157.396 88.691 157.653 88.691 158.42C88.691 159.186 88.691 159.98 88.691 160.76C88.691 161.335 88.8825 161.834 89.4163 162.094C89.7079 162.226 90.0246 162.293 90.3446 162.29C92.7919 162.306 95.2415 162.302 97.6911 162.29C98.8064 162.29 99.3378 161.741 99.3424 160.602C99.3424 159.838 99.3424 159.074 99.3424 158.31C99.3424 157.665 99.5477 157.398 100.157 157.213C100.681 157.051 101.21 156.912 101.728 156.732C102.333 156.524 102.928 156.276 103.601 156.032C102.508 154.459 101.766 152.67 101.425 150.786C101.37 150.781 101.315 150.781 101.261 150.786C101.156 150.822 101.048 150.861 100.944 150.902C99.5538 151.472 98.0978 151.864 96.61 152.07C93.5325 152.517 90.3917 152.169 87.4867 151.059C83.209 149.423 79.6764 146.28 77.5532 142.222C75.43 138.164 74.8624 133.469 75.9571 129.022C76.8411 125.315 78.8456 121.97 81.698 119.443C81.7923 119.358 81.8938 119.282 82.0013 119.215C82.1369 119.126 82.2954 119.078 82.4575 119.078C82.6195 119.078 82.7781 119.126 82.9136 119.215C83.0637 119.298 83.1865 119.423 83.2674 119.574C83.3483 119.725 83.3839 119.897 83.3698 120.068C83.3558 120.213 83.3124 120.354 83.2422 120.482C83.1721 120.611 83.0766 120.723 82.9615 120.813C82.5054 121.254 82.0332 121.676 81.6204 122.15C78.0281 126.278 76.6368 131.063 77.5354 136.483C78.5481 142.591 83.1166 147.802 88.9761 149.616C89.0947 149.652 89.2178 149.664 89.382 149.696C89.398 149.515 89.4163 149.374 89.4163 149.239C89.4163 146.377 89.4163 143.517 89.4163 140.657C89.4279 140.522 89.3949 140.388 89.3223 140.274C89.2497 140.16 89.1417 140.073 89.0148 140.027C85.9289 138.431 83.997 135.922 83.2877 132.487C82.8675 130.371 83.1007 128.177 83.9561 126.197C84.8116 124.217 86.2489 122.544 88.0774 121.4C88.4322 121.183 88.8163 121.019 89.2178 120.912C89.423 120.847 89.6393 120.826 89.8531 120.849C90.0669 120.872 90.2736 120.939 90.4601 121.047C90.6465 121.154 90.8088 121.298 90.9365 121.471C91.0642 121.645 91.1547 121.842 91.2021 122.052C91.3053 122.493 91.3528 122.945 91.3436 123.398C91.3436 125.544 91.3253 127.69 91.3436 129.834C91.3422 130.431 91.5249 131.015 91.867 131.504C92.209 131.994 92.6936 132.367 93.2549 132.571C93.6142 132.726 94.0128 132.765 94.3953 132.683C95.0508 132.533 95.6349 132.163 96.0501 131.634C96.4653 131.105 96.6862 130.449 96.6761 129.777C96.6761 127.615 96.6556 125.444 96.6602 123.293C96.6558 122.871 96.7049 122.45 96.8061 122.041C96.8555 121.835 96.946 121.642 97.0719 121.472C97.1979 121.303 97.3569 121.161 97.5392 121.054C97.7216 120.948 97.9236 120.879 98.1331 120.853C98.3427 120.826 98.5554 120.842 98.7585 120.9C99.1663 120.995 99.5555 121.157 99.9103 121.379C103.478 123.744 105.231 127.102 104.871 131.387C104.543 135.301 102.492 138.18 99.0322 140.007C98.8967 140.062 98.7823 140.159 98.706 140.283C98.6296 140.408 98.5953 140.554 98.608 140.7C98.608 143.512 98.608 146.324 98.608 149.139L98.6148 149.711ZM96.7674 150.145V140.034C96.7674 139.872 96.7674 139.708 96.7674 139.546C96.7693 139.375 96.8207 139.207 96.9154 139.065C97.0101 138.922 97.144 138.809 97.3011 138.741C97.4174 138.684 97.5292 138.636 97.6569 138.586C99.6065 137.77 101.199 136.283 102.145 134.393C103.091 132.503 103.327 130.337 102.812 128.288C102.291 126.099 100.931 124.203 99.0254 123.008C98.8885 122.916 98.7311 122.855 98.5053 122.738C98.5053 123.017 98.5053 123.195 98.5053 123.368C98.5053 125.53 98.519 127.702 98.519 129.852C98.5204 130.736 98.267 131.602 97.7892 132.345C96.5598 134.293 93.8844 135.538 91.4029 133.625C90.8047 133.184 90.3207 132.607 89.9914 131.941C89.662 131.275 89.4969 130.54 89.5098 129.798C89.5098 127.638 89.5098 125.464 89.5257 123.313C89.5257 123.147 89.5052 122.978 89.4892 122.716C89.1608 122.921 88.9076 123.058 88.6727 123.222C83.3242 126.994 83.8488 135.178 89.6352 138.232C89.9773 138.415 90.3377 138.561 90.689 138.722C90.8629 138.793 91.0114 138.915 91.1152 139.072C91.2189 139.228 91.2731 139.413 91.2706 139.601C91.2706 139.763 91.2706 139.924 91.2706 140.086V150.143C93.0884 150.467 94.9492 150.468 96.7674 150.145Z"/>
</mask>
<path d="M104.839 157.532C104.039 157.84 103.291 158.135 102.536 158.417C102.205 158.541 101.867 158.645 101.525 158.746C101.473 158.753 101.423 158.771 101.377 158.798C101.332 158.825 101.293 158.861 101.262 158.903C101.231 158.946 101.208 158.994 101.197 159.046C101.185 159.097 101.183 159.15 101.192 159.202C101.208 159.706 101.192 160.21 101.192 160.712C101.172 162.751 99.7917 164.149 97.7709 164.154C95.2559 164.163 92.7417 164.163 90.2282 164.154C88.2439 164.154 86.8549 162.751 86.8321 160.751C86.8321 160.135 86.8321 159.519 86.8321 158.88L85.7989 158.529C84.3886 158.063 83.0224 157.473 81.7162 156.766C81.3079 156.538 81.3056 156.538 80.9795 156.871C80.6533 157.204 80.277 157.589 79.9189 157.938C78.5732 159.243 76.6436 159.286 75.3094 157.977C73.4345 156.127 71.581 154.253 69.7487 152.355C68.4578 151.021 68.5011 149.048 69.792 147.709C70.2482 147.253 70.7044 146.797 71.1605 146.322C71.0944 146.174 71.0465 146.055 70.9872 145.944C70.1766 144.425 69.5195 142.83 69.0257 141.181C68.8911 140.725 68.8866 140.725 68.4327 140.725C67.9012 140.725 67.3698 140.725 66.8361 140.725C65.9722 140.712 65.1488 140.357 64.5461 139.738C63.9433 139.119 63.6104 138.286 63.6201 137.422C63.6201 134.807 63.6201 132.191 63.6201 129.574C63.6147 129.144 63.6944 128.717 63.8545 128.318C64.0147 127.918 64.2522 127.555 64.5534 127.248C64.8546 126.941 65.2136 126.696 65.6096 126.528C66.0057 126.36 66.431 126.272 66.8612 126.269C67.3767 126.269 67.8921 126.269 68.4076 126.269C68.8637 126.269 68.8752 126.269 69.0074 125.813C69.4679 124.273 70.0704 122.778 70.807 121.349C70.9165 121.135 71.0351 120.923 71.1537 120.688C71.0305 120.553 70.9256 120.433 70.8139 120.321C70.4284 119.926 70.027 119.548 69.6598 119.139C69.1131 118.539 68.8079 117.757 68.8028 116.945C68.7978 116.132 69.0933 115.347 69.6324 114.74C69.6552 114.715 69.6757 114.689 69.6985 114.667C71.5848 112.776 73.4459 110.86 75.3504 108.996C76.6436 107.728 78.5755 107.767 79.887 109.022C80.2952 109.414 80.6921 109.82 81.0844 110.228C81.1411 110.306 81.2264 110.359 81.3218 110.374C81.4171 110.39 81.5146 110.367 81.593 110.31C83.1608 109.443 84.818 108.749 86.5356 108.239C86.6315 108.223 86.7176 108.171 86.7758 108.093C86.8341 108.016 86.8599 107.918 86.8481 107.822C86.8344 107.302 86.8481 106.782 86.8481 106.262C86.8663 104.246 88.253 102.85 90.2305 102.838C92.7607 102.838 95.2901 102.838 97.8188 102.838C99.7826 102.838 101.16 104.23 101.194 106.212C101.194 106.716 101.194 107.22 101.194 107.724C101.194 108.125 101.194 108.13 101.557 108.239C103.224 108.747 104.837 109.421 106.37 110.251C106.714 110.438 106.719 110.436 106.99 110.169C107.369 109.792 107.736 109.405 108.13 109.028C109.499 107.717 111.431 107.71 112.774 109.044C114.609 110.869 116.434 112.708 118.248 114.562C119.587 115.93 119.573 117.899 118.248 119.281C117.81 119.737 117.336 120.159 116.891 120.599C116.966 120.777 117.005 120.898 117.064 121.007C117.874 122.526 118.532 124.12 119.03 125.767C119.176 126.251 119.181 126.251 119.701 126.251C120.221 126.251 120.732 126.251 121.247 126.251C122.084 126.265 122.882 126.605 123.472 127.197C124.062 127.79 124.398 128.589 124.409 129.426C124.443 131.114 124.42 132.806 124.42 134.496C124.42 135.39 124.406 136.284 124.42 137.176C124.445 137.639 124.376 138.103 124.217 138.539C124.058 138.975 123.812 139.374 123.494 139.712C123.459 139.762 123.428 139.815 123.403 139.87C123.496 139.986 123.592 140.111 123.695 140.232C125.305 142.123 126.327 144.444 126.635 146.908C127.111 150.628 126.085 153.913 123.77 156.814C123.672 156.942 123.563 157.062 123.444 157.172C123.283 157.323 123.073 157.409 122.853 157.414C122.633 157.419 122.418 157.343 122.251 157.199C122.075 157.052 121.96 156.844 121.928 156.617C121.896 156.389 121.951 156.158 122.08 155.968C122.163 155.849 122.253 155.735 122.349 155.626C127.289 149.643 124.719 140.572 117.391 138.123C111.426 136.134 104.942 139.751 103.443 145.907C103.087 147.326 103.018 148.801 103.24 150.247C103.461 151.692 103.97 153.079 104.734 154.326C105.499 155.572 106.505 156.654 107.693 157.506C108.882 158.359 110.228 158.966 111.654 159.291C114.002 159.831 116.463 159.555 118.634 158.511C118.78 158.442 118.923 158.367 119.069 158.301C119.639 158.046 120.155 158.198 120.392 158.689C120.629 159.179 120.438 159.699 119.865 159.971C119.22 160.3 118.55 160.579 117.86 160.803C113.087 162.201 108.856 161.195 105.179 157.82L104.839 157.532ZM98.6148 149.711C98.7813 149.68 98.9458 149.639 99.1075 149.588C99.6823 149.374 100.248 149.132 100.825 148.931C100.963 148.893 101.082 148.808 101.164 148.69C101.245 148.573 101.282 148.431 101.27 148.288C101.289 147.522 101.374 146.759 101.523 146.007C102.622 141.195 105.519 137.963 110.149 136.344C110.278 136.312 110.394 136.238 110.476 136.134C110.559 136.029 110.604 135.9 110.605 135.767C110.979 132.751 110.671 129.816 109.465 127.026C107.125 121.621 103.078 118.218 97.3627 116.961C93.581 116.131 89.9294 116.683 86.4603 118.421C86.3032 118.504 86.14 118.576 85.9722 118.635C85.8331 118.676 85.6862 118.684 85.5437 118.657C85.4011 118.63 85.2671 118.569 85.1527 118.48C85.0383 118.391 84.9468 118.275 84.8859 118.144C84.8249 118.012 84.7962 117.868 84.8022 117.723C84.8158 117.267 85.0964 117.039 85.4613 116.843C89.5007 114.79 93.7316 114.204 98.1404 115.228C103.031 116.368 106.858 119.105 109.606 123.322C111.99 126.99 112.904 131.043 112.505 135.411C112.494 135.532 112.505 135.657 112.505 135.826C114.186 135.634 115.889 135.779 117.514 136.251C119.139 136.723 120.654 137.514 121.97 138.577C122.162 138.435 122.314 138.248 122.415 138.033C122.515 137.817 122.56 137.58 122.545 137.343C122.545 134.793 122.534 132.24 122.545 129.688C122.556 129.482 122.523 129.276 122.449 129.083C122.375 128.89 122.261 128.715 122.115 128.569C121.969 128.423 121.794 128.309 121.602 128.235C121.409 128.16 121.203 128.127 120.997 128.137C120.242 128.165 119.482 128.137 118.716 128.137C117.92 128.137 117.669 127.936 117.457 127.152C117.065 125.642 116.527 124.174 115.851 122.768C115.58 122.216 115.279 121.678 114.989 121.135C114.676 120.551 114.72 120.223 115.185 119.737C115.32 119.598 115.456 119.461 115.593 119.324C116.027 118.886 116.465 118.455 116.889 118.01C117.532 117.326 117.539 116.564 116.923 115.885C116.868 115.823 116.809 115.768 116.752 115.709L111.661 110.573C111.539 110.444 111.407 110.324 111.267 110.214C111.075 110.066 110.846 109.972 110.604 109.944C110.363 109.917 110.119 109.956 109.898 110.057C109.68 110.162 109.483 110.306 109.316 110.481C108.751 111.036 108.203 111.622 107.638 112.167C107.182 112.607 106.839 112.646 106.285 112.342C106.057 112.21 105.811 112.066 105.569 111.936C103.94 111.045 102.213 110.349 100.421 109.861C99.5089 109.615 99.3515 109.405 99.3515 108.467C99.3515 107.767 99.3515 107.069 99.3515 106.369C99.3515 105.26 98.8087 104.711 97.723 104.709C95.2567 104.709 92.7911 104.709 90.3263 104.709C89.2406 104.709 88.7069 105.26 88.6978 106.371C88.6978 107.101 88.6978 107.833 88.6978 108.565C88.6978 109.373 88.5313 109.61 87.7672 109.818C85.6786 110.389 83.6742 111.233 81.8051 112.326C81.2053 112.675 80.8677 112.625 80.3796 112.139C79.8277 111.592 79.2871 111.033 78.7352 110.488C78.0007 109.761 77.2161 109.754 76.4908 110.488C74.7239 112.243 72.9662 114.008 71.2176 115.784C70.4672 116.544 70.4717 117.324 71.2176 118.083C71.7513 118.628 72.2895 119.162 72.8141 119.705C73.3387 120.248 73.3729 120.551 73.0126 121.181C71.9227 123.084 71.0868 125.122 70.5265 127.243C70.3508 127.905 70.0703 128.123 69.3861 128.128C68.5969 128.128 67.8054 128.149 67.0163 128.128C66.8103 128.12 66.6048 128.155 66.4129 128.23C66.221 128.306 66.0469 128.42 65.9015 128.566C65.7561 128.712 65.6427 128.887 65.5684 129.08C65.4941 129.272 65.4606 129.478 65.4699 129.684C65.4881 132.22 65.4881 134.755 65.4699 137.29C65.4578 137.5 65.4901 137.711 65.5646 137.908C65.6391 138.104 65.7542 138.283 65.9024 138.433C66.0506 138.582 66.2286 138.699 66.4248 138.775C66.621 138.851 66.8311 138.886 67.0414 138.875C67.8283 138.85 68.6197 138.875 69.4089 138.875C70.0612 138.875 70.3508 139.103 70.5196 139.735C71.0847 141.872 71.9282 143.924 73.0285 145.841C73.3729 146.443 73.3205 146.783 72.8347 147.278C72.2918 147.834 71.7376 148.379 71.197 148.936C70.4763 149.675 70.4717 150.46 71.197 151.201C72.9457 152.975 74.7004 154.745 76.4612 156.511C77.207 157.261 77.987 157.254 78.742 156.511C79.2917 155.963 79.8322 155.404 80.3842 154.857C80.8404 154.401 81.2007 154.344 81.7732 154.677C83.655 155.778 85.6744 156.626 87.7786 157.197C88.5085 157.396 88.691 157.653 88.691 158.42C88.691 159.186 88.691 159.98 88.691 160.76C88.691 161.335 88.8825 161.834 89.4163 162.094C89.7079 162.226 90.0246 162.293 90.3446 162.29C92.7919 162.306 95.2415 162.302 97.6911 162.29C98.8064 162.29 99.3378 161.741 99.3424 160.602C99.3424 159.838 99.3424 159.074 99.3424 158.31C99.3424 157.665 99.5477 157.398 100.157 157.213C100.681 157.051 101.21 156.912 101.728 156.732C102.333 156.524 102.928 156.276 103.601 156.032C102.508 154.459 101.766 152.67 101.425 150.786C101.37 150.781 101.315 150.781 101.261 150.786C101.156 150.822 101.048 150.861 100.944 150.902C99.5538 151.472 98.0978 151.864 96.61 152.07C93.5325 152.517 90.3917 152.169 87.4867 151.059C83.209 149.423 79.6764 146.28 77.5532 142.222C75.43 138.164 74.8624 133.469 75.9571 129.022C76.8411 125.315 78.8456 121.97 81.698 119.443C81.7923 119.358 81.8938 119.282 82.0013 119.215C82.1369 119.126 82.2954 119.078 82.4575 119.078C82.6195 119.078 82.7781 119.126 82.9136 119.215C83.0637 119.298 83.1865 119.423 83.2674 119.574C83.3483 119.725 83.3839 119.897 83.3698 120.068C83.3558 120.213 83.3124 120.354 83.2422 120.482C83.1721 120.611 83.0766 120.723 82.9615 120.813C82.5054 121.254 82.0332 121.676 81.6204 122.15C78.0281 126.278 76.6368 131.063 77.5354 136.483C78.5481 142.591 83.1166 147.802 88.9761 149.616C89.0947 149.652 89.2178 149.664 89.382 149.696C89.398 149.515 89.4163 149.374 89.4163 149.239C89.4163 146.377 89.4163 143.517 89.4163 140.657C89.4279 140.522 89.3949 140.388 89.3223 140.274C89.2497 140.16 89.1417 140.073 89.0148 140.027C85.9289 138.431 83.997 135.922 83.2877 132.487C82.8675 130.371 83.1007 128.177 83.9561 126.197C84.8116 124.217 86.2489 122.544 88.0774 121.4C88.4322 121.183 88.8163 121.019 89.2178 120.912C89.423 120.847 89.6393 120.826 89.8531 120.849C90.0669 120.872 90.2736 120.939 90.4601 121.047C90.6465 121.154 90.8088 121.298 90.9365 121.471C91.0642 121.645 91.1547 121.842 91.2021 122.052C91.3053 122.493 91.3528 122.945 91.3436 123.398C91.3436 125.544 91.3253 127.69 91.3436 129.834C91.3422 130.431 91.5249 131.015 91.867 131.504C92.209 131.994 92.6936 132.367 93.2549 132.571C93.6142 132.726 94.0128 132.765 94.3953 132.683C95.0508 132.533 95.6349 132.163 96.0501 131.634C96.4653 131.105 96.6862 130.449 96.6761 129.777C96.6761 127.615 96.6556 125.444 96.6602 123.293C96.6558 122.871 96.7049 122.45 96.8061 122.041C96.8555 121.835 96.946 121.642 97.0719 121.472C97.1979 121.303 97.3569 121.161 97.5392 121.054C97.7216 120.948 97.9236 120.879 98.1331 120.853C98.3427 120.826 98.5554 120.842 98.7585 120.9C99.1663 120.995 99.5555 121.157 99.9103 121.379C103.478 123.744 105.231 127.102 104.871 131.387C104.543 135.301 102.492 138.18 99.0322 140.007C98.8967 140.062 98.7823 140.159 98.706 140.283C98.6296 140.408 98.5953 140.554 98.608 140.7C98.608 143.512 98.608 146.324 98.608 149.139L98.6148 149.711ZM96.7674 150.145V140.034C96.7674 139.872 96.7674 139.708 96.7674 139.546C96.7693 139.375 96.8207 139.207 96.9154 139.065C97.0101 138.922 97.144 138.809 97.3011 138.741C97.4174 138.684 97.5292 138.636 97.6569 138.586C99.6065 137.77 101.199 136.283 102.145 134.393C103.091 132.503 103.327 130.337 102.812 128.288C102.291 126.099 100.931 124.203 99.0254 123.008C98.8885 122.916 98.7311 122.855 98.5053 122.738C98.5053 123.017 98.5053 123.195 98.5053 123.368C98.5053 125.53 98.519 127.702 98.519 129.852C98.5204 130.736 98.267 131.602 97.7892 132.345C96.5598 134.293 93.8844 135.538 91.4029 133.625C90.8047 133.184 90.3207 132.607 89.9914 131.941C89.662 131.275 89.4969 130.54 89.5098 129.798C89.5098 127.638 89.5098 125.464 89.5257 123.313C89.5257 123.147 89.5052 122.978 89.4892 122.716C89.1608 122.921 88.9076 123.058 88.6727 123.222C83.3242 126.994 83.8488 135.178 89.6352 138.232C89.9773 138.415 90.3377 138.561 90.689 138.722C90.8629 138.793 91.0114 138.915 91.1152 139.072C91.2189 139.228 91.2731 139.413 91.2706 139.601C91.2706 139.763 91.2706 139.924 91.2706 140.086V150.143C93.0884 150.467 94.9492 150.468 96.7674 150.145Z" fill="url(#paint5_linear_2011_12)"/>
<path d="M104.839 157.532C104.039 157.84 103.291 158.135 102.536 158.417C102.205 158.541 101.867 158.645 101.525 158.746C101.473 158.753 101.423 158.771 101.377 158.798C101.332 158.825 101.293 158.861 101.262 158.903C101.231 158.946 101.208 158.994 101.197 159.046C101.185 159.097 101.183 159.15 101.192 159.202C101.208 159.706 101.192 160.21 101.192 160.712C101.172 162.751 99.7917 164.149 97.7709 164.154C95.2559 164.163 92.7417 164.163 90.2282 164.154C88.2439 164.154 86.8549 162.751 86.8321 160.751C86.8321 160.135 86.8321 159.519 86.8321 158.88L85.7989 158.529C84.3886 158.063 83.0224 157.473 81.7162 156.766C81.3079 156.538 81.3056 156.538 80.9795 156.871C80.6533 157.204 80.277 157.589 79.9189 157.938C78.5732 159.243 76.6436 159.286 75.3094 157.977C73.4345 156.127 71.581 154.253 69.7487 152.355C68.4578 151.021 68.5011 149.048 69.792 147.709C70.2482 147.253 70.7044 146.797 71.1605 146.322C71.0944 146.174 71.0465 146.055 70.9872 145.944C70.1766 144.425 69.5195 142.83 69.0257 141.181C68.8911 140.725 68.8866 140.725 68.4327 140.725C67.9012 140.725 67.3698 140.725 66.8361 140.725C65.9722 140.712 65.1488 140.357 64.5461 139.738C63.9433 139.119 63.6104 138.286 63.6201 137.422C63.6201 134.807 63.6201 132.191 63.6201 129.574C63.6147 129.144 63.6944 128.717 63.8545 128.318C64.0147 127.918 64.2522 127.555 64.5534 127.248C64.8546 126.941 65.2136 126.696 65.6096 126.528C66.0057 126.36 66.431 126.272 66.8612 126.269C67.3767 126.269 67.8921 126.269 68.4076 126.269C68.8637 126.269 68.8752 126.269 69.0074 125.813C69.4679 124.273 70.0704 122.778 70.807 121.349C70.9165 121.135 71.0351 120.923 71.1537 120.688C71.0305 120.553 70.9256 120.433 70.8139 120.321C70.4284 119.926 70.027 119.548 69.6598 119.139C69.1131 118.539 68.8079 117.757 68.8028 116.945C68.7978 116.132 69.0933 115.347 69.6324 114.74C69.6552 114.715 69.6757 114.689 69.6985 114.667C71.5848 112.776 73.4459 110.86 75.3504 108.996C76.6436 107.728 78.5755 107.767 79.887 109.022C80.2952 109.414 80.6921 109.82 81.0844 110.228C81.1411 110.306 81.2264 110.359 81.3218 110.374C81.4171 110.39 81.5146 110.367 81.593 110.31C83.1608 109.443 84.818 108.749 86.5356 108.239C86.6315 108.223 86.7176 108.171 86.7758 108.093C86.8341 108.016 86.8599 107.918 86.8481 107.822C86.8344 107.302 86.8481 106.782 86.8481 106.262C86.8663 104.246 88.253 102.85 90.2305 102.838C92.7607 102.838 95.2901 102.838 97.8188 102.838C99.7826 102.838 101.16 104.23 101.194 106.212C101.194 106.716 101.194 107.22 101.194 107.724C101.194 108.125 101.194 108.13 101.557 108.239C103.224 108.747 104.837 109.421 106.37 110.251C106.714 110.438 106.719 110.436 106.99 110.169C107.369 109.792 107.736 109.405 108.13 109.028C109.499 107.717 111.431 107.71 112.774 109.044C114.609 110.869 116.434 112.708 118.248 114.562C119.587 115.93 119.573 117.899 118.248 119.281C117.81 119.737 117.336 120.159 116.891 120.599C116.966 120.777 117.005 120.898 117.064 121.007C117.874 122.526 118.532 124.12 119.03 125.767C119.176 126.251 119.181 126.251 119.701 126.251C120.221 126.251 120.732 126.251 121.247 126.251C122.084 126.265 122.882 126.605 123.472 127.197C124.062 127.79 124.398 128.589 124.409 129.426C124.443 131.114 124.42 132.806 124.42 134.496C124.42 135.39 124.406 136.284 124.42 137.176C124.445 137.639 124.376 138.103 124.217 138.539C124.058 138.975 123.812 139.374 123.494 139.712C123.459 139.762 123.428 139.815 123.403 139.87C123.496 139.986 123.592 140.111 123.695 140.232C125.305 142.123 126.327 144.444 126.635 146.908C127.111 150.628 126.085 153.913 123.77 156.814C123.672 156.942 123.563 157.062 123.444 157.172C123.283 157.323 123.073 157.409 122.853 157.414C122.633 157.419 122.418 157.343 122.251 157.199C122.075 157.052 121.96 156.844 121.928 156.617C121.896 156.389 121.951 156.158 122.08 155.968C122.163 155.849 122.253 155.735 122.349 155.626C127.289 149.643 124.719 140.572 117.391 138.123C111.426 136.134 104.942 139.751 103.443 145.907C103.087 147.326 103.018 148.801 103.24 150.247C103.461 151.692 103.97 153.079 104.734 154.326C105.499 155.572 106.505 156.654 107.693 157.506C108.882 158.359 110.228 158.966 111.654 159.291C114.002 159.831 116.463 159.555 118.634 158.511C118.78 158.442 118.923 158.367 119.069 158.301C119.639 158.046 120.155 158.198 120.392 158.689C120.629 159.179 120.438 159.699 119.865 159.971C119.22 160.3 118.55 160.579 117.86 160.803C113.087 162.201 108.856 161.195 105.179 157.82L104.839 157.532ZM98.6148 149.711C98.7813 149.68 98.9458 149.639 99.1075 149.588C99.6823 149.374 100.248 149.132 100.825 148.931C100.963 148.893 101.082 148.808 101.164 148.69C101.245 148.573 101.282 148.431 101.27 148.288C101.289 147.522 101.374 146.759 101.523 146.007C102.622 141.195 105.519 137.963 110.149 136.344C110.278 136.312 110.394 136.238 110.476 136.134C110.559 136.029 110.604 135.9 110.605 135.767C110.979 132.751 110.671 129.816 109.465 127.026C107.125 121.621 103.078 118.218 97.3627 116.961C93.581 116.131 89.9294 116.683 86.4603 118.421C86.3032 118.504 86.14 118.576 85.9722 118.635C85.8331 118.676 85.6862 118.684 85.5437 118.657C85.4011 118.63 85.2671 118.569 85.1527 118.48C85.0383 118.391 84.9468 118.275 84.8859 118.144C84.8249 118.012 84.7962 117.868 84.8022 117.723C84.8158 117.267 85.0964 117.039 85.4613 116.843C89.5007 114.79 93.7316 114.204 98.1404 115.228C103.031 116.368 106.858 119.105 109.606 123.322C111.99 126.99 112.904 131.043 112.505 135.411C112.494 135.532 112.505 135.657 112.505 135.826C114.186 135.634 115.889 135.779 117.514 136.251C119.139 136.723 120.654 137.514 121.97 138.577C122.162 138.435 122.314 138.248 122.415 138.033C122.515 137.817 122.56 137.58 122.545 137.343C122.545 134.793 122.534 132.24 122.545 129.688C122.556 129.482 122.523 129.276 122.449 129.083C122.375 128.89 122.261 128.715 122.115 128.569C121.969 128.423 121.794 128.309 121.602 128.235C121.409 128.16 121.203 128.127 120.997 128.137C120.242 128.165 119.482 128.137 118.716 128.137C117.92 128.137 117.669 127.936 117.457 127.152C117.065 125.642 116.527 124.174 115.851 122.768C115.58 122.216 115.279 121.678 114.989 121.135C114.676 120.551 114.72 120.223 115.185 119.737C115.32 119.598 115.456 119.461 115.593 119.324C116.027 118.886 116.465 118.455 116.889 118.01C117.532 117.326 117.539 116.564 116.923 115.885C116.868 115.823 116.809 115.768 116.752 115.709L111.661 110.573C111.539 110.444 111.407 110.324 111.267 110.214C111.075 110.066 110.846 109.972 110.604 109.944C110.363 109.917 110.119 109.956 109.898 110.057C109.68 110.162 109.483 110.306 109.316 110.481C108.751 111.036 108.203 111.622 107.638 112.167C107.182 112.607 106.839 112.646 106.285 112.342C106.057 112.21 105.811 112.066 105.569 111.936C103.94 111.045 102.213 110.349 100.421 109.861C99.5089 109.615 99.3515 109.405 99.3515 108.467C99.3515 107.767 99.3515 107.069 99.3515 106.369C99.3515 105.26 98.8087 104.711 97.723 104.709C95.2567 104.709 92.7911 104.709 90.3263 104.709C89.2406 104.709 88.7069 105.26 88.6978 106.371C88.6978 107.101 88.6978 107.833 88.6978 108.565C88.6978 109.373 88.5313 109.61 87.7672 109.818C85.6786 110.389 83.6742 111.233 81.8051 112.326C81.2053 112.675 80.8677 112.625 80.3796 112.139C79.8277 111.592 79.2871 111.033 78.7352 110.488C78.0007 109.761 77.2161 109.754 76.4908 110.488C74.7239 112.243 72.9662 114.008 71.2176 115.784C70.4672 116.544 70.4717 117.324 71.2176 118.083C71.7513 118.628 72.2895 119.162 72.8141 119.705C73.3387 120.248 73.3729 120.551 73.0126 121.181C71.9227 123.084 71.0868 125.122 70.5265 127.243C70.3508 127.905 70.0703 128.123 69.3861 128.128C68.5969 128.128 67.8054 128.149 67.0163 128.128C66.8103 128.12 66.6048 128.155 66.4129 128.23C66.221 128.306 66.0469 128.42 65.9015 128.566C65.7561 128.712 65.6427 128.887 65.5684 129.08C65.4941 129.272 65.4606 129.478 65.4699 129.684C65.4881 132.22 65.4881 134.755 65.4699 137.29C65.4578 137.5 65.4901 137.711 65.5646 137.908C65.6391 138.104 65.7542 138.283 65.9024 138.433C66.0506 138.582 66.2286 138.699 66.4248 138.775C66.621 138.851 66.8311 138.886 67.0414 138.875C67.8283 138.85 68.6197 138.875 69.4089 138.875C70.0612 138.875 70.3508 139.103 70.5196 139.735C71.0847 141.872 71.9282 143.924 73.0285 145.841C73.3729 146.443 73.3205 146.783 72.8347 147.278C72.2918 147.834 71.7376 148.379 71.197 148.936C70.4763 149.675 70.4717 150.46 71.197 151.201C72.9457 152.975 74.7004 154.745 76.4612 156.511C77.207 157.261 77.987 157.254 78.742 156.511C79.2917 155.963 79.8322 155.404 80.3842 154.857C80.8404 154.401 81.2007 154.344 81.7732 154.677C83.655 155.778 85.6744 156.626 87.7786 157.197C88.5085 157.396 88.691 157.653 88.691 158.42C88.691 159.186 88.691 159.98 88.691 160.76C88.691 161.335 88.8825 161.834 89.4163 162.094C89.7079 162.226 90.0246 162.293 90.3446 162.29C92.7919 162.306 95.2415 162.302 97.6911 162.29C98.8064 162.29 99.3378 161.741 99.3424 160.602C99.3424 159.838 99.3424 159.074 99.3424 158.31C99.3424 157.665 99.5477 157.398 100.157 157.213C100.681 157.051 101.21 156.912 101.728 156.732C102.333 156.524 102.928 156.276 103.601 156.032C102.508 154.459 101.766 152.67 101.425 150.786C101.37 150.781 101.315 150.781 101.261 150.786C101.156 150.822 101.048 150.861 100.944 150.902C99.5538 151.472 98.0978 151.864 96.61 152.07C93.5325 152.517 90.3917 152.169 87.4867 151.059C83.209 149.423 79.6764 146.28 77.5532 142.222C75.43 138.164 74.8624 133.469 75.9571 129.022C76.8411 125.315 78.8456 121.97 81.698 119.443C81.7923 119.358 81.8938 119.282 82.0013 119.215C82.1369 119.126 82.2954 119.078 82.4575 119.078C82.6195 119.078 82.7781 119.126 82.9136 119.215C83.0637 119.298 83.1865 119.423 83.2674 119.574C83.3483 119.725 83.3839 119.897 83.3698 120.068C83.3558 120.213 83.3124 120.354 83.2422 120.482C83.1721 120.611 83.0766 120.723 82.9615 120.813C82.5054 121.254 82.0332 121.676 81.6204 122.15C78.0281 126.278 76.6368 131.063 77.5354 136.483C78.5481 142.591 83.1166 147.802 88.9761 149.616C89.0947 149.652 89.2178 149.664 89.382 149.696C89.398 149.515 89.4163 149.374 89.4163 149.239C89.4163 146.377 89.4163 143.517 89.4163 140.657C89.4279 140.522 89.3949 140.388 89.3223 140.274C89.2497 140.16 89.1417 140.073 89.0148 140.027C85.9289 138.431 83.997 135.922 83.2877 132.487C82.8675 130.371 83.1007 128.177 83.9561 126.197C84.8116 124.217 86.2489 122.544 88.0774 121.4C88.4322 121.183 88.8163 121.019 89.2178 120.912C89.423 120.847 89.6393 120.826 89.8531 120.849C90.0669 120.872 90.2736 120.939 90.4601 121.047C90.6465 121.154 90.8088 121.298 90.9365 121.471C91.0642 121.645 91.1547 121.842 91.2021 122.052C91.3053 122.493 91.3528 122.945 91.3436 123.398C91.3436 125.544 91.3253 127.69 91.3436 129.834C91.3422 130.431 91.5249 131.015 91.867 131.504C92.209 131.994 92.6936 132.367 93.2549 132.571C93.6142 132.726 94.0128 132.765 94.3953 132.683C95.0508 132.533 95.6349 132.163 96.0501 131.634C96.4653 131.105 96.6862 130.449 96.6761 129.777C96.6761 127.615 96.6556 125.444 96.6602 123.293C96.6558 122.871 96.7049 122.45 96.8061 122.041C96.8555 121.835 96.946 121.642 97.0719 121.472C97.1979 121.303 97.3569 121.161 97.5392 121.054C97.7216 120.948 97.9236 120.879 98.1331 120.853C98.3427 120.826 98.5554 120.842 98.7585 120.9C99.1663 120.995 99.5555 121.157 99.9103 121.379C103.478 123.744 105.231 127.102 104.871 131.387C104.543 135.301 102.492 138.18 99.0322 140.007C98.8967 140.062 98.7823 140.159 98.706 140.283C98.6296 140.408 98.5953 140.554 98.608 140.7C98.608 143.512 98.608 146.324 98.608 149.139L98.6148 149.711ZM96.7674 150.145V140.034C96.7674 139.872 96.7674 139.708 96.7674 139.546C96.7693 139.375 96.8207 139.207 96.9154 139.065C97.0101 138.922 97.144 138.809 97.3011 138.741C97.4174 138.684 97.5292 138.636 97.6569 138.586C99.6065 137.77 101.199 136.283 102.145 134.393C103.091 132.503 103.327 130.337 102.812 128.288C102.291 126.099 100.931 124.203 99.0254 123.008C98.8885 122.916 98.7311 122.855 98.5053 122.738C98.5053 123.017 98.5053 123.195 98.5053 123.368C98.5053 125.53 98.519 127.702 98.519 129.852C98.5204 130.736 98.267 131.602 97.7892 132.345C96.5598 134.293 93.8844 135.538 91.4029 133.625C90.8047 133.184 90.3207 132.607 89.9914 131.941C89.662 131.275 89.4969 130.54 89.5098 129.798C89.5098 127.638 89.5098 125.464 89.5257 123.313C89.5257 123.147 89.5052 122.978 89.4892 122.716C89.1608 122.921 88.9076 123.058 88.6727 123.222C83.3242 126.994 83.8488 135.178 89.6352 138.232C89.9773 138.415 90.3377 138.561 90.689 138.722C90.8629 138.793 91.0114 138.915 91.1152 139.072C91.2189 139.228 91.2731 139.413 91.2706 139.601C91.2706 139.763 91.2706 139.924 91.2706 140.086V150.143C93.0884 150.467 94.9492 150.468 96.7674 150.145Z" stroke="#1B1B1B" stroke-width="4.85609" mask="url(#path-8-outside-1_2011_12)"/>
<path d="M116.457 141.271C117.139 140.979 117.884 140.87 118.621 140.95C119.388 141.028 120.122 141.305 120.747 141.756C121.372 142.207 121.867 142.815 122.182 143.518C122.498 144.221 122.623 144.995 122.545 145.762C122.467 146.528 122.188 147.261 121.737 147.886L121.736 147.885C121.273 148.536 120.7 149.172 120.279 149.682L120.277 149.684C118.975 151.253 117.672 152.823 116.367 154.393C115.725 155.202 114.821 155.761 113.809 155.974C113.806 155.975 113.802 155.976 113.799 155.977C113.794 155.978 113.788 155.98 113.783 155.981L113.782 155.98C113.167 156.115 112.528 156.111 111.915 155.965C111.294 155.817 110.716 155.529 110.224 155.123C109.138 154.235 108.059 153.322 107.01 152.371L107.007 152.369C106.176 151.611 105.669 150.563 105.588 149.442C105.507 148.32 105.859 147.211 106.571 146.342C107.278 145.465 108.299 144.896 109.417 144.757C110.454 144.628 111.501 144.877 112.366 145.454L114.751 142.584C115.199 142.01 115.786 141.557 116.457 141.271ZM118.198 145.225C118.182 145.225 118.167 145.229 118.153 145.236C118.078 145.305 118.007 145.379 117.944 145.46L117.932 145.477L117.919 145.492C116.753 146.889 115.582 148.309 114.404 149.71C114.062 150.117 113.551 150.548 112.839 150.609C112.129 150.669 111.556 150.333 111.155 149.998V149.997C110.793 149.697 110.407 149.361 110.076 149.08L110.06 149.067L110.046 149.053C110.028 149.037 110.007 149.029 109.984 149.024H109.965C109.945 149.023 109.926 149.028 109.91 149.039C109.894 149.05 109.881 149.065 109.874 149.083L109.864 149.107L109.854 149.129C109.852 149.135 109.85 149.141 109.851 149.148L109.861 149.165L109.879 149.181L109.895 149.198C110.189 149.494 110.498 149.736 110.914 150.092L110.916 150.093C111.584 150.667 112.197 151.212 112.846 151.738L112.87 151.758L112.892 151.778C112.898 151.783 112.904 151.787 112.911 151.789C112.918 151.792 112.925 151.793 112.932 151.792C112.94 151.792 112.948 151.79 112.954 151.786C112.96 151.783 112.966 151.778 112.971 151.773L112.996 151.742L113.023 151.713C113.076 151.657 113.119 151.605 113.206 151.505C114.827 149.555 116.448 147.604 118.068 145.65L118.078 145.639L118.088 145.627C118.16 145.544 118.225 145.454 118.282 145.359C118.29 145.342 118.294 145.322 118.291 145.303C118.287 145.281 118.275 145.262 118.259 145.248C118.242 145.234 118.22 145.225 118.198 145.225Z" fill="url(#paint6_linear_2011_12)" stroke="#1B1B1B" stroke-width="2.42804"/>
<defs>
<linearGradient id="paint0_linear_2011_12" x1="38.3016" y1="0" x2="38.3016" y2="164.212" gradientUnits="userSpaceOnUse">
<stop stop-color="#68E0CF"/>
<stop offset="1" stop-color="#209CFF"/>
</linearGradient>
<linearGradient id="paint1_linear_2011_12" x1="38.1895" y1="112.866" x2="38.1895" y2="141.46" gradientUnits="userSpaceOnUse">
<stop stop-color="#68E0CF"/>
<stop offset="1" stop-color="#209CFF"/>
</linearGradient>
<linearGradient id="paint2_linear_2011_12" x1="11.7574" y1="116.245" x2="11.7574" y2="141.57" gradientUnits="userSpaceOnUse">
<stop stop-color="#68E0CF"/>
<stop offset="1" stop-color="#209CFF"/>
</linearGradient>
<linearGradient id="paint3_linear_2011_12" x1="11.7935" y1="108.875" x2="11.7935" y2="114.012" gradientUnits="userSpaceOnUse">
<stop stop-color="#68E0CF"/>
<stop offset="1" stop-color="#209CFF"/>
</linearGradient>
<linearGradient id="paint4_linear_2011_12" x1="39.9716" y1="127.434" x2="39.9716" y2="135.811" gradientUnits="userSpaceOnUse">
<stop stop-color="#68E0CF"/>
<stop offset="1" stop-color="#209CFF"/>
</linearGradient>
<linearGradient id="paint5_linear_2011_12" x1="93.296" y1="102.838" x2="103.795" y2="162.987" gradientUnits="userSpaceOnUse">
<stop stop-color="#FFBB00"/>
<stop offset="1" stop-color="#FF3300"/>
</linearGradient>
<linearGradient id="paint6_linear_2011_12" x1="113.636" y1="142.138" x2="115.608" y2="154.692" gradientUnits="userSpaceOnUse">
<stop stop-color="#FFBB00"/>
<stop offset="1" stop-color="#FF3300"/>
</linearGradient>
</defs>
</svg>
