<svg width="249" height="139" viewBox="0 0 249 139" fill="none" xmlns="http://www.w3.org/2000/svg">
<path d="M209.334 89.0734H39.5463C39.7164 90.0221 40.1463 90.922 40.8001 91.6979C42.2031 93.7028 41.6658 93.4189 44.1933 93.4189H107.449C107.937 93.3974 108.425 93.3974 108.912 93.4189C109.574 93.477 110.19 93.7411 110.644 94.1621C111.098 94.5831 111.359 95.1324 111.38 95.7077C111.379 96.2623 111.148 96.798 110.727 97.2168C110.307 97.6356 109.726 97.9094 109.091 97.988C108.609 98.0383 108.124 98.0585 107.639 98.0483C82.4302 98.0483 57.2452 98.0483 32.0833 98.0483C23.9536 98.0483 17.6449 95.0538 13.1174 89.1853C9.2376 84.1664 5.84287 78.8794 2.96773 73.3781C1.2114 70.1132 0.291554 66.5586 0.271118 62.9577C0.271118 48.2606 0.271118 33.5635 0.271118 18.8664C0.271118 11.862 3.923 6.56143 10.8387 2.9732C13.4892 1.59854 16.4889 0.806734 19.5754 0.667109C20.5704 0.624085 21.6252 0.598256 22.6501 0.598256C90.54 0.598256 158.43 0.598256 226.32 0.598256C230.685 0.453652 235.003 1.42972 238.728 3.40345C241.193 4.71868 243.305 6.47362 244.924 8.55105C246.542 10.6285 247.629 12.9806 248.112 15.4502C248.382 16.693 248.518 17.9547 248.52 19.2192C248.52 33.7098 248.52 48.1917 248.52 62.6823C248.505 66.4092 247.561 70.0896 245.753 73.4728C242.836 79.0997 239.349 84.4929 235.335 89.5897C233.443 92.119 230.868 94.2133 227.833 95.6927C224.799 97.172 221.394 97.9921 217.911 98.0827C217.275 98.0827 216.648 98.0827 216.011 98.0827H139.152C138.518 98.1031 137.882 98.0801 137.252 98.0139C136.615 97.9374 136.035 97.6589 135.623 97.2326C135.211 96.8064 134.997 96.2628 135.023 95.7077C135.028 95.1524 135.267 94.6178 135.696 94.2043C136.125 93.7908 136.713 93.5268 137.351 93.4619C137.984 93.4317 138.619 93.4317 139.252 93.4619H204.846C205.237 93.4878 205.63 93.4878 206.02 93.4619C206.339 93.4189 206.777 93.3586 206.926 93.1607C207.996 91.9287 208.81 90.5459 209.334 89.0734ZM131.251 42.0565H240.768C241.156 42.0565 241.554 42.0565 241.942 42.0565C242.878 42.0048 243.007 41.893 243.067 41.0755C243.067 40.8604 243.067 40.6539 243.067 40.4388C243.067 33.4688 243.067 26.5017 243.067 19.5376C243.075 18.7328 243.028 17.9283 242.927 17.1282C242.69 15.1651 241.939 13.2743 240.732 11.5988C239.526 9.92332 237.894 8.50683 235.962 7.45633C233.093 5.89757 229.745 5.12936 226.36 5.25349C158.324 5.25349 90.2912 5.25349 22.262 5.25349C21.6749 5.25349 21.0878 5.25349 20.5008 5.25349C17.6531 5.34181 14.89 6.11276 12.5196 7.48028C10.1493 8.84779 8.26509 10.7581 7.07735 12.9979C6.0337 14.9167 5.53235 17.0225 5.61461 19.1417C5.61461 31.1369 5.61461 43.1321 5.61461 55.1273C5.60976 55.6768 5.64966 56.226 5.73401 56.7708C5.94847 58.4817 6.72357 60.1042 7.9681 61.4472C9.21264 62.7902 10.8748 63.7978 12.7592 64.3516C14.3902 64.8033 16.1053 64.9843 17.8141 64.8852C88.7953 64.8852 159.803 64.8852 230.837 64.8852C231.618 64.927 232.401 64.9039 233.176 64.8163C234.47 64.6677 235.737 64.3786 236.947 63.9558C238.789 63.239 240.346 62.0696 241.426 60.5931C242.505 59.1167 243.058 57.3984 243.017 55.6521C243.087 53.3288 243.017 51.0055 243.017 48.6822C243.017 46.6859 243.196 46.7547 240.788 46.7547H158.556C158.264 46.7677 157.972 46.7677 157.68 46.7547C157.34 46.7143 156.995 46.7705 156.695 46.9148C156.395 47.0591 156.158 47.2838 156.019 47.555C155.173 48.7941 154.267 49.9987 153.402 51.2206C151.987 53.3625 149.922 55.1285 147.429 56.3269C144.936 57.5253 142.112 58.1103 139.262 58.0185H121.54C117.301 58.0185 113.052 58.0615 108.803 58.0185C106.275 58.0395 103.781 57.5137 101.547 56.4887C99.3143 55.4638 97.4129 53.9723 96.0162 52.15C94.8519 50.6957 93.8071 49.1641 92.7424 47.6496C92.5948 47.3597 92.3422 47.119 92.0228 46.9638C91.7034 46.8086 91.3344 46.7474 90.9712 46.7891C90.5337 46.8107 90.0952 46.8107 89.6577 46.7891H22.1625C21.5286 46.8136 20.8935 46.7992 20.2619 46.7461C19.5988 46.6842 18.986 46.4112 18.5428 45.9802C18.0995 45.5491 17.8575 44.991 17.8638 44.4142C17.8584 43.8366 18.1039 43.2783 18.5516 42.8497C18.9994 42.4211 19.6168 42.1533 20.2819 42.0995C20.8651 42.0693 21.4499 42.0693 22.0332 42.0995L131.251 42.0565ZM6.22161 66.7094C6.23314 67.0385 6.27305 67.3664 6.34101 67.6903C6.58507 68.5068 6.8807 69.3112 7.2266 70.0997C10.1741 76.1596 13.8636 81.9291 18.232 87.3094C19.1146 88.3719 20.1513 89.332 21.3167 90.1662C25.297 93.0574 30.0534 93.677 35.0785 93.2726C35.1481 93.2726 35.1979 93.1521 35.3173 93.0402C35.2537 92.8585 35.1773 92.6803 35.0884 92.5067C33.511 89.7892 32.2959 86.9255 31.4664 83.9707C30.9367 82.3211 31.157 80.5587 32.0822 79.0451C33.0073 77.5314 34.5671 76.3813 36.4417 75.8305C37.699 75.5025 39.0099 75.3543 40.3224 75.3917C96.3379 75.3917 152.353 75.3917 208.369 75.3917C208.956 75.3917 209.543 75.3917 210.13 75.3917C211.304 75.4473 212.448 75.7298 213.478 76.2183C214.509 76.7069 215.4 77.389 216.085 78.2146C216.771 79.0402 217.233 79.9881 217.439 80.9887C217.645 81.9894 217.589 83.0172 217.275 83.9965C216.448 86.8648 215.277 89.6507 213.782 92.3088C213.624 92.6453 213.491 92.9902 213.384 93.3414C214.817 93.3414 216.031 93.3414 217.245 93.3414C219.919 93.334 222.55 92.757 224.905 91.6614C227.26 90.5659 229.267 88.9854 230.748 87.0599C233.891 83.1376 236.676 79.009 239.076 74.7119C240.191 72.6983 241.146 70.616 242.121 68.5508C242.332 67.9381 242.479 67.3103 242.559 66.675C241.972 66.9417 241.664 67.045 241.395 67.1999C238.614 68.7975 235.34 69.6313 232.002 69.592H16.7693C13.3806 69.6404 10.0577 68.7807 7.25646 67.131C7.01764 67.0536 6.75895 66.9589 6.22161 66.7094ZM124.276 84.4182H210.23C211.473 84.4182 211.533 84.3493 211.832 83.3512C211.832 83.1877 211.921 83.0242 211.961 82.8521C212.073 82.5253 212.094 82.1801 212.022 81.845C211.949 81.5099 211.786 81.1945 211.545 80.9248C211.304 80.655 210.992 80.4386 210.635 80.2935C210.279 80.1483 209.887 80.0786 209.493 80.0899C209.205 80.0899 208.906 80.0899 208.618 80.0899H40.0836C39.6449 80.0726 39.2052 80.0899 38.7701 80.1415C38.132 80.2146 37.5527 80.5021 37.1579 80.9417C36.763 81.3814 36.5844 81.9379 36.6606 82.4907C36.8497 84.2117 37.1084 84.4268 39.0587 84.4268H124.276V84.4182ZM149.998 46.9612C147.889 46.6428 99.9268 46.7375 98.9317 47.0215C98.9317 47.0989 98.8819 47.2022 98.9317 47.2624C101.171 51.1174 104.504 53.3976 109.758 53.3546C119.52 53.2686 129.281 53.3546 139.033 53.3546C140.01 53.3664 140.986 53.3002 141.948 53.1567C145.929 52.4683 148.197 50.0676 149.998 46.9612Z" fill="black"/>
<path d="M209.334 89.0734H39.5463C39.7164 90.0221 40.1463 90.922 40.8001 91.6979C42.2031 93.7028 41.6658 93.4189 44.1933 93.4189H107.449C107.937 93.3974 108.425 93.3974 108.912 93.4189C109.574 93.477 110.19 93.7411 110.644 94.1621C111.098 94.5831 111.359 95.1324 111.38 95.7077C111.379 96.2623 111.148 96.798 110.727 97.2168C110.307 97.6356 109.726 97.9094 109.091 97.988C108.609 98.0383 108.124 98.0585 107.639 98.0483C82.4302 98.0483 57.2452 98.0483 32.0833 98.0483C23.9536 98.0483 17.6449 95.0538 13.1174 89.1853C9.2376 84.1664 5.84287 78.8794 2.96773 73.3781C1.2114 70.1132 0.291554 66.5586 0.271118 62.9577C0.271118 48.2606 0.271118 33.5635 0.271118 18.8664C0.271118 11.862 3.923 6.56143 10.8387 2.9732C13.4892 1.59854 16.4889 0.806734 19.5754 0.667109C20.5704 0.624085 21.6252 0.598256 22.6501 0.598256C90.54 0.598256 158.43 0.598256 226.32 0.598256C230.685 0.453652 235.003 1.42972 238.728 3.40345C241.193 4.71868 243.305 6.47362 244.924 8.55105C246.542 10.6285 247.629 12.9806 248.112 15.4502C248.382 16.693 248.518 17.9547 248.52 19.2192C248.52 33.7098 248.52 48.1917 248.52 62.6823C248.505 66.4092 247.561 70.0896 245.753 73.4728C242.836 79.0997 239.349 84.4929 235.335 89.5897C233.443 92.119 230.868 94.2133 227.833 95.6927C224.799 97.172 221.394 97.9921 217.911 98.0827C217.275 98.0827 216.648 98.0827 216.011 98.0827H139.152C138.518 98.1031 137.882 98.0801 137.252 98.0139C136.615 97.9374 136.035 97.6589 135.623 97.2326C135.211 96.8064 134.997 96.2628 135.023 95.7077C135.028 95.1524 135.267 94.6178 135.696 94.2043C136.125 93.7908 136.713 93.5268 137.351 93.4619C137.984 93.4317 138.619 93.4317 139.252 93.4619H204.846C205.237 93.4878 205.63 93.4878 206.02 93.4619C206.339 93.4189 206.777 93.3586 206.926 93.1607C207.996 91.9287 208.81 90.5459 209.334 89.0734ZM131.251 42.0565H240.768C241.156 42.0565 241.554 42.0565 241.942 42.0565C242.878 42.0048 243.007 41.893 243.067 41.0755C243.067 40.8604 243.067 40.6539 243.067 40.4388C243.067 33.4688 243.067 26.5017 243.067 19.5376C243.075 18.7328 243.028 17.9283 242.927 17.1282C242.69 15.1651 241.939 13.2743 240.732 11.5988C239.526 9.92332 237.894 8.50683 235.962 7.45633C233.093 5.89757 229.745 5.12936 226.36 5.25349C158.324 5.25349 90.2912 5.25349 22.262 5.25349C21.6749 5.25349 21.0878 5.25349 20.5008 5.25349C17.6531 5.34181 14.89 6.11276 12.5196 7.48028C10.1493 8.84779 8.26509 10.7581 7.07735 12.9979C6.0337 14.9167 5.53235 17.0225 5.61461 19.1417C5.61461 31.1369 5.61461 43.1321 5.61461 55.1273C5.60976 55.6768 5.64966 56.226 5.73401 56.7708C5.94847 58.4817 6.72357 60.1042 7.9681 61.4472C9.21264 62.7902 10.8748 63.7978 12.7592 64.3516C14.3902 64.8033 16.1053 64.9843 17.8141 64.8852C88.7953 64.8852 159.803 64.8852 230.837 64.8852C231.618 64.927 232.401 64.9039 233.176 64.8163C234.47 64.6677 235.737 64.3786 236.947 63.9558C238.789 63.239 240.346 62.0696 241.426 60.5931C242.505 59.1167 243.058 57.3984 243.017 55.6521C243.087 53.3288 243.017 51.0055 243.017 48.6822C243.017 46.6859 243.196 46.7547 240.788 46.7547H158.556C158.264 46.7677 157.972 46.7677 157.68 46.7547C157.34 46.7143 156.995 46.7705 156.695 46.9148C156.395 47.0591 156.158 47.2838 156.019 47.555C155.173 48.7941 154.267 49.9987 153.402 51.2206C151.987 53.3625 149.922 55.1285 147.429 56.3269C144.936 57.5253 142.112 58.1103 139.262 58.0185H121.54C117.301 58.0185 113.052 58.0615 108.803 58.0185C106.275 58.0395 103.781 57.5137 101.547 56.4887C99.3143 55.4638 97.4129 53.9723 96.0162 52.15C94.8519 50.6957 93.8071 49.1641 92.7424 47.6496C92.5948 47.3597 92.3422 47.119 92.0228 46.9638C91.7034 46.8086 91.3344 46.7474 90.9712 46.7891C90.5337 46.8107 90.0952 46.8107 89.6577 46.7891H22.1625C21.5286 46.8136 20.8935 46.7992 20.2619 46.7461C19.5988 46.6842 18.986 46.4112 18.5428 45.9802C18.0995 45.5491 17.8575 44.991 17.8638 44.4142C17.8584 43.8366 18.1039 43.2783 18.5516 42.8497C18.9994 42.4211 19.6168 42.1533 20.2819 42.0995C20.8651 42.0693 21.4499 42.0693 22.0332 42.0995L131.251 42.0565ZM6.22161 66.7094C6.23314 67.0385 6.27305 67.3664 6.34101 67.6903C6.58507 68.5068 6.8807 69.3112 7.2266 70.0997C10.1741 76.1596 13.8636 81.9291 18.232 87.3094C19.1146 88.3719 20.1513 89.332 21.3167 90.1662C25.297 93.0574 30.0534 93.677 35.0785 93.2726C35.1481 93.2726 35.1979 93.1521 35.3173 93.0402C35.2537 92.8585 35.1773 92.6803 35.0884 92.5067C33.511 89.7892 32.2959 86.9255 31.4664 83.9707C30.9367 82.3211 31.157 80.5587 32.0822 79.0451C33.0073 77.5314 34.5671 76.3813 36.4417 75.8305C37.699 75.5025 39.0099 75.3543 40.3224 75.3917C96.3379 75.3917 152.353 75.3917 208.369 75.3917C208.956 75.3917 209.543 75.3917 210.13 75.3917C211.304 75.4473 212.448 75.7298 213.478 76.2183C214.509 76.7069 215.4 77.389 216.085 78.2146C216.771 79.0402 217.233 79.9881 217.439 80.9887C217.645 81.9894 217.589 83.0172 217.275 83.9965C216.448 86.8648 215.277 89.6507 213.782 92.3088C213.624 92.6453 213.491 92.9902 213.384 93.3414C214.817 93.3414 216.031 93.3414 217.245 93.3414C219.919 93.334 222.55 92.757 224.905 91.6614C227.26 90.5659 229.267 88.9854 230.748 87.0599C233.891 83.1376 236.676 79.009 239.076 74.7119C240.191 72.6983 241.146 70.616 242.121 68.5508C242.332 67.9381 242.479 67.3103 242.559 66.675C241.972 66.9417 241.664 67.045 241.395 67.1999C238.614 68.7975 235.34 69.6313 232.002 69.592H16.7693C13.3806 69.6404 10.0577 68.7807 7.25646 67.131C7.01764 67.0536 6.75895 66.9589 6.22161 66.7094ZM124.276 84.4182H210.23C211.473 84.4182 211.533 84.3493 211.832 83.3512C211.832 83.1877 211.921 83.0242 211.961 82.8521C212.073 82.5253 212.094 82.1801 212.022 81.845C211.949 81.5099 211.786 81.1945 211.545 80.9248C211.304 80.655 210.992 80.4386 210.635 80.2935C210.279 80.1483 209.887 80.0786 209.493 80.0899C209.205 80.0899 208.906 80.0899 208.618 80.0899H40.0836C39.6449 80.0726 39.2052 80.0899 38.7701 80.1415C38.132 80.2146 37.5527 80.5021 37.1579 80.9417C36.763 81.3814 36.5844 81.9379 36.6606 82.4907C36.8497 84.2117 37.1084 84.4268 39.0587 84.4268H124.276V84.4182ZM149.998 46.9612C147.889 46.6428 99.9268 46.7375 98.9317 47.0215C98.9317 47.0989 98.8819 47.2022 98.9317 47.2624C101.171 51.1174 104.504 53.3976 109.758 53.3546C119.52 53.2686 129.281 53.3546 139.033 53.3546C140.01 53.3664 140.986 53.3002 141.948 53.1567C145.929 52.4683 148.197 50.0676 149.998 46.9612Z" fill="url(#paint0_linear_2007_28)"/>
<path d="M144.585 136.21C144.764 135.41 144.943 134.489 145.152 133.586C145.438 132.532 145.383 131.43 144.993 130.401C144.604 129.372 143.894 128.456 142.943 127.752C141.388 126.578 140.175 125.104 139.401 123.449C138.467 121.3 138.321 118.953 138.983 116.729C139.157 115.851 139.417 114.988 139.759 114.148C139.903 113.808 140.142 113.504 140.452 113.262C140.763 113.02 141.138 112.847 141.543 112.758C141.949 112.669 142.374 112.667 142.78 112.751C143.187 112.836 143.564 113.005 143.878 113.244C144.275 113.499 144.579 113.847 144.756 114.246C144.932 114.645 144.973 115.08 144.873 115.499C144.734 116.204 144.565 116.91 144.356 117.598C143.927 118.774 143.911 120.033 144.31 121.217C144.708 122.401 145.503 123.456 146.595 124.25C147.521 125.028 148.33 125.904 149.003 126.857C150.252 128.441 150.861 130.338 150.734 132.252C150.572 133.929 150.26 135.591 149.799 137.226C149.724 137.507 149.582 137.772 149.383 138.003C149.184 138.235 148.932 138.428 148.642 138.571C148.352 138.714 148.031 138.804 147.7 138.834C147.368 138.865 147.032 138.836 146.714 138.749C146.052 138.64 145.464 138.316 145.068 137.845C144.672 137.373 144.499 136.788 144.585 136.21Z" fill="black"/>
<path d="M144.585 136.21C144.764 135.41 144.943 134.489 145.152 133.586C145.438 132.532 145.383 131.43 144.993 130.401C144.604 129.372 143.894 128.456 142.943 127.752C141.388 126.578 140.175 125.104 139.401 123.449C138.467 121.3 138.321 118.953 138.983 116.729C139.157 115.851 139.417 114.988 139.759 114.148C139.903 113.808 140.142 113.504 140.452 113.262C140.763 113.02 141.138 112.847 141.543 112.758C141.949 112.669 142.374 112.667 142.78 112.751C143.187 112.836 143.564 113.005 143.878 113.244C144.275 113.499 144.579 113.847 144.756 114.246C144.932 114.645 144.973 115.08 144.873 115.499C144.734 116.204 144.565 116.91 144.356 117.598C143.927 118.774 143.911 120.033 144.31 121.217C144.708 122.401 145.503 123.456 146.595 124.25C147.521 125.028 148.33 125.904 149.003 126.857C150.252 128.441 150.861 130.338 150.734 132.252C150.572 133.929 150.26 135.591 149.799 137.226C149.724 137.507 149.582 137.772 149.383 138.003C149.184 138.235 148.932 138.428 148.642 138.571C148.352 138.714 148.031 138.804 147.7 138.834C147.368 138.865 147.032 138.836 146.714 138.749C146.052 138.64 145.464 138.316 145.068 137.845C144.672 137.373 144.499 136.788 144.585 136.21Z" fill="url(#paint1_linear_2007_28)"/>
<path d="M124.316 136.013C124.415 135.582 124.584 134.842 124.763 134.094C125.134 132.972 125.131 131.782 124.754 130.662C124.378 129.541 123.643 128.536 122.634 127.761C120.845 126.465 119.521 124.756 118.816 122.832C118.111 120.909 118.054 118.851 118.654 116.901C118.853 116.161 119.012 115.413 119.231 114.681C119.376 114.076 119.783 113.541 120.37 113.187C120.957 112.833 121.678 112.688 122.385 112.78C123.088 112.904 123.705 113.263 124.103 113.779C124.502 114.294 124.65 114.924 124.515 115.533C124.395 116.239 124.196 116.936 124.007 117.633C123.589 118.811 123.58 120.069 123.981 121.252C124.383 122.434 125.177 123.489 126.266 124.284C127.634 125.281 128.721 126.535 129.444 127.95C130.167 129.365 130.506 130.904 130.435 132.45C130.306 134.048 129.993 135.63 129.5 137.174C129.347 137.716 128.952 138.183 128.403 138.475C127.853 138.767 127.192 138.859 126.565 138.732C125.122 138.517 124.266 137.63 124.316 136.013Z" fill="black"/>
<path d="M124.316 136.013C124.415 135.582 124.584 134.842 124.763 134.094C125.134 132.972 125.131 131.782 124.754 130.662C124.378 129.541 123.643 128.536 122.634 127.761C120.845 126.465 119.521 124.756 118.816 122.832C118.111 120.909 118.054 118.851 118.654 116.901C118.853 116.161 119.012 115.413 119.231 114.681C119.376 114.076 119.783 113.541 120.37 113.187C120.957 112.833 121.678 112.688 122.385 112.78C123.088 112.904 123.705 113.263 124.103 113.779C124.502 114.294 124.65 114.924 124.515 115.533C124.395 116.239 124.196 116.936 124.007 117.633C123.589 118.811 123.58 120.069 123.981 121.252C124.383 122.434 125.177 123.489 126.266 124.284C127.634 125.281 128.721 126.535 129.444 127.95C130.167 129.365 130.506 130.904 130.435 132.45C130.306 134.048 129.993 135.63 129.5 137.174C129.347 137.716 128.952 138.183 128.403 138.475C127.853 138.767 127.192 138.859 126.565 138.732C125.122 138.517 124.266 137.63 124.316 136.013Z" fill="url(#paint2_linear_2007_28)"/>
<path d="M104.225 115.421L103.539 118.381C103.259 119.395 103.307 120.455 103.675 121.447C104.043 122.44 104.719 123.325 105.628 124.009C106.987 125.041 108.105 126.288 108.922 127.683C109.946 129.522 110.316 131.582 109.987 133.603C109.798 134.688 109.589 135.772 109.3 136.839C109.24 137.142 109.111 137.431 108.92 137.691C108.73 137.95 108.481 138.174 108.19 138.349C107.898 138.525 107.569 138.648 107.221 138.712C106.874 138.776 106.515 138.78 106.166 138.723C105.815 138.671 105.48 138.558 105.181 138.391C104.882 138.224 104.625 138.007 104.425 137.753C104.226 137.498 104.088 137.211 104.019 136.909C103.95 136.607 103.953 136.297 104.026 135.996C104.115 135.367 104.245 134.744 104.414 134.128C104.823 132.993 104.835 131.779 104.447 130.638C104.059 129.497 103.289 128.481 102.235 127.718C100.197 126.237 98.7945 124.206 98.2548 121.952C98.0066 120.792 97.9363 119.609 98.0458 118.433C98.243 117.095 98.559 115.771 98.9911 114.475C99.1563 113.936 99.5391 113.466 100.07 113.151C100.602 112.835 101.246 112.694 101.887 112.754C102.592 112.865 103.223 113.201 103.655 113.695C104.088 114.188 104.292 114.804 104.225 115.421Z" fill="black"/>
<path d="M104.225 115.421L103.539 118.381C103.259 119.395 103.307 120.455 103.675 121.447C104.043 122.44 104.719 123.325 105.628 124.009C106.987 125.041 108.105 126.288 108.922 127.683C109.946 129.522 110.316 131.582 109.987 133.603C109.798 134.688 109.589 135.772 109.3 136.839C109.24 137.142 109.111 137.431 108.92 137.691C108.73 137.95 108.481 138.174 108.19 138.349C107.898 138.525 107.569 138.648 107.221 138.712C106.874 138.776 106.515 138.78 106.166 138.723C105.815 138.671 105.48 138.558 105.181 138.391C104.882 138.224 104.625 138.007 104.425 137.753C104.226 137.498 104.088 137.211 104.019 136.909C103.95 136.607 103.953 136.297 104.026 135.996C104.115 135.367 104.245 134.744 104.414 134.128C104.823 132.993 104.835 131.779 104.447 130.638C104.059 129.497 103.289 128.481 102.235 127.718C100.197 126.237 98.7945 124.206 98.2548 121.952C98.0066 120.792 97.9363 119.609 98.0458 118.433C98.243 117.095 98.559 115.771 98.9911 114.475C99.1563 113.936 99.5391 113.466 100.07 113.151C100.602 112.835 101.246 112.694 101.887 112.754C102.592 112.865 103.223 113.201 103.655 113.695C104.088 114.188 104.292 114.804 104.225 115.421Z" fill="url(#paint3_linear_2007_28)"/>
<path d="M122.644 93.3929C123.036 93.3915 123.429 93.4116 123.818 93.4531C124.42 93.5585 124.96 93.8406 125.348 94.2515C125.737 94.6625 125.948 95.177 125.948 95.7076C125.976 96.2399 125.78 96.7632 125.396 97.1796C125.011 97.596 124.465 97.8772 123.858 97.9707C123.199 98.0575 122.531 98.0748 121.868 98.0223C121.177 97.9934 120.526 97.7345 120.051 97.2998C119.576 96.8651 119.314 96.2884 119.32 95.6904C119.357 95.0943 119.647 94.531 120.136 94.1097C120.625 93.6884 121.278 93.4391 121.967 93.4101H122.694L122.644 93.3929Z" fill="black"/>
<path d="M122.644 93.3929C123.036 93.3915 123.429 93.4116 123.818 93.4531C124.42 93.5585 124.96 93.8406 125.348 94.2515C125.737 94.6625 125.948 95.177 125.948 95.7076C125.976 96.2399 125.78 96.7632 125.396 97.1796C125.011 97.596 124.465 97.8772 123.858 97.9707C123.199 98.0575 122.531 98.0748 121.868 98.0223C121.177 97.9934 120.526 97.7345 120.051 97.2998C119.576 96.8651 119.314 96.2884 119.32 95.6904C119.357 95.0943 119.647 94.531 120.136 94.1097C120.625 93.6884 121.278 93.4391 121.967 93.4101H122.694L122.644 93.3929Z" fill="url(#paint4_linear_2007_28)"/>
<path d="M222.638 58.0184C221.924 57.9938 221.251 57.7254 220.766 57.2721C220.281 56.8188 220.024 56.2176 220.051 55.6005C220.061 55.2945 220.142 54.9935 220.289 54.7151C220.436 54.4367 220.646 54.1866 220.906 53.9796C221.167 53.7726 221.473 53.6129 221.806 53.51C222.14 53.4071 222.494 53.363 222.847 53.3804C223.538 53.4094 224.188 53.6701 224.66 54.1071C225.132 54.5442 225.388 55.1231 225.374 55.7209C225.369 56.0272 225.294 56.3295 225.154 56.6107C225.014 56.8919 224.811 57.1465 224.556 57.3598C224.302 57.5732 224.002 57.7412 223.673 57.8542C223.344 57.9672 222.992 58.023 222.638 58.0184Z" fill="black"/>
<path d="M222.638 58.0184C221.924 57.9938 221.251 57.7254 220.766 57.2721C220.281 56.8188 220.024 56.2176 220.051 55.6005C220.061 55.2945 220.142 54.9935 220.289 54.7151C220.436 54.4367 220.646 54.1866 220.906 53.9796C221.167 53.7726 221.473 53.6129 221.806 53.51C222.14 53.4071 222.494 53.363 222.847 53.3804C223.538 53.4094 224.188 53.6701 224.66 54.1071C225.132 54.5442 225.388 55.1231 225.374 55.7209C225.369 56.0272 225.294 56.3295 225.154 56.6107C225.014 56.8919 224.811 57.1465 224.556 57.3598C224.302 57.5732 224.002 57.7412 223.673 57.8542C223.344 57.9672 222.992 58.023 222.638 58.0184Z" fill="url(#paint5_linear_2007_28)"/>
<path d="M210.528 55.6866C210.515 56.3052 210.222 56.8948 209.713 57.3291C209.203 57.7634 208.517 58.0078 207.802 58.0099C207.087 57.9834 206.411 57.7203 205.915 57.275C205.419 56.8297 205.139 56.2363 205.135 55.6178C205.162 55.0201 205.453 54.4541 205.946 54.0352C206.44 53.6163 207.1 53.376 207.792 53.3633C208.51 53.361 209.2 53.6036 209.712 54.0386C210.224 54.4736 210.518 55.0658 210.528 55.6866Z" fill="black"/>
<path d="M210.528 55.6866C210.515 56.3052 210.222 56.8948 209.713 57.3291C209.203 57.7634 208.517 58.0078 207.802 58.0099C207.087 57.9834 206.411 57.7203 205.915 57.275C205.419 56.8297 205.139 56.2363 205.135 55.6178C205.162 55.0201 205.453 54.4541 205.946 54.0352C206.44 53.6163 207.1 53.376 207.792 53.3633C208.51 53.361 209.2 53.6036 209.712 54.0386C210.224 54.4736 210.518 55.0658 210.528 55.6866Z" fill="url(#paint6_linear_2007_28)"/>
<defs>
<linearGradient id="paint0_linear_2007_28" x1="124.395" y1="0.584229" x2="124.395" y2="98.0899" gradientUnits="userSpaceOnUse">
<stop stop-color="#68E0CF"/>
<stop offset="1" stop-color="#209CFF"/>
</linearGradient>
<linearGradient id="paint1_linear_2007_28" x1="144.663" y1="112.689" x2="144.663" y2="138.846" gradientUnits="userSpaceOnUse">
<stop stop-color="#68E0CF"/>
<stop offset="1" stop-color="#209CFF"/>
</linearGradient>
<linearGradient id="paint2_linear_2007_28" x1="124.343" y1="112.753" x2="124.343" y2="138.788" gradientUnits="userSpaceOnUse">
<stop stop-color="#68E0CF"/>
<stop offset="1" stop-color="#209CFF"/>
</linearGradient>
<linearGradient id="paint3_linear_2007_28" x1="104.05" y1="112.74" x2="104.05" y2="138.763" gradientUnits="userSpaceOnUse">
<stop stop-color="#68E0CF"/>
<stop offset="1" stop-color="#209CFF"/>
</linearGradient>
<linearGradient id="paint4_linear_2007_28" x1="122.635" y1="93.3928" x2="122.635" y2="98.0519" gradientUnits="userSpaceOnUse">
<stop stop-color="#68E0CF"/>
<stop offset="1" stop-color="#209CFF"/>
</linearGradient>
<linearGradient id="paint5_linear_2007_28" x1="222.712" y1="53.3767" x2="222.712" y2="58.0187" gradientUnits="userSpaceOnUse">
<stop stop-color="#68E0CF"/>
<stop offset="1" stop-color="#209CFF"/>
</linearGradient>
<linearGradient id="paint6_linear_2007_28" x1="207.831" y1="53.3633" x2="207.831" y2="58.0099" gradientUnits="userSpaceOnUse">
<stop stop-color="#68E0CF"/>
<stop offset="1" stop-color="#209CFF"/>
</linearGradient>
</defs>
</svg>
