<svg width="168" height="130" viewBox="0 0 168 130" fill="none" xmlns="http://www.w3.org/2000/svg">
<path d="M141.315 7.54008H127.417C126.803 7.54008 126.214 7.78412 125.78 8.2185C125.345 8.65288 125.101 9.24203 125.101 9.85634C125.101 11.6993 124.369 13.4667 123.066 14.7699C121.763 16.073 119.995 16.8051 118.152 16.8051C116.309 16.8051 114.542 16.073 113.239 14.7699C111.936 13.4667 111.204 11.6993 111.204 9.85634C111.204 9.24203 110.96 8.65288 110.525 8.2185C110.091 7.78412 109.502 7.54008 108.887 7.54008H64.8784V2.90757C64.8784 2.29326 64.6344 1.70411 64.2 1.26973C63.7656 0.835343 63.1765 0.591309 62.5622 0.591309H53.2971C52.6828 0.591309 52.0937 0.835343 51.6593 1.26973C51.2249 1.70411 50.9809 2.29326 50.9809 2.90757V7.54008H46.3484V2.90757C46.3484 2.29326 46.1043 1.70411 45.6699 1.26973C45.2356 0.835343 44.6464 0.591309 44.0321 0.591309H34.7671C34.1528 0.591309 33.5636 0.835343 33.1292 1.26973C32.6948 1.70411 32.4508 2.29326 32.4508 2.90757V7.54008H27.8183V2.90757C27.8183 2.29326 27.5743 1.70411 27.1399 1.26973C26.7055 0.835343 26.1163 0.591309 25.502 0.591309H16.237C15.6227 0.591309 15.0335 0.835343 14.5992 1.26973C14.1648 1.70411 13.9207 2.29326 13.9207 2.90757V7.54008H2.33945C1.72514 7.54008 1.13599 7.78412 0.701609 8.2185C0.267227 8.65288 0.0231934 9.24203 0.0231934 9.85634V102.507C0.0231934 103.121 0.267227 103.71 0.701609 104.145C1.13599 104.579 1.72514 104.823 2.33945 104.823H108.887C109.502 104.823 110.091 104.579 110.525 104.145C110.96 103.71 111.204 103.121 111.204 102.507C111.204 100.664 111.936 98.8963 113.239 97.5931C114.542 96.29 116.309 95.5579 118.152 95.5579C119.995 95.5579 121.763 96.29 123.066 97.5931C124.369 98.8963 125.101 100.664 125.101 102.507C125.101 103.121 125.345 103.71 125.78 104.145C126.214 104.579 126.803 104.823 127.417 104.823H141.315C141.929 104.823 142.518 104.579 142.953 104.145C143.387 103.71 143.631 103.121 143.631 102.507V9.85634C143.631 9.24203 143.387 8.65288 142.953 8.2185C142.518 7.78412 141.929 7.54008 141.315 7.54008ZM88.041 28.3864C88.041 28.8445 87.9051 29.2923 87.6506 29.6732C87.3961 30.0542 87.0344 30.351 86.6111 30.5263C86.1879 30.7017 85.7222 30.7475 85.2729 30.6582C84.8235 30.5688 84.4108 30.3482 84.0869 30.0242C83.763 29.7003 83.5424 29.2876 83.453 28.8383C83.3636 28.389 83.4095 27.9233 83.5848 27.5C83.7601 27.0768 84.057 26.715 84.4379 26.4605C84.8188 26.206 85.2666 26.0701 85.7247 26.0701C86.339 26.0701 86.9282 26.3142 87.3626 26.7486C87.797 27.1829 88.041 27.7721 88.041 28.3864ZM55.6134 5.22382H60.2459V14.4889H55.6134V5.22382ZM37.0833 5.22382H41.7158V14.4889H37.0833V5.22382ZM18.5533 5.22382H23.1858V14.4889H18.5533V5.22382ZM138.999 100.19H129.502C128.97 97.5724 127.55 95.2186 125.482 93.528C123.413 91.8373 120.824 90.9138 118.152 90.9138C115.481 90.9138 112.892 91.8373 110.823 93.528C108.755 95.2186 107.334 97.5724 106.803 100.19H4.65571V12.1726H13.9207V16.8051C13.9207 17.4194 14.1648 18.0086 14.5992 18.443C15.0335 18.8773 15.6227 19.1214 16.237 19.1214H25.502C26.1163 19.1214 26.7055 18.8773 27.1399 18.443C27.5743 18.0086 27.8183 17.4194 27.8183 16.8051V12.1726H32.4508V16.8051C32.4508 17.4194 32.6948 18.0086 33.1292 18.443C33.5636 18.8773 34.1528 19.1214 34.7671 19.1214H44.0321C44.6464 19.1214 45.2356 18.8773 45.6699 18.443C46.1043 18.0086 46.3484 17.4194 46.3484 16.8051V12.1726H50.9809V16.8051C50.9809 17.4194 51.2249 18.0086 51.6593 18.443C52.0937 18.8773 52.6828 19.1214 53.2971 19.1214H62.5622C63.1765 19.1214 63.7656 18.8773 64.2 18.443C64.6344 18.0086 64.8784 17.4194 64.8784 16.8051V12.1726H83.4085V21.8638C81.863 22.4102 80.5605 23.4854 79.7311 24.8992C78.9017 26.3131 78.5988 27.9747 78.876 29.5902C79.1532 31.2058 79.9926 32.6714 81.2459 33.7279C82.4991 34.7845 84.0856 35.364 85.7247 35.364C87.3639 35.364 88.9503 34.7845 90.2036 33.7279C91.4568 32.6714 92.2963 31.2058 92.5734 29.5902C92.8506 27.9747 92.5478 26.3131 91.7184 24.8992C90.889 23.4854 89.5864 22.4102 88.041 21.8638V12.1726H97.306V33.0189C97.3062 33.6332 97.5503 34.2222 97.9847 34.6565L114.215 50.8889C113.761 51.8158 113.524 52.8334 113.52 53.8652C113.52 55.2396 113.927 56.5831 114.691 57.7258C115.454 58.8685 116.54 59.7591 117.809 60.2851C119.079 60.811 120.476 60.9486 121.824 60.6805C123.172 60.4124 124.41 59.7506 125.382 58.7788C126.354 57.807 127.016 56.5688 127.284 55.2209C127.552 53.8729 127.414 52.4758 126.888 51.2061C126.362 49.9363 125.472 48.8511 124.329 48.0875C123.186 47.324 121.843 46.9165 120.469 46.9165C119.437 46.9205 118.419 47.158 117.492 47.6113L101.939 32.06V12.1726H106.803C107.334 14.7906 108.755 17.1444 110.823 18.835C112.892 20.5257 115.481 21.4492 118.152 21.4492C120.824 21.4492 123.413 20.5257 125.482 18.835C127.55 17.1444 128.97 14.7906 129.502 12.1726H138.999V100.19ZM120.469 51.549C120.927 51.549 121.375 51.6848 121.755 51.9393C122.136 52.1939 122.433 52.5556 122.609 52.9789C122.784 53.4021 122.83 53.8678 122.74 54.3171C122.651 54.7664 122.43 55.1792 122.106 55.5031C121.783 55.827 121.37 56.0476 120.92 56.137C120.471 56.2264 120.005 56.1805 119.582 56.0052C119.159 55.8299 118.797 55.533 118.543 55.1521C118.288 54.7712 118.152 54.3234 118.152 53.8652C118.152 53.2509 118.396 52.6618 118.831 52.2274C119.265 51.793 119.854 51.549 120.469 51.549Z" fill="url(#paint0_linear_2009_61)"/>
<path d="M90.7835 63.1305C91.3299 64.676 92.4051 65.9785 93.819 66.8079C95.2328 67.6373 96.8944 67.9402 98.51 67.663C100.126 67.3858 101.591 66.5464 102.648 65.2931C103.704 64.0399 104.284 62.4535 104.284 60.8143C104.284 59.1751 103.704 57.5887 102.648 56.3354C101.591 55.0822 100.126 54.2428 98.51 53.9656C96.8944 53.6884 95.2328 53.9913 93.819 54.8207C92.4051 55.6501 91.3299 56.9526 90.7835 58.498H64.8785V53.8655H74.1435V49.233H64.8785V44.6005H74.1435V39.968H64.8785V35.3354C64.8785 34.7211 64.6345 34.132 64.2001 33.6976C63.7657 33.2632 63.1766 33.0192 62.5623 33.0192H57.9297V23.7542H53.2972V33.0192H48.6647V23.7542H44.0322V33.0192H39.3997V23.7542H34.7672V33.0192H30.1346V23.7542H25.5021V33.0192H20.8696C20.2553 33.0192 19.6662 33.2632 19.2318 33.6976C18.7974 34.132 18.5534 34.7211 18.5534 35.3354V39.968H9.28833V44.6005H18.5534V49.233H9.28833V53.8655H18.5534V58.498H9.28833V63.1305H18.5534V67.763H9.28833V72.3956H18.5534V77.0281C18.5534 77.6424 18.7974 78.2315 19.2318 78.6659C19.6662 79.1003 20.2553 79.3443 20.8696 79.3443H25.5021V88.6094H30.1346V79.3443H34.7672V88.6094H39.3997V79.3443H44.0322V88.6094H48.6647V79.3443H53.2972V88.6094H57.9297V79.3443H62.5623C63.1766 79.3443 63.7657 79.1003 64.2001 78.6659C64.6345 78.2315 64.8785 77.6424 64.8785 77.0281V72.3956H83.4086V82.0868C81.8631 82.6332 80.5606 83.7083 79.7312 85.1222C78.9018 86.5361 78.5989 88.1976 78.8761 89.8132C79.1533 91.4288 79.9927 92.8944 81.246 93.9509C82.4992 95.0074 84.0857 95.5869 85.7248 95.5869C87.364 95.5869 88.9504 95.0074 90.2037 93.9509C91.4569 92.8944 92.2963 91.4288 92.5735 89.8132C92.8507 88.1976 92.5479 86.5361 91.7185 85.1222C90.8891 83.7083 89.5865 82.6332 88.0411 82.0868V70.0793C88.0411 69.465 87.7971 68.8758 87.3627 68.4415C86.9283 68.0071 86.3391 67.763 85.7248 67.763H64.8785V63.1305H90.7835ZM97.3061 58.498C97.7642 58.498 98.2121 58.6339 98.593 58.8884C98.9739 59.1429 99.2707 59.5046 99.4461 59.9279C99.6214 60.3511 99.6672 60.8168 99.5779 61.2662C99.4885 61.7155 99.2679 62.1282 98.944 62.4521C98.62 62.7761 98.2073 62.9967 97.758 63.086C97.3087 63.1754 96.843 63.1295 96.4197 62.9542C95.9965 62.7789 95.6347 62.482 95.3802 62.1011C95.1257 61.7202 94.9899 61.2724 94.9899 60.8143C94.9899 60.2 95.2339 59.6108 95.6683 59.1764C96.1027 58.742 96.6918 58.498 97.3061 58.498ZM60.246 74.7118H23.1859V37.6517H60.246V74.7118ZM85.7248 90.9256C85.2667 90.9256 84.8189 90.7898 84.438 90.5353C84.0571 90.2807 83.7602 89.919 83.5849 89.4958C83.4096 89.0725 83.3637 88.6068 83.4531 88.1575C83.5425 87.7082 83.7631 87.2955 84.087 86.9715C84.4109 86.6476 84.8236 86.427 85.273 86.3376C85.7223 86.2482 86.188 86.2941 86.6112 86.4694C87.0345 86.6447 87.3962 86.9416 87.6507 87.3225C87.9052 87.7034 88.0411 88.1513 88.0411 88.6094C88.0411 89.2237 87.7971 89.8128 87.3627 90.2472C86.9283 90.6816 86.3391 90.9256 85.7248 90.9256Z" fill="url(#paint1_linear_2009_61)"/>
<path d="M30.1344 70.0793H53.2969C53.9113 70.0793 54.5004 69.8352 54.9348 69.4009C55.3692 68.9665 55.6132 68.3773 55.6132 67.763V44.6004C55.6132 43.9861 55.3692 43.397 54.9348 42.9626C54.5004 42.5282 53.9113 42.2842 53.2969 42.2842H30.1344C29.5201 42.2842 28.9309 42.5282 28.4965 42.9626C28.0621 43.397 27.8181 43.9861 27.8181 44.6004V67.763C27.8181 68.3773 28.0621 68.9665 28.4965 69.4009C28.9309 69.8352 29.5201 70.0793 30.1344 70.0793ZM32.4506 46.9167H50.9807V65.4468H32.4506V46.9167Z" fill="url(#paint2_linear_2009_61)"/>
<ellipse cx="132.682" cy="97.124" rx="27.2424" ry="26.6501" fill="#1B1B1B"/>
<ellipse cx="152.225" cy="111.93" rx="11.2523" ry="11.8445" fill="#1B1B1B"/>
<mask id="path-6-outside-1_2009_61" maskUnits="userSpaceOnUse" x="100.07" y="64.3333" width="67" height="66" fill="black">
<rect fill="white" x="100.07" y="64.3333" width="67" height="66"/>
<path d="M143.286 120.695C142.505 120.996 141.775 121.283 141.038 121.559C140.715 121.679 140.386 121.781 140.052 121.879C140.001 121.886 139.952 121.903 139.908 121.93C139.864 121.956 139.826 121.991 139.795 122.033C139.765 122.074 139.743 122.121 139.732 122.171C139.72 122.221 139.719 122.273 139.727 122.324C139.743 122.816 139.727 123.308 139.727 123.797C139.707 125.787 138.361 127.151 136.389 127.155C133.936 127.164 131.483 127.164 129.031 127.155C127.095 127.155 125.739 125.787 125.717 123.835C125.717 123.234 125.717 122.633 125.717 122.01L124.709 121.668C123.333 121.213 122 120.637 120.726 119.947C120.328 119.725 120.325 119.725 120.007 120.05C119.689 120.375 119.322 120.751 118.972 121.091C117.659 122.364 115.777 122.406 114.475 121.129C112.646 119.324 110.837 117.495 109.05 115.644C107.79 114.342 107.833 112.417 109.092 111.111C109.537 110.666 109.982 110.221 110.427 109.758C110.363 109.613 110.316 109.498 110.258 109.389C109.467 107.907 108.826 106.351 108.344 104.742C108.213 104.297 108.209 104.297 107.766 104.297C107.247 104.297 106.729 104.297 106.208 104.297C105.365 104.284 104.562 103.938 103.974 103.334C103.386 102.73 103.061 101.918 103.071 101.075C103.071 98.5233 103.071 95.971 103.071 93.4178C103.065 92.9982 103.143 92.5816 103.299 92.1921C103.456 91.8025 103.687 91.4477 103.981 91.1481C104.275 90.8484 104.625 90.6098 105.012 90.446C105.398 90.2822 105.813 90.1963 106.233 90.1934C106.736 90.1934 107.238 90.1934 107.741 90.1934C108.186 90.1934 108.198 90.1934 108.327 89.7484C108.776 88.2456 109.364 86.7877 110.082 85.3935C110.189 85.1843 110.305 84.9774 110.421 84.7482C110.3 84.6169 110.198 84.499 110.089 84.3899C109.713 84.005 109.321 83.6356 108.963 83.2372C108.43 82.6511 108.132 81.8885 108.127 81.0961C108.122 80.3037 108.41 79.5374 108.936 78.9447C108.959 78.9202 108.979 78.8957 109.001 78.8735C110.841 77.0287 112.657 75.1595 114.515 73.3415C115.777 72.1042 117.662 72.1421 118.941 73.366C119.339 73.7487 119.727 74.1448 120.109 74.5431C120.165 74.6194 120.248 74.6707 120.341 74.6857C120.434 74.7007 120.529 74.6782 120.606 74.6232C122.135 73.7773 123.752 73.0998 125.428 72.6027C125.521 72.5873 125.605 72.5363 125.662 72.4604C125.719 72.3845 125.744 72.2896 125.733 72.1955C125.719 71.6881 125.733 71.1807 125.733 70.6734C125.75 68.7062 127.103 67.3444 129.033 67.3333C131.501 67.3333 133.969 67.3333 136.436 67.3333C138.352 67.3333 139.696 68.6907 139.73 70.6244C139.73 71.1162 139.73 71.608 139.73 72.0998C139.73 72.4914 139.73 72.4959 140.083 72.6027C141.71 73.0984 143.283 73.7559 144.779 74.5654C145.115 74.7478 145.119 74.7456 145.384 74.4853C145.753 74.1181 146.112 73.7398 146.497 73.3726C147.832 72.0931 149.717 72.0864 151.027 73.3882C152.818 75.1684 154.598 76.9627 156.368 78.7711C157.674 80.1063 157.661 82.0267 156.368 83.3752C155.941 83.8203 155.478 84.2319 155.044 84.6614C155.117 84.835 155.155 84.9529 155.213 85.0597C156.003 86.5414 156.645 88.0969 157.131 89.7039C157.274 90.1756 157.278 90.1756 157.785 90.1756C158.293 90.1756 158.791 90.1756 159.294 90.1756C160.11 90.1894 160.889 90.5206 161.464 91.099C162.04 91.6773 162.368 92.4572 162.378 93.2732C162.412 94.9199 162.39 96.571 162.39 98.22C162.39 99.0923 162.376 99.9646 162.39 100.835C162.414 101.287 162.346 101.739 162.191 102.164C162.036 102.59 161.796 102.979 161.486 103.309C161.452 103.358 161.422 103.409 161.397 103.463C161.488 103.576 161.582 103.699 161.682 103.817C163.253 105.661 164.25 107.925 164.55 110.33C165.015 113.959 164.014 117.164 161.755 119.994C161.659 120.119 161.553 120.236 161.437 120.344C161.28 120.491 161.075 120.575 160.86 120.579C160.646 120.584 160.437 120.51 160.273 120.37C160.101 120.226 159.989 120.024 159.958 119.802C159.927 119.58 159.98 119.354 160.106 119.169C160.188 119.053 160.275 118.941 160.369 118.835C165.189 112.998 162.681 104.148 155.531 101.758C149.712 99.8177 143.386 103.347 141.924 109.353C141.576 110.737 141.509 112.176 141.725 113.587C141.941 114.997 142.437 116.35 143.183 117.567C143.929 118.783 144.911 119.838 146.07 120.67C147.23 121.502 148.544 122.093 149.935 122.411C152.225 122.937 154.626 122.669 156.744 121.65C156.886 121.583 157.027 121.51 157.169 121.445C157.725 121.196 158.228 121.345 158.46 121.823C158.691 122.302 158.504 122.809 157.946 123.074C157.316 123.396 156.662 123.667 155.99 123.886C151.332 125.25 147.204 124.269 143.617 120.976L143.286 120.695ZM137.213 113.065C137.375 113.034 137.536 112.994 137.693 112.945C138.254 112.735 138.806 112.499 139.369 112.304C139.503 112.266 139.62 112.183 139.7 112.068C139.779 111.954 139.815 111.815 139.803 111.676C139.822 110.929 139.904 110.184 140.05 109.451C141.123 104.756 143.949 101.602 148.466 100.022C148.592 99.9917 148.705 99.9195 148.785 99.8175C148.866 99.7155 148.91 99.5895 148.911 99.4594C149.276 96.5176 148.976 93.6537 147.798 90.9322C145.515 85.6583 141.568 82.3382 135.991 81.1121C132.302 80.3021 128.739 80.8406 125.354 82.5363C125.201 82.6178 125.042 82.6877 124.878 82.7455C124.742 82.7856 124.599 82.7927 124.46 82.7663C124.321 82.7399 124.19 82.6808 124.079 82.5938C123.967 82.5067 123.878 82.3944 123.818 82.2659C123.759 82.1375 123.731 81.9968 123.737 81.8553C123.75 81.4103 124.024 81.1878 124.38 80.9964C128.321 78.9937 132.449 78.4218 136.75 79.4209C141.521 80.5335 145.255 83.2039 147.936 87.3184C150.262 90.8966 151.154 94.8509 150.765 99.1123C150.754 99.2302 150.765 99.3526 150.765 99.5173C152.405 99.3306 154.066 99.4717 155.651 99.9324C157.237 100.393 158.715 101.164 160 102.201C160.186 102.063 160.335 101.881 160.433 101.67C160.531 101.46 160.575 101.229 160.56 100.997C160.56 98.5092 160.549 96.0192 160.56 93.5291C160.571 93.3279 160.538 93.1268 160.466 92.9387C160.394 92.7507 160.283 92.5798 160.141 92.4373C159.998 92.2947 159.828 92.1835 159.64 92.111C159.452 92.0384 159.251 92.006 159.049 92.0159C158.313 92.0426 157.572 92.0159 156.824 92.0159C156.047 92.0159 155.803 91.8201 155.596 91.0546C155.213 89.5816 154.689 88.1492 154.029 86.7776C153.764 86.2391 153.471 85.714 153.188 85.1843C152.883 84.6147 152.925 84.2942 153.379 83.8203C153.511 83.6845 153.644 83.551 153.778 83.4175C154.201 82.9902 154.628 82.5697 155.042 82.1357C155.669 81.4681 155.676 80.7249 155.075 80.0618C155.022 80.0017 154.964 79.9483 154.908 79.8904L149.941 74.8791C149.822 74.7535 149.693 74.6367 149.556 74.5298C149.369 74.3845 149.146 74.2933 148.91 74.2663C148.675 74.2392 148.437 74.2772 148.221 74.3762C148.008 74.4785 147.816 74.6187 147.654 74.7901C147.102 75.3309 146.568 75.9028 146.016 76.4346C145.571 76.8641 145.237 76.9019 144.696 76.6059C144.474 76.4769 144.234 76.3367 143.998 76.2098C142.409 75.3404 140.723 74.6607 138.975 74.1848C138.085 73.9445 137.932 73.7398 137.932 72.8252C137.932 72.1421 137.932 71.4611 137.932 70.778C137.932 69.6965 137.402 69.1602 136.343 69.158C133.936 69.158 131.531 69.158 129.126 69.158C128.067 69.158 127.546 69.6965 127.537 70.7802C127.537 71.4923 127.537 72.2066 127.537 72.9209C127.537 73.7086 127.375 73.9401 126.629 74.1426C124.592 74.7005 122.636 75.5234 120.813 76.5904C120.227 76.9308 119.898 76.8819 119.422 76.4079C118.883 75.8738 118.356 75.3286 117.817 74.7968C117.101 74.0869 116.335 74.0803 115.628 74.7968C113.904 76.5088 112.189 78.2311 110.483 79.9639C109.751 80.7049 109.755 81.4659 110.483 82.2069C111.004 82.7388 111.529 83.2595 112.041 83.7891C112.552 84.3187 112.586 84.6147 112.234 85.2288C111.171 87.086 110.355 89.0745 109.809 91.1436C109.637 91.7889 109.364 92.0026 108.696 92.007C107.926 92.007 107.154 92.027 106.384 92.007C106.183 91.9991 105.983 92.033 105.795 92.1066C105.608 92.1802 105.438 92.2919 105.296 92.4345C105.155 92.5772 105.044 92.7477 104.971 92.9354C104.899 93.123 104.866 93.3237 104.875 93.5246C104.893 95.9991 104.893 98.4729 104.875 100.946C104.863 101.151 104.895 101.356 104.968 101.548C105.04 101.74 105.153 101.915 105.297 102.061C105.442 102.207 105.615 102.321 105.807 102.395C105.998 102.469 106.203 102.502 106.408 102.492C107.176 102.468 107.948 102.492 108.718 102.492C109.355 102.492 109.637 102.715 109.802 103.331C110.353 105.416 111.176 107.419 112.25 109.288C112.586 109.876 112.535 110.207 112.061 110.69C111.531 111.233 110.99 111.765 110.463 112.308C109.76 113.029 109.755 113.795 110.463 114.518C112.169 116.249 113.881 117.976 115.599 119.698C116.326 120.43 117.088 120.424 117.824 119.698C118.36 119.164 118.888 118.619 119.426 118.085C119.871 117.64 120.223 117.584 120.781 117.909C122.617 118.984 124.588 119.811 126.641 120.368C127.353 120.562 127.531 120.813 127.531 121.561C127.531 122.308 127.531 123.083 127.531 123.844C127.531 124.405 127.718 124.892 128.238 125.146C128.523 125.274 128.832 125.339 129.144 125.337C131.532 125.353 133.922 125.348 136.312 125.337C137.4 125.337 137.918 124.801 137.923 123.69C137.923 122.945 137.923 122.199 137.923 121.454C137.923 120.824 138.123 120.564 138.717 120.384C139.229 120.226 139.745 120.09 140.25 119.914C140.84 119.712 141.421 119.469 142.077 119.231C141.011 117.697 140.287 115.951 139.954 114.113C139.901 114.108 139.847 114.108 139.794 114.113C139.692 114.148 139.587 114.186 139.485 114.226C138.129 114.782 136.708 115.165 135.257 115.366C132.254 115.802 129.19 115.463 126.356 114.38C122.182 112.783 118.736 109.717 116.664 105.757C114.593 101.798 114.039 97.2183 115.107 92.8793C115.97 89.2625 117.925 85.9992 120.708 83.5332C120.8 83.4506 120.899 83.3761 121.004 83.3107C121.136 83.224 121.291 83.1779 121.449 83.1779C121.607 83.1779 121.762 83.224 121.894 83.3107C122.04 83.3919 122.16 83.5136 122.239 83.6612C122.318 83.8088 122.353 83.9761 122.339 84.1429C122.326 84.2849 122.283 84.4226 122.215 84.5476C122.146 84.6727 122.053 84.7826 121.941 84.8706C121.496 85.3001 121.035 85.7117 120.632 86.1746C117.128 90.2023 115.77 94.8709 116.647 100.158C117.635 106.117 122.092 111.202 127.809 112.971C127.925 113.007 128.045 113.018 128.205 113.049C128.221 112.873 128.238 112.735 128.238 112.604C128.238 109.811 128.238 107.021 128.238 104.23C128.25 104.099 128.217 103.968 128.147 103.857C128.076 103.746 127.97 103.661 127.847 103.616C124.836 102.059 122.951 99.6108 122.259 96.2595C121.849 94.1953 122.077 92.0553 122.911 90.1233C123.746 88.1914 125.148 86.5589 126.932 85.4425C127.278 85.2312 127.653 85.0708 128.045 84.9663C128.245 84.9032 128.456 84.8824 128.665 84.9051C128.873 84.9278 129.075 84.9935 129.257 85.098C129.439 85.2026 129.597 85.3437 129.722 85.5126C129.846 85.6814 129.934 85.8742 129.981 86.0789C130.081 86.5091 130.128 86.9501 130.119 87.3918C130.119 89.4858 130.101 91.5798 130.119 93.6715C130.117 94.2543 130.296 94.8234 130.629 95.3012C130.963 95.779 131.436 96.1424 131.983 96.3418C132.334 96.4928 132.723 96.5309 133.096 96.4509C133.736 96.3047 134.306 95.9433 134.711 95.4273C135.116 94.9113 135.331 94.2718 135.321 93.6159C135.321 91.5063 135.301 89.3879 135.306 87.2894C135.302 86.8778 135.349 86.4674 135.448 86.0678C135.496 85.8674 135.585 85.6789 135.708 85.5136C135.83 85.3482 135.986 85.2094 136.163 85.1054C136.341 85.0015 136.538 84.9346 136.743 84.9088C136.947 84.883 137.155 84.8987 137.353 84.9551C137.751 85.0478 138.131 85.2057 138.477 85.4224C141.957 87.73 143.668 91.0056 143.317 95.1869C142.996 99.0055 140.996 101.814 137.62 103.596C137.488 103.65 137.376 103.745 137.302 103.866C137.227 103.988 137.194 104.13 137.206 104.273C137.206 107.016 137.206 109.76 137.206 112.506L137.213 113.065ZM135.41 113.488V103.623C135.41 103.465 135.41 103.305 135.41 103.147C135.412 102.98 135.462 102.816 135.555 102.677C135.647 102.538 135.778 102.428 135.931 102.361C136.045 102.306 136.154 102.259 136.278 102.21C138.18 101.414 139.734 99.9631 140.657 98.1194C141.58 96.2757 141.811 94.1622 141.307 92.1628C140.799 90.0277 139.473 88.1777 137.613 87.0113C137.48 86.9223 137.326 86.8622 137.106 86.7487C137.106 87.0202 137.106 87.1938 137.106 87.3629C137.106 89.4724 137.119 91.5909 137.119 93.6893C137.121 94.5516 136.873 95.3961 136.407 96.1215C135.208 98.0219 132.598 99.2369 130.177 97.3699C129.593 96.9401 129.121 96.3769 128.799 95.7273C128.478 95.0777 128.317 94.3605 128.33 93.6359C128.33 91.5286 128.33 89.4079 128.345 87.3095C128.345 87.147 128.325 86.9824 128.31 86.7265C127.989 86.9267 127.742 87.0602 127.513 87.2205C122.295 90.9011 122.806 98.8853 128.452 101.865C128.786 102.043 129.137 102.185 129.48 102.343C129.65 102.413 129.795 102.531 129.896 102.684C129.997 102.837 130.05 103.017 130.047 103.2C130.047 103.358 130.047 103.516 130.047 103.674V113.485C131.821 113.802 133.637 113.802 135.41 113.488Z"/>
</mask>
<path d="M143.286 120.695C142.505 120.996 141.775 121.283 141.038 121.559C140.715 121.679 140.386 121.781 140.052 121.879C140.001 121.886 139.952 121.903 139.908 121.93C139.864 121.956 139.826 121.991 139.795 122.033C139.765 122.074 139.743 122.121 139.732 122.171C139.72 122.221 139.719 122.273 139.727 122.324C139.743 122.816 139.727 123.308 139.727 123.797C139.707 125.787 138.361 127.151 136.389 127.155C133.936 127.164 131.483 127.164 129.031 127.155C127.095 127.155 125.739 125.787 125.717 123.835C125.717 123.234 125.717 122.633 125.717 122.01L124.709 121.668C123.333 121.213 122 120.637 120.726 119.947C120.328 119.725 120.325 119.725 120.007 120.05C119.689 120.375 119.322 120.751 118.972 121.091C117.659 122.364 115.777 122.406 114.475 121.129C112.646 119.324 110.837 117.495 109.05 115.644C107.79 114.342 107.833 112.417 109.092 111.111C109.537 110.666 109.982 110.221 110.427 109.758C110.363 109.613 110.316 109.498 110.258 109.389C109.467 107.907 108.826 106.351 108.344 104.742C108.213 104.297 108.209 104.297 107.766 104.297C107.247 104.297 106.729 104.297 106.208 104.297C105.365 104.284 104.562 103.938 103.974 103.334C103.386 102.73 103.061 101.918 103.071 101.075C103.071 98.5233 103.071 95.971 103.071 93.4178C103.065 92.9982 103.143 92.5816 103.299 92.1921C103.456 91.8025 103.687 91.4477 103.981 91.1481C104.275 90.8484 104.625 90.6098 105.012 90.446C105.398 90.2822 105.813 90.1963 106.233 90.1934C106.736 90.1934 107.238 90.1934 107.741 90.1934C108.186 90.1934 108.198 90.1934 108.327 89.7484C108.776 88.2456 109.364 86.7877 110.082 85.3935C110.189 85.1843 110.305 84.9774 110.421 84.7482C110.3 84.6169 110.198 84.499 110.089 84.3899C109.713 84.005 109.321 83.6356 108.963 83.2372C108.43 82.6511 108.132 81.8885 108.127 81.0961C108.122 80.3037 108.41 79.5374 108.936 78.9447C108.959 78.9202 108.979 78.8957 109.001 78.8735C110.841 77.0287 112.657 75.1595 114.515 73.3415C115.777 72.1042 117.662 72.1421 118.941 73.366C119.339 73.7487 119.727 74.1448 120.109 74.5431C120.165 74.6194 120.248 74.6707 120.341 74.6857C120.434 74.7007 120.529 74.6782 120.606 74.6232C122.135 73.7773 123.752 73.0998 125.428 72.6027C125.521 72.5873 125.605 72.5363 125.662 72.4604C125.719 72.3845 125.744 72.2896 125.733 72.1955C125.719 71.6881 125.733 71.1807 125.733 70.6734C125.75 68.7062 127.103 67.3444 129.033 67.3333C131.501 67.3333 133.969 67.3333 136.436 67.3333C138.352 67.3333 139.696 68.6907 139.73 70.6244C139.73 71.1162 139.73 71.608 139.73 72.0998C139.73 72.4914 139.73 72.4959 140.083 72.6027C141.71 73.0984 143.283 73.7559 144.779 74.5654C145.115 74.7478 145.119 74.7456 145.384 74.4853C145.753 74.1181 146.112 73.7398 146.497 73.3726C147.832 72.0931 149.717 72.0864 151.027 73.3882C152.818 75.1684 154.598 76.9627 156.368 78.7711C157.674 80.1063 157.661 82.0267 156.368 83.3752C155.941 83.8203 155.478 84.2319 155.044 84.6614C155.117 84.835 155.155 84.9529 155.213 85.0597C156.003 86.5414 156.645 88.0969 157.131 89.7039C157.274 90.1756 157.278 90.1756 157.785 90.1756C158.293 90.1756 158.791 90.1756 159.294 90.1756C160.11 90.1894 160.889 90.5206 161.464 91.099C162.04 91.6773 162.368 92.4572 162.378 93.2732C162.412 94.9199 162.39 96.571 162.39 98.22C162.39 99.0923 162.376 99.9646 162.39 100.835C162.414 101.287 162.346 101.739 162.191 102.164C162.036 102.59 161.796 102.979 161.486 103.309C161.452 103.358 161.422 103.409 161.397 103.463C161.488 103.576 161.582 103.699 161.682 103.817C163.253 105.661 164.25 107.925 164.55 110.33C165.015 113.959 164.014 117.164 161.755 119.994C161.659 120.119 161.553 120.236 161.437 120.344C161.28 120.491 161.075 120.575 160.86 120.579C160.646 120.584 160.437 120.51 160.273 120.37C160.101 120.226 159.989 120.024 159.958 119.802C159.927 119.58 159.98 119.354 160.106 119.169C160.188 119.053 160.275 118.941 160.369 118.835C165.189 112.998 162.681 104.148 155.531 101.758C149.712 99.8177 143.386 103.347 141.924 109.353C141.576 110.737 141.509 112.176 141.725 113.587C141.941 114.997 142.437 116.35 143.183 117.567C143.929 118.783 144.911 119.838 146.07 120.67C147.23 121.502 148.544 122.093 149.935 122.411C152.225 122.937 154.626 122.669 156.744 121.65C156.886 121.583 157.027 121.51 157.169 121.445C157.725 121.196 158.228 121.345 158.46 121.823C158.691 122.302 158.504 122.809 157.946 123.074C157.316 123.396 156.662 123.667 155.99 123.886C151.332 125.25 147.204 124.269 143.617 120.976L143.286 120.695ZM137.213 113.065C137.375 113.034 137.536 112.994 137.693 112.945C138.254 112.735 138.806 112.499 139.369 112.304C139.503 112.266 139.62 112.183 139.7 112.068C139.779 111.954 139.815 111.815 139.803 111.676C139.822 110.929 139.904 110.184 140.05 109.451C141.123 104.756 143.949 101.602 148.466 100.022C148.592 99.9917 148.705 99.9195 148.785 99.8175C148.866 99.7155 148.91 99.5895 148.911 99.4594C149.276 96.5176 148.976 93.6537 147.798 90.9322C145.515 85.6583 141.568 82.3382 135.991 81.1121C132.302 80.3021 128.739 80.8406 125.354 82.5363C125.201 82.6178 125.042 82.6877 124.878 82.7455C124.742 82.7856 124.599 82.7927 124.46 82.7663C124.321 82.7399 124.19 82.6808 124.079 82.5938C123.967 82.5067 123.878 82.3944 123.818 82.2659C123.759 82.1375 123.731 81.9968 123.737 81.8553C123.75 81.4103 124.024 81.1878 124.38 80.9964C128.321 78.9937 132.449 78.4218 136.75 79.4209C141.521 80.5335 145.255 83.2039 147.936 87.3184C150.262 90.8966 151.154 94.8509 150.765 99.1123C150.754 99.2302 150.765 99.3526 150.765 99.5173C152.405 99.3306 154.066 99.4717 155.651 99.9324C157.237 100.393 158.715 101.164 160 102.201C160.186 102.063 160.335 101.881 160.433 101.67C160.531 101.46 160.575 101.229 160.56 100.997C160.56 98.5092 160.549 96.0192 160.56 93.5291C160.571 93.3279 160.538 93.1268 160.466 92.9387C160.394 92.7507 160.283 92.5798 160.141 92.4373C159.998 92.2947 159.828 92.1835 159.64 92.111C159.452 92.0384 159.251 92.006 159.049 92.0159C158.313 92.0426 157.572 92.0159 156.824 92.0159C156.047 92.0159 155.803 91.8201 155.596 91.0546C155.213 89.5816 154.689 88.1492 154.029 86.7776C153.764 86.2391 153.471 85.714 153.188 85.1843C152.883 84.6147 152.925 84.2942 153.379 83.8203C153.511 83.6845 153.644 83.551 153.778 83.4175C154.201 82.9902 154.628 82.5697 155.042 82.1357C155.669 81.4681 155.676 80.7249 155.075 80.0618C155.022 80.0017 154.964 79.9483 154.908 79.8904L149.941 74.8791C149.822 74.7535 149.693 74.6367 149.556 74.5298C149.369 74.3845 149.146 74.2933 148.91 74.2663C148.675 74.2392 148.437 74.2772 148.221 74.3762C148.008 74.4785 147.816 74.6187 147.654 74.7901C147.102 75.3309 146.568 75.9028 146.016 76.4346C145.571 76.8641 145.237 76.9019 144.696 76.6059C144.474 76.4769 144.234 76.3367 143.998 76.2098C142.409 75.3404 140.723 74.6607 138.975 74.1848C138.085 73.9445 137.932 73.7398 137.932 72.8252C137.932 72.1421 137.932 71.4611 137.932 70.778C137.932 69.6965 137.402 69.1602 136.343 69.158C133.936 69.158 131.531 69.158 129.126 69.158C128.067 69.158 127.546 69.6965 127.537 70.7802C127.537 71.4923 127.537 72.2066 127.537 72.9209C127.537 73.7086 127.375 73.9401 126.629 74.1426C124.592 74.7005 122.636 75.5234 120.813 76.5904C120.227 76.9308 119.898 76.8819 119.422 76.4079C118.883 75.8738 118.356 75.3286 117.817 74.7968C117.101 74.0869 116.335 74.0803 115.628 74.7968C113.904 76.5088 112.189 78.2311 110.483 79.9639C109.751 80.7049 109.755 81.4659 110.483 82.2069C111.004 82.7388 111.529 83.2595 112.041 83.7891C112.552 84.3187 112.586 84.6147 112.234 85.2288C111.171 87.086 110.355 89.0745 109.809 91.1436C109.637 91.7889 109.364 92.0026 108.696 92.007C107.926 92.007 107.154 92.027 106.384 92.007C106.183 91.9991 105.983 92.033 105.795 92.1066C105.608 92.1802 105.438 92.2919 105.296 92.4345C105.155 92.5772 105.044 92.7477 104.971 92.9354C104.899 93.123 104.866 93.3237 104.875 93.5246C104.893 95.9991 104.893 98.4729 104.875 100.946C104.863 101.151 104.895 101.356 104.968 101.548C105.04 101.74 105.153 101.915 105.297 102.061C105.442 102.207 105.615 102.321 105.807 102.395C105.998 102.469 106.203 102.502 106.408 102.492C107.176 102.468 107.948 102.492 108.718 102.492C109.355 102.492 109.637 102.715 109.802 103.331C110.353 105.416 111.176 107.419 112.25 109.288C112.586 109.876 112.535 110.207 112.061 110.69C111.531 111.233 110.99 111.765 110.463 112.308C109.76 113.029 109.755 113.795 110.463 114.518C112.169 116.249 113.881 117.976 115.599 119.698C116.326 120.43 117.088 120.424 117.824 119.698C118.36 119.164 118.888 118.619 119.426 118.085C119.871 117.64 120.223 117.584 120.781 117.909C122.617 118.984 124.588 119.811 126.641 120.368C127.353 120.562 127.531 120.813 127.531 121.561C127.531 122.308 127.531 123.083 127.531 123.844C127.531 124.405 127.718 124.892 128.238 125.146C128.523 125.274 128.832 125.339 129.144 125.337C131.532 125.353 133.922 125.348 136.312 125.337C137.4 125.337 137.918 124.801 137.923 123.69C137.923 122.945 137.923 122.199 137.923 121.454C137.923 120.824 138.123 120.564 138.717 120.384C139.229 120.226 139.745 120.09 140.25 119.914C140.84 119.712 141.421 119.469 142.077 119.231C141.011 117.697 140.287 115.951 139.954 114.113C139.901 114.108 139.847 114.108 139.794 114.113C139.692 114.148 139.587 114.186 139.485 114.226C138.129 114.782 136.708 115.165 135.257 115.366C132.254 115.802 129.19 115.463 126.356 114.38C122.182 112.783 118.736 109.717 116.664 105.757C114.593 101.798 114.039 97.2183 115.107 92.8793C115.97 89.2625 117.925 85.9992 120.708 83.5332C120.8 83.4506 120.899 83.3761 121.004 83.3107C121.136 83.224 121.291 83.1779 121.449 83.1779C121.607 83.1779 121.762 83.224 121.894 83.3107C122.04 83.3919 122.16 83.5136 122.239 83.6612C122.318 83.8088 122.353 83.9761 122.339 84.1429C122.326 84.2849 122.283 84.4226 122.215 84.5476C122.146 84.6727 122.053 84.7826 121.941 84.8706C121.496 85.3001 121.035 85.7117 120.632 86.1746C117.128 90.2023 115.77 94.8709 116.647 100.158C117.635 106.117 122.092 111.202 127.809 112.971C127.925 113.007 128.045 113.018 128.205 113.049C128.221 112.873 128.238 112.735 128.238 112.604C128.238 109.811 128.238 107.021 128.238 104.23C128.25 104.099 128.217 103.968 128.147 103.857C128.076 103.746 127.97 103.661 127.847 103.616C124.836 102.059 122.951 99.6108 122.259 96.2595C121.849 94.1953 122.077 92.0553 122.911 90.1233C123.746 88.1914 125.148 86.5589 126.932 85.4425C127.278 85.2312 127.653 85.0708 128.045 84.9663C128.245 84.9032 128.456 84.8824 128.665 84.9051C128.873 84.9278 129.075 84.9935 129.257 85.098C129.439 85.2026 129.597 85.3437 129.722 85.5126C129.846 85.6814 129.934 85.8742 129.981 86.0789C130.081 86.5091 130.128 86.9501 130.119 87.3918C130.119 89.4858 130.101 91.5798 130.119 93.6715C130.117 94.2543 130.296 94.8234 130.629 95.3012C130.963 95.779 131.436 96.1424 131.983 96.3418C132.334 96.4928 132.723 96.5309 133.096 96.4509C133.736 96.3047 134.306 95.9433 134.711 95.4273C135.116 94.9113 135.331 94.2718 135.321 93.6159C135.321 91.5063 135.301 89.3879 135.306 87.2894C135.302 86.8778 135.349 86.4674 135.448 86.0678C135.496 85.8674 135.585 85.6789 135.708 85.5136C135.83 85.3482 135.986 85.2094 136.163 85.1054C136.341 85.0015 136.538 84.9346 136.743 84.9088C136.947 84.883 137.155 84.8987 137.353 84.9551C137.751 85.0478 138.131 85.2057 138.477 85.4224C141.957 87.73 143.668 91.0056 143.317 95.1869C142.996 99.0055 140.996 101.814 137.62 103.596C137.488 103.65 137.376 103.745 137.302 103.866C137.227 103.988 137.194 104.13 137.206 104.273C137.206 107.016 137.206 109.76 137.206 112.506L137.213 113.065ZM135.41 113.488V103.623C135.41 103.465 135.41 103.305 135.41 103.147C135.412 102.98 135.462 102.816 135.555 102.677C135.647 102.538 135.778 102.428 135.931 102.361C136.045 102.306 136.154 102.259 136.278 102.21C138.18 101.414 139.734 99.9631 140.657 98.1194C141.58 96.2757 141.811 94.1622 141.307 92.1628C140.799 90.0277 139.473 88.1777 137.613 87.0113C137.48 86.9223 137.326 86.8622 137.106 86.7487C137.106 87.0202 137.106 87.1938 137.106 87.3629C137.106 89.4724 137.119 91.5909 137.119 93.6893C137.121 94.5516 136.873 95.3961 136.407 96.1215C135.208 98.0219 132.598 99.2369 130.177 97.3699C129.593 96.9401 129.121 96.3769 128.799 95.7273C128.478 95.0777 128.317 94.3605 128.33 93.6359C128.33 91.5286 128.33 89.4079 128.345 87.3095C128.345 87.147 128.325 86.9824 128.31 86.7265C127.989 86.9267 127.742 87.0602 127.513 87.2205C122.295 90.9011 122.806 98.8853 128.452 101.865C128.786 102.043 129.137 102.185 129.48 102.343C129.65 102.413 129.795 102.531 129.896 102.684C129.997 102.837 130.05 103.017 130.047 103.2C130.047 103.358 130.047 103.516 130.047 103.674V113.485C131.821 113.802 133.637 113.802 135.41 113.488Z" fill="url(#paint3_linear_2009_61)"/>
<path d="M143.286 120.695C142.505 120.996 141.775 121.283 141.038 121.559C140.715 121.679 140.386 121.781 140.052 121.879C140.001 121.886 139.952 121.903 139.908 121.93C139.864 121.956 139.826 121.991 139.795 122.033C139.765 122.074 139.743 122.121 139.732 122.171C139.72 122.221 139.719 122.273 139.727 122.324C139.743 122.816 139.727 123.308 139.727 123.797C139.707 125.787 138.361 127.151 136.389 127.155C133.936 127.164 131.483 127.164 129.031 127.155C127.095 127.155 125.739 125.787 125.717 123.835C125.717 123.234 125.717 122.633 125.717 122.01L124.709 121.668C123.333 121.213 122 120.637 120.726 119.947C120.328 119.725 120.325 119.725 120.007 120.05C119.689 120.375 119.322 120.751 118.972 121.091C117.659 122.364 115.777 122.406 114.475 121.129C112.646 119.324 110.837 117.495 109.05 115.644C107.79 114.342 107.833 112.417 109.092 111.111C109.537 110.666 109.982 110.221 110.427 109.758C110.363 109.613 110.316 109.498 110.258 109.389C109.467 107.907 108.826 106.351 108.344 104.742C108.213 104.297 108.209 104.297 107.766 104.297C107.247 104.297 106.729 104.297 106.208 104.297C105.365 104.284 104.562 103.938 103.974 103.334C103.386 102.73 103.061 101.918 103.071 101.075C103.071 98.5233 103.071 95.971 103.071 93.4178C103.065 92.9982 103.143 92.5816 103.299 92.1921C103.456 91.8025 103.687 91.4477 103.981 91.1481C104.275 90.8484 104.625 90.6098 105.012 90.446C105.398 90.2822 105.813 90.1963 106.233 90.1934C106.736 90.1934 107.238 90.1934 107.741 90.1934C108.186 90.1934 108.198 90.1934 108.327 89.7484C108.776 88.2456 109.364 86.7877 110.082 85.3935C110.189 85.1843 110.305 84.9774 110.421 84.7482C110.3 84.6169 110.198 84.499 110.089 84.3899C109.713 84.005 109.321 83.6356 108.963 83.2372C108.43 82.6511 108.132 81.8885 108.127 81.0961C108.122 80.3037 108.41 79.5374 108.936 78.9447C108.959 78.9202 108.979 78.8957 109.001 78.8735C110.841 77.0287 112.657 75.1595 114.515 73.3415C115.777 72.1042 117.662 72.1421 118.941 73.366C119.339 73.7487 119.727 74.1448 120.109 74.5431C120.165 74.6194 120.248 74.6707 120.341 74.6857C120.434 74.7007 120.529 74.6782 120.606 74.6232C122.135 73.7773 123.752 73.0998 125.428 72.6027C125.521 72.5873 125.605 72.5363 125.662 72.4604C125.719 72.3845 125.744 72.2896 125.733 72.1955C125.719 71.6881 125.733 71.1807 125.733 70.6734C125.75 68.7062 127.103 67.3444 129.033 67.3333C131.501 67.3333 133.969 67.3333 136.436 67.3333C138.352 67.3333 139.696 68.6907 139.73 70.6244C139.73 71.1162 139.73 71.608 139.73 72.0998C139.73 72.4914 139.73 72.4959 140.083 72.6027C141.71 73.0984 143.283 73.7559 144.779 74.5654C145.115 74.7478 145.119 74.7456 145.384 74.4853C145.753 74.1181 146.112 73.7398 146.497 73.3726C147.832 72.0931 149.717 72.0864 151.027 73.3882C152.818 75.1684 154.598 76.9627 156.368 78.7711C157.674 80.1063 157.661 82.0267 156.368 83.3752C155.941 83.8203 155.478 84.2319 155.044 84.6614C155.117 84.835 155.155 84.9529 155.213 85.0597C156.003 86.5414 156.645 88.0969 157.131 89.7039C157.274 90.1756 157.278 90.1756 157.785 90.1756C158.293 90.1756 158.791 90.1756 159.294 90.1756C160.11 90.1894 160.889 90.5206 161.464 91.099C162.04 91.6773 162.368 92.4572 162.378 93.2732C162.412 94.9199 162.39 96.571 162.39 98.22C162.39 99.0923 162.376 99.9646 162.39 100.835C162.414 101.287 162.346 101.739 162.191 102.164C162.036 102.59 161.796 102.979 161.486 103.309C161.452 103.358 161.422 103.409 161.397 103.463C161.488 103.576 161.582 103.699 161.682 103.817C163.253 105.661 164.25 107.925 164.55 110.33C165.015 113.959 164.014 117.164 161.755 119.994C161.659 120.119 161.553 120.236 161.437 120.344C161.28 120.491 161.075 120.575 160.86 120.579C160.646 120.584 160.437 120.51 160.273 120.37C160.101 120.226 159.989 120.024 159.958 119.802C159.927 119.58 159.98 119.354 160.106 119.169C160.188 119.053 160.275 118.941 160.369 118.835C165.189 112.998 162.681 104.148 155.531 101.758C149.712 99.8177 143.386 103.347 141.924 109.353C141.576 110.737 141.509 112.176 141.725 113.587C141.941 114.997 142.437 116.35 143.183 117.567C143.929 118.783 144.911 119.838 146.07 120.67C147.23 121.502 148.544 122.093 149.935 122.411C152.225 122.937 154.626 122.669 156.744 121.65C156.886 121.583 157.027 121.51 157.169 121.445C157.725 121.196 158.228 121.345 158.46 121.823C158.691 122.302 158.504 122.809 157.946 123.074C157.316 123.396 156.662 123.667 155.99 123.886C151.332 125.25 147.204 124.269 143.617 120.976L143.286 120.695ZM137.213 113.065C137.375 113.034 137.536 112.994 137.693 112.945C138.254 112.735 138.806 112.499 139.369 112.304C139.503 112.266 139.62 112.183 139.7 112.068C139.779 111.954 139.815 111.815 139.803 111.676C139.822 110.929 139.904 110.184 140.05 109.451C141.123 104.756 143.949 101.602 148.466 100.022C148.592 99.9917 148.705 99.9195 148.785 99.8175C148.866 99.7155 148.91 99.5895 148.911 99.4594C149.276 96.5176 148.976 93.6537 147.798 90.9322C145.515 85.6583 141.568 82.3382 135.991 81.1121C132.302 80.3021 128.739 80.8406 125.354 82.5363C125.201 82.6178 125.042 82.6877 124.878 82.7455C124.742 82.7856 124.599 82.7927 124.46 82.7663C124.321 82.7399 124.19 82.6808 124.079 82.5938C123.967 82.5067 123.878 82.3944 123.818 82.2659C123.759 82.1375 123.731 81.9968 123.737 81.8553C123.75 81.4103 124.024 81.1878 124.38 80.9964C128.321 78.9937 132.449 78.4218 136.75 79.4209C141.521 80.5335 145.255 83.2039 147.936 87.3184C150.262 90.8966 151.154 94.8509 150.765 99.1123C150.754 99.2302 150.765 99.3526 150.765 99.5173C152.405 99.3306 154.066 99.4717 155.651 99.9324C157.237 100.393 158.715 101.164 160 102.201C160.186 102.063 160.335 101.881 160.433 101.67C160.531 101.46 160.575 101.229 160.56 100.997C160.56 98.5092 160.549 96.0192 160.56 93.5291C160.571 93.3279 160.538 93.1268 160.466 92.9387C160.394 92.7507 160.283 92.5798 160.141 92.4373C159.998 92.2947 159.828 92.1835 159.64 92.111C159.452 92.0384 159.251 92.006 159.049 92.0159C158.313 92.0426 157.572 92.0159 156.824 92.0159C156.047 92.0159 155.803 91.8201 155.596 91.0546C155.213 89.5816 154.689 88.1492 154.029 86.7776C153.764 86.2391 153.471 85.714 153.188 85.1843C152.883 84.6147 152.925 84.2942 153.379 83.8203C153.511 83.6845 153.644 83.551 153.778 83.4175C154.201 82.9902 154.628 82.5697 155.042 82.1357C155.669 81.4681 155.676 80.7249 155.075 80.0618C155.022 80.0017 154.964 79.9483 154.908 79.8904L149.941 74.8791C149.822 74.7535 149.693 74.6367 149.556 74.5298C149.369 74.3845 149.146 74.2933 148.91 74.2663C148.675 74.2392 148.437 74.2772 148.221 74.3762C148.008 74.4785 147.816 74.6187 147.654 74.7901C147.102 75.3309 146.568 75.9028 146.016 76.4346C145.571 76.8641 145.237 76.9019 144.696 76.6059C144.474 76.4769 144.234 76.3367 143.998 76.2098C142.409 75.3404 140.723 74.6607 138.975 74.1848C138.085 73.9445 137.932 73.7398 137.932 72.8252C137.932 72.1421 137.932 71.4611 137.932 70.778C137.932 69.6965 137.402 69.1602 136.343 69.158C133.936 69.158 131.531 69.158 129.126 69.158C128.067 69.158 127.546 69.6965 127.537 70.7802C127.537 71.4923 127.537 72.2066 127.537 72.9209C127.537 73.7086 127.375 73.9401 126.629 74.1426C124.592 74.7005 122.636 75.5234 120.813 76.5904C120.227 76.9308 119.898 76.8819 119.422 76.4079C118.883 75.8738 118.356 75.3286 117.817 74.7968C117.101 74.0869 116.335 74.0803 115.628 74.7968C113.904 76.5088 112.189 78.2311 110.483 79.9639C109.751 80.7049 109.755 81.4659 110.483 82.2069C111.004 82.7388 111.529 83.2595 112.041 83.7891C112.552 84.3187 112.586 84.6147 112.234 85.2288C111.171 87.086 110.355 89.0745 109.809 91.1436C109.637 91.7889 109.364 92.0026 108.696 92.007C107.926 92.007 107.154 92.027 106.384 92.007C106.183 91.9991 105.983 92.033 105.795 92.1066C105.608 92.1802 105.438 92.2919 105.296 92.4345C105.155 92.5772 105.044 92.7477 104.971 92.9354C104.899 93.123 104.866 93.3237 104.875 93.5246C104.893 95.9991 104.893 98.4729 104.875 100.946C104.863 101.151 104.895 101.356 104.968 101.548C105.04 101.74 105.153 101.915 105.297 102.061C105.442 102.207 105.615 102.321 105.807 102.395C105.998 102.469 106.203 102.502 106.408 102.492C107.176 102.468 107.948 102.492 108.718 102.492C109.355 102.492 109.637 102.715 109.802 103.331C110.353 105.416 111.176 107.419 112.25 109.288C112.586 109.876 112.535 110.207 112.061 110.69C111.531 111.233 110.99 111.765 110.463 112.308C109.76 113.029 109.755 113.795 110.463 114.518C112.169 116.249 113.881 117.976 115.599 119.698C116.326 120.43 117.088 120.424 117.824 119.698C118.36 119.164 118.888 118.619 119.426 118.085C119.871 117.64 120.223 117.584 120.781 117.909C122.617 118.984 124.588 119.811 126.641 120.368C127.353 120.562 127.531 120.813 127.531 121.561C127.531 122.308 127.531 123.083 127.531 123.844C127.531 124.405 127.718 124.892 128.238 125.146C128.523 125.274 128.832 125.339 129.144 125.337C131.532 125.353 133.922 125.348 136.312 125.337C137.4 125.337 137.918 124.801 137.923 123.69C137.923 122.945 137.923 122.199 137.923 121.454C137.923 120.824 138.123 120.564 138.717 120.384C139.229 120.226 139.745 120.09 140.25 119.914C140.84 119.712 141.421 119.469 142.077 119.231C141.011 117.697 140.287 115.951 139.954 114.113C139.901 114.108 139.847 114.108 139.794 114.113C139.692 114.148 139.587 114.186 139.485 114.226C138.129 114.782 136.708 115.165 135.257 115.366C132.254 115.802 129.19 115.463 126.356 114.38C122.182 112.783 118.736 109.717 116.664 105.757C114.593 101.798 114.039 97.2183 115.107 92.8793C115.97 89.2625 117.925 85.9992 120.708 83.5332C120.8 83.4506 120.899 83.3761 121.004 83.3107C121.136 83.224 121.291 83.1779 121.449 83.1779C121.607 83.1779 121.762 83.224 121.894 83.3107C122.04 83.3919 122.16 83.5136 122.239 83.6612C122.318 83.8088 122.353 83.9761 122.339 84.1429C122.326 84.2849 122.283 84.4226 122.215 84.5476C122.146 84.6727 122.053 84.7826 121.941 84.8706C121.496 85.3001 121.035 85.7117 120.632 86.1746C117.128 90.2023 115.77 94.8709 116.647 100.158C117.635 106.117 122.092 111.202 127.809 112.971C127.925 113.007 128.045 113.018 128.205 113.049C128.221 112.873 128.238 112.735 128.238 112.604C128.238 109.811 128.238 107.021 128.238 104.23C128.25 104.099 128.217 103.968 128.147 103.857C128.076 103.746 127.97 103.661 127.847 103.616C124.836 102.059 122.951 99.6108 122.259 96.2595C121.849 94.1953 122.077 92.0553 122.911 90.1233C123.746 88.1914 125.148 86.5589 126.932 85.4425C127.278 85.2312 127.653 85.0708 128.045 84.9663C128.245 84.9032 128.456 84.8824 128.665 84.9051C128.873 84.9278 129.075 84.9935 129.257 85.098C129.439 85.2026 129.597 85.3437 129.722 85.5126C129.846 85.6814 129.934 85.8742 129.981 86.0789C130.081 86.5091 130.128 86.9501 130.119 87.3918C130.119 89.4858 130.101 91.5798 130.119 93.6715C130.117 94.2543 130.296 94.8234 130.629 95.3012C130.963 95.779 131.436 96.1424 131.983 96.3418C132.334 96.4928 132.723 96.5309 133.096 96.4509C133.736 96.3047 134.306 95.9433 134.711 95.4273C135.116 94.9113 135.331 94.2718 135.321 93.6159C135.321 91.5063 135.301 89.3879 135.306 87.2894C135.302 86.8778 135.349 86.4674 135.448 86.0678C135.496 85.8674 135.585 85.6789 135.708 85.5136C135.83 85.3482 135.986 85.2094 136.163 85.1054C136.341 85.0015 136.538 84.9346 136.743 84.9088C136.947 84.883 137.155 84.8987 137.353 84.9551C137.751 85.0478 138.131 85.2057 138.477 85.4224C141.957 87.73 143.668 91.0056 143.317 95.1869C142.996 99.0055 140.996 101.814 137.62 103.596C137.488 103.65 137.376 103.745 137.302 103.866C137.227 103.988 137.194 104.13 137.206 104.273C137.206 107.016 137.206 109.76 137.206 112.506L137.213 113.065ZM135.41 113.488V103.623C135.41 103.465 135.41 103.305 135.41 103.147C135.412 102.98 135.462 102.816 135.555 102.677C135.647 102.538 135.778 102.428 135.931 102.361C136.045 102.306 136.154 102.259 136.278 102.21C138.18 101.414 139.734 99.9631 140.657 98.1194C141.58 96.2757 141.811 94.1622 141.307 92.1628C140.799 90.0277 139.473 88.1777 137.613 87.0113C137.48 86.9223 137.326 86.8622 137.106 86.7487C137.106 87.0202 137.106 87.1938 137.106 87.3629C137.106 89.4724 137.119 91.5909 137.119 93.6893C137.121 94.5516 136.873 95.3961 136.407 96.1215C135.208 98.0219 132.598 99.2369 130.177 97.3699C129.593 96.9401 129.121 96.3769 128.799 95.7273C128.478 95.0777 128.317 94.3605 128.33 93.6359C128.33 91.5286 128.33 89.4079 128.345 87.3095C128.345 87.147 128.325 86.9824 128.31 86.7265C127.989 86.9267 127.742 87.0602 127.513 87.2205C122.295 90.9011 122.806 98.8853 128.452 101.865C128.786 102.043 129.137 102.185 129.48 102.343C129.65 102.413 129.795 102.531 129.896 102.684C129.997 102.837 130.05 103.017 130.047 103.2C130.047 103.358 130.047 103.516 130.047 103.674V113.485C131.821 113.802 133.637 113.802 135.41 113.488Z" stroke="#1B1B1B" stroke-width="4.7378" mask="url(#path-6-outside-1_2009_61)"/>
<path d="M154.62 104.83C155.29 104.544 156.022 104.436 156.745 104.517L156.744 104.518C157.488 104.596 158.198 104.866 158.805 105.303C159.415 105.743 159.898 106.336 160.206 107.022C160.514 107.708 160.636 108.464 160.56 109.212C160.483 109.96 160.212 110.674 159.772 111.284L159.771 111.283C159.319 111.918 158.76 112.538 158.35 113.035L158.348 113.038C157.086 114.559 155.821 116.08 154.556 117.601C153.928 118.408 153.036 118.964 152.036 119.175L152.037 119.176C151.429 119.314 150.796 119.31 150.189 119.166C149.583 119.022 149.019 118.74 148.539 118.344C147.48 117.478 146.426 116.588 145.403 115.66L145.4 115.657C144.59 114.917 144.095 113.895 144.016 112.802C143.937 111.712 144.278 110.634 144.968 109.787C145.658 108.926 146.657 108.368 147.752 108.231C148.764 108.105 149.784 108.349 150.628 108.911L152.955 106.11C153.393 105.55 153.966 105.109 154.62 104.83ZM156.32 108.687C156.304 108.687 156.288 108.692 156.275 108.699C156.201 108.766 156.133 108.838 156.072 108.917L156.06 108.932L156.047 108.948C154.91 110.311 153.766 111.696 152.617 113.063C152.284 113.46 151.785 113.881 151.09 113.94C150.398 113.999 149.838 113.671 149.448 113.344V113.344C149.095 113.051 148.718 112.723 148.395 112.449L148.38 112.436L148.365 112.423C148.348 112.407 148.325 112.398 148.302 112.393H148.286C148.267 112.393 148.248 112.399 148.233 112.409C148.217 112.419 148.205 112.435 148.198 112.452L148.189 112.474L148.178 112.496C148.175 112.502 148.175 112.509 148.176 112.515L148.185 112.532L148.202 112.548L148.218 112.564C148.362 112.709 148.509 112.84 148.671 112.978L149.212 113.436L149.214 113.437C149.703 113.858 150.162 114.262 150.628 114.654L151.097 115.043L151.12 115.061L151.143 115.081C151.148 115.086 151.155 115.089 151.161 115.092C151.168 115.094 151.175 115.095 151.182 115.094C151.189 115.094 151.196 115.092 151.202 115.089C151.209 115.085 151.215 115.081 151.219 115.076L151.243 115.046L151.27 115.017C151.322 114.962 151.363 114.912 151.448 114.813C153.03 112.912 154.612 111.008 156.193 109.102L156.202 109.091L156.211 109.08C156.282 108.999 156.344 108.912 156.4 108.82C156.408 108.802 156.413 108.783 156.409 108.763C156.406 108.743 156.394 108.724 156.378 108.71C156.362 108.696 156.341 108.688 156.32 108.687Z" fill="url(#paint4_linear_2009_61)" stroke="#1B1B1B" stroke-width="2.3689"/>
<defs>
<linearGradient id="paint0_linear_2009_61" x1="71.8272" y1="0.591309" x2="71.8272" y2="104.823" gradientUnits="userSpaceOnUse">
<stop stop-color="#68E0CF"/>
<stop offset="1" stop-color="#209CFF"/>
</linearGradient>
<linearGradient id="paint1_linear_2009_61" x1="56.786" y1="23.7542" x2="56.786" y2="95.5869" gradientUnits="userSpaceOnUse">
<stop stop-color="#68E0CF"/>
<stop offset="1" stop-color="#209CFF"/>
</linearGradient>
<linearGradient id="paint2_linear_2009_61" x1="41.7157" y1="42.2842" x2="41.7157" y2="70.0793" gradientUnits="userSpaceOnUse">
<stop stop-color="#68E0CF"/>
<stop offset="1" stop-color="#209CFF"/>
</linearGradient>
<linearGradient id="paint3_linear_2009_61" x1="132.024" y1="67.3333" x2="142.267" y2="126.017" gradientUnits="userSpaceOnUse">
<stop stop-color="#FFBB00"/>
<stop offset="1" stop-color="#FF3300"/>
</linearGradient>
<linearGradient id="paint4_linear_2009_61" x1="151.868" y1="105.676" x2="153.792" y2="117.924" gradientUnits="userSpaceOnUse">
<stop stop-color="#FFBB00"/>
<stop offset="1" stop-color="#FF3300"/>
</linearGradient>
</defs>
</svg>
