<svg width="37" height="37" viewBox="0 0 37 37" fill="none" xmlns="http://www.w3.org/2000/svg">
<g clip-path="url(#clip0_2002_66)">
<path d="M26.5321 21.6805L26.5185 21.7936C23.2016 20.1404 22.8547 19.9202 22.4263 20.5628C22.1291 21.0077 21.2633 22.0168 21.0024 22.3155C20.7384 22.6096 20.476 22.6322 20.028 22.4286C19.5755 22.2024 18.1229 21.7272 16.4034 20.1887C15.064 18.9895 14.165 17.5189 13.8995 17.0664C13.4576 16.3032 14.3822 16.1946 15.2239 14.6017C15.3747 14.285 15.2978 14.0361 15.1862 13.8113C15.073 13.5851 14.1725 11.3678 13.7954 10.4839C13.4334 9.60301 13.0609 9.71463 12.7818 9.71463C11.913 9.63922 11.278 9.65128 10.7184 10.2335C8.28389 12.9093 8.89779 15.6696 10.9808 18.6049C15.0745 23.9626 17.2556 24.9491 21.2437 26.3187C22.3207 26.6611 23.3026 26.6128 24.0795 26.5012C24.9453 26.3639 26.7447 25.4137 27.1203 24.3503C27.5049 23.2869 27.5049 22.4045 27.3918 22.2009C27.2802 21.9972 26.9846 21.8841 26.5321 21.6805Z" fill="#01FCFE"/>
<path d="M31.0768 5.30254C19.479 -5.90911 0.285131 2.22246 0.277589 18.0392C0.277589 21.2007 1.10568 24.2838 2.68343 27.0064L0.125244 36.3009L9.68072 33.8091C21.6043 40.2498 36.3199 31.6974 36.3259 18.0482C36.3259 13.2576 34.4556 8.74915 31.0542 5.36137L31.0768 5.30254ZM33.3122 17.9984C33.3032 29.5118 20.6646 36.7021 10.6687 30.8255L10.1257 30.5027L4.46933 31.9734L5.98523 26.4754L5.62473 25.9098C-0.595753 16.0074 6.55087 3.06564 18.3342 3.06564C22.3374 3.06564 26.0947 4.6268 28.9244 7.45497C31.7526 10.259 33.3122 14.0163 33.3122 17.9984Z" fill="#01FCFE"/>
</g>
<defs>
<clipPath id="clip0_2002_66">
<rect width="36.2007" height="36.2007" fill="white" transform="translate(0.125244 0.100342)"/>
</clipPath>
</defs>
</svg>
