<svg width="36" height="36" viewBox="0 0 36 36" fill="none" xmlns="http://www.w3.org/2000/svg">
<g clip-path="url(#clip0_2002_97)">
<path d="M34.0093 28.0799L26.8515 20.9222L24.9685 21.6659L23.6951 20.3925L25.0084 19.0792L22.8965 16.9673L16.9672 22.8966L19.0791 25.0085L20.3924 23.6952L21.6659 24.9686L20.9221 26.8516L28.0799 34.0093C29.7172 35.6466 32.372 35.6466 34.0093 34.0093C35.6466 32.3719 35.6466 29.7173 34.0093 28.0799Z" fill="#1B1B1B"/>
<path d="M24.077 11.9231C23.3876 11.2337 22.8835 10.4295 22.5644 9.57196L9.5719 22.5645C10.4294 22.8835 11.2337 23.3878 11.923 24.077C12.6124 24.7664 13.1165 25.5706 13.4356 26.4281L26.4281 13.4356C25.5706 13.1166 24.7662 12.6124 24.077 11.9231Z" fill="#1B1B1B"/>
<path d="M22.0123 14.691C21.9666 14.691 21.9202 14.6868 21.8744 14.6776C21.8294 14.6685 21.7859 14.6551 21.743 14.6376C21.7008 14.62 21.66 14.5982 21.622 14.5729C21.5834 14.5469 21.5475 14.518 21.5144 14.4857C21.4821 14.4526 21.4533 14.4168 21.4273 14.3781C21.402 14.3401 21.3801 14.2994 21.3626 14.2572C21.345 14.215 21.3317 14.1707 21.3226 14.1257C21.3134 14.08 21.3092 14.0343 21.3092 13.9879C21.3092 13.9422 21.3134 13.8965 21.3226 13.8508C21.3317 13.8058 21.345 13.7615 21.3626 13.7193C21.3801 13.6771 21.402 13.6356 21.4273 13.5976C21.4533 13.559 21.4821 13.5232 21.5144 13.4908C21.5476 13.4584 21.5834 13.4289 21.622 13.4036C21.66 13.3783 21.7008 13.3565 21.743 13.3389C21.7859 13.3213 21.8294 13.3079 21.8744 13.2988C21.9652 13.2805 22.0587 13.2805 22.1494 13.2988C22.1944 13.3079 22.2387 13.3213 22.2809 13.3389C22.323 13.3565 22.3645 13.3783 22.4025 13.4036C22.4412 13.4289 22.477 13.4584 22.5094 13.4908C22.5417 13.5231 22.5712 13.559 22.5966 13.5976C22.6218 13.6356 22.6437 13.6771 22.6612 13.7193C22.6788 13.7615 22.6922 13.8058 22.7013 13.8508C22.7105 13.8965 22.7153 13.9422 22.7153 13.9879C22.7153 14.0343 22.7105 14.08 22.7013 14.1257C22.6921 14.1707 22.6788 14.215 22.6612 14.2572C22.6437 14.2994 22.6219 14.3401 22.5966 14.3781C22.5712 14.4168 22.5417 14.4526 22.5094 14.4857C22.477 14.518 22.4412 14.5469 22.4025 14.5729C22.3645 14.5982 22.323 14.62 22.2809 14.6376C22.2387 14.6551 22.1944 14.6685 22.1494 14.6776C22.1044 14.6868 22.058 14.691 22.0123 14.691Z" fill="black"/>
<path d="M0.762817 2.21632L3.63305 7.36792L7.36785 3.63305L2.21632 0.762817L0.762817 2.21632Z" fill="#1B1B1B"/>
<path d="M19.0793 25.0088L19.4236 24.6639L19.0791 25.0085L19.0793 25.0088Z" fill="#1B1B1B"/>
<path d="M19.0793 25.7119C18.8928 25.7119 18.714 25.6378 18.5821 25.506L18.5819 25.5057C18.3073 25.2312 18.3073 24.7859 18.5819 24.5112L18.9264 24.1667C19.2011 23.8922 19.6461 23.8922 19.9208 24.1666C20.1954 24.441 20.1956 24.8861 19.9212 25.1609L19.5769 25.5056C19.4451 25.6376 19.2662 25.7118 19.0796 25.7118C19.0794 25.7119 19.0793 25.7119 19.0793 25.7119Z" fill="black"/>
<path d="M25.0087 19.0793L25.0085 19.0791L24.6639 19.4237L25.0087 19.0793Z" fill="#1B1B1B"/>
<path d="M24.6639 20.1269C24.4838 20.1269 24.3039 20.0582 24.1666 19.9208C23.8922 19.6461 23.8922 19.201 24.1667 18.9264L24.167 18.9262L24.5113 18.5819C24.7685 18.3247 25.1794 18.3062 25.4588 18.5389C25.6105 18.6654 25.7022 18.8501 25.7112 19.0475C25.7201 19.2449 25.6455 19.4371 25.5058 19.5767L25.161 19.9211C25.0236 20.0583 24.8438 20.1269 24.6639 20.1269Z" fill="black"/>
<path d="M24.7258 25.429C24.6801 25.429 24.6337 25.4248 24.5887 25.4157C24.5437 25.4065 24.4994 25.3932 24.4572 25.3756C24.4143 25.358 24.3736 25.3362 24.3356 25.3109C24.2969 25.2849 24.2611 25.2554 24.2287 25.223C24.1964 25.1907 24.1668 25.1548 24.1415 25.1161C24.1162 25.0782 24.0944 25.0374 24.0768 24.9952C24.0593 24.9523 24.0459 24.908 24.0368 24.8637C24.0276 24.818 24.0227 24.7716 24.0227 24.7259C24.0227 24.6802 24.0276 24.6338 24.0368 24.5888C24.0459 24.5438 24.0593 24.4995 24.0768 24.4573C24.0944 24.4144 24.1162 24.3736 24.1415 24.3357C24.1668 24.297 24.1964 24.2611 24.2287 24.2288C24.2611 24.1965 24.2969 24.1669 24.3356 24.1416C24.3736 24.1163 24.4143 24.0945 24.4572 24.0769C24.4994 24.0593 24.5437 24.046 24.5887 24.0368C24.6794 24.0186 24.7729 24.0186 24.8636 24.0368C24.9079 24.046 24.9522 24.0593 24.9951 24.0769C25.0373 24.0945 25.0781 24.1163 25.1161 24.1416C25.1547 24.1669 25.1906 24.1965 25.2229 24.2288C25.2553 24.2611 25.2848 24.297 25.3108 24.3357C25.3361 24.3736 25.3579 24.4144 25.3755 24.4573C25.3931 24.4995 25.4065 24.5438 25.4156 24.5888C25.4247 24.6338 25.4289 24.6802 25.4289 24.7259C25.4289 24.7716 25.4247 24.818 25.4156 24.8637C25.4065 24.908 25.3931 24.9523 25.3755 24.9952C25.3579 25.0374 25.3361 25.0782 25.3108 25.1161C25.2848 25.1548 25.2553 25.1907 25.2229 25.223C25.1906 25.2554 25.1547 25.2849 25.1161 25.3109C25.0781 25.3362 25.0373 25.358 24.9951 25.3756C24.9522 25.3932 24.9079 25.4065 24.8636 25.4157C24.8179 25.4248 24.7715 25.429 24.7258 25.429Z" fill="black"/>
<path d="M17.2163 14.9197L6.64868 4.35211L4.3521 6.64869L14.9197 17.2163L17.2163 14.9197Z" fill="#1B1B1B"/>
<path d="M0.937503 30.4723L4.3213 27.0885L8.91159 31.6788L5.52779 35.0626C7.73238 35.6683 10.1909 35.105 11.9231 33.3728C14.4901 30.8059 14.4901 26.6439 11.9231 24.077C9.35611 21.5101 5.19423 21.5101 2.62733 24.077C0.895175 25.8093 0.33183 28.2677 0.937503 30.4723Z" fill="#1B1B1B"/>
<path d="M35.0625 5.52786L31.6787 8.91166L27.9372 8.06292L27.0885 4.32137L30.4722 0.937575C28.2677 0.331902 25.8092 0.895177 24.077 2.6274C21.51 5.19437 21.51 9.35625 24.077 11.9232C26.6439 14.4901 30.8058 14.4901 33.3727 11.9232C35.1049 10.1909 35.6682 7.73238 35.0625 5.52786Z" fill="#1B1B1B"/>
<path d="M27.3488 20.4247C27.1508 20.2267 26.8541 20.1651 26.5933 20.2679L25.1396 20.842L24.6898 20.3922L25.5059 19.5761C25.7804 19.3015 25.7804 18.8562 25.5059 18.5816L23.8912 16.967L26.6194 14.2388C27.3049 14.4448 28.0149 14.5478 28.725 14.5478C30.5884 14.5478 32.4516 13.8385 33.8701 12.42C35.7163 10.5737 36.4331 7.86134 35.7408 5.34126C35.6745 5.09974 35.4847 4.91186 35.2426 4.84774C35.0008 4.78375 34.7427 4.85315 34.5655 5.03034L31.4562 8.1397L28.5251 7.47483L27.8602 4.54385L30.9697 1.43441C31.1467 1.25729 31.2162 0.999455 31.1522 0.757298C31.0882 0.515212 30.9002 0.325438 30.6587 0.259133C28.1387 -0.433235 25.4263 0.283602 23.5799 2.1298C22.2057 3.50413 21.4487 5.33142 21.4487 7.27486C21.4487 7.99999 21.5541 8.70888 21.7575 9.38417L17.2165 13.9252L7.6433 4.35196L7.86514 4.13013C8.02102 3.97424 8.09478 3.75416 8.06434 3.53584C8.03382 3.31745 7.90276 3.12599 7.71017 3.01876L2.55864 0.14825C2.28428 -0.00467984 1.94144 0.0430624 1.71918 0.265321L0.265679 1.71889C0.0434908 1.94108 -0.0043218 2.28379 0.148679 2.55836L3.01884 7.70988C3.12614 7.90247 3.3176 8.0336 3.53592 8.06405C3.56833 8.06855 3.60075 8.0708 3.63309 8.0708C3.81822 8.0708 3.99745 7.9976 4.1302 7.86485L4.35211 7.64295L13.9255 17.2162L9.38087 21.7609C6.89672 21.0143 4.08928 21.6206 2.13016 23.5796C0.28403 25.4259 -0.432807 28.1382 0.259562 30.6583C0.325866 30.8998 0.51564 31.0877 0.757727 31.1518C0.999461 31.2157 1.25765 31.1464 1.43484 30.9692L4.32131 28.0827L7.91724 31.6785L5.0307 34.5651C4.85358 34.7422 4.78411 35 4.84816 35.2422C4.91215 35.4843 5.10017 35.6741 5.34162 35.7404C5.97675 35.9148 6.62363 35.9998 7.26622 35.9998C9.17352 35.9997 11.0394 35.2506 12.4204 33.8697C13.7947 32.4954 14.5517 30.6681 14.5517 28.7246C14.5517 27.9995 14.4463 27.2906 14.2428 26.6153L16.9674 23.8908L18.5821 25.5055C18.714 25.6374 18.8928 25.7114 19.0793 25.7114C19.2658 25.7114 19.4446 25.6373 19.5765 25.5055L20.3925 24.6894L20.8423 25.1392L20.2681 26.5928C20.1652 26.8534 20.2268 27.1502 20.4249 27.3484L27.5827 34.5062C28.5372 35.4606 29.7909 35.9378 31.0446 35.9378C32.2984 35.9378 33.5521 35.4606 34.5065 34.5062C35.4312 33.5814 35.9406 32.3519 35.9406 31.0443C35.9406 29.7365 35.4313 28.507 34.5065 27.5823L27.3488 20.4247ZM24.5743 3.1243C25.6885 2.01006 27.1936 1.40593 28.7327 1.40593C28.8227 1.40593 28.9128 1.40797 29.003 1.41212L26.5913 3.82377C26.4205 3.99456 26.3494 4.24101 26.4028 4.47663L27.2515 8.21817C27.3114 8.4822 27.5176 8.68842 27.7817 8.74833L31.5233 9.59707C31.7589 9.65058 32.0052 9.57928 32.1761 9.40849L34.5877 6.99684C34.6629 8.62873 34.0549 10.2463 32.8756 11.4256C31.7669 12.5342 30.2928 13.1448 28.725 13.1448C27.1571 13.1448 25.6829 12.5342 24.5744 11.4256C23.4657 10.3169 22.8551 8.84283 22.8551 7.27493C22.855 5.70703 23.4655 4.23299 24.5743 3.1243ZM3.79425 6.21208L1.63558 2.33772L2.33807 1.63522L6.21237 3.79389L3.79425 6.21208ZM5.34675 6.64851L6.64887 5.34639L16.2221 14.9197L14.92 16.2218L5.34675 6.64851ZM11.4259 32.8753C10.2466 34.0547 8.62993 34.6628 6.9972 34.5875L9.40892 32.1759C9.54076 32.044 9.61487 31.8652 9.61487 31.6787C9.61487 31.4922 9.54076 31.3133 9.40892 31.1815L4.81863 26.5912C4.54399 26.3166 4.09884 26.3166 3.82413 26.5912L1.41248 29.0029C1.33731 27.371 1.94531 25.7534 3.12466 24.5741C5.41334 22.2854 9.13745 22.2855 11.426 24.5741C12.5347 25.6828 13.1453 27.1568 13.1453 28.7247C13.1453 30.2926 12.5346 31.7666 11.4259 32.8753ZM13.6533 25.2158C13.437 24.8238 13.1833 24.4506 12.894 24.1004L20.5934 16.4009C20.868 16.1264 20.868 15.6811 20.5934 15.4064C20.3188 15.1319 19.8736 15.1319 19.5989 15.4064L11.8993 23.1062C11.5464 22.8152 11.1721 22.5627 10.7823 22.3484L22.3469 10.7838C22.6744 11.377 23.0876 11.9276 23.5799 12.42C24.0776 12.9177 24.6301 13.3281 25.2181 13.6512L13.6533 25.2158ZM33.9595 32.9648L27.2416 26.2469C26.967 25.9723 26.5218 25.9723 26.2471 26.2468C25.9725 26.5214 25.9725 26.9667 26.2471 27.2413L32.9646 33.9587C31.6109 34.8511 29.7675 34.7021 28.5771 33.5119L21.7457 26.6804L22.3199 25.2267C22.4229 24.9662 22.3613 24.6694 22.1632 24.4712L20.8898 23.1977C20.7579 23.0659 20.5791 22.9918 20.3926 22.9918C20.2061 22.9918 20.0273 23.0659 19.8954 23.1977L19.0794 24.0138L17.9618 22.8964L22.8968 17.9615L24.0143 19.0789L23.1982 19.8951C22.9236 20.1696 22.9236 20.6149 23.1982 20.8895L24.4716 22.1629C24.6697 22.3609 24.9664 22.4225 25.2272 22.3196L26.6808 21.7455L33.5122 28.577C34.1714 29.2361 34.5344 30.1123 34.5344 31.0444C34.5343 31.7375 34.3335 32.3997 33.9595 32.9648Z" fill="black"/>
</g>
<defs>
<clipPath id="clip0_2002_97">
<rect width="36" height="36" fill="white"/>
</clipPath>
</defs>
</svg>
