<svg width="184" height="143" viewBox="0 0 184 143" fill="none" xmlns="http://www.w3.org/2000/svg">
<path d="M133.903 96.3115C134.854 97.2881 134.996 98.414 134.996 99.6274C134.956 101.759 134.996 103.894 134.996 106.026C135.012 106.725 134.803 107.411 134.401 107.983C133.999 108.555 133.425 108.984 132.762 109.207C132.381 109.322 131.987 109.39 131.589 109.411C131.27 109.428 130.95 109.428 130.631 109.411H17.3074C16.0794 109.411 14.8551 109.411 13.6854 108.945C12.4088 108.494 11.2708 107.721 10.383 106.699C9.49518 105.677 8.88787 104.442 8.62051 103.115C7.75328 99.4343 6.89333 95.7528 6.04067 92.0701C5.65807 90.434 5.2864 88.7907 4.91473 87.1655C4.74347 86.4076 4.74711 86.3894 3.98191 86.3748C3.43467 86.3643 2.895 86.2449 2.39448 86.0234C1.89395 85.8019 1.44261 85.4828 1.06684 85.0849C0.719971 84.7702 0.446264 84.3833 0.264961 83.9514C0.0836581 83.5196 -0.000839347 83.0532 0.0174107 82.5852C0.0378605 82.3427 0.0378605 82.0989 0.0174107 81.8564C-0.219439 79.6701 2.00695 77.8774 3.85073 77.8482C5.20988 77.8482 6.56903 77.8482 7.92454 77.8482H8.90109C8.26341 75.804 8.46383 74.004 9.90679 72.4153C9.76468 72.2076 9.63714 72.0144 9.50596 71.825C8.97197 71.134 8.64218 70.3073 8.55395 69.4385C8.46572 68.5697 8.62258 67.6936 9.00676 66.9094C9.35482 66.0999 9.92847 65.4077 10.6592 64.9154C11.39 64.423 12.247 64.1514 13.1279 64.1328C13.7911 64.0927 14.4579 64.1146 15.1248 64.1037C15.3835 64.1037 15.6458 64.0782 15.9883 64.0599C15.9889 63.816 15.9707 63.5723 15.9337 63.3312C15.8011 62.6959 15.8089 62.0393 15.9567 61.4074C16.1044 60.7754 16.3886 60.1834 16.7891 59.6728C17.1897 59.1622 17.697 58.7453 18.2756 58.4514C18.8542 58.1574 19.4901 57.9935 20.1387 57.9711C20.4302 57.9529 20.7253 57.9492 21.0168 57.9492H38.2012C38.6528 57.94 39.1045 57.9619 39.553 58.0148C40.1705 58.0913 40.7651 58.2966 41.2982 58.6174C41.8314 58.9381 42.2912 59.3672 42.6481 59.8769C43.005 60.3866 43.2508 60.9655 43.3699 61.5763C43.4889 62.187 43.4784 62.8159 43.339 63.4223C43.3026 63.5972 43.2698 63.7867 43.2151 64.0527H47.3253C47.3253 63.7611 47.3581 63.4296 47.3581 63.0943C47.3581 54.6188 47.3581 46.142 47.3581 37.664C47.3581 26.8685 47.3581 16.0718 47.3581 5.27391C47.3261 4.46929 47.4894 3.66888 47.8339 2.94106C48.1785 2.21324 48.6941 1.57965 49.3368 1.09443C50.2951 0.360353 51.4749 -0.0252242 52.6818 0.00128071C76.2841 0.00128071 99.8913 0.00128071 123.503 0.00128071C125.661 0.00128071 127.818 0.00128071 129.975 0.00128071C132.857 0.0377191 135.029 2.47909 135 4.97876C134.971 7.64605 135 10.3097 135 12.9952C135 39.3839 135 65.7738 135 92.1649C134.989 93.6224 134.898 95.0362 133.903 96.3115ZM52.6781 77.8737H53.6766C56.1544 77.8737 58.6322 77.8482 61.11 77.8737C62.2082 77.9041 63.2521 78.3583 64.0228 79.1412C64.7936 79.924 65.2314 80.9749 65.2446 82.0734C65.2578 83.172 64.8453 84.233 64.0936 85.0342C63.3418 85.8353 62.3092 86.3145 61.212 86.3712C60.4213 86.4076 60.4104 86.404 60.2209 87.1728C59.718 89.2134 59.2225 91.2575 58.7342 93.3054C58.5702 93.9941 58.4245 94.6864 58.2496 95.4917C58.6322 95.5099 58.9164 95.5318 59.197 95.5318H129.37C129.584 95.5367 129.798 95.5306 130.011 95.5135C130.579 95.4904 131.116 95.2511 131.513 94.8446C131.91 94.4382 132.137 93.8953 132.147 93.3272C132.147 93.1123 132.147 92.9009 132.147 92.6859C132.147 69.3872 132.147 46.0873 132.147 22.7862C132.147 22.502 132.11 22.2178 132.088 21.8424H51.2425C51.0566 21.8424 50.8781 21.8424 50.685 21.8424C50.6181 21.8326 50.5499 21.8386 50.4857 21.8599C50.4216 21.8811 50.3633 21.9171 50.3155 21.9649C50.2677 22.0127 50.2317 22.0709 50.2105 22.1351C50.1892 22.1993 50.1832 22.2675 50.193 22.3344C50.193 22.5457 50.193 22.7607 50.193 22.972C50.193 27.3714 50.193 31.7707 50.193 36.17C50.193 45.4982 50.193 54.8289 50.193 64.162C50.1599 64.4077 50.1996 64.6578 50.3071 64.8812C50.4146 65.1046 50.5852 65.2916 50.7979 65.4191C51.7416 66.0153 52.5541 66.7974 53.186 67.7176C53.8179 68.6378 54.2559 69.677 54.4734 70.7719C54.6908 71.8668 54.6833 72.9945 54.4511 74.0864C54.2188 75.1783 53.7669 76.2115 53.1227 77.1231C52.9988 77.3235 52.8895 77.5239 52.6781 77.8737ZM50.1894 18.9675H95.3293C95.5078 18.1877 95.4969 3.61597 95.311 2.89813C95.0523 2.89813 94.7681 2.85805 94.4802 2.85805C80.7102 2.85805 66.9365 2.85805 53.1628 2.83619C51.2352 2.83619 50.1311 3.73986 50.1675 5.84235C50.2404 9.8943 50.1894 13.9462 50.1894 17.9982V18.9675ZM91.2081 106.533H110.52C111.727 106.533 111.767 106.489 111.767 105.261V99.5874C111.767 98.2756 111.767 98.2646 110.415 98.2646H71.6115C70.7844 98.2646 70.635 98.4177 70.6313 99.2521C70.6313 101.353 70.6313 103.458 70.6313 105.567C70.6313 106.358 70.7917 106.503 71.5569 106.529C71.7719 106.529 71.9832 106.529 72.1982 106.529L91.2081 106.533ZM29.8349 77.8409H37.5854C40.4057 77.8409 43.2297 77.8664 46.0536 77.8409C46.9578 77.8431 47.8483 77.6201 48.6446 77.1919C49.441 76.7638 50.1182 76.144 50.615 75.3886C51.1119 74.6332 51.4127 73.7659 51.4905 72.8651C51.5682 71.9643 51.4204 71.0583 51.0603 70.229C50.1129 68.0427 48.3456 66.9131 45.9589 66.8949C41.1636 66.8621 36.372 66.8949 31.5767 66.8949C25.7174 66.8949 19.8581 66.8949 13.9988 66.8949C13.5226 66.886 13.0484 66.9575 12.5959 67.1062C12.2085 67.2587 11.8785 67.5288 11.6524 67.8784C11.4263 68.2281 11.3154 68.6397 11.3352 69.0556C11.3568 69.4874 11.5203 69.9 11.8003 70.2294C12.0803 70.5588 12.4611 70.7867 12.8838 70.8776C13.2765 70.9511 13.6759 70.9829 14.0753 70.9723H44.7601C45.1328 70.9588 45.5059 70.9783 45.8751 71.0306C46.1745 71.1105 46.4385 71.2885 46.6248 71.5361C46.8111 71.7838 46.9089 72.0868 46.9026 72.3966C46.8963 72.7065 46.7863 73.0052 46.5901 73.2451C46.3939 73.485 46.1229 73.6521 45.8204 73.7198C45.477 73.7587 45.1311 73.7721 44.7856 73.7598H14.1045C13.7068 73.7425 13.3084 73.7693 12.9166 73.84C12.4693 73.937 12.0686 74.1843 11.7813 74.5406C11.494 74.8969 11.3373 75.3408 11.3373 75.7986C11.3373 76.2563 11.494 76.7002 11.7813 77.0565C12.0686 77.4129 12.4693 77.6601 12.9166 77.7571C13.2764 77.8284 13.6431 77.8589 14.0097 77.8482L29.8349 77.8409ZM98.3391 18.9747H132.121C132.139 18.6104 132.165 18.3043 132.165 17.9946C132.165 13.9669 132.165 9.94046 132.165 5.91523C132.169 5.54281 132.15 5.17049 132.11 4.80021C132.082 4.45122 131.961 4.11615 131.759 3.83018C131.557 3.54422 131.282 3.31792 130.962 3.17506C130.502 2.97717 130.006 2.87311 129.505 2.86898C119.353 2.85441 109.203 2.85441 99.0533 2.86898C98.8273 2.86898 98.5978 2.90906 98.3245 2.93457L98.3391 18.9747ZM32.5605 83.5836H60.21C60.5548 83.5971 60.9001 83.5776 61.2412 83.5253C61.5596 83.4688 61.8485 83.3035 62.0585 83.0576C62.2685 82.8116 62.3866 82.5004 62.3926 82.1771C62.4031 81.8405 62.2933 81.5111 62.083 81.248C61.8726 80.9849 61.5755 80.8053 61.2448 80.7414C60.9828 80.6945 60.7165 80.6749 60.4505 80.6831H4.59771C4.33179 80.6757 4.06576 80.694 3.80336 80.7378C3.47265 80.8011 3.17551 80.9806 2.96566 81.2439C2.75581 81.5073 2.6471 81.837 2.65919 82.1735C2.66234 82.4967 2.77788 82.8087 2.98599 83.0561C3.19409 83.3034 3.48179 83.4706 3.79971 83.529C4.14232 83.5782 4.48867 83.5965 4.83456 83.5836H32.5605ZM114.714 98.3011C114.674 98.3888 114.642 98.4804 114.62 98.5744C114.62 101.052 114.614 103.529 114.602 106.004C114.602 106.369 114.773 106.54 115.134 106.529C115.294 106.529 115.454 106.529 115.615 106.529H130.864C131.05 106.529 131.228 106.529 131.421 106.529C131.99 106.485 132.15 106.365 132.15 105.8C132.182 103.563 132.199 101.325 132.201 99.0882C132.201 98.4468 132.019 98.3011 131.385 98.2683H115.578C115.294 98.2646 115.01 98.2901 114.714 98.3011ZM55.0175 106.372C55.6697 106.58 67.0422 106.594 67.8985 106.372C67.8985 103.732 67.8985 101.059 67.8985 98.3558C67.6871 98.3097 67.4728 98.2781 67.2571 98.261C64.2522 98.261 61.2436 98.261 58.2313 98.261C57.6338 98.261 57.5645 98.3339 57.4333 98.9205C57.1491 100.167 56.8904 101.42 56.5807 102.659C56.3386 103.863 55.8579 105.007 55.1669 106.022C55.1035 106.133 55.0534 106.25 55.0175 106.372ZM29.6855 64.1037C32.6006 64.1037 35.5278 64.1037 38.4672 64.1037C38.7325 64.1133 38.9982 64.1012 39.2615 64.0672C39.6631 64.0121 40.0315 63.8142 40.2991 63.5097C40.5668 63.2053 40.7158 62.8146 40.7191 62.4093C40.6986 62.0065 40.5375 61.6236 40.2639 61.3273C39.9902 61.0311 39.6214 60.8401 39.2215 60.7878C38.9794 60.7622 38.7359 60.7536 38.4927 60.7623H20.7764C20.5109 60.7518 20.245 60.7652 19.982 60.8024C19.597 60.8645 19.2466 61.0611 18.993 61.3574C18.7395 61.6537 18.5993 62.0303 18.5973 62.4202C18.5903 62.8101 18.7238 63.1895 18.9733 63.4892C19.2228 63.7889 19.5718 63.9889 19.9565 64.0527C20.2457 64.0971 20.5385 64.1142 20.831 64.1037C23.7825 64.1085 26.734 64.1085 29.6855 64.1037ZM27.8636 86.3894C27.8303 86.5627 27.8084 86.7379 27.798 86.9141C27.8563 88.1931 27.911 89.4648 27.9911 90.7401C28.0385 91.4689 28.0822 91.498 28.8074 91.498C31.307 91.498 33.8067 91.498 36.3064 91.498C36.551 91.4828 36.7943 91.4523 37.0352 91.4069C37.1262 89.7308 37.2173 88.1275 37.3121 86.393C34.1201 86.3857 31.0228 86.3894 27.86 86.3894H27.8636ZM28.4321 99.3687H36.5578C36.7378 97.7219 36.8205 96.066 36.8056 94.4095C35.5594 94.2163 28.7381 94.2819 28.1442 94.4969C28.2353 96.0893 28.33 97.6999 28.4284 99.3687H28.4321ZM17.3657 86.4404C17.3333 86.579 17.3162 86.7207 17.3147 86.8631C17.5078 88.204 17.6791 89.5522 17.9087 90.8895C17.9961 91.4324 18.0836 91.4944 18.6593 91.498C20.6027 91.498 22.546 91.498 24.4894 91.498C24.7012 91.4788 24.9109 91.4409 25.1162 91.3851C25.1162 91.1118 25.1162 90.9041 25.1162 90.6927C25.0579 89.5231 24.9923 88.3534 24.9303 87.1837C24.8866 86.4149 24.872 86.3967 24.0777 86.393C22.0566 86.393 20.033 86.393 18.007 86.393C17.803 86.3894 17.5953 86.4222 17.3657 86.4404ZM47.3253 86.495C47.2262 86.4514 47.1222 86.4196 47.0156 86.4003C44.9168 86.4003 42.8143 86.4003 40.7118 86.3821C40.2454 86.3821 40.1215 86.6226 40.1033 87.0271C40.0486 88.2769 39.9757 89.5267 39.9174 90.7766C39.8846 91.4361 39.9174 91.5053 40.6243 91.5053C42.3005 91.5053 43.9767 91.5053 45.6528 91.5053C45.9735 91.5053 46.2905 91.5053 46.6112 91.5053C46.7325 91.5094 46.8506 91.4659 46.9404 91.3843C47.0302 91.3026 47.0846 91.1892 47.0921 91.0681C47.3685 89.5604 47.4469 88.023 47.3253 86.495ZM7.65854 86.4513C7.70226 86.7355 7.71319 86.8959 7.74599 87.0453L8.59865 90.7802C8.74804 91.4397 8.80999 91.509 9.51689 91.509C11.1931 91.509 12.868 91.509 14.5417 91.509C14.758 91.4937 14.9733 91.467 15.1867 91.4288C14.9316 89.7417 14.6839 88.1056 14.4361 86.4623L7.65854 86.4513ZM19.1731 99.2959C19.2697 99.3459 19.3727 99.3827 19.4791 99.4052L25.0651 99.4234C25.4587 99.4234 25.5644 99.2084 25.5461 98.8586C25.4805 97.6087 25.4295 96.3553 25.3494 95.1091C25.2984 94.322 25.2765 94.3184 24.4931 94.3184H19.2204C18.9909 94.3184 18.765 94.3585 18.4407 94.3913C18.6957 96.0893 18.9253 97.7108 19.1731 99.2959ZM45.7949 99.3724C46.1192 97.6926 46.3488 96.0601 46.5237 94.4204C45.6018 94.2564 40.3766 94.2856 39.7097 94.4605C39.6441 96.0601 39.4073 97.6816 39.4875 99.3724H45.7949ZM50.6267 86.4368C50.2666 87.9047 50.1121 89.4155 50.1675 90.926C50.1554 91.0053 50.1623 91.0864 50.1877 91.1626C50.213 91.2388 50.2561 91.3078 50.3134 91.364C50.3708 91.4203 50.4406 91.4621 50.5172 91.486C50.5939 91.5099 50.6751 91.5153 50.7542 91.5017C52.4012 91.5017 54.0336 91.5017 55.6989 91.5017C55.7773 91.5129 55.8571 91.5079 55.9335 91.487C56.0099 91.4661 56.0812 91.4298 56.1431 91.3803C56.2049 91.3308 56.2559 91.2691 56.2929 91.1991C56.3299 91.1291 56.3522 91.0523 56.3584 90.9733C56.6718 89.5486 57.0216 88.1275 57.3459 86.7064C57.3459 86.6372 57.3131 86.557 57.284 86.4368H50.6267ZM29.3284 106.529C31.3508 106.529 33.3695 106.529 35.3918 106.529C35.5275 106.538 35.6615 106.494 35.7655 106.407C35.8695 106.319 35.9354 106.194 35.9493 106.059C36.1278 104.984 36.2882 103.905 36.4412 102.823C36.4886 102.499 36.31 102.328 35.9821 102.317H35.5849H29.3503C29.1515 102.326 28.9532 102.346 28.7564 102.375C28.5341 103.362 28.7636 105.006 29.3284 106.529ZM16.2106 99.3797C16.2238 99.1625 16.2238 98.9446 16.2106 98.7274C16.0321 97.4375 15.8462 96.1476 15.664 94.854C15.6057 94.3949 15.3361 94.3111 14.9353 94.3111C13.2846 94.3111 11.634 94.3111 9.97966 94.3111C9.80053 94.3329 9.62371 94.3707 9.45131 94.424C9.88128 96.1039 10.1983 97.7654 10.723 99.3687L16.2106 99.3797ZM55.6224 94.3767H49.6173C49.2529 95.4698 48.8157 98.7128 48.9505 99.3359C48.9942 99.3614 49.0416 99.4052 49.089 99.4052C50.7093 99.4197 52.332 99.4295 53.9571 99.4343C54.3215 99.4343 54.4454 99.2157 54.5219 98.8914C54.7734 97.7982 55.0539 96.7051 55.3199 95.6338C55.4147 95.2403 55.5058 94.8577 55.6224 94.3767ZM25.6555 102.291H19.6541C19.706 103.536 20.1427 104.734 20.9039 105.72C21.1036 105.987 21.3668 106.2 21.6696 106.34C21.9725 106.48 22.3054 106.543 22.6384 106.522C23.6222 106.481 24.606 106.492 25.5899 106.474C25.7797 106.46 25.9683 106.433 26.1547 106.394C25.998 105.02 25.8486 103.69 25.6555 102.291ZM38.868 106.452C39.1486 106.482 39.3781 106.525 39.5968 106.533C40.5004 106.554 41.4187 106.533 42.3078 106.594C42.7264 106.634 43.1478 106.555 43.5235 106.366C43.8993 106.177 44.2142 105.886 44.4321 105.527C44.9251 104.797 45.2534 103.969 45.3941 103.1C45.518 102.437 45.4488 102.32 44.8002 102.317C43.2042 102.302 41.607 102.302 40.0085 102.317C39.3563 102.317 39.3235 102.382 39.2542 103.064C39.1632 103.934 39.0538 104.805 38.9591 105.676C38.9117 105.906 38.8972 106.143 38.868 106.452ZM11.357 102.262C11.9182 105.396 15.4563 107.494 17.8321 106.288C17.4277 104.94 17.0268 103.607 16.626 102.262H11.357ZM47.114 106.423C50.3935 107.006 53.5855 104.991 53.5855 102.415C53.5417 102.389 53.498 102.338 53.4543 102.338L48.761 102.313C48.3566 102.313 48.2072 102.524 48.1671 102.9C48.0303 103.927 47.7378 104.927 47.2998 105.866C47.2306 106.037 47.1905 106.197 47.114 106.423Z" fill="url(#paint0_linear_2014_71)"/>
<path d="M124.192 58.2699C124.187 64.7959 122.247 71.1739 118.617 76.5974C114.988 82.021 109.831 86.2465 103.8 88.7398C97.7694 91.233 91.1345 91.882 84.7347 90.6047C78.3349 89.3274 72.4575 86.1811 67.8457 81.5637C63.2339 76.9463 60.0948 71.0651 58.8253 64.6637C57.5557 58.2624 58.2128 51.6283 60.7133 45.6003C63.2139 39.5724 67.4457 34.4212 72.8736 30.7982C78.3016 27.1751 84.682 25.2429 91.208 25.2458C95.5445 25.24 99.8395 26.0905 103.847 27.7486C107.854 29.4067 111.494 31.8396 114.558 34.9079C117.623 37.9761 120.051 41.6193 121.705 45.6283C123.358 49.6373 124.203 53.9333 124.192 58.2699ZM104.151 61.2286V60.2412C104.151 57.869 104.151 55.5042 104.151 53.1248C104.169 50.8437 105.31 49.2769 107.43 48.5517C108.666 48.1327 109.908 47.7319 111.143 47.3165C111.328 47.2412 111.508 47.156 111.683 47.0614C111.479 46.697 111.318 46.3326 111.129 46.0375C109.608 43.534 107.624 41.3428 105.284 39.5806C99.9095 35.6198 93.8971 34.1149 87.3237 35.208C81.5664 36.1168 76.3798 39.2066 72.8394 43.8366C69.5264 48.0062 67.7633 53.1964 67.851 58.5213C67.8725 58.839 67.9114 59.1552 67.9676 59.4687C68.2992 59.4286 68.536 59.4104 68.7656 59.3666C70.2559 59.0751 71.739 58.7508 73.2329 58.4848C75.3282 58.0917 77.456 57.8978 79.5878 57.9055C83.03 57.9642 86.4371 58.6086 89.663 59.8112C92.9841 61.067 96.5123 61.6851 100.063 61.6331C101.441 61.6566 102.817 61.5172 104.162 61.2177L104.151 61.2286ZM68.3065 62.3983C69.1664 69.9119 76.0569 79.8159 87.9176 81.5066C98.6742 83.0334 108.075 76.8097 111.559 69.4819C111.418 69.3873 111.269 69.3044 111.114 69.2342C110.003 68.8698 108.895 68.4835 107.777 68.141C106.049 67.6127 104.825 66.5924 104.359 64.7887C104.35 64.7156 104.325 64.6452 104.287 64.5825C104.248 64.5197 104.196 64.4661 104.135 64.4252C104.074 64.3844 104.004 64.3573 103.932 64.3458C103.859 64.3343 103.785 64.3387 103.714 64.3587C103.557 64.3842 103.397 64.3915 103.236 64.4097C100.772 64.6806 98.2842 64.6598 95.8247 64.3478C93.2669 63.9886 90.7568 63.347 88.3403 62.4348C83.9395 60.8247 79.1904 60.4111 74.5775 61.2359C72.4896 61.604 70.4308 62.0084 68.3174 62.3983H68.3065ZM113.25 37.7696C106.483 30.0374 94.2142 25.6284 82.0875 29.4544C75.8017 31.4304 70.3352 35.4088 66.5222 40.7825C62.7092 46.1561 60.7592 52.6297 60.9698 59.2154C61.1804 65.801 63.5401 72.1369 67.6886 77.2559C71.8371 82.3749 77.5467 85.996 83.9458 87.5663C90.41 89.1805 96.7357 88.5902 102.894 86.0614C105.681 84.9136 109.934 82.2281 110.411 81.2734C109.892 80.9087 109.397 80.512 108.928 80.0855C108.5 79.6011 108.103 79.0899 107.74 78.5551C101.976 83.088 95.5259 85.1905 88.2419 84.2796C84.7596 83.8963 81.3904 82.8142 78.3362 81.098C75.282 79.3818 72.6056 77.0669 70.4673 74.2918C62.9027 64.7486 63.0921 50.3518 71.6333 40.7977C75.8237 36.1117 81.0526 33.2148 87.2544 32.3294C96.1563 31.0613 103.79 33.8306 110.243 40.2183C110.901 39.0477 111.98 38.172 113.26 37.7696H113.25ZM121.324 58.4047C121.354 55.2029 120.862 52.0177 119.867 48.9744C118.999 46.2509 117.731 43.6719 116.103 41.3224C115.86 40.9175 115.472 40.62 115.018 40.4901C114.564 40.3602 114.078 40.4076 113.658 40.6228C113.215 40.8211 112.861 41.1759 112.664 41.619C112.467 42.0622 112.441 42.5626 112.59 43.024C112.727 43.3989 112.915 43.7532 113.148 44.0771C115.269 47.2864 116.624 50.9406 117.108 54.7572C117.628 58.5982 117.286 62.5066 116.106 66.1988C115.07 69.4386 113.42 72.4486 111.245 75.0643C111.017 75.3232 110.817 75.6067 110.652 75.9097C110.447 76.3333 110.401 76.8167 110.524 77.2711C110.646 77.7255 110.928 78.1206 111.318 78.3838C111.698 78.6601 112.166 78.7869 112.633 78.7398C113.1 78.6928 113.534 78.4752 113.851 78.1288C114.161 77.7972 114.452 77.451 114.736 77.0976C119.131 71.6354 121.23 65.368 121.335 58.4047H121.324ZM112.943 49.7287C112.63 49.8089 112.401 49.8562 112.178 49.9291C110.888 50.3627 109.602 50.7927 108.319 51.2372C107.365 51.5688 106.997 52.068 106.997 53.081C106.997 56.5184 106.997 59.9557 106.997 63.3931C106.997 64.4316 107.361 64.9308 108.37 65.2879C109.753 65.7737 111.134 66.2596 112.514 66.7454C112.664 66.7741 112.816 66.7851 112.969 66.7782C115.028 61.1048 115.141 55.4787 112.958 49.7287H112.943Z" fill="url(#paint1_linear_2014_71)"/>
<path d="M127.603 30.1467C127.596 31.1012 127.307 32.0322 126.771 32.8221C126.235 33.612 125.477 34.2252 124.593 34.5841C123.708 34.943 122.737 35.0315 121.802 34.8384C120.868 34.6453 120.011 34.1793 119.341 33.4993C118.672 32.8193 118.219 31.9559 118.04 31.0183C117.861 30.0807 117.964 29.1112 118.336 28.2323C118.708 27.3534 119.333 26.6046 120.131 26.0808C120.929 25.557 121.864 25.2816 122.819 25.2895C123.452 25.2914 124.08 25.4188 124.664 25.6645C125.248 25.9101 125.778 26.2692 126.223 26.7208C126.668 27.1724 127.019 27.7077 127.256 28.2957C127.493 28.8837 127.611 29.5128 127.603 30.1467ZM124.79 30.0957C124.79 29.0244 123.883 28.0879 122.895 28.1134C122.343 28.112 121.812 28.3245 121.413 28.7064C121.014 29.0882 120.779 29.6096 120.756 30.1613C120.78 30.6849 121.002 31.18 121.376 31.5466C121.751 31.9131 122.251 32.1239 122.775 32.1362C123.042 32.1368 123.306 32.0841 123.552 31.9815C123.799 31.8788 124.022 31.7281 124.21 31.5381C124.397 31.3482 124.545 31.1229 124.645 30.8752C124.744 30.6276 124.794 30.3626 124.79 30.0957Z" fill="url(#paint2_linear_2014_71)"/>
<path d="M123.594 91.3012C122.771 91.3012 121.947 91.3194 121.124 91.3012C120.3 91.283 119.838 90.9077 119.666 90.2809C119.598 90.0769 119.579 89.8594 119.612 89.6466C119.644 89.4337 119.727 89.2318 119.854 89.0577C119.981 88.8836 120.147 88.7424 120.339 88.6458C120.532 88.5493 120.745 88.5002 120.96 88.5027C122.683 88.4627 124.407 88.4699 126.134 88.5027C126.491 88.5105 126.832 88.6557 127.085 88.9081C127.338 89.1605 127.483 89.5007 127.492 89.8579C127.5 90.2151 127.371 90.5617 127.13 90.8258C126.889 91.0899 126.556 91.251 126.2 91.2757C125.329 91.3376 124.451 91.2757 123.576 91.2757L123.594 91.3012Z" fill="url(#paint3_linear_2014_71)"/>
<path d="M123.504 86.3857C122.706 86.3857 121.904 86.3857 121.106 86.3857C120.217 86.3639 119.71 85.9047 119.648 85.114C119.586 84.3233 120.067 83.6565 120.949 83.6237C122.706 83.5763 124.466 83.5617 126.222 83.6237C126.45 83.6346 126.672 83.7034 126.866 83.8235C127.061 83.9437 127.221 84.1112 127.333 84.3105C127.445 84.5098 127.504 84.7342 127.506 84.9627C127.507 85.1913 127.45 85.4163 127.341 85.6169C127.24 85.8519 127.069 86.0505 126.853 86.1859C126.636 86.3214 126.383 86.3873 126.127 86.3748H123.504V86.3857Z" fill="url(#paint4_linear_2014_71)"/>
<path d="M83.997 6.061C85.291 6.06873 86.5289 6.59019 87.4385 7.51067C88.348 8.43114 88.8546 9.67523 88.8469 10.9692C88.8392 12.2633 88.3177 13.5012 87.3972 14.4108C86.4768 15.3203 85.2327 15.8269 83.9387 15.8192C82.6446 15.8115 81.4067 15.29 80.4971 14.3695C79.5876 13.4491 79.081 12.205 79.0887 10.9109C79.0964 9.61693 79.6179 8.37898 80.5384 7.46944C81.4589 6.5599 82.7029 6.05327 83.997 6.061ZM84.0261 12.9843C84.4303 12.9814 84.8247 12.859 85.1594 12.6324C85.4942 12.4058 85.7544 12.0851 85.9073 11.7109C86.0602 11.3367 86.0989 10.9256 86.0185 10.5294C85.9381 10.1332 85.7423 9.76971 85.4557 9.48463C85.1691 9.19954 84.8045 9.00566 84.4079 8.92741C84.0113 8.84915 83.6005 8.89003 83.2271 9.04489C82.8536 9.19974 82.5344 9.46165 82.3096 9.79762C82.0848 10.1336 81.9644 10.5286 81.9637 10.9328C81.9622 11.2039 82.0146 11.4726 82.1178 11.7232C82.221 11.9739 82.3729 12.2016 82.5647 12.3931C82.7566 12.5846 82.9846 12.7361 83.2354 12.8389C83.4863 12.9416 83.755 12.9935 84.0261 12.9916V12.9843Z" fill="url(#paint5_linear_2014_71)"/>
<path d="M71.5096 6.061C72.4725 6.05536 73.4156 6.33479 74.22 6.86409C75.0244 7.39339 75.6542 8.1489 76.0301 9.03545C76.406 9.922 76.5112 10.9 76.3323 11.8462C76.1535 12.7924 75.6987 13.6645 75.0251 14.3527C74.3516 15.0409 73.4895 15.5144 72.5474 15.7136C71.6053 15.9128 70.6253 15.8287 69.7308 15.472C68.8364 15.1153 68.0675 14.5019 67.5209 13.7091C66.9744 12.9163 66.6747 11.9794 66.6596 11.0166C66.651 10.3723 66.7697 9.73264 67.0091 9.13438C67.2484 8.53613 67.6037 7.99107 68.0544 7.53055C68.5051 7.07004 69.0423 6.70313 69.6353 6.45094C70.2283 6.19874 70.8652 6.06622 71.5096 6.061ZM73.736 10.9328C73.7402 10.524 73.6233 10.123 73.3999 9.78055C73.1766 9.43808 72.8568 9.16945 72.4809 9.00853C72.1051 8.84762 71.6899 8.80164 71.288 8.87639C70.886 8.95114 70.5152 9.14328 70.2223 9.42856C69.9294 9.71384 69.7275 10.0795 69.6422 10.4793C69.5569 10.8792 69.5919 11.2954 69.7429 11.6754C69.8939 12.0553 70.154 12.3821 70.4904 12.6144C70.8269 12.8467 71.2246 12.9741 71.6335 12.9806C71.906 12.9845 72.1767 12.9346 72.43 12.8337C72.6832 12.7328 72.9141 12.583 73.1094 12.3928C73.3047 12.2025 73.4606 11.9757 73.5681 11.7252C73.6756 11.4747 73.7326 11.2054 73.736 10.9328Z" fill="url(#paint6_linear_2014_71)"/>
<path d="M58.9455 15.8155C57.9802 15.8076 57.039 15.5134 56.241 14.9704C55.4429 14.4274 54.8239 13.6598 54.4622 12.7648C54.1005 11.8699 54.0124 10.8877 54.209 9.9427C54.4056 8.99765 54.8782 8.13216 55.5668 7.45575C56.2555 6.77934 57.1293 6.3224 58.0777 6.14274C59.0261 5.96309 60.0065 6.0688 60.8949 6.4465C61.7832 6.82419 62.5395 7.4569 63.0682 8.26457C63.5968 9.07223 63.874 10.0186 63.8647 10.9838C63.8604 11.6245 63.7296 12.258 63.4798 12.848C63.23 13.438 62.8661 13.9728 62.409 14.4218C61.9519 14.8707 61.4106 15.225 60.8163 15.4641C60.2219 15.7033 59.5861 15.8227 58.9455 15.8155ZM58.9783 12.9916C59.3842 12.9915 59.781 12.8709 60.1182 12.6449C60.4554 12.4189 60.7179 12.0977 60.8722 11.7223C61.0266 11.3468 61.0658 10.9339 60.985 10.5361C60.9042 10.1383 60.707 9.77343 60.4184 9.48793C60.1298 9.20242 59.7629 9.00913 59.3642 8.9326C58.9655 8.85607 58.5531 8.89976 58.1793 9.05811C57.8055 9.21646 57.4872 9.48234 57.2649 9.82197C57.0425 10.1616 56.9261 10.5597 56.9304 10.9656C56.9409 11.5034 57.1606 12.016 57.543 12.3943C57.9255 12.7726 58.4404 12.9869 58.9783 12.9916Z" fill="url(#paint7_linear_2014_71)"/>
<path d="M116.715 16.6464C113.625 16.6464 110.536 16.6464 107.449 16.6464C107.076 16.6602 106.703 16.6296 106.337 16.5553C105.731 16.4198 105.189 16.081 104.802 15.5951C104.415 15.1093 104.206 14.5056 104.209 13.8844C104.155 11.9131 104.144 9.93814 104.209 7.97047C104.26 6.3271 105.383 5.28131 107.03 5.19022C107.27 5.19022 107.511 5.19022 107.758 5.19022C113.805 5.19022 119.851 5.19022 125.897 5.19022C126.243 5.18419 126.588 5.19635 126.932 5.22666C127.606 5.27555 128.237 5.57427 128.702 6.06428C129.167 6.55429 129.433 7.20029 129.446 7.87573C129.495 9.89927 129.495 11.924 129.446 13.95C129.429 14.652 129.145 15.3211 128.652 15.8217C128.16 16.3223 127.495 16.6171 126.794 16.6464C126.528 16.6647 126.262 16.6464 125.996 16.6464H116.715ZM107.062 13.8261H125.646C126.604 13.8261 126.604 13.8261 126.608 12.8459C126.608 11.5123 126.608 10.1823 126.608 8.8377C126.608 8.55712 126.568 8.27655 126.546 8.01419C125.307 7.84293 107.667 7.94496 107.055 8.12715L107.062 13.8261Z" fill="url(#paint8_linear_2014_71)"/>
<path d="M109.38 58.2808C109.38 59.2428 109.362 60.2011 109.38 61.1594C109.373 61.3473 109.403 61.5347 109.47 61.7106C109.536 61.8864 109.637 62.0471 109.767 62.183C109.897 62.319 110.053 62.4275 110.225 62.502C110.398 62.5766 110.584 62.6157 110.772 62.617C111.501 62.617 112.051 62.0923 112.135 61.236C112.144 61.077 112.144 60.9176 112.135 60.7586C112.135 59.1043 112.135 57.4537 112.135 55.803C112.138 55.5369 112.117 55.271 112.073 55.0086C112.031 54.742 111.907 54.495 111.719 54.3023C111.53 54.1095 111.285 53.9807 111.02 53.9337C110.76 53.867 110.486 53.8875 110.24 53.9923C109.994 54.097 109.789 54.2801 109.657 54.5131C109.49 54.8111 109.398 55.1448 109.387 55.486C109.358 56.4152 109.38 57.348 109.38 58.2808Z" fill="url(#paint9_linear_2014_71)"/>
<path d="M109.38 58.2808C109.38 57.348 109.358 56.4152 109.38 55.486C109.39 55.1448 109.483 54.8111 109.649 54.5131C109.781 54.2758 109.988 54.0892 110.237 53.983C110.487 53.8767 110.765 53.8568 111.027 53.9265C111.293 53.9734 111.537 54.1023 111.726 54.295C111.915 54.4878 112.038 54.7348 112.08 55.0014C112.124 55.2638 112.145 55.5296 112.142 55.7957C112.142 57.4464 112.142 59.0971 112.142 60.7514C112.151 60.9104 112.151 61.0697 112.142 61.2287C112.058 62.085 111.522 62.6207 110.779 62.6097C110.591 62.6084 110.405 62.5693 110.233 62.4948C110.06 62.4202 109.904 62.3117 109.774 62.1758C109.645 62.0398 109.543 61.8791 109.477 61.7033C109.41 61.5275 109.38 61.3401 109.387 61.1522C109.362 60.1939 109.387 59.2355 109.387 58.2736L109.38 58.2808Z" fill="url(#paint10_linear_2014_71)"/>
<mask id="path-12-outside-1_2014_71" maskUnits="userSpaceOnUse" x="105.583" y="62.7651" width="79" height="80" fill="black">
<rect fill="white" x="105.583" y="62.7651" width="79" height="80"/>
<path d="M151.888 116.943C150.245 117.96 148.479 118.765 146.633 119.339C146.336 119.432 146.312 119.465 146.31 119.799C146.31 121.19 146.31 122.584 146.31 123.981C146.31 124.106 146.31 124.229 146.31 124.355C146.313 124.542 146.278 124.729 146.206 124.903C146.135 125.076 146.029 125.234 145.894 125.365C145.76 125.496 145.6 125.598 145.425 125.666C145.25 125.733 145.063 125.764 144.875 125.757C141.319 125.739 137.765 125.757 134.211 125.757C133.528 125.757 133.071 125.464 132.866 124.876C132.805 124.674 132.777 124.463 132.785 124.251C132.785 122.797 132.785 121.344 132.785 119.892C132.785 119.463 132.785 119.463 132.36 119.326C131.098 118.92 129.87 118.413 128.689 117.81C128.324 117.623 128.322 117.625 128.029 117.922L124.986 120.882C124.913 120.95 124.843 121.023 124.766 121.089C124.644 121.213 124.5 121.311 124.34 121.378C124.18 121.446 124.009 121.48 123.836 121.48C123.663 121.48 123.491 121.446 123.331 121.378C123.172 121.311 123.027 121.213 122.906 121.089C122.611 120.818 122.334 120.528 122.05 120.246L115.347 113.556C115.127 113.369 114.961 113.125 114.867 112.852C114.799 112.635 114.788 112.405 114.835 112.183C114.882 111.961 114.986 111.755 115.136 111.584C115.268 111.433 115.411 111.292 115.551 111.144L118.445 108.257C118.694 108.011 118.698 108.006 118.531 107.689C117.889 106.444 117.354 105.147 116.931 103.812C116.907 103.741 116.876 103.673 116.832 103.561H116.392C114.953 103.561 113.514 103.561 112.074 103.561C111.85 103.564 111.627 103.528 111.414 103.455C111.192 103.382 110.996 103.245 110.851 103.062C110.706 102.878 110.618 102.656 110.598 102.423C110.584 102.258 110.58 102.093 110.585 101.928V91.585C110.582 91.4382 110.586 91.2913 110.598 91.1449C110.628 90.8496 110.758 90.5736 110.968 90.3635C111.178 90.1535 111.454 90.0222 111.749 89.9917C111.909 89.9741 112.074 89.9763 112.235 89.9741H116.843C116.929 89.7189 117.006 89.4856 117.085 89.2523C117.473 88.0896 117.952 86.9594 118.518 85.8722C118.703 85.5245 118.698 85.5201 118.417 85.2406C117.379 84.2048 116.342 83.1705 115.305 82.1377C114.924 81.757 114.717 81.3212 114.852 80.7843C114.918 80.5705 115.019 80.369 115.151 80.1879C115.258 80.0495 115.378 79.922 115.51 79.8072C117.882 77.432 120.254 75.0582 122.627 72.6859C122.747 72.5592 122.876 72.4402 123.012 72.3294C123.244 72.1443 123.532 72.0422 123.829 72.0394C124.126 72.0366 124.415 72.1333 124.651 72.314C124.77 72.4033 124.883 72.5011 124.988 72.6067C126.003 73.6102 127.016 74.6159 128.027 75.6238C128.313 75.9055 128.315 75.9099 128.661 75.7316C129.862 75.1127 131.113 74.5974 132.402 74.1912C132.721 74.0921 132.743 74.0525 132.743 73.7048C132.743 72.2634 132.743 70.822 132.743 69.3828C132.733 69.1335 132.765 68.8843 132.837 68.6456C132.909 68.4303 133.04 68.2393 133.214 68.0936C133.388 67.9479 133.599 67.8533 133.823 67.8203C134.02 67.7844 134.22 67.766 134.42 67.7653H144.635C144.782 67.7639 144.929 67.772 145.075 67.7895C145.424 67.8111 145.751 67.968 145.986 68.227C146.221 68.4859 146.346 68.8264 146.334 69.1759C146.347 69.638 146.334 70.1024 146.334 70.5667C146.334 71.6186 146.334 72.6705 146.334 73.7224C146.334 74.0745 146.334 74.0921 146.684 74.1978C147.984 74.6084 149.247 75.1281 150.46 75.7514C150.779 75.9143 150.781 75.9165 151.035 75.6634C152.063 74.6526 153.086 73.6337 154.104 72.6067C154.233 72.4709 154.375 72.3478 154.527 72.2392C154.743 72.096 154.997 72.0228 155.256 72.0295C155.515 72.0362 155.765 72.1225 155.973 72.2766C156.094 72.3653 156.207 72.4639 156.312 72.5715C158.773 75.0318 161.235 77.4936 163.695 79.9568C163.931 80.1697 164.104 80.4439 164.194 80.7491C164.245 80.9306 164.254 81.1211 164.222 81.3067C164.19 81.4924 164.118 81.6687 164.01 81.823C163.9 81.9756 163.777 82.1177 163.642 82.2477C162.652 83.2395 161.66 84.2305 160.667 85.2208C160.561 85.3242 160.466 85.4408 160.376 85.5355C160.698 86.2243 161.036 86.8712 161.303 87.5402C161.569 88.2092 161.844 88.9398 162.08 89.6506C162.179 89.9521 162.227 89.9873 162.559 89.9873C164.001 89.9873 165.44 89.9873 166.879 89.9873C167.102 89.9784 167.324 90.0036 167.539 90.0622C167.799 90.1415 168.028 90.299 168.195 90.5133C168.362 90.7275 168.459 90.988 168.472 91.2593C168.478 91.359 168.478 91.4589 168.472 91.5586C168.472 95.04 168.472 98.5222 168.472 102.005C168.476 102.242 168.441 102.478 168.371 102.705C168.299 102.948 168.153 103.163 167.954 103.321C167.754 103.479 167.511 103.571 167.258 103.585C167.033 103.602 166.807 103.606 166.582 103.598H162.575C162.154 103.598 162.165 103.662 162.075 103.955C161.573 105.556 160.901 107.098 160.07 108.556C159.894 108.864 159.894 108.869 160.152 109.126L164.571 113.528C165.343 114.296 166.111 115.068 166.884 115.836C167.038 115.998 167.244 116.101 167.467 116.127C169.549 116.42 171.628 116.727 173.706 117.046C174.163 117.131 174.595 117.319 174.969 117.597C175.764 118.17 176.437 118.895 176.949 119.731C177.622 120.802 178.159 121.952 178.547 123.155C179.167 124.909 179.399 126.776 179.225 128.628C179.129 129.742 178.803 130.824 178.265 131.804C177.876 132.493 177.275 132.757 176.604 132.545C176.258 132.423 175.972 132.173 175.803 131.848C175.147 130.767 174.487 129.691 173.822 128.622C173.599 128.259 173.358 127.908 173.1 127.57C172.925 127.342 172.725 127.134 172.504 126.949C172.311 126.777 172.077 126.655 171.825 126.596C171.573 126.536 171.31 126.541 171.06 126.608C170.032 126.854 169.117 127.44 168.461 128.27C168.138 128.673 167.948 129.168 167.92 129.685C167.887 130.048 167.969 130.413 168.153 130.728C168.935 132.024 169.694 133.329 170.473 134.632C170.565 134.78 170.644 134.937 170.71 135.098C170.781 135.285 170.807 135.486 170.788 135.684C170.769 135.883 170.705 136.075 170.6 136.245C170.495 136.415 170.353 136.558 170.184 136.665C170.015 136.771 169.824 136.838 169.626 136.859C169.128 136.905 168.626 136.883 168.125 136.887C167.762 136.887 167.399 136.887 167.035 136.887C166.696 136.895 166.363 136.789 166.089 136.588C164.247 135.204 162.394 133.833 160.698 132.27C160.326 131.916 159.975 131.542 159.646 131.148C159.311 130.753 159.134 130.248 159.148 129.731C159.131 127.953 159.076 126.177 159.047 124.399C159.048 124.281 159.023 124.165 158.976 124.057C158.928 123.949 158.859 123.853 158.772 123.774C156.563 121.573 154.358 119.372 152.157 117.172C152.069 117.095 151.983 117.027 151.888 116.943ZM143.537 108.581C143.5 108.522 143.459 108.465 143.416 108.411C142.965 107.942 142.509 107.476 142.06 107.005C142.007 106.945 141.941 106.896 141.867 106.863C141.794 106.829 141.714 106.812 141.633 106.811C141.246 106.798 140.859 106.752 140.471 106.745C139.021 106.717 137.569 106.679 136.119 106.69C135.678 106.69 135.263 106.637 134.93 106.345C134.422 105.92 133.938 105.467 133.482 104.987C131.97 103.328 130.65 101.514 129.301 99.723C129.131 99.5026 129.037 99.2332 129.033 98.9549C129.033 98.0901 129.008 97.2252 129.033 96.3604C129.037 96.0361 129.162 95.7251 129.381 95.4864C129.601 95.2478 129.9 95.0983 130.223 95.0664C130.576 95.0391 130.927 95.1339 131.218 95.3349C132.538 96.1315 133.887 96.9172 135.216 97.7182C135.584 97.9402 136.02 98.0186 136.442 97.9383C136.93 97.8622 137.387 97.6528 137.763 97.3331C138.452 96.7452 138.975 95.9863 139.279 95.1324C139.417 94.8056 139.451 94.4438 139.375 94.097C139.3 93.7502 139.118 93.4354 138.856 93.1959C138.692 93.0248 138.513 92.8686 138.321 92.7293C137.567 92.2144 136.81 91.7016 136.039 91.2109C135.379 90.7972 134.719 90.4143 134.041 90.0182C133.828 89.9035 133.649 89.7332 133.525 89.5253C133.401 89.3174 133.335 89.0797 133.335 88.8375C133.335 88.5953 133.401 88.3576 133.525 88.1497C133.649 87.9418 133.828 87.7715 134.041 87.6569C134.883 87.182 135.805 86.8664 136.761 86.726C138.136 86.5087 139.54 86.543 140.903 86.8272C142.589 87.1508 144.209 87.7548 145.696 88.6141C146.725 89.1688 147.618 89.9453 148.31 90.8874C148.613 91.2883 148.823 91.7512 148.926 92.243C149.041 92.8724 149.127 93.504 149.215 94.1377C149.413 95.5638 149.606 96.9898 149.793 98.4158C149.818 98.6283 149.915 98.8258 150.068 98.9748C150.478 99.3819 150.874 99.7978 151.277 100.209C151.329 100.257 151.384 100.302 151.442 100.344C151.477 100.317 151.503 100.306 151.514 100.286C151.525 100.267 151.55 100.194 151.565 100.148C151.776 99.4004 151.917 98.6349 151.985 97.8612C152.14 96.261 151.972 94.646 151.49 93.1123C150.813 90.8971 149.53 88.9153 147.786 87.3906C147.653 87.2762 147.527 87.1542 147.408 87.0253C147.225 86.832 147.109 86.586 147.074 86.3224C147.04 86.0588 147.09 85.7911 147.216 85.5575C147.328 85.3234 147.507 85.1282 147.731 84.9971C147.954 84.8661 148.212 84.8052 148.471 84.8224C148.835 84.8485 149.177 85.0047 149.435 85.2626C151.004 86.5991 152.278 88.2479 153.176 90.104C153.879 91.5459 154.347 93.0913 154.562 94.6813C154.784 96.2972 154.747 97.9383 154.452 99.5425C154.296 100.446 154.046 101.331 153.706 102.183C153.655 102.282 153.641 102.396 153.666 102.504C153.691 102.613 153.754 102.709 153.843 102.775C155.117 104.034 156.378 105.304 157.645 106.569C157.722 106.646 157.808 106.712 157.879 106.776C157.934 106.745 157.964 106.739 157.975 106.721C158.046 106.604 158.118 106.488 158.182 106.364C158.895 104.986 159.449 103.531 159.835 102.027C159.903 101.677 160.096 101.364 160.378 101.147C160.658 100.953 160.994 100.856 161.334 100.872H165.735C165.838 100.46 165.825 92.978 165.719 92.6589H165.328C164.007 92.6589 162.674 92.6589 161.347 92.6589C160.486 92.6589 160.026 92.2804 159.806 91.4574C159.705 91.0591 159.586 90.6629 159.459 90.2712C158.992 88.843 158.378 87.4675 157.625 86.167C157.5 85.9524 157.411 85.718 157.364 85.4738C157.335 85.2557 157.362 85.034 157.441 84.8287C157.52 84.6235 157.649 84.4413 157.817 84.2987C158.781 83.3304 159.741 82.3599 160.698 81.3873C160.79 81.2926 160.876 81.1892 160.935 81.121L155.139 75.3355C155.09 75.3817 154.998 75.4631 154.919 75.5556C153.953 76.5194 152.993 77.4921 152.016 78.445C151.825 78.6243 151.601 78.7649 151.356 78.8587C150.916 79.0282 150.52 78.8829 150.141 78.6563C149.266 78.1195 148.343 77.6664 147.384 77.3029C146.492 76.975 145.584 76.6955 144.677 76.4226C144.456 76.3679 144.253 76.2586 144.086 76.1048C143.919 75.951 143.793 75.7576 143.72 75.5424C143.661 75.3379 143.636 75.1254 143.645 74.913C143.645 73.5596 143.645 72.2084 143.645 70.855C143.645 70.4875 143.623 70.4699 143.269 70.4611H136.015C135.443 70.4611 135.443 70.4611 135.443 71.0398C135.443 72.3602 135.443 73.6806 135.443 74.9856C135.443 75.7734 135.091 76.2179 134.33 76.4248C132.986 76.7774 131.682 77.2624 130.434 77.8728C129.875 78.1545 129.334 78.4626 128.779 78.7531C128.534 78.9087 128.243 78.9789 127.954 78.9526C127.664 78.9263 127.391 78.8051 127.177 78.6078C127.074 78.5176 126.977 78.4186 126.88 78.3218C125.966 77.4078 125.053 76.4945 124.141 75.582C124.048 75.4895 123.945 75.4059 123.821 75.2959L118.01 81.0395C118.157 81.209 118.23 81.3036 118.318 81.3895C118.819 81.8956 119.326 82.3995 119.829 82.9057L121.236 84.3163C121.4 84.4638 121.523 84.6509 121.595 84.8597C121.666 85.0684 121.682 85.292 121.643 85.509C121.589 85.7521 121.496 85.9847 121.368 86.1978C120.405 87.8548 119.675 89.6365 119.198 91.4926C119.092 91.9063 118.912 92.2892 118.503 92.4675C118.24 92.5817 117.959 92.6437 117.673 92.6501C116.352 92.6699 115.032 92.6501 113.694 92.6501C113.56 92.6501 113.426 92.6611 113.316 92.6655C113.293 92.6986 113.275 92.734 113.261 92.7712C113.251 92.8323 113.246 92.8941 113.245 92.956C113.245 95.5131 113.245 98.0688 113.245 100.623C113.248 100.673 113.256 100.722 113.267 100.77C113.267 100.781 113.28 100.79 113.289 100.799C113.307 100.821 113.326 100.841 113.346 100.861H113.721C115.041 100.861 116.361 100.861 117.664 100.861C118.544 100.861 118.984 101.233 119.205 102.089C119.453 103.097 119.796 104.08 120.23 105.024C120.611 105.839 121.038 106.633 121.462 107.427C121.664 107.719 121.75 108.077 121.702 108.429C121.654 108.78 121.476 109.102 121.203 109.329L118.364 112.187C118.271 112.28 118.188 112.383 118.106 112.476C118.364 112.85 123.648 118.116 123.912 118.259C124.004 118.169 124.103 118.076 124.198 117.979C125.099 117.086 125.993 116.193 126.88 115.299C126.899 115.283 126.917 115.265 126.933 115.246C127.536 114.553 128.267 114.516 128.982 114.949C129.893 115.5 130.856 115.958 131.858 116.318C132.703 116.624 133.57 116.875 134.431 117.139C134.632 117.19 134.818 117.29 134.971 117.43C135.125 117.57 135.242 117.746 135.311 117.942C135.381 118.168 135.413 118.405 135.403 118.642C135.403 119.934 135.403 121.223 135.403 122.513C135.403 122.601 135.403 122.689 135.403 122.777C135.417 123.037 135.45 123.067 135.72 123.081C135.769 123.081 135.819 123.081 135.87 123.081H143.231C143.352 123.081 143.473 123.067 143.625 123.059C143.625 122.882 143.649 122.735 143.649 122.59C143.649 121.223 143.649 119.859 143.649 118.494C143.638 118.205 143.721 117.921 143.885 117.683C144.049 117.445 144.286 117.266 144.56 117.174C144.701 117.126 144.846 117.082 145 117.042C146.643 116.596 148.225 115.95 149.71 115.116C149.779 115.067 149.844 115.01 149.901 114.947C149.868 114.9 149.833 114.854 149.796 114.811C148.475 113.503 147.155 112.201 145.856 110.885C145.79 110.812 145.701 110.765 145.603 110.752C145.506 110.739 145.407 110.761 145.324 110.814C143.1 111.746 140.684 112.123 138.282 111.915C135.772 111.725 133.353 110.891 131.26 109.494C127.226 106.8 124.937 103.015 124.424 98.1979C124.15 95.643 124.559 93.0612 125.608 90.7158C126.732 88.1358 128.548 85.9173 130.855 84.3065C133.163 82.6956 135.871 81.7553 138.68 81.5897C138.98 81.5684 139.28 81.5626 139.58 81.5721C139.903 81.5821 140.21 81.7099 140.445 81.9312C140.68 82.1526 140.826 82.4523 140.854 82.7737C140.895 83.094 140.813 83.4179 140.626 83.6811C140.439 83.9443 140.16 84.1278 139.844 84.1953C139.636 84.2371 139.423 84.2571 139.211 84.2547C137.554 84.2966 135.922 84.6708 134.413 85.355C132.365 86.2778 130.603 87.7345 129.311 89.5724C128.02 91.4103 127.246 93.5618 127.072 95.8014C126.843 98.7047 127.633 101.597 129.308 103.98C130.982 106.363 133.435 108.087 136.244 108.856C138.538 109.503 140.972 109.46 143.242 108.735C143.324 108.697 143.407 108.642 143.537 108.585V108.581ZM176.547 127.779L176.617 127.753C176.631 127.66 176.638 127.567 176.639 127.473C176.593 126.872 176.58 126.269 176.483 125.677C176.247 124.318 175.789 123.007 175.127 121.798C174.773 121.09 174.285 120.458 173.69 119.936C173.46 119.721 173.165 119.587 172.852 119.555C172.555 119.535 172.258 119.48 171.96 119.438C170.189 119.183 168.42 118.913 166.646 118.684C166.136 118.628 165.662 118.394 165.308 118.023C160.53 113.254 155.747 108.491 150.96 103.735C149.877 102.656 148.799 101.576 147.712 100.502C147.448 100.266 147.272 99.948 147.21 99.5997C147.065 98.6094 146.926 97.6192 146.787 96.6245C146.629 95.4977 146.455 94.371 146.325 93.2399C146.268 92.7531 146.033 92.3046 145.665 91.9811C145.052 91.4161 144.353 90.9526 143.594 90.6079C142.014 89.8091 140.278 89.3666 138.509 89.3118C138.376 89.3118 138.244 89.3118 138.115 89.325C138.161 89.4259 138.238 89.5098 138.335 89.5648C138.619 89.7497 138.907 89.9235 139.189 90.1128C139.872 90.531 140.488 91.0504 141.015 91.6532C141.944 92.7976 142.276 94.0739 141.92 95.5198C141.563 96.9395 140.788 98.2192 139.695 99.1926C139.129 99.7296 138.451 100.133 137.709 100.373C136.967 100.613 136.181 100.683 135.408 100.579C134.945 100.537 134.499 100.391 134.101 100.152C133.557 99.8176 133 99.4919 132.452 99.175C132.362 99.1332 132.268 99.0979 132.173 99.0694C132.206 99.1453 132.244 99.2189 132.287 99.2894C133.452 100.86 134.701 102.367 136.028 103.803C136.092 103.87 136.169 103.923 136.255 103.958C136.341 103.992 136.433 104.008 136.526 104.003C138.414 104.063 140.302 104.144 142.192 104.188C142.467 104.192 142.737 104.252 142.987 104.366C143.236 104.48 143.46 104.644 143.643 104.848C144.844 106.074 146.063 107.269 147.28 108.49C151.85 113.057 156.423 117.622 160.999 122.185C161.231 122.402 161.415 122.664 161.54 122.955C161.665 123.246 161.729 123.56 161.727 123.877C161.771 125.719 161.868 127.557 161.937 129.399C161.939 129.492 161.961 129.583 162.001 129.667C162.041 129.75 162.099 129.825 162.17 129.885C163.597 131.2 165.093 132.438 166.65 133.595C166.734 133.642 166.821 133.683 166.91 133.718C166.809 133.531 166.756 133.424 166.69 133.318C166.366 132.768 166.03 132.218 165.724 131.665C165.579 131.403 165.473 131.12 165.409 130.827C165.256 130.127 165.255 129.402 165.404 128.701C165.554 128 165.851 127.339 166.276 126.762C167.193 125.512 168.479 124.582 169.953 124.102C170.685 123.83 171.476 123.76 172.244 123.899C173.209 124.097 174.086 124.593 174.753 125.316C175.38 125.957 175.84 126.72 176.32 127.469C176.384 127.572 176.467 127.678 176.542 127.783L176.547 127.779Z"/>
</mask>
<path d="M151.888 116.943C150.245 117.96 148.479 118.765 146.633 119.339C146.336 119.432 146.312 119.465 146.31 119.799C146.31 121.19 146.31 122.584 146.31 123.981C146.31 124.106 146.31 124.229 146.31 124.355C146.313 124.542 146.278 124.729 146.206 124.903C146.135 125.076 146.029 125.234 145.894 125.365C145.76 125.496 145.6 125.598 145.425 125.666C145.25 125.733 145.063 125.764 144.875 125.757C141.319 125.739 137.765 125.757 134.211 125.757C133.528 125.757 133.071 125.464 132.866 124.876C132.805 124.674 132.777 124.463 132.785 124.251C132.785 122.797 132.785 121.344 132.785 119.892C132.785 119.463 132.785 119.463 132.36 119.326C131.098 118.92 129.87 118.413 128.689 117.81C128.324 117.623 128.322 117.625 128.029 117.922L124.986 120.882C124.913 120.95 124.843 121.023 124.766 121.089C124.644 121.213 124.5 121.311 124.34 121.378C124.18 121.446 124.009 121.48 123.836 121.48C123.663 121.48 123.491 121.446 123.331 121.378C123.172 121.311 123.027 121.213 122.906 121.089C122.611 120.818 122.334 120.528 122.05 120.246L115.347 113.556C115.127 113.369 114.961 113.125 114.867 112.852C114.799 112.635 114.788 112.405 114.835 112.183C114.882 111.961 114.986 111.755 115.136 111.584C115.268 111.433 115.411 111.292 115.551 111.144L118.445 108.257C118.694 108.011 118.698 108.006 118.531 107.689C117.889 106.444 117.354 105.147 116.931 103.812C116.907 103.741 116.876 103.673 116.832 103.561H116.392C114.953 103.561 113.514 103.561 112.074 103.561C111.85 103.564 111.627 103.528 111.414 103.455C111.192 103.382 110.996 103.245 110.851 103.062C110.706 102.878 110.618 102.656 110.598 102.423C110.584 102.258 110.58 102.093 110.585 101.928V91.585C110.582 91.4382 110.586 91.2913 110.598 91.1449C110.628 90.8496 110.758 90.5736 110.968 90.3635C111.178 90.1535 111.454 90.0222 111.749 89.9917C111.909 89.9741 112.074 89.9763 112.235 89.9741H116.843C116.929 89.7189 117.006 89.4856 117.085 89.2523C117.473 88.0896 117.952 86.9594 118.518 85.8722C118.703 85.5245 118.698 85.5201 118.417 85.2406C117.379 84.2048 116.342 83.1705 115.305 82.1377C114.924 81.757 114.717 81.3212 114.852 80.7843C114.918 80.5705 115.019 80.369 115.151 80.1879C115.258 80.0495 115.378 79.922 115.51 79.8072C117.882 77.432 120.254 75.0582 122.627 72.6859C122.747 72.5592 122.876 72.4402 123.012 72.3294C123.244 72.1443 123.532 72.0422 123.829 72.0394C124.126 72.0366 124.415 72.1333 124.651 72.314C124.77 72.4033 124.883 72.5011 124.988 72.6067C126.003 73.6102 127.016 74.6159 128.027 75.6238C128.313 75.9055 128.315 75.9099 128.661 75.7316C129.862 75.1127 131.113 74.5974 132.402 74.1912C132.721 74.0921 132.743 74.0525 132.743 73.7048C132.743 72.2634 132.743 70.822 132.743 69.3828C132.733 69.1335 132.765 68.8843 132.837 68.6456C132.909 68.4303 133.04 68.2393 133.214 68.0936C133.388 67.9479 133.599 67.8533 133.823 67.8203C134.02 67.7844 134.22 67.766 134.42 67.7653H144.635C144.782 67.7639 144.929 67.772 145.075 67.7895C145.424 67.8111 145.751 67.968 145.986 68.227C146.221 68.4859 146.346 68.8264 146.334 69.1759C146.347 69.638 146.334 70.1024 146.334 70.5667C146.334 71.6186 146.334 72.6705 146.334 73.7224C146.334 74.0745 146.334 74.0921 146.684 74.1978C147.984 74.6084 149.247 75.1281 150.46 75.7514C150.779 75.9143 150.781 75.9165 151.035 75.6634C152.063 74.6526 153.086 73.6337 154.104 72.6067C154.233 72.4709 154.375 72.3478 154.527 72.2392C154.743 72.096 154.997 72.0228 155.256 72.0295C155.515 72.0362 155.765 72.1225 155.973 72.2766C156.094 72.3653 156.207 72.4639 156.312 72.5715C158.773 75.0318 161.235 77.4936 163.695 79.9568C163.931 80.1697 164.104 80.4439 164.194 80.7491C164.245 80.9306 164.254 81.1211 164.222 81.3067C164.19 81.4924 164.118 81.6687 164.01 81.823C163.9 81.9756 163.777 82.1177 163.642 82.2477C162.652 83.2395 161.66 84.2305 160.667 85.2208C160.561 85.3242 160.466 85.4408 160.376 85.5355C160.698 86.2243 161.036 86.8712 161.303 87.5402C161.569 88.2092 161.844 88.9398 162.08 89.6506C162.179 89.9521 162.227 89.9873 162.559 89.9873C164.001 89.9873 165.44 89.9873 166.879 89.9873C167.102 89.9784 167.324 90.0036 167.539 90.0622C167.799 90.1415 168.028 90.299 168.195 90.5133C168.362 90.7275 168.459 90.988 168.472 91.2593C168.478 91.359 168.478 91.4589 168.472 91.5586C168.472 95.04 168.472 98.5222 168.472 102.005C168.476 102.242 168.441 102.478 168.371 102.705C168.299 102.948 168.153 103.163 167.954 103.321C167.754 103.479 167.511 103.571 167.258 103.585C167.033 103.602 166.807 103.606 166.582 103.598H162.575C162.154 103.598 162.165 103.662 162.075 103.955C161.573 105.556 160.901 107.098 160.07 108.556C159.894 108.864 159.894 108.869 160.152 109.126L164.571 113.528C165.343 114.296 166.111 115.068 166.884 115.836C167.038 115.998 167.244 116.101 167.467 116.127C169.549 116.42 171.628 116.727 173.706 117.046C174.163 117.131 174.595 117.319 174.969 117.597C175.764 118.17 176.437 118.895 176.949 119.731C177.622 120.802 178.159 121.952 178.547 123.155C179.167 124.909 179.399 126.776 179.225 128.628C179.129 129.742 178.803 130.824 178.265 131.804C177.876 132.493 177.275 132.757 176.604 132.545C176.258 132.423 175.972 132.173 175.803 131.848C175.147 130.767 174.487 129.691 173.822 128.622C173.599 128.259 173.358 127.908 173.1 127.57C172.925 127.342 172.725 127.134 172.504 126.949C172.311 126.777 172.077 126.655 171.825 126.596C171.573 126.536 171.31 126.541 171.06 126.608C170.032 126.854 169.117 127.44 168.461 128.27C168.138 128.673 167.948 129.168 167.92 129.685C167.887 130.048 167.969 130.413 168.153 130.728C168.935 132.024 169.694 133.329 170.473 134.632C170.565 134.78 170.644 134.937 170.71 135.098C170.781 135.285 170.807 135.486 170.788 135.684C170.769 135.883 170.705 136.075 170.6 136.245C170.495 136.415 170.353 136.558 170.184 136.665C170.015 136.771 169.824 136.838 169.626 136.859C169.128 136.905 168.626 136.883 168.125 136.887C167.762 136.887 167.399 136.887 167.035 136.887C166.696 136.895 166.363 136.789 166.089 136.588C164.247 135.204 162.394 133.833 160.698 132.27C160.326 131.916 159.975 131.542 159.646 131.148C159.311 130.753 159.134 130.248 159.148 129.731C159.131 127.953 159.076 126.177 159.047 124.399C159.048 124.281 159.023 124.165 158.976 124.057C158.928 123.949 158.859 123.853 158.772 123.774C156.563 121.573 154.358 119.372 152.157 117.172C152.069 117.095 151.983 117.027 151.888 116.943ZM143.537 108.581C143.5 108.522 143.459 108.465 143.416 108.411C142.965 107.942 142.509 107.476 142.06 107.005C142.007 106.945 141.941 106.896 141.867 106.863C141.794 106.829 141.714 106.812 141.633 106.811C141.246 106.798 140.859 106.752 140.471 106.745C139.021 106.717 137.569 106.679 136.119 106.69C135.678 106.69 135.263 106.637 134.93 106.345C134.422 105.92 133.938 105.467 133.482 104.987C131.97 103.328 130.65 101.514 129.301 99.723C129.131 99.5026 129.037 99.2332 129.033 98.9549C129.033 98.0901 129.008 97.2252 129.033 96.3604C129.037 96.0361 129.162 95.7251 129.381 95.4864C129.601 95.2478 129.9 95.0983 130.223 95.0664C130.576 95.0391 130.927 95.1339 131.218 95.3349C132.538 96.1315 133.887 96.9172 135.216 97.7182C135.584 97.9402 136.02 98.0186 136.442 97.9383C136.93 97.8622 137.387 97.6528 137.763 97.3331C138.452 96.7452 138.975 95.9863 139.279 95.1324C139.417 94.8056 139.451 94.4438 139.375 94.097C139.3 93.7502 139.118 93.4354 138.856 93.1959C138.692 93.0248 138.513 92.8686 138.321 92.7293C137.567 92.2144 136.81 91.7016 136.039 91.2109C135.379 90.7972 134.719 90.4143 134.041 90.0182C133.828 89.9035 133.649 89.7332 133.525 89.5253C133.401 89.3174 133.335 89.0797 133.335 88.8375C133.335 88.5953 133.401 88.3576 133.525 88.1497C133.649 87.9418 133.828 87.7715 134.041 87.6569C134.883 87.182 135.805 86.8664 136.761 86.726C138.136 86.5087 139.54 86.543 140.903 86.8272C142.589 87.1508 144.209 87.7548 145.696 88.6141C146.725 89.1688 147.618 89.9453 148.31 90.8874C148.613 91.2883 148.823 91.7512 148.926 92.243C149.041 92.8724 149.127 93.504 149.215 94.1377C149.413 95.5638 149.606 96.9898 149.793 98.4158C149.818 98.6283 149.915 98.8258 150.068 98.9748C150.478 99.3819 150.874 99.7978 151.277 100.209C151.329 100.257 151.384 100.302 151.442 100.344C151.477 100.317 151.503 100.306 151.514 100.286C151.525 100.267 151.55 100.194 151.565 100.148C151.776 99.4004 151.917 98.6349 151.985 97.8612C152.14 96.261 151.972 94.646 151.49 93.1123C150.813 90.8971 149.53 88.9153 147.786 87.3906C147.653 87.2762 147.527 87.1542 147.408 87.0253C147.225 86.832 147.109 86.586 147.074 86.3224C147.04 86.0588 147.09 85.7911 147.216 85.5575C147.328 85.3234 147.507 85.1282 147.731 84.9971C147.954 84.8661 148.212 84.8052 148.471 84.8224C148.835 84.8485 149.177 85.0047 149.435 85.2626C151.004 86.5991 152.278 88.2479 153.176 90.104C153.879 91.5459 154.347 93.0913 154.562 94.6813C154.784 96.2972 154.747 97.9383 154.452 99.5425C154.296 100.446 154.046 101.331 153.706 102.183C153.655 102.282 153.641 102.396 153.666 102.504C153.691 102.613 153.754 102.709 153.843 102.775C155.117 104.034 156.378 105.304 157.645 106.569C157.722 106.646 157.808 106.712 157.879 106.776C157.934 106.745 157.964 106.739 157.975 106.721C158.046 106.604 158.118 106.488 158.182 106.364C158.895 104.986 159.449 103.531 159.835 102.027C159.903 101.677 160.096 101.364 160.378 101.147C160.658 100.953 160.994 100.856 161.334 100.872H165.735C165.838 100.46 165.825 92.978 165.719 92.6589H165.328C164.007 92.6589 162.674 92.6589 161.347 92.6589C160.486 92.6589 160.026 92.2804 159.806 91.4574C159.705 91.0591 159.586 90.6629 159.459 90.2712C158.992 88.843 158.378 87.4675 157.625 86.167C157.5 85.9524 157.411 85.718 157.364 85.4738C157.335 85.2557 157.362 85.034 157.441 84.8287C157.52 84.6235 157.649 84.4413 157.817 84.2987C158.781 83.3304 159.741 82.3599 160.698 81.3873C160.79 81.2926 160.876 81.1892 160.935 81.121L155.139 75.3355C155.09 75.3817 154.998 75.4631 154.919 75.5556C153.953 76.5194 152.993 77.4921 152.016 78.445C151.825 78.6243 151.601 78.7649 151.356 78.8587C150.916 79.0282 150.52 78.8829 150.141 78.6563C149.266 78.1195 148.343 77.6664 147.384 77.3029C146.492 76.975 145.584 76.6955 144.677 76.4226C144.456 76.3679 144.253 76.2586 144.086 76.1048C143.919 75.951 143.793 75.7576 143.72 75.5424C143.661 75.3379 143.636 75.1254 143.645 74.913C143.645 73.5596 143.645 72.2084 143.645 70.855C143.645 70.4875 143.623 70.4699 143.269 70.4611H136.015C135.443 70.4611 135.443 70.4611 135.443 71.0398C135.443 72.3602 135.443 73.6806 135.443 74.9856C135.443 75.7734 135.091 76.2179 134.33 76.4248C132.986 76.7774 131.682 77.2624 130.434 77.8728C129.875 78.1545 129.334 78.4626 128.779 78.7531C128.534 78.9087 128.243 78.9789 127.954 78.9526C127.664 78.9263 127.391 78.8051 127.177 78.6078C127.074 78.5176 126.977 78.4186 126.88 78.3218C125.966 77.4078 125.053 76.4945 124.141 75.582C124.048 75.4895 123.945 75.4059 123.821 75.2959L118.01 81.0395C118.157 81.209 118.23 81.3036 118.318 81.3895C118.819 81.8956 119.326 82.3995 119.829 82.9057L121.236 84.3163C121.4 84.4638 121.523 84.6509 121.595 84.8597C121.666 85.0684 121.682 85.292 121.643 85.509C121.589 85.7521 121.496 85.9847 121.368 86.1978C120.405 87.8548 119.675 89.6365 119.198 91.4926C119.092 91.9063 118.912 92.2892 118.503 92.4675C118.24 92.5817 117.959 92.6437 117.673 92.6501C116.352 92.6699 115.032 92.6501 113.694 92.6501C113.56 92.6501 113.426 92.6611 113.316 92.6655C113.293 92.6986 113.275 92.734 113.261 92.7712C113.251 92.8323 113.246 92.8941 113.245 92.956C113.245 95.5131 113.245 98.0688 113.245 100.623C113.248 100.673 113.256 100.722 113.267 100.77C113.267 100.781 113.28 100.79 113.289 100.799C113.307 100.821 113.326 100.841 113.346 100.861H113.721C115.041 100.861 116.361 100.861 117.664 100.861C118.544 100.861 118.984 101.233 119.205 102.089C119.453 103.097 119.796 104.08 120.23 105.024C120.611 105.839 121.038 106.633 121.462 107.427C121.664 107.719 121.75 108.077 121.702 108.429C121.654 108.78 121.476 109.102 121.203 109.329L118.364 112.187C118.271 112.28 118.188 112.383 118.106 112.476C118.364 112.85 123.648 118.116 123.912 118.259C124.004 118.169 124.103 118.076 124.198 117.979C125.099 117.086 125.993 116.193 126.88 115.299C126.899 115.283 126.917 115.265 126.933 115.246C127.536 114.553 128.267 114.516 128.982 114.949C129.893 115.5 130.856 115.958 131.858 116.318C132.703 116.624 133.57 116.875 134.431 117.139C134.632 117.19 134.818 117.29 134.971 117.43C135.125 117.57 135.242 117.746 135.311 117.942C135.381 118.168 135.413 118.405 135.403 118.642C135.403 119.934 135.403 121.223 135.403 122.513C135.403 122.601 135.403 122.689 135.403 122.777C135.417 123.037 135.45 123.067 135.72 123.081C135.769 123.081 135.819 123.081 135.87 123.081H143.231C143.352 123.081 143.473 123.067 143.625 123.059C143.625 122.882 143.649 122.735 143.649 122.59C143.649 121.223 143.649 119.859 143.649 118.494C143.638 118.205 143.721 117.921 143.885 117.683C144.049 117.445 144.286 117.266 144.56 117.174C144.701 117.126 144.846 117.082 145 117.042C146.643 116.596 148.225 115.95 149.71 115.116C149.779 115.067 149.844 115.01 149.901 114.947C149.868 114.9 149.833 114.854 149.796 114.811C148.475 113.503 147.155 112.201 145.856 110.885C145.79 110.812 145.701 110.765 145.603 110.752C145.506 110.739 145.407 110.761 145.324 110.814C143.1 111.746 140.684 112.123 138.282 111.915C135.772 111.725 133.353 110.891 131.26 109.494C127.226 106.8 124.937 103.015 124.424 98.1979C124.15 95.643 124.559 93.0612 125.608 90.7158C126.732 88.1358 128.548 85.9173 130.855 84.3065C133.163 82.6956 135.871 81.7553 138.68 81.5897C138.98 81.5684 139.28 81.5626 139.58 81.5721C139.903 81.5821 140.21 81.7099 140.445 81.9312C140.68 82.1526 140.826 82.4523 140.854 82.7737C140.895 83.094 140.813 83.4179 140.626 83.6811C140.439 83.9443 140.16 84.1278 139.844 84.1953C139.636 84.2371 139.423 84.2571 139.211 84.2547C137.554 84.2966 135.922 84.6708 134.413 85.355C132.365 86.2778 130.603 87.7345 129.311 89.5724C128.02 91.4103 127.246 93.5618 127.072 95.8014C126.843 98.7047 127.633 101.597 129.308 103.98C130.982 106.363 133.435 108.087 136.244 108.856C138.538 109.503 140.972 109.46 143.242 108.735C143.324 108.697 143.407 108.642 143.537 108.585V108.581ZM176.547 127.779L176.617 127.753C176.631 127.66 176.638 127.567 176.639 127.473C176.593 126.872 176.58 126.269 176.483 125.677C176.247 124.318 175.789 123.007 175.127 121.798C174.773 121.09 174.285 120.458 173.69 119.936C173.46 119.721 173.165 119.587 172.852 119.555C172.555 119.535 172.258 119.48 171.96 119.438C170.189 119.183 168.42 118.913 166.646 118.684C166.136 118.628 165.662 118.394 165.308 118.023C160.53 113.254 155.747 108.491 150.96 103.735C149.877 102.656 148.799 101.576 147.712 100.502C147.448 100.266 147.272 99.948 147.21 99.5997C147.065 98.6094 146.926 97.6192 146.787 96.6245C146.629 95.4977 146.455 94.371 146.325 93.2399C146.268 92.7531 146.033 92.3046 145.665 91.9811C145.052 91.4161 144.353 90.9526 143.594 90.6079C142.014 89.8091 140.278 89.3666 138.509 89.3118C138.376 89.3118 138.244 89.3118 138.115 89.325C138.161 89.4259 138.238 89.5098 138.335 89.5648C138.619 89.7497 138.907 89.9235 139.189 90.1128C139.872 90.531 140.488 91.0504 141.015 91.6532C141.944 92.7976 142.276 94.0739 141.92 95.5198C141.563 96.9395 140.788 98.2192 139.695 99.1926C139.129 99.7296 138.451 100.133 137.709 100.373C136.967 100.613 136.181 100.683 135.408 100.579C134.945 100.537 134.499 100.391 134.101 100.152C133.557 99.8176 133 99.4919 132.452 99.175C132.362 99.1332 132.268 99.0979 132.173 99.0694C132.206 99.1453 132.244 99.2189 132.287 99.2894C133.452 100.86 134.701 102.367 136.028 103.803C136.092 103.87 136.169 103.923 136.255 103.958C136.341 103.992 136.433 104.008 136.526 104.003C138.414 104.063 140.302 104.144 142.192 104.188C142.467 104.192 142.737 104.252 142.987 104.366C143.236 104.48 143.46 104.644 143.643 104.848C144.844 106.074 146.063 107.269 147.28 108.49C151.85 113.057 156.423 117.622 160.999 122.185C161.231 122.402 161.415 122.664 161.54 122.955C161.665 123.246 161.729 123.56 161.727 123.877C161.771 125.719 161.868 127.557 161.937 129.399C161.939 129.492 161.961 129.583 162.001 129.667C162.041 129.75 162.099 129.825 162.17 129.885C163.597 131.2 165.093 132.438 166.65 133.595C166.734 133.642 166.821 133.683 166.91 133.718C166.809 133.531 166.756 133.424 166.69 133.318C166.366 132.768 166.03 132.218 165.724 131.665C165.579 131.403 165.473 131.12 165.409 130.827C165.256 130.127 165.255 129.402 165.404 128.701C165.554 128 165.851 127.339 166.276 126.762C167.193 125.512 168.479 124.582 169.953 124.102C170.685 123.83 171.476 123.76 172.244 123.899C173.209 124.097 174.086 124.593 174.753 125.316C175.38 125.957 175.84 126.72 176.32 127.469C176.384 127.572 176.467 127.678 176.542 127.783L176.547 127.779Z" fill="url(#paint11_linear_2014_71)"/>
<path d="M151.888 116.943C150.245 117.96 148.479 118.765 146.633 119.339C146.336 119.432 146.312 119.465 146.31 119.799C146.31 121.19 146.31 122.584 146.31 123.981C146.31 124.106 146.31 124.229 146.31 124.355C146.313 124.542 146.278 124.729 146.206 124.903C146.135 125.076 146.029 125.234 145.894 125.365C145.76 125.496 145.6 125.598 145.425 125.666C145.25 125.733 145.063 125.764 144.875 125.757C141.319 125.739 137.765 125.757 134.211 125.757C133.528 125.757 133.071 125.464 132.866 124.876C132.805 124.674 132.777 124.463 132.785 124.251C132.785 122.797 132.785 121.344 132.785 119.892C132.785 119.463 132.785 119.463 132.36 119.326C131.098 118.92 129.87 118.413 128.689 117.81C128.324 117.623 128.322 117.625 128.029 117.922L124.986 120.882C124.913 120.95 124.843 121.023 124.766 121.089C124.644 121.213 124.5 121.311 124.34 121.378C124.18 121.446 124.009 121.48 123.836 121.48C123.663 121.48 123.491 121.446 123.331 121.378C123.172 121.311 123.027 121.213 122.906 121.089C122.611 120.818 122.334 120.528 122.05 120.246L115.347 113.556C115.127 113.369 114.961 113.125 114.867 112.852C114.799 112.635 114.788 112.405 114.835 112.183C114.882 111.961 114.986 111.755 115.136 111.584C115.268 111.433 115.411 111.292 115.551 111.144L118.445 108.257C118.694 108.011 118.698 108.006 118.531 107.689C117.889 106.444 117.354 105.147 116.931 103.812C116.907 103.741 116.876 103.673 116.832 103.561H116.392C114.953 103.561 113.514 103.561 112.074 103.561C111.85 103.564 111.627 103.528 111.414 103.455C111.192 103.382 110.996 103.245 110.851 103.062C110.706 102.878 110.618 102.656 110.598 102.423C110.584 102.258 110.58 102.093 110.585 101.928V91.585C110.582 91.4382 110.586 91.2913 110.598 91.1449C110.628 90.8496 110.758 90.5736 110.968 90.3635C111.178 90.1535 111.454 90.0222 111.749 89.9917C111.909 89.9741 112.074 89.9763 112.235 89.9741H116.843C116.929 89.7189 117.006 89.4856 117.085 89.2523C117.473 88.0896 117.952 86.9594 118.518 85.8722C118.703 85.5245 118.698 85.5201 118.417 85.2406C117.379 84.2048 116.342 83.1705 115.305 82.1377C114.924 81.757 114.717 81.3212 114.852 80.7843C114.918 80.5705 115.019 80.369 115.151 80.1879C115.258 80.0495 115.378 79.922 115.51 79.8072C117.882 77.432 120.254 75.0582 122.627 72.6859C122.747 72.5592 122.876 72.4402 123.012 72.3294C123.244 72.1443 123.532 72.0422 123.829 72.0394C124.126 72.0366 124.415 72.1333 124.651 72.314C124.77 72.4033 124.883 72.5011 124.988 72.6067C126.003 73.6102 127.016 74.6159 128.027 75.6238C128.313 75.9055 128.315 75.9099 128.661 75.7316C129.862 75.1127 131.113 74.5974 132.402 74.1912C132.721 74.0921 132.743 74.0525 132.743 73.7048C132.743 72.2634 132.743 70.822 132.743 69.3828C132.733 69.1335 132.765 68.8843 132.837 68.6456C132.909 68.4303 133.04 68.2393 133.214 68.0936C133.388 67.9479 133.599 67.8533 133.823 67.8203C134.02 67.7844 134.22 67.766 134.42 67.7653H144.635C144.782 67.7639 144.929 67.772 145.075 67.7895C145.424 67.8111 145.751 67.968 145.986 68.227C146.221 68.4859 146.346 68.8264 146.334 69.1759C146.347 69.638 146.334 70.1024 146.334 70.5667C146.334 71.6186 146.334 72.6705 146.334 73.7224C146.334 74.0745 146.334 74.0921 146.684 74.1978C147.984 74.6084 149.247 75.1281 150.46 75.7514C150.779 75.9143 150.781 75.9165 151.035 75.6634C152.063 74.6526 153.086 73.6337 154.104 72.6067C154.233 72.4709 154.375 72.3478 154.527 72.2392C154.743 72.096 154.997 72.0228 155.256 72.0295C155.515 72.0362 155.765 72.1225 155.973 72.2766C156.094 72.3653 156.207 72.4639 156.312 72.5715C158.773 75.0318 161.235 77.4936 163.695 79.9568C163.931 80.1697 164.104 80.4439 164.194 80.7491C164.245 80.9306 164.254 81.1211 164.222 81.3067C164.19 81.4924 164.118 81.6687 164.01 81.823C163.9 81.9756 163.777 82.1177 163.642 82.2477C162.652 83.2395 161.66 84.2305 160.667 85.2208C160.561 85.3242 160.466 85.4408 160.376 85.5355C160.698 86.2243 161.036 86.8712 161.303 87.5402C161.569 88.2092 161.844 88.9398 162.08 89.6506C162.179 89.9521 162.227 89.9873 162.559 89.9873C164.001 89.9873 165.44 89.9873 166.879 89.9873C167.102 89.9784 167.324 90.0036 167.539 90.0622C167.799 90.1415 168.028 90.299 168.195 90.5133C168.362 90.7275 168.459 90.988 168.472 91.2593C168.478 91.359 168.478 91.4589 168.472 91.5586C168.472 95.04 168.472 98.5222 168.472 102.005C168.476 102.242 168.441 102.478 168.371 102.705C168.299 102.948 168.153 103.163 167.954 103.321C167.754 103.479 167.511 103.571 167.258 103.585C167.033 103.602 166.807 103.606 166.582 103.598H162.575C162.154 103.598 162.165 103.662 162.075 103.955C161.573 105.556 160.901 107.098 160.07 108.556C159.894 108.864 159.894 108.869 160.152 109.126L164.571 113.528C165.343 114.296 166.111 115.068 166.884 115.836C167.038 115.998 167.244 116.101 167.467 116.127C169.549 116.42 171.628 116.727 173.706 117.046C174.163 117.131 174.595 117.319 174.969 117.597C175.764 118.17 176.437 118.895 176.949 119.731C177.622 120.802 178.159 121.952 178.547 123.155C179.167 124.909 179.399 126.776 179.225 128.628C179.129 129.742 178.803 130.824 178.265 131.804C177.876 132.493 177.275 132.757 176.604 132.545C176.258 132.423 175.972 132.173 175.803 131.848C175.147 130.767 174.487 129.691 173.822 128.622C173.599 128.259 173.358 127.908 173.1 127.57C172.925 127.342 172.725 127.134 172.504 126.949C172.311 126.777 172.077 126.655 171.825 126.596C171.573 126.536 171.31 126.541 171.06 126.608C170.032 126.854 169.117 127.44 168.461 128.27C168.138 128.673 167.948 129.168 167.92 129.685C167.887 130.048 167.969 130.413 168.153 130.728C168.935 132.024 169.694 133.329 170.473 134.632C170.565 134.78 170.644 134.937 170.71 135.098C170.781 135.285 170.807 135.486 170.788 135.684C170.769 135.883 170.705 136.075 170.6 136.245C170.495 136.415 170.353 136.558 170.184 136.665C170.015 136.771 169.824 136.838 169.626 136.859C169.128 136.905 168.626 136.883 168.125 136.887C167.762 136.887 167.399 136.887 167.035 136.887C166.696 136.895 166.363 136.789 166.089 136.588C164.247 135.204 162.394 133.833 160.698 132.27C160.326 131.916 159.975 131.542 159.646 131.148C159.311 130.753 159.134 130.248 159.148 129.731C159.131 127.953 159.076 126.177 159.047 124.399C159.048 124.281 159.023 124.165 158.976 124.057C158.928 123.949 158.859 123.853 158.772 123.774C156.563 121.573 154.358 119.372 152.157 117.172C152.069 117.095 151.983 117.027 151.888 116.943ZM143.537 108.581C143.5 108.522 143.459 108.465 143.416 108.411C142.965 107.942 142.509 107.476 142.06 107.005C142.007 106.945 141.941 106.896 141.867 106.863C141.794 106.829 141.714 106.812 141.633 106.811C141.246 106.798 140.859 106.752 140.471 106.745C139.021 106.717 137.569 106.679 136.119 106.69C135.678 106.69 135.263 106.637 134.93 106.345C134.422 105.92 133.938 105.467 133.482 104.987C131.97 103.328 130.65 101.514 129.301 99.723C129.131 99.5026 129.037 99.2332 129.033 98.9549C129.033 98.0901 129.008 97.2252 129.033 96.3604C129.037 96.0361 129.162 95.7251 129.381 95.4864C129.601 95.2478 129.9 95.0983 130.223 95.0664C130.576 95.0391 130.927 95.1339 131.218 95.3349C132.538 96.1315 133.887 96.9172 135.216 97.7182C135.584 97.9402 136.02 98.0186 136.442 97.9383C136.93 97.8622 137.387 97.6528 137.763 97.3331C138.452 96.7452 138.975 95.9863 139.279 95.1324C139.417 94.8056 139.451 94.4438 139.375 94.097C139.3 93.7502 139.118 93.4354 138.856 93.1959C138.692 93.0248 138.513 92.8686 138.321 92.7293C137.567 92.2144 136.81 91.7016 136.039 91.2109C135.379 90.7972 134.719 90.4143 134.041 90.0182C133.828 89.9035 133.649 89.7332 133.525 89.5253C133.401 89.3174 133.335 89.0797 133.335 88.8375C133.335 88.5953 133.401 88.3576 133.525 88.1497C133.649 87.9418 133.828 87.7715 134.041 87.6569C134.883 87.182 135.805 86.8664 136.761 86.726C138.136 86.5087 139.54 86.543 140.903 86.8272C142.589 87.1508 144.209 87.7548 145.696 88.6141C146.725 89.1688 147.618 89.9453 148.31 90.8874C148.613 91.2883 148.823 91.7512 148.926 92.243C149.041 92.8724 149.127 93.504 149.215 94.1377C149.413 95.5638 149.606 96.9898 149.793 98.4158C149.818 98.6283 149.915 98.8258 150.068 98.9748C150.478 99.3819 150.874 99.7978 151.277 100.209C151.329 100.257 151.384 100.302 151.442 100.344C151.477 100.317 151.503 100.306 151.514 100.286C151.525 100.267 151.55 100.194 151.565 100.148C151.776 99.4004 151.917 98.6349 151.985 97.8612C152.14 96.261 151.972 94.646 151.49 93.1123C150.813 90.8971 149.53 88.9153 147.786 87.3906C147.653 87.2762 147.527 87.1542 147.408 87.0253C147.225 86.832 147.109 86.586 147.074 86.3224C147.04 86.0588 147.09 85.7911 147.216 85.5575C147.328 85.3234 147.507 85.1282 147.731 84.9971C147.954 84.8661 148.212 84.8052 148.471 84.8224C148.835 84.8485 149.177 85.0047 149.435 85.2626C151.004 86.5991 152.278 88.2479 153.176 90.104C153.879 91.5459 154.347 93.0913 154.562 94.6813C154.784 96.2972 154.747 97.9383 154.452 99.5425C154.296 100.446 154.046 101.331 153.706 102.183C153.655 102.282 153.641 102.396 153.666 102.504C153.691 102.613 153.754 102.709 153.843 102.775C155.117 104.034 156.378 105.304 157.645 106.569C157.722 106.646 157.808 106.712 157.879 106.776C157.934 106.745 157.964 106.739 157.975 106.721C158.046 106.604 158.118 106.488 158.182 106.364C158.895 104.986 159.449 103.531 159.835 102.027C159.903 101.677 160.096 101.364 160.378 101.147C160.658 100.953 160.994 100.856 161.334 100.872H165.735C165.838 100.46 165.825 92.978 165.719 92.6589H165.328C164.007 92.6589 162.674 92.6589 161.347 92.6589C160.486 92.6589 160.026 92.2804 159.806 91.4574C159.705 91.0591 159.586 90.6629 159.459 90.2712C158.992 88.843 158.378 87.4675 157.625 86.167C157.5 85.9524 157.411 85.718 157.364 85.4738C157.335 85.2557 157.362 85.034 157.441 84.8287C157.52 84.6235 157.649 84.4413 157.817 84.2987C158.781 83.3304 159.741 82.3599 160.698 81.3873C160.79 81.2926 160.876 81.1892 160.935 81.121L155.139 75.3355C155.09 75.3817 154.998 75.4631 154.919 75.5556C153.953 76.5194 152.993 77.4921 152.016 78.445C151.825 78.6243 151.601 78.7649 151.356 78.8587C150.916 79.0282 150.52 78.8829 150.141 78.6563C149.266 78.1195 148.343 77.6664 147.384 77.3029C146.492 76.975 145.584 76.6955 144.677 76.4226C144.456 76.3679 144.253 76.2586 144.086 76.1048C143.919 75.951 143.793 75.7576 143.72 75.5424C143.661 75.3379 143.636 75.1254 143.645 74.913C143.645 73.5596 143.645 72.2084 143.645 70.855C143.645 70.4875 143.623 70.4699 143.269 70.4611H136.015C135.443 70.4611 135.443 70.4611 135.443 71.0398C135.443 72.3602 135.443 73.6806 135.443 74.9856C135.443 75.7734 135.091 76.2179 134.33 76.4248C132.986 76.7774 131.682 77.2624 130.434 77.8728C129.875 78.1545 129.334 78.4626 128.779 78.7531C128.534 78.9087 128.243 78.9789 127.954 78.9526C127.664 78.9263 127.391 78.8051 127.177 78.6078C127.074 78.5176 126.977 78.4186 126.88 78.3218C125.966 77.4078 125.053 76.4945 124.141 75.582C124.048 75.4895 123.945 75.4059 123.821 75.2959L118.01 81.0395C118.157 81.209 118.23 81.3036 118.318 81.3895C118.819 81.8956 119.326 82.3995 119.829 82.9057L121.236 84.3163C121.4 84.4638 121.523 84.6509 121.595 84.8597C121.666 85.0684 121.682 85.292 121.643 85.509C121.589 85.7521 121.496 85.9847 121.368 86.1978C120.405 87.8548 119.675 89.6365 119.198 91.4926C119.092 91.9063 118.912 92.2892 118.503 92.4675C118.24 92.5817 117.959 92.6437 117.673 92.6501C116.352 92.6699 115.032 92.6501 113.694 92.6501C113.56 92.6501 113.426 92.6611 113.316 92.6655C113.293 92.6986 113.275 92.734 113.261 92.7712C113.251 92.8323 113.246 92.8941 113.245 92.956C113.245 95.5131 113.245 98.0688 113.245 100.623C113.248 100.673 113.256 100.722 113.267 100.77C113.267 100.781 113.28 100.79 113.289 100.799C113.307 100.821 113.326 100.841 113.346 100.861H113.721C115.041 100.861 116.361 100.861 117.664 100.861C118.544 100.861 118.984 101.233 119.205 102.089C119.453 103.097 119.796 104.08 120.23 105.024C120.611 105.839 121.038 106.633 121.462 107.427C121.664 107.719 121.75 108.077 121.702 108.429C121.654 108.78 121.476 109.102 121.203 109.329L118.364 112.187C118.271 112.28 118.188 112.383 118.106 112.476C118.364 112.85 123.648 118.116 123.912 118.259C124.004 118.169 124.103 118.076 124.198 117.979C125.099 117.086 125.993 116.193 126.88 115.299C126.899 115.283 126.917 115.265 126.933 115.246C127.536 114.553 128.267 114.516 128.982 114.949C129.893 115.5 130.856 115.958 131.858 116.318C132.703 116.624 133.57 116.875 134.431 117.139C134.632 117.19 134.818 117.29 134.971 117.43C135.125 117.57 135.242 117.746 135.311 117.942C135.381 118.168 135.413 118.405 135.403 118.642C135.403 119.934 135.403 121.223 135.403 122.513C135.403 122.601 135.403 122.689 135.403 122.777C135.417 123.037 135.45 123.067 135.72 123.081C135.769 123.081 135.819 123.081 135.87 123.081H143.231C143.352 123.081 143.473 123.067 143.625 123.059C143.625 122.882 143.649 122.735 143.649 122.59C143.649 121.223 143.649 119.859 143.649 118.494C143.638 118.205 143.721 117.921 143.885 117.683C144.049 117.445 144.286 117.266 144.56 117.174C144.701 117.126 144.846 117.082 145 117.042C146.643 116.596 148.225 115.95 149.71 115.116C149.779 115.067 149.844 115.01 149.901 114.947C149.868 114.9 149.833 114.854 149.796 114.811C148.475 113.503 147.155 112.201 145.856 110.885C145.79 110.812 145.701 110.765 145.603 110.752C145.506 110.739 145.407 110.761 145.324 110.814C143.1 111.746 140.684 112.123 138.282 111.915C135.772 111.725 133.353 110.891 131.26 109.494C127.226 106.8 124.937 103.015 124.424 98.1979C124.15 95.643 124.559 93.0612 125.608 90.7158C126.732 88.1358 128.548 85.9173 130.855 84.3065C133.163 82.6956 135.871 81.7553 138.68 81.5897C138.98 81.5684 139.28 81.5626 139.58 81.5721C139.903 81.5821 140.21 81.7099 140.445 81.9312C140.68 82.1526 140.826 82.4523 140.854 82.7737C140.895 83.094 140.813 83.4179 140.626 83.6811C140.439 83.9443 140.16 84.1278 139.844 84.1953C139.636 84.2371 139.423 84.2571 139.211 84.2547C137.554 84.2966 135.922 84.6708 134.413 85.355C132.365 86.2778 130.603 87.7345 129.311 89.5724C128.02 91.4103 127.246 93.5618 127.072 95.8014C126.843 98.7047 127.633 101.597 129.308 103.98C130.982 106.363 133.435 108.087 136.244 108.856C138.538 109.503 140.972 109.46 143.242 108.735C143.324 108.697 143.407 108.642 143.537 108.585V108.581ZM176.547 127.779L176.617 127.753C176.631 127.66 176.638 127.567 176.639 127.473C176.593 126.872 176.58 126.269 176.483 125.677C176.247 124.318 175.789 123.007 175.127 121.798C174.773 121.09 174.285 120.458 173.69 119.936C173.46 119.721 173.165 119.587 172.852 119.555C172.555 119.535 172.258 119.48 171.96 119.438C170.189 119.183 168.42 118.913 166.646 118.684C166.136 118.628 165.662 118.394 165.308 118.023C160.53 113.254 155.747 108.491 150.96 103.735C149.877 102.656 148.799 101.576 147.712 100.502C147.448 100.266 147.272 99.948 147.21 99.5997C147.065 98.6094 146.926 97.6192 146.787 96.6245C146.629 95.4977 146.455 94.371 146.325 93.2399C146.268 92.7531 146.033 92.3046 145.665 91.9811C145.052 91.4161 144.353 90.9526 143.594 90.6079C142.014 89.8091 140.278 89.3666 138.509 89.3118C138.376 89.3118 138.244 89.3118 138.115 89.325C138.161 89.4259 138.238 89.5098 138.335 89.5648C138.619 89.7497 138.907 89.9235 139.189 90.1128C139.872 90.531 140.488 91.0504 141.015 91.6532C141.944 92.7976 142.276 94.0739 141.92 95.5198C141.563 96.9395 140.788 98.2192 139.695 99.1926C139.129 99.7296 138.451 100.133 137.709 100.373C136.967 100.613 136.181 100.683 135.408 100.579C134.945 100.537 134.499 100.391 134.101 100.152C133.557 99.8176 133 99.4919 132.452 99.175C132.362 99.1332 132.268 99.0979 132.173 99.0694C132.206 99.1453 132.244 99.2189 132.287 99.2894C133.452 100.86 134.701 102.367 136.028 103.803C136.092 103.87 136.169 103.923 136.255 103.958C136.341 103.992 136.433 104.008 136.526 104.003C138.414 104.063 140.302 104.144 142.192 104.188C142.467 104.192 142.737 104.252 142.987 104.366C143.236 104.48 143.46 104.644 143.643 104.848C144.844 106.074 146.063 107.269 147.28 108.49C151.85 113.057 156.423 117.622 160.999 122.185C161.231 122.402 161.415 122.664 161.54 122.955C161.665 123.246 161.729 123.56 161.727 123.877C161.771 125.719 161.868 127.557 161.937 129.399C161.939 129.492 161.961 129.583 162.001 129.667C162.041 129.75 162.099 129.825 162.17 129.885C163.597 131.2 165.093 132.438 166.65 133.595C166.734 133.642 166.821 133.683 166.91 133.718C166.809 133.531 166.756 133.424 166.69 133.318C166.366 132.768 166.03 132.218 165.724 131.665C165.579 131.403 165.473 131.12 165.409 130.827C165.256 130.127 165.255 129.402 165.404 128.701C165.554 128 165.851 127.339 166.276 126.762C167.193 125.512 168.479 124.582 169.953 124.102C170.685 123.83 171.476 123.76 172.244 123.899C173.209 124.097 174.086 124.593 174.753 125.316C175.38 125.957 175.84 126.72 176.32 127.469C176.384 127.572 176.467 127.678 176.542 127.783L176.547 127.779Z" stroke="#1B1B1B" stroke-width="8.80256" mask="url(#path-12-outside-1_2014_71)"/>
<defs>
<linearGradient id="paint0_linear_2014_71" x1="67.5" y1="0" x2="67.5" y2="109.423" gradientUnits="userSpaceOnUse">
<stop stop-color="#68E0CF"/>
<stop offset="1" stop-color="#209CFF"/>
</linearGradient>
<linearGradient id="paint1_linear_2014_71" x1="91.1935" y1="25.2457" x2="91.1935" y2="91.243" gradientUnits="userSpaceOnUse">
<stop stop-color="#68E0CF"/>
<stop offset="1" stop-color="#209CFF"/>
</linearGradient>
<linearGradient id="paint2_linear_2014_71" x1="122.779" y1="25.2893" x2="122.779" y2="34.9382" gradientUnits="userSpaceOnUse">
<stop stop-color="#68E0CF"/>
<stop offset="1" stop-color="#209CFF"/>
</linearGradient>
<linearGradient id="paint3_linear_2014_71" x1="123.544" y1="88.4753" x2="123.544" y2="91.3093" gradientUnits="userSpaceOnUse">
<stop stop-color="#68E0CF"/>
<stop offset="1" stop-color="#209CFF"/>
</linearGradient>
<linearGradient id="paint4_linear_2014_71" x1="123.574" y1="83.5825" x2="123.574" y2="86.3857" gradientUnits="userSpaceOnUse">
<stop stop-color="#68E0CF"/>
<stop offset="1" stop-color="#209CFF"/>
</linearGradient>
<linearGradient id="paint5_linear_2014_71" x1="83.9678" y1="6.06091" x2="83.9678" y2="15.8193" gradientUnits="userSpaceOnUse">
<stop stop-color="#68E0CF"/>
<stop offset="1" stop-color="#209CFF"/>
</linearGradient>
<linearGradient id="paint6_linear_2014_71" x1="71.5382" y1="6.06091" x2="71.5382" y2="15.8191" gradientUnits="userSpaceOnUse">
<stop stop-color="#68E0CF"/>
<stop offset="1" stop-color="#209CFF"/>
</linearGradient>
<linearGradient id="paint7_linear_2014_71" x1="58.9858" y1="6.0575" x2="58.9858" y2="15.8158" gradientUnits="userSpaceOnUse">
<stop stop-color="#68E0CF"/>
<stop offset="1" stop-color="#209CFF"/>
</linearGradient>
<linearGradient id="paint8_linear_2014_71" x1="116.823" y1="5.18872" x2="116.823" y2="16.6545" gradientUnits="userSpaceOnUse">
<stop stop-color="#68E0CF"/>
<stop offset="1" stop-color="#209CFF"/>
</linearGradient>
<linearGradient id="paint9_linear_2014_71" x1="110.757" y1="53.8953" x2="110.757" y2="62.617" gradientUnits="userSpaceOnUse">
<stop stop-color="#68E0CF"/>
<stop offset="1" stop-color="#209CFF"/>
</linearGradient>
<linearGradient id="paint10_linear_2014_71" x1="110.759" y1="53.8856" x2="110.759" y2="62.6099" gradientUnits="userSpaceOnUse">
<stop stop-color="#68E0CF"/>
<stop offset="1" stop-color="#209CFF"/>
</linearGradient>
<linearGradient id="paint11_linear_2014_71" x1="142.877" y1="67.7651" x2="155.11" y2="135.42" gradientUnits="userSpaceOnUse">
<stop stop-color="#FFBB00"/>
<stop offset="1" stop-color="#FF3300"/>
</linearGradient>
</defs>
</svg>
