<svg width="1040" height="229" viewBox="0 0 1040 229" fill="none" xmlns="http://www.w3.org/2000/svg">
<g id="icon_marcas_parceiras">
<g id="PARCEIRAS">
<mask id="path-1-outside-1_2123_470" maskUnits="userSpaceOnUse" x="6" y="107" width="1033" height="106" fill="black">
<rect fill="white" x="6" y="107" width="1033" height="106"/>
<path d="M7.98 209V111H55.16C64.3067 111 72.1933 112.493 78.82 115.48C85.54 118.467 90.72 122.76 94.36 128.36C98 133.867 99.82 140.4 99.82 147.96C99.82 155.52 98 162.053 94.36 167.56C90.72 173.067 85.54 177.36 78.82 180.44C72.1933 183.427 64.3067 184.92 55.16 184.92H26.32L41.02 170.78V209H7.98ZM41.02 174.42L26.32 159.44H53.06C57.6333 159.44 60.9933 158.413 63.14 156.36C65.38 154.307 66.5 151.507 66.5 147.96C66.5 144.413 65.38 141.613 63.14 139.56C60.9933 137.507 57.6333 136.48 53.06 136.48H26.32L41.02 121.5V174.42ZM116.094 209L158.934 111H191.414L234.254 209H200.094L168.454 126.68H181.334L149.694 209H116.094ZM141.574 191.92L149.974 168.12H195.054L203.454 191.92H141.574ZM260.527 209V111H307.707C316.854 111 324.74 112.493 331.367 115.48C338.087 118.467 343.267 122.76 346.907 128.36C350.547 133.867 352.367 140.4 352.367 147.96C352.367 155.52 350.547 162.053 346.907 167.56C343.267 172.973 338.087 177.127 331.367 180.02C324.74 182.913 316.854 184.36 307.707 184.36H278.867L293.567 170.78V209H260.527ZM319.187 209L295.107 173.3H330.107L354.467 209H319.187ZM293.567 174.42L278.867 159.44H305.607C310.18 159.44 313.54 158.413 315.687 156.36C317.927 154.307 319.047 151.507 319.047 147.96C319.047 144.413 317.927 141.613 315.687 139.56C313.54 137.507 310.18 136.48 305.607 136.48H278.867L293.567 121.5V174.42ZM436.523 211.24C428.683 211.24 421.403 210.027 414.683 207.6C408.057 205.08 402.27 201.533 397.323 196.96C392.47 192.387 388.69 186.973 385.983 180.72C383.277 174.467 381.923 167.56 381.923 160C381.923 152.44 383.277 145.533 385.983 139.28C388.69 133.027 392.47 127.613 397.323 123.04C402.27 118.467 408.057 114.967 414.683 112.54C421.403 110.02 428.683 108.76 436.523 108.76C446.137 108.76 454.63 110.44 462.003 113.8C469.47 117.16 475.63 122.013 480.483 128.36L459.623 146.98C456.73 143.34 453.51 140.54 449.963 138.58C446.51 136.527 442.59 135.5 438.203 135.5C434.75 135.5 431.623 136.06 428.823 137.18C426.023 138.3 423.597 139.933 421.543 142.08C419.583 144.227 418.043 146.84 416.923 149.92C415.803 152.907 415.243 156.267 415.243 160C415.243 163.733 415.803 167.14 416.923 170.22C418.043 173.207 419.583 175.773 421.543 177.92C423.597 180.067 426.023 181.7 428.823 182.82C431.623 183.94 434.75 184.5 438.203 184.5C442.59 184.5 446.51 183.52 449.963 181.56C453.51 179.507 456.73 176.66 459.623 173.02L480.483 191.64C475.63 197.893 469.47 202.747 462.003 206.2C454.63 209.56 446.137 211.24 436.523 211.24ZM541.263 147.4H584.943V171.2H541.263V147.4ZM543.503 184.08H592.503V209H511.023V111H590.683V135.92H543.503V184.08ZM626.222 209V111H659.262V209H626.222ZM696.168 209V111H743.348C752.494 111 760.381 112.493 767.008 115.48C773.728 118.467 778.908 122.76 782.548 128.36C786.188 133.867 788.008 140.4 788.008 147.96C788.008 155.52 786.188 162.053 782.548 167.56C778.908 172.973 773.728 177.127 767.008 180.02C760.381 182.913 752.494 184.36 743.348 184.36H714.508L729.208 170.78V209H696.168ZM754.828 209L730.748 173.3H765.748L790.108 209H754.828ZM729.208 174.42L714.508 159.44H741.248C745.821 159.44 749.181 158.413 751.328 156.36C753.568 154.307 754.688 151.507 754.688 147.96C754.688 144.413 753.568 141.613 751.328 139.56C749.181 137.507 745.821 136.48 741.248 136.48H714.508L729.208 121.5V174.42ZM810.844 209L853.684 111H886.164L929.004 209H894.844L863.204 126.68H876.084L844.444 209H810.844ZM836.324 191.92L844.724 168.12H889.804L898.204 191.92H836.324ZM991.817 211.24C983.604 211.24 975.67 210.307 968.017 208.44C960.364 206.573 954.064 204.147 949.117 201.16L959.757 177.08C964.424 179.787 969.604 181.98 975.297 183.66C981.084 185.247 986.684 186.04 992.097 186.04C995.27 186.04 997.744 185.853 999.517 185.48C1001.38 185.013 1002.74 184.407 1003.58 183.66C1004.42 182.82 1004.84 181.84 1004.84 180.72C1004.84 178.947 1003.86 177.547 1001.9 176.52C999.937 175.493 997.324 174.653 994.057 174C990.884 173.253 987.384 172.507 983.557 171.76C979.73 170.92 975.857 169.847 971.937 168.54C968.11 167.233 964.564 165.507 961.297 163.36C958.124 161.213 955.557 158.413 953.597 154.96C951.637 151.413 950.657 147.027 950.657 141.8C950.657 135.733 952.337 130.227 955.697 125.28C959.15 120.24 964.237 116.227 970.957 113.24C977.77 110.253 986.217 108.76 996.297 108.76C1002.92 108.76 1009.46 109.46 1015.9 110.86C1022.34 112.26 1028.12 114.407 1033.26 117.3L1023.32 141.24C1018.46 138.813 1013.75 136.993 1009.18 135.78C1004.7 134.567 1000.31 133.96 996.017 133.96C992.844 133.96 990.324 134.24 988.457 134.8C986.59 135.36 985.237 136.107 984.397 137.04C983.65 137.973 983.277 139 983.277 140.12C983.277 141.8 984.257 143.153 986.217 144.18C988.177 145.113 990.744 145.907 993.917 146.56C997.184 147.213 1000.73 147.913 1004.56 148.66C1008.48 149.407 1012.35 150.433 1016.18 151.74C1020 153.047 1023.5 154.773 1026.68 156.92C1029.94 159.067 1032.56 161.867 1034.52 165.32C1036.48 168.773 1037.46 173.067 1037.46 178.2C1037.46 184.173 1035.73 189.68 1032.28 194.72C1028.92 199.667 1023.88 203.68 1017.16 206.76C1010.44 209.747 1001.99 211.24 991.817 211.24Z"/>
</mask>
<path d="M7.98 209V111H55.16C64.3067 111 72.1933 112.493 78.82 115.48C85.54 118.467 90.72 122.76 94.36 128.36C98 133.867 99.82 140.4 99.82 147.96C99.82 155.52 98 162.053 94.36 167.56C90.72 173.067 85.54 177.36 78.82 180.44C72.1933 183.427 64.3067 184.92 55.16 184.92H26.32L41.02 170.78V209H7.98ZM41.02 174.42L26.32 159.44H53.06C57.6333 159.44 60.9933 158.413 63.14 156.36C65.38 154.307 66.5 151.507 66.5 147.96C66.5 144.413 65.38 141.613 63.14 139.56C60.9933 137.507 57.6333 136.48 53.06 136.48H26.32L41.02 121.5V174.42ZM116.094 209L158.934 111H191.414L234.254 209H200.094L168.454 126.68H181.334L149.694 209H116.094ZM141.574 191.92L149.974 168.12H195.054L203.454 191.92H141.574ZM260.527 209V111H307.707C316.854 111 324.74 112.493 331.367 115.48C338.087 118.467 343.267 122.76 346.907 128.36C350.547 133.867 352.367 140.4 352.367 147.96C352.367 155.52 350.547 162.053 346.907 167.56C343.267 172.973 338.087 177.127 331.367 180.02C324.74 182.913 316.854 184.36 307.707 184.36H278.867L293.567 170.78V209H260.527ZM319.187 209L295.107 173.3H330.107L354.467 209H319.187ZM293.567 174.42L278.867 159.44H305.607C310.18 159.44 313.54 158.413 315.687 156.36C317.927 154.307 319.047 151.507 319.047 147.96C319.047 144.413 317.927 141.613 315.687 139.56C313.54 137.507 310.18 136.48 305.607 136.48H278.867L293.567 121.5V174.42ZM436.523 211.24C428.683 211.24 421.403 210.027 414.683 207.6C408.057 205.08 402.27 201.533 397.323 196.96C392.47 192.387 388.69 186.973 385.983 180.72C383.277 174.467 381.923 167.56 381.923 160C381.923 152.44 383.277 145.533 385.983 139.28C388.69 133.027 392.47 127.613 397.323 123.04C402.27 118.467 408.057 114.967 414.683 112.54C421.403 110.02 428.683 108.76 436.523 108.76C446.137 108.76 454.63 110.44 462.003 113.8C469.47 117.16 475.63 122.013 480.483 128.36L459.623 146.98C456.73 143.34 453.51 140.54 449.963 138.58C446.51 136.527 442.59 135.5 438.203 135.5C434.75 135.5 431.623 136.06 428.823 137.18C426.023 138.3 423.597 139.933 421.543 142.08C419.583 144.227 418.043 146.84 416.923 149.92C415.803 152.907 415.243 156.267 415.243 160C415.243 163.733 415.803 167.14 416.923 170.22C418.043 173.207 419.583 175.773 421.543 177.92C423.597 180.067 426.023 181.7 428.823 182.82C431.623 183.94 434.75 184.5 438.203 184.5C442.59 184.5 446.51 183.52 449.963 181.56C453.51 179.507 456.73 176.66 459.623 173.02L480.483 191.64C475.63 197.893 469.47 202.747 462.003 206.2C454.63 209.56 446.137 211.24 436.523 211.24ZM541.263 147.4H584.943V171.2H541.263V147.4ZM543.503 184.08H592.503V209H511.023V111H590.683V135.92H543.503V184.08ZM626.222 209V111H659.262V209H626.222ZM696.168 209V111H743.348C752.494 111 760.381 112.493 767.008 115.48C773.728 118.467 778.908 122.76 782.548 128.36C786.188 133.867 788.008 140.4 788.008 147.96C788.008 155.52 786.188 162.053 782.548 167.56C778.908 172.973 773.728 177.127 767.008 180.02C760.381 182.913 752.494 184.36 743.348 184.36H714.508L729.208 170.78V209H696.168ZM754.828 209L730.748 173.3H765.748L790.108 209H754.828ZM729.208 174.42L714.508 159.44H741.248C745.821 159.44 749.181 158.413 751.328 156.36C753.568 154.307 754.688 151.507 754.688 147.96C754.688 144.413 753.568 141.613 751.328 139.56C749.181 137.507 745.821 136.48 741.248 136.48H714.508L729.208 121.5V174.42ZM810.844 209L853.684 111H886.164L929.004 209H894.844L863.204 126.68H876.084L844.444 209H810.844ZM836.324 191.92L844.724 168.12H889.804L898.204 191.92H836.324ZM991.817 211.24C983.604 211.24 975.67 210.307 968.017 208.44C960.364 206.573 954.064 204.147 949.117 201.16L959.757 177.08C964.424 179.787 969.604 181.98 975.297 183.66C981.084 185.247 986.684 186.04 992.097 186.04C995.27 186.04 997.744 185.853 999.517 185.48C1001.38 185.013 1002.74 184.407 1003.58 183.66C1004.42 182.82 1004.84 181.84 1004.84 180.72C1004.84 178.947 1003.86 177.547 1001.9 176.52C999.937 175.493 997.324 174.653 994.057 174C990.884 173.253 987.384 172.507 983.557 171.76C979.73 170.92 975.857 169.847 971.937 168.54C968.11 167.233 964.564 165.507 961.297 163.36C958.124 161.213 955.557 158.413 953.597 154.96C951.637 151.413 950.657 147.027 950.657 141.8C950.657 135.733 952.337 130.227 955.697 125.28C959.15 120.24 964.237 116.227 970.957 113.24C977.77 110.253 986.217 108.76 996.297 108.76C1002.92 108.76 1009.46 109.46 1015.9 110.86C1022.34 112.26 1028.12 114.407 1033.26 117.3L1023.32 141.24C1018.46 138.813 1013.75 136.993 1009.18 135.78C1004.7 134.567 1000.31 133.96 996.017 133.96C992.844 133.96 990.324 134.24 988.457 134.8C986.59 135.36 985.237 136.107 984.397 137.04C983.65 137.973 983.277 139 983.277 140.12C983.277 141.8 984.257 143.153 986.217 144.18C988.177 145.113 990.744 145.907 993.917 146.56C997.184 147.213 1000.73 147.913 1004.56 148.66C1008.48 149.407 1012.35 150.433 1016.18 151.74C1020 153.047 1023.5 154.773 1026.68 156.92C1029.94 159.067 1032.56 161.867 1034.52 165.32C1036.48 168.773 1037.46 173.067 1037.46 178.2C1037.46 184.173 1035.73 189.68 1032.28 194.72C1028.92 199.667 1023.88 203.68 1017.16 206.76C1010.44 209.747 1001.99 211.24 991.817 211.24Z" fill="#F2F2F2"/>
<path d="M7.98 209H6.98V210H7.98V209ZM7.98 111V110H6.98V111H7.98ZM78.82 115.48L78.4091 116.392L78.4139 116.394L78.82 115.48ZM94.36 128.36L93.5215 128.905L93.5258 128.911L94.36 128.36ZM94.36 167.56L93.5258 167.009L94.36 167.56ZM78.82 180.44L79.2309 181.352L79.2367 181.349L78.82 180.44ZM26.32 184.92L25.6268 184.199L23.8379 185.92H26.32V184.92ZM41.02 170.78H42.02V168.431L40.3268 170.059L41.02 170.78ZM41.02 209V210H42.02V209H41.02ZM41.02 174.42L40.3063 175.12L42.02 176.867V174.42H41.02ZM26.32 159.44V158.44H23.9376L25.6063 160.14L26.32 159.44ZM63.14 156.36L62.4643 155.623L62.4565 155.63L62.4488 155.637L63.14 156.36ZM63.14 139.56L62.4488 140.283L62.4565 140.29L62.4643 140.297L63.14 139.56ZM26.32 136.48L25.6063 135.78L23.9376 137.48H26.32V136.48ZM41.02 121.5H42.02V119.053L40.3063 120.8L41.02 121.5ZM7.98 209H8.98V111H7.98H6.98V209H7.98ZM7.98 111V112H55.16V111V110H7.98V111ZM55.16 111V112C64.2004 112 71.9404 113.476 78.4091 116.392L78.82 115.48L79.2309 114.568C72.4463 111.51 64.4129 110 55.16 110V111ZM78.82 115.48L78.4139 116.394C84.9757 119.31 89.9975 123.483 93.5216 128.905L94.36 128.36L95.1984 127.815C91.4425 122.037 86.1043 117.623 79.2261 114.566L78.82 115.48ZM94.36 128.36L93.5258 128.911C97.0426 134.232 98.82 140.567 98.82 147.96H99.82H100.82C100.82 140.233 98.9575 133.502 95.1942 127.809L94.36 128.36ZM99.82 147.96H98.82C98.82 155.353 97.0426 161.688 93.5258 167.009L94.36 167.56L95.1942 168.111C98.9575 162.418 100.82 155.687 100.82 147.96H99.82ZM94.36 167.56L93.5258 167.009C90.0008 172.341 84.9744 176.519 78.4034 179.531L78.82 180.44L79.2367 181.349C86.1056 178.201 91.4392 173.792 95.1942 168.111L94.36 167.56ZM78.82 180.44L78.4091 179.528C71.9404 182.444 64.2004 183.92 55.16 183.92V184.92V185.92C64.4129 185.92 72.4463 184.41 79.2309 181.352L78.82 180.44ZM55.16 184.92V183.92H26.32V184.92V185.92H55.16V184.92ZM26.32 184.92L27.0132 185.641L41.7132 171.501L41.02 170.78L40.3268 170.059L25.6268 184.199L26.32 184.92ZM41.02 170.78H40.02V209H41.02H42.02V170.78H41.02ZM41.02 209V208H7.98V209V210H41.02V209ZM41.02 174.42L41.7337 173.72L27.0337 158.74L26.32 159.44L25.6063 160.14L40.3063 175.12L41.02 174.42ZM26.32 159.44V160.44H53.06V159.44V158.44H26.32V159.44ZM53.06 159.44V160.44C57.7559 160.44 61.4196 159.389 63.8312 157.083L63.14 156.36L62.4488 155.637C60.5671 157.437 57.5108 158.44 53.06 158.44V159.44ZM63.14 156.36L63.8157 157.097C66.2974 154.822 67.5 151.736 67.5 147.96H66.5H65.5C65.5 151.278 64.4626 153.791 62.4643 155.623L63.14 156.36ZM66.5 147.96H67.5C67.5 144.184 66.2974 141.098 63.8157 138.823L63.14 139.56L62.4643 140.297C64.4626 142.129 65.5 144.642 65.5 147.96H66.5ZM63.14 139.56L63.8312 138.837C61.4196 136.531 57.7559 135.48 53.06 135.48V136.48V137.48C57.5108 137.48 60.5671 138.483 62.4488 140.283L63.14 139.56ZM53.06 136.48V135.48H26.32V136.48V137.48H53.06V136.48ZM26.32 136.48L27.0337 137.18L41.7337 122.2L41.02 121.5L40.3063 120.8L25.6063 135.78L26.32 136.48ZM41.02 121.5H40.02V174.42H41.02H42.02V121.5H41.02ZM116.094 209L115.178 208.599L114.565 210H116.094V209ZM158.934 111V110H158.28L158.018 110.599L158.934 111ZM191.414 111L192.33 110.599L192.068 110H191.414V111ZM234.254 209V210H235.782L235.17 208.599L234.254 209ZM200.094 209L199.16 209.359L199.407 210H200.094V209ZM168.454 126.68V125.68H166.998L167.52 127.039L168.454 126.68ZM181.334 126.68L182.267 127.039L182.79 125.68H181.334V126.68ZM149.694 209V210H150.381L150.627 209.359L149.694 209ZM141.574 191.92L140.631 191.587L140.161 192.92H141.574V191.92ZM149.974 168.12V167.12H149.266L149.031 167.787L149.974 168.12ZM195.054 168.12L195.997 167.787L195.761 167.12H195.054V168.12ZM203.454 191.92V192.92H204.867L204.397 191.587L203.454 191.92ZM116.094 209L117.01 209.401L159.85 111.401L158.934 111L158.018 110.599L115.178 208.599L116.094 209ZM158.934 111V112H191.414V111V110H158.934V111ZM191.414 111L190.498 111.401L233.338 209.401L234.254 209L235.17 208.599L192.33 110.599L191.414 111ZM234.254 209V208H200.094V209V210H234.254V209ZM200.094 209L201.027 208.641L169.387 126.321L168.454 126.68L167.52 127.039L199.16 209.359L200.094 209ZM168.454 126.68V127.68H181.334V126.68V125.68H168.454V126.68ZM181.334 126.68L180.4 126.321L148.76 208.641L149.694 209L150.627 209.359L182.267 127.039L181.334 126.68ZM149.694 209V208H116.094V209V210H149.694V209ZM141.574 191.92L142.517 192.253L150.917 168.453L149.974 168.12L149.031 167.787L140.631 191.587L141.574 191.92ZM149.974 168.12V169.12H195.054V168.12V167.12H149.974V168.12ZM195.054 168.12L194.111 168.453L202.511 192.253L203.454 191.92L204.397 191.587L195.997 167.787L195.054 168.12ZM203.454 191.92V190.92H141.574V191.92V192.92H203.454V191.92ZM260.527 209H259.527V210H260.527V209ZM260.527 111V110H259.527V111H260.527ZM331.367 115.48L330.956 116.392L330.961 116.394L331.367 115.48ZM346.907 128.36L346.068 128.905L346.073 128.911L346.907 128.36ZM346.907 167.56L347.737 168.118L347.741 168.111L346.907 167.56ZM331.367 180.02L330.971 179.102L330.967 179.104L331.367 180.02ZM278.867 184.36L278.188 183.625L276.311 185.36H278.867V184.36ZM293.567 170.78H294.567V168.495L292.888 170.045L293.567 170.78ZM293.567 209V210H294.567V209H293.567ZM319.187 209L318.358 209.559L318.655 210H319.187V209ZM295.107 173.3V172.3H293.226L294.278 173.859L295.107 173.3ZM330.107 173.3L330.933 172.736L330.635 172.3H330.107V173.3ZM354.467 209V210H356.36L355.293 208.436L354.467 209ZM293.567 174.42L292.853 175.12L294.567 176.867V174.42H293.567ZM278.867 159.44V158.44H276.484L278.153 160.14L278.867 159.44ZM315.687 156.36L315.011 155.623L315.003 155.63L314.996 155.637L315.687 156.36ZM315.687 139.56L314.996 140.283L315.003 140.29L315.011 140.297L315.687 139.56ZM278.867 136.48L278.153 135.78L276.484 137.48H278.867V136.48ZM293.567 121.5H294.567V119.053L292.853 120.8L293.567 121.5ZM260.527 209H261.527V111H260.527H259.527V209H260.527ZM260.527 111V112H307.707V111V110H260.527V111ZM307.707 111V112C316.747 112 324.487 113.476 330.956 116.392L331.367 115.48L331.778 114.568C324.993 111.51 316.96 110 307.707 110V111ZM331.367 115.48L330.961 116.394C337.523 119.31 342.544 123.483 346.068 128.905L346.907 128.36L347.745 127.815C343.989 122.037 338.651 117.623 331.773 114.566L331.367 115.48ZM346.907 128.36L346.073 128.911C349.589 134.232 351.367 140.567 351.367 147.96H352.367H353.367C353.367 140.233 351.504 133.502 347.741 127.809L346.907 128.36ZM352.367 147.96H351.367C351.367 155.353 349.589 161.688 346.073 167.009L346.907 167.56L347.741 168.111C351.504 162.418 353.367 155.687 353.367 147.96H352.367ZM346.907 167.56L346.077 167.002C342.557 172.237 337.537 176.275 330.971 179.102L331.367 180.02L331.762 180.938C338.637 177.979 343.977 173.71 347.737 168.118L346.907 167.56ZM331.367 180.02L330.967 179.104C324.495 181.929 316.751 183.36 307.707 183.36V184.36V185.36C316.956 185.36 324.985 183.897 331.767 180.936L331.367 180.02ZM307.707 184.36V183.36H278.867V184.36V185.36H307.707V184.36ZM278.867 184.36L279.545 185.095L294.245 171.515L293.567 170.78L292.888 170.045L278.188 183.625L278.867 184.36ZM293.567 170.78H292.567V209H293.567H294.567V170.78H293.567ZM293.567 209V208H260.527V209V210H293.567V209ZM319.187 209L320.016 208.441L295.936 172.741L295.107 173.3L294.278 173.859L318.358 209.559L319.187 209ZM295.107 173.3V174.3H330.107V173.3V172.3H295.107V173.3ZM330.107 173.3L329.281 173.864L353.641 209.564L354.467 209L355.293 208.436L330.933 172.736L330.107 173.3ZM354.467 209V208H319.187V209V210H354.467V209ZM293.567 174.42L294.281 173.72L279.581 158.74L278.867 159.44L278.153 160.14L292.853 175.12L293.567 174.42ZM278.867 159.44V160.44H305.607V159.44V158.44H278.867V159.44ZM305.607 159.44V160.44C310.303 160.44 313.966 159.389 316.378 157.083L315.687 156.36L314.996 155.637C313.114 157.437 310.058 158.44 305.607 158.44V159.44ZM315.687 156.36L316.363 157.097C318.844 154.822 320.047 151.736 320.047 147.96H319.047H318.047C318.047 151.278 317.01 153.791 315.011 155.623L315.687 156.36ZM319.047 147.96H320.047C320.047 144.184 318.844 141.098 316.363 138.823L315.687 139.56L315.011 140.297C317.01 142.129 318.047 144.642 318.047 147.96H319.047ZM315.687 139.56L316.378 138.837C313.966 136.531 310.303 135.48 305.607 135.48V136.48V137.48C310.058 137.48 313.114 138.483 314.996 140.283L315.687 139.56ZM305.607 136.48V135.48H278.867V136.48V137.48H305.607V136.48ZM278.867 136.48L279.581 137.18L294.281 122.2L293.567 121.5L292.853 120.8L278.153 135.78L278.867 136.48ZM293.567 121.5H292.567V174.42H293.567H294.567V121.5H293.567ZM414.683 207.6L414.328 208.535L414.336 208.538L414.344 208.541L414.683 207.6ZM397.323 196.96L396.637 197.688L396.644 197.694L397.323 196.96ZM385.983 180.72L385.066 181.117L385.983 180.72ZM385.983 139.28L385.066 138.883L385.983 139.28ZM397.323 123.04L396.644 122.306L396.637 122.312L397.323 123.04ZM414.683 112.54L415.027 113.479L415.034 113.476L414.683 112.54ZM462.003 113.8L461.589 114.71L461.593 114.712L462.003 113.8ZM480.483 128.36L481.149 129.106L481.841 128.489L481.278 127.753L480.483 128.36ZM459.623 146.98L458.84 147.602L459.499 148.431L460.289 147.726L459.623 146.98ZM449.963 138.58L449.452 139.44L449.466 139.448L449.48 139.455L449.963 138.58ZM428.823 137.18L429.195 138.108L428.823 137.18ZM421.543 142.08L420.821 141.389L420.813 141.397L420.805 141.406L421.543 142.08ZM416.923 149.92L417.86 150.271L417.863 150.262L416.923 149.92ZM416.923 170.22L415.983 170.562L415.987 170.571L416.923 170.22ZM421.543 177.92L420.805 178.594L420.813 178.603L420.821 178.611L421.543 177.92ZM428.823 182.82L428.452 183.748L428.823 182.82ZM449.963 181.56L450.457 182.43L450.464 182.425L449.963 181.56ZM459.623 173.02L460.289 172.274L459.499 171.569L458.84 172.398L459.623 173.02ZM480.483 191.64L481.273 192.253L481.846 191.516L481.149 190.894L480.483 191.64ZM462.003 206.2L462.418 207.11L462.423 207.108L462.003 206.2ZM436.523 211.24V210.24C428.788 210.24 421.624 209.043 415.023 206.659L414.683 207.6L414.344 208.541C421.183 211.01 428.579 212.24 436.523 212.24V211.24ZM414.683 207.6L415.039 206.665C408.525 204.188 402.85 200.708 398.002 196.226L397.323 196.96L396.644 197.694C401.69 202.359 407.588 205.972 414.328 208.535L414.683 207.6ZM397.323 196.96L398.009 196.232C393.257 191.754 389.555 186.454 386.901 180.323L385.983 180.72L385.066 181.117C387.825 187.493 391.683 193.019 396.637 197.688L397.323 196.96ZM385.983 180.72L386.901 180.323C384.254 174.208 382.923 167.438 382.923 160H381.923H380.923C380.923 167.682 382.299 174.725 385.066 181.117L385.983 180.72ZM381.923 160H382.923C382.923 152.562 384.254 145.792 386.901 139.677L385.983 139.28L385.066 138.883C382.299 145.275 380.923 152.318 380.923 160H381.923ZM385.983 139.28L386.901 139.677C389.555 133.546 393.257 128.246 398.009 123.768L397.323 123.04L396.637 122.312C391.683 126.981 387.825 132.507 385.066 138.883L385.983 139.28ZM397.323 123.04L398.002 123.774C402.847 119.295 408.519 115.862 415.027 113.479L414.683 112.54L414.339 111.601C407.595 114.071 401.693 117.638 396.644 122.306L397.323 123.04ZM414.683 112.54L415.034 113.476C421.632 111.002 428.792 109.76 436.523 109.76V108.76V107.76C428.574 107.76 421.174 109.038 414.332 111.604L414.683 112.54ZM436.523 108.76V109.76C446.02 109.76 454.367 111.419 461.589 114.71L462.003 113.8L462.418 112.89C454.892 109.461 446.253 107.76 436.523 107.76V108.76ZM462.003 113.8L461.593 114.712C468.912 118.006 474.939 122.756 479.689 128.967L480.483 128.36L481.278 127.753C476.321 121.271 470.028 116.314 462.414 112.888L462.003 113.8ZM480.483 128.36L479.817 127.614L458.957 146.234L459.623 146.98L460.289 147.726L481.149 129.106L480.483 128.36ZM459.623 146.98L460.406 146.358C457.443 142.63 454.125 139.737 450.447 137.705L449.963 138.58L449.48 139.455C452.895 141.343 456.017 144.05 458.84 147.602L459.623 146.98ZM449.963 138.58L450.474 137.72C446.852 135.567 442.753 134.5 438.203 134.5V135.5V136.5C442.427 136.5 446.168 137.486 449.452 139.44L449.963 138.58ZM438.203 135.5V134.5C434.641 134.5 431.386 135.078 428.452 136.252L428.823 137.18L429.195 138.108C431.861 137.042 434.859 136.5 438.203 136.5V135.5ZM428.823 137.18L428.452 136.252C425.521 137.424 422.974 139.137 420.821 141.389L421.543 142.08L422.266 142.771C424.219 140.729 426.525 139.176 429.195 138.108L428.823 137.18ZM421.543 142.08L420.805 141.406C418.746 143.661 417.143 146.391 415.983 149.578L416.923 149.92L417.863 150.262C418.944 147.289 420.421 144.793 422.282 142.754L421.543 142.08ZM416.923 149.92L415.987 149.569C414.818 152.685 414.243 156.167 414.243 160H415.243H416.243C416.243 156.367 416.788 153.128 417.86 150.271L416.923 149.92ZM415.243 160H414.243C414.243 163.834 414.819 167.358 415.983 170.562L416.923 170.22L417.863 169.878C416.788 166.922 416.243 163.633 416.243 160H415.243ZM416.923 170.22L415.987 170.571C417.147 173.665 418.751 176.345 420.805 178.594L421.543 177.92L422.282 177.246C420.416 175.202 418.939 172.748 417.86 169.869L416.923 170.22ZM421.543 177.92L420.821 178.611C422.974 180.863 425.521 182.576 428.452 183.748L428.823 182.82L429.195 181.892C426.525 180.824 424.219 179.271 422.266 177.229L421.543 177.92ZM428.823 182.82L428.452 183.748C431.386 184.922 434.641 185.5 438.203 185.5V184.5V183.5C434.859 183.5 431.861 182.958 429.195 181.892L428.823 182.82ZM438.203 184.5V185.5C442.744 185.5 446.838 184.484 450.457 182.43L449.963 181.56L449.47 180.69C446.182 182.556 442.435 183.5 438.203 183.5V184.5ZM449.963 181.56L450.464 182.425C454.133 180.302 457.445 177.367 460.406 173.642L459.623 173.02L458.84 172.398C456.015 175.953 452.887 178.712 449.462 180.695L449.963 181.56ZM459.623 173.02L458.957 173.766L479.817 192.386L480.483 191.64L481.149 190.894L460.289 172.274L459.623 173.02ZM480.483 191.64L479.693 191.027C474.942 197.149 468.911 201.903 461.583 205.292L462.003 206.2L462.423 207.108C470.029 203.59 476.318 198.638 481.273 192.253L480.483 191.64ZM462.003 206.2L461.589 205.29C454.367 208.581 446.02 210.24 436.523 210.24V211.24V212.24C446.253 212.24 454.892 210.539 462.418 207.11L462.003 206.2ZM541.263 147.4V146.4H540.263V147.4H541.263ZM584.943 147.4H585.943V146.4H584.943V147.4ZM584.943 171.2V172.2H585.943V171.2H584.943ZM541.263 171.2H540.263V172.2H541.263V171.2ZM543.503 184.08H542.503V185.08H543.503V184.08ZM592.503 184.08H593.503V183.08H592.503V184.08ZM592.503 209V210H593.503V209H592.503ZM511.023 209H510.023V210H511.023V209ZM511.023 111V110H510.023V111H511.023ZM590.683 111H591.683V110H590.683V111ZM590.683 135.92V136.92H591.683V135.92H590.683ZM543.503 135.92V134.92H542.503V135.92H543.503ZM541.263 147.4V148.4H584.943V147.4V146.4H541.263V147.4ZM584.943 147.4H583.943V171.2H584.943H585.943V147.4H584.943ZM584.943 171.2V170.2H541.263V171.2V172.2H584.943V171.2ZM541.263 171.2H542.263V147.4H541.263H540.263V171.2H541.263ZM543.503 184.08V185.08H592.503V184.08V183.08H543.503V184.08ZM592.503 184.08H591.503V209H592.503H593.503V184.08H592.503ZM592.503 209V208H511.023V209V210H592.503V209ZM511.023 209H512.023V111H511.023H510.023V209H511.023ZM511.023 111V112H590.683V111V110H511.023V111ZM590.683 111H589.683V135.92H590.683H591.683V111H590.683ZM590.683 135.92V134.92H543.503V135.92V136.92H590.683V135.92ZM543.503 135.92H542.503V184.08H543.503H544.503V135.92H543.503ZM626.222 209H625.222V210H626.222V209ZM626.222 111V110H625.222V111H626.222ZM659.262 111H660.262V110H659.262V111ZM659.262 209V210H660.262V209H659.262ZM626.222 209H627.222V111H626.222H625.222V209H626.222ZM626.222 111V112H659.262V111V110H626.222V111ZM659.262 111H658.262V209H659.262H660.262V111H659.262ZM659.262 209V208H626.222V209V210H659.262V209ZM696.167 209H695.167V210H696.167V209ZM696.167 111V110H695.167V111H696.167ZM767.008 115.48L766.597 116.392L766.601 116.394L767.008 115.48ZM782.547 128.36L781.709 128.905L781.713 128.911L782.547 128.36ZM782.547 167.56L783.377 168.118L783.382 168.111L782.547 167.56ZM767.008 180.02L766.612 179.102L766.607 179.104L767.008 180.02ZM714.508 184.36L713.829 183.625L711.951 185.36H714.508V184.36ZM729.208 170.78H730.208V168.495L728.529 170.045L729.208 170.78ZM729.208 209V210H730.208V209H729.208ZM754.828 209L753.998 209.559L754.296 210H754.828V209ZM730.747 173.3V172.3H728.867L729.918 173.859L730.747 173.3ZM765.747 173.3L766.574 172.736L766.276 172.3H765.747V173.3ZM790.107 209V210H792L790.934 208.436L790.107 209ZM729.208 174.42L728.494 175.12L730.208 176.867V174.42H729.208ZM714.508 159.44V158.44H712.125L713.794 160.14L714.508 159.44ZM751.328 156.36L750.652 155.623L750.644 155.63L750.636 155.637L751.328 156.36ZM751.328 139.56L750.636 140.283L750.644 140.29L750.652 140.297L751.328 139.56ZM714.508 136.48L713.794 135.78L712.125 137.48H714.508V136.48ZM729.208 121.5H730.208V119.053L728.494 120.8L729.208 121.5ZM696.167 209H697.167V111H696.167H695.167V209H696.167ZM696.167 111V112H743.347V111V110H696.167V111ZM743.347 111V112C752.388 112 760.128 113.476 766.597 116.392L767.008 115.48L767.418 114.568C760.634 111.51 752.6 110 743.347 110V111ZM767.008 115.48L766.601 116.394C773.163 119.31 778.185 123.483 781.709 128.905L782.547 128.36L783.386 127.815C779.63 122.037 774.292 117.623 767.414 114.566L767.008 115.48ZM782.547 128.36L781.713 128.911C785.23 134.232 787.008 140.567 787.008 147.96H788.008H789.008C789.008 140.233 787.145 133.502 783.382 127.809L782.547 128.36ZM788.008 147.96H787.008C787.008 155.353 785.23 161.688 781.713 167.009L782.547 167.56L783.382 168.111C787.145 162.418 789.008 155.687 789.008 147.96H788.008ZM782.547 167.56L781.718 167.002C778.198 172.237 773.178 176.275 766.612 179.102L767.008 180.02L767.403 180.938C774.277 177.979 779.617 173.71 783.377 168.118L782.547 167.56ZM767.008 180.02L766.607 179.104C760.136 181.929 752.392 183.36 743.347 183.36V184.36V185.36C752.597 185.36 760.626 183.897 767.408 180.936L767.008 180.02ZM743.347 184.36V183.36H714.508V184.36V185.36H743.347V184.36ZM714.508 184.36L715.186 185.095L729.886 171.515L729.208 170.78L728.529 170.045L713.829 183.625L714.508 184.36ZM729.208 170.78H728.208V209H729.208H730.208V170.78H729.208ZM729.208 209V208H696.167V209V210H729.208V209ZM754.828 209L755.657 208.441L731.577 172.741L730.747 173.3L729.918 173.859L753.998 209.559L754.828 209ZM730.747 173.3V174.3H765.747V173.3V172.3H730.747V173.3ZM765.747 173.3L764.922 173.864L789.281 209.564L790.107 209L790.934 208.436L766.574 172.736L765.747 173.3ZM790.107 209V208H754.828V209V210H790.107V209ZM729.208 174.42L729.921 173.72L715.221 158.74L714.508 159.44L713.794 160.14L728.494 175.12L729.208 174.42ZM714.508 159.44V160.44H741.247V159.44V158.44H714.508V159.44ZM741.247 159.44V160.44C745.943 160.44 749.607 159.389 752.019 157.083L751.328 156.36L750.636 155.637C748.755 157.437 745.698 158.44 741.247 158.44V159.44ZM751.328 156.36L752.003 157.097C754.485 154.822 755.688 151.736 755.688 147.96H754.688H753.688C753.688 151.278 752.65 153.791 750.652 155.623L751.328 156.36ZM754.688 147.96H755.688C755.688 144.184 754.485 141.098 752.003 138.823L751.328 139.56L750.652 140.297C752.65 142.129 753.688 144.642 753.688 147.96H754.688ZM751.328 139.56L752.019 138.837C749.607 136.531 745.943 135.48 741.247 135.48V136.48V137.48C745.698 137.48 748.755 138.483 750.636 140.283L751.328 139.56ZM741.247 136.48V135.48H714.508V136.48V137.48H741.247V136.48ZM714.508 136.48L715.221 137.18L729.921 122.2L729.208 121.5L728.494 120.8L713.794 135.78L714.508 136.48ZM729.208 121.5H728.208V174.42H729.208H730.208V121.5H729.208ZM810.844 209L809.928 208.599L809.315 210H810.844V209ZM853.684 111V110H853.03L852.768 110.599L853.684 111ZM886.164 111L887.08 110.599L886.818 110H886.164V111ZM929.004 209V210H930.532L929.92 208.599L929.004 209ZM894.844 209L893.91 209.359L894.157 210H894.844V209ZM863.204 126.68V125.68H861.748L862.271 127.039L863.204 126.68ZM876.084 126.68L877.017 127.039L877.54 125.68H876.084V126.68ZM844.444 209V210H845.131L845.377 209.359L844.444 209ZM836.324 191.92L835.381 191.587L834.911 192.92H836.324V191.92ZM844.724 168.12V167.12H844.016L843.781 167.787L844.724 168.12ZM889.804 168.12L890.747 167.787L890.511 167.12H889.804V168.12ZM898.204 191.92V192.92H899.617L899.147 191.587L898.204 191.92ZM810.844 209L811.76 209.401L854.6 111.401L853.684 111L852.768 110.599L809.928 208.599L810.844 209ZM853.684 111V112H886.164V111V110H853.684V111ZM886.164 111L885.248 111.401L928.088 209.401L929.004 209L929.92 208.599L887.08 110.599L886.164 111ZM929.004 209V208H894.844V209V210H929.004V209ZM894.844 209L895.777 208.641L864.137 126.321L863.204 126.68L862.271 127.039L893.91 209.359L894.844 209ZM863.204 126.68V127.68H876.084V126.68V125.68H863.204V126.68ZM876.084 126.68L875.151 126.321L843.51 208.641L844.444 209L845.377 209.359L877.017 127.039L876.084 126.68ZM844.444 209V208H810.844V209V210H844.444V209ZM836.324 191.92L837.267 192.253L845.667 168.453L844.724 168.12L843.781 167.787L835.381 191.587L836.324 191.92ZM844.724 168.12V169.12H889.804V168.12V167.12H844.724V168.12ZM889.804 168.12L888.861 168.453L897.261 192.253L898.204 191.92L899.147 191.587L890.747 167.787L889.804 168.12ZM898.204 191.92V190.92H836.324V191.92V192.92H898.204V191.92ZM968.017 208.44L968.254 207.468L968.017 208.44ZM949.117 201.16L948.202 200.756L947.846 201.561L948.6 202.016L949.117 201.16ZM959.757 177.08L960.259 176.215L959.293 175.655L958.842 176.676L959.757 177.08ZM975.297 183.66L975.014 184.619L975.023 184.622L975.032 184.624L975.297 183.66ZM999.517 185.48L999.723 186.459L999.741 186.455L999.759 186.45L999.517 185.48ZM1003.58 183.66L1004.24 184.407L1004.26 184.388L1004.28 184.367L1003.58 183.66ZM1001.9 176.52L1001.43 177.406L1001.9 176.52ZM994.057 174L993.828 174.973L993.844 174.977L993.861 174.981L994.057 174ZM983.557 171.76L983.342 172.737L983.354 172.739L983.365 172.741L983.557 171.76ZM971.937 168.54L971.614 169.486L971.621 169.489L971.937 168.54ZM961.297 163.36L960.737 164.188L960.748 164.196L961.297 163.36ZM953.597 154.96L952.722 155.444L952.727 155.454L953.597 154.96ZM955.697 125.28L954.872 124.715L954.87 124.718L955.697 125.28ZM970.957 113.24L970.555 112.324L970.551 112.326L970.957 113.24ZM1015.9 110.86L1015.68 111.837L1015.9 110.86ZM1033.26 117.3L1034.18 117.683L1034.52 116.864L1033.75 116.429L1033.26 117.3ZM1023.32 141.24L1022.87 142.134L1023.83 142.614L1024.24 141.623L1023.32 141.24ZM1009.18 135.78L1008.92 136.745L1008.92 136.747L1009.18 135.78ZM988.457 134.8L988.17 133.842L988.457 134.8ZM984.397 137.04L983.654 136.371L983.634 136.393L983.616 136.415L984.397 137.04ZM986.217 144.18L985.753 145.066L985.77 145.075L985.787 145.083L986.217 144.18ZM993.917 146.56L993.715 147.539L993.721 147.541L993.917 146.56ZM1004.56 148.66L1004.37 149.641L1004.37 149.642L1004.56 148.66ZM1016.18 151.74L1015.85 152.686L1016.18 151.74ZM1026.68 156.92L1026.12 157.748L1026.13 157.756L1026.68 156.92ZM1034.52 165.32L1033.65 165.814L1034.52 165.32ZM1032.28 194.72L1031.45 194.155L1031.45 194.158L1032.28 194.72ZM1017.16 206.76L1017.56 207.674L1017.57 207.669L1017.16 206.76ZM991.817 211.24V210.24C983.68 210.24 975.826 209.315 968.254 207.468L968.017 208.44L967.78 209.412C975.514 211.298 983.527 212.24 991.817 212.24V211.24ZM968.017 208.44L968.254 207.468C960.666 205.618 954.468 203.223 949.634 200.304L949.117 201.16L948.6 202.016C953.659 205.07 960.061 207.529 967.78 209.412L968.017 208.44ZM949.117 201.16L950.032 201.564L960.672 177.484L959.757 177.08L958.842 176.676L948.202 200.756L949.117 201.16ZM959.757 177.08L959.255 177.945C963.997 180.695 969.252 182.919 975.014 184.619L975.297 183.66L975.58 182.701C969.955 181.041 964.85 178.878 960.259 176.215L959.757 177.08ZM975.297 183.66L975.032 184.624C980.896 186.232 986.585 187.04 992.097 187.04V186.04V185.04C986.782 185.04 981.271 184.261 975.561 182.696L975.297 183.66ZM992.097 186.04V187.04C995.296 187.04 997.85 186.853 999.723 186.459L999.517 185.48L999.311 184.501C997.637 184.854 995.244 185.04 992.097 185.04V186.04ZM999.517 185.48L999.759 186.45C1001.69 185.969 1003.22 185.312 1004.24 184.407L1003.58 183.66L1002.91 182.913C1002.25 183.501 1001.08 184.058 999.274 184.51L999.517 185.48ZM1003.58 183.66L1004.28 184.367C1005.3 183.352 1005.84 182.123 1005.84 180.72H1004.84H1003.84C1003.84 181.557 1003.53 182.288 1002.87 182.953L1003.58 183.66ZM1004.84 180.72H1005.84C1005.84 178.477 1004.55 176.783 1002.36 175.634L1001.9 176.52L1001.43 177.406C1003.16 178.311 1003.84 179.417 1003.84 180.72H1004.84ZM1001.9 176.52L1002.36 175.634C1000.29 174.547 997.571 173.683 994.253 173.019L994.057 174L993.861 174.981C997.076 175.624 999.588 176.44 1001.43 177.406L1001.9 176.52ZM994.057 174L994.286 173.027C991.098 172.276 987.585 171.527 983.748 170.779L983.557 171.76L983.365 172.741C987.182 173.486 990.669 174.23 993.828 174.973L994.057 174ZM983.557 171.76L983.771 170.783C979.981 169.951 976.141 168.887 972.253 167.591L971.937 168.54L971.621 169.489C975.572 170.806 979.48 171.889 983.342 172.737L983.557 171.76ZM971.937 168.54L972.26 167.594C968.51 166.313 965.04 164.623 961.846 162.524L961.297 163.36L960.748 164.196C964.087 166.39 967.71 168.153 971.614 169.486L971.937 168.54ZM961.297 163.36L961.857 162.532C958.816 160.474 956.353 157.791 954.467 154.466L953.597 154.96L952.727 155.454C954.76 159.036 957.431 161.952 960.737 164.188L961.297 163.36ZM953.597 154.96L954.472 154.476C952.614 151.115 951.657 146.905 951.657 141.8H950.657H949.657C949.657 147.148 950.659 151.712 952.722 155.444L953.597 154.96ZM950.657 141.8H951.657C951.657 135.931 953.278 130.62 956.524 125.842L955.697 125.28L954.87 124.718C951.395 129.833 949.657 135.536 949.657 141.8H950.657ZM955.697 125.28L956.522 125.845C959.851 120.986 964.778 117.081 971.363 114.154L970.957 113.24L970.551 112.326C963.696 115.373 958.449 119.494 954.872 124.715L955.697 125.28ZM970.957 113.24L971.358 114.156C978.009 111.241 986.309 109.76 996.297 109.76V108.76V107.76C986.125 107.76 977.532 109.266 970.555 112.324L970.957 113.24ZM996.297 108.76V109.76C1002.85 109.76 1009.31 110.452 1015.68 111.837L1015.9 110.86L1016.11 109.883C1009.6 108.468 1002.99 107.76 996.297 107.76V108.76ZM1015.9 110.86L1015.68 111.837C1022.04 113.218 1027.73 115.332 1032.77 118.171L1033.26 117.3L1033.75 116.429C1028.52 113.481 1022.64 111.302 1016.11 109.883L1015.9 110.86ZM1033.26 117.3L1032.33 116.917L1022.39 140.857L1023.32 141.24L1024.24 141.623L1034.18 117.683L1033.26 117.3ZM1023.32 141.24L1023.76 140.346C1018.86 137.893 1014.08 136.047 1009.43 134.813L1009.18 135.78L1008.92 136.747C1013.42 137.94 1018.07 139.734 1022.87 142.134L1023.32 141.24ZM1009.18 135.78L1009.44 134.815C1004.88 133.58 1000.41 132.96 996.017 132.96V133.96V134.96C1000.22 134.96 1004.51 135.553 1008.92 136.745L1009.18 135.78ZM996.017 133.96V132.96C992.799 132.96 990.169 133.242 988.17 133.842L988.457 134.8L988.744 135.758C990.478 135.238 992.888 134.96 996.017 134.96V133.96ZM988.457 134.8L988.17 133.842C986.216 134.428 984.666 135.246 983.654 136.371L984.397 137.04L985.14 137.709C985.808 136.967 986.964 136.292 988.744 135.758L988.457 134.8ZM984.397 137.04L983.616 136.415C982.738 137.513 982.277 138.757 982.277 140.12H983.277H984.277C984.277 139.243 984.563 138.433 985.178 137.665L984.397 137.04ZM983.277 140.12H982.277C982.277 142.292 983.585 143.93 985.753 145.066L986.217 144.18L986.681 143.294C984.929 142.376 984.277 141.308 984.277 140.12H983.277ZM986.217 144.18L985.787 145.083C987.846 146.063 990.498 146.877 993.715 147.539L993.917 146.56L994.119 145.581C990.99 144.936 988.508 144.163 986.647 143.277L986.217 144.18ZM993.917 146.56L993.721 147.541C996.989 148.194 1000.54 148.895 1004.37 149.641L1004.56 148.66L1004.75 147.679C1000.92 146.932 997.378 146.232 994.113 145.579L993.917 146.56ZM1004.56 148.66L1004.37 149.642C1008.24 150.38 1012.07 151.395 1015.85 152.686L1016.18 151.74L1016.5 150.794C1012.63 149.472 1008.71 148.433 1004.74 147.678L1004.56 148.66ZM1016.18 151.74L1015.85 152.686C1019.6 153.966 1023.02 155.654 1026.12 157.748L1026.68 156.92L1027.24 156.092C1023.99 153.893 1020.41 152.127 1016.5 150.794L1016.18 151.74ZM1026.68 156.92L1026.13 157.756C1029.26 159.814 1031.76 162.496 1033.65 165.814L1034.52 165.32L1035.39 164.826C1033.35 161.238 1030.63 158.319 1027.23 156.084L1026.68 156.92ZM1034.52 165.32L1033.65 165.814C1035.5 169.079 1036.46 173.19 1036.46 178.2H1037.46H1038.46C1038.46 172.943 1037.45 168.468 1035.39 164.826L1034.52 165.32ZM1037.46 178.2H1036.46C1036.46 183.967 1034.79 189.277 1031.45 194.155L1032.28 194.72L1033.1 195.285C1036.67 190.083 1038.46 184.38 1038.46 178.2H1037.46ZM1032.28 194.72L1031.45 194.158C1028.21 198.922 1023.33 202.829 1016.74 205.851L1017.16 206.76L1017.57 207.669C1024.42 204.531 1029.62 200.412 1033.1 195.282L1032.28 194.72ZM1017.16 206.76L1016.75 205.846C1010.2 208.759 1001.9 210.24 991.817 210.24V211.24V212.24C1002.08 212.24 1010.68 210.735 1017.56 207.674L1017.16 206.76Z" fill="#F2F2F2" mask="url(#path-1-outside-1_2123_470)"/>
</g>
<g id="MARCAS">
<mask id="path-3-outside-2_2123_470" maskUnits="userSpaceOnUse" x="150" y="17" width="745" height="108" fill="black">
<rect fill="white" x="150" y="17" width="745" height="108"/>
<path d="M152.98 120V22H180.14L219.34 85.98H205.06L243.14 22H270.3L270.58 120H240.48L240.2 67.36H244.96L218.92 111.18H204.36L177.2 67.36H183.08V120H152.98ZM294.114 120L336.954 22H369.434L412.274 120H378.114L346.474 37.68H359.354L327.714 120H294.114ZM319.594 102.92L327.994 79.12H373.074L381.474 102.92H319.594ZM435.747 120V22H482.927C492.074 22 499.961 23.4933 506.587 26.48C513.307 29.4667 518.487 33.76 522.127 39.36C525.767 44.8667 527.587 51.4 527.587 58.96C527.587 66.52 525.767 73.0533 522.127 78.56C518.487 83.9733 513.307 88.1267 506.587 91.02C499.961 93.9133 492.074 95.36 482.927 95.36H454.087L468.787 81.78V120H435.747ZM494.407 120L470.327 84.3H505.327L529.687 120H494.407ZM468.787 85.42L454.087 70.44H480.827C485.401 70.44 488.761 69.4133 490.907 67.36C493.147 65.3067 494.267 62.5067 494.267 58.96C494.267 55.4133 493.147 52.6133 490.907 50.56C488.761 48.5067 485.401 47.48 480.827 47.48H454.087L468.787 32.5V85.42ZM608.944 122.24C601.104 122.24 593.824 121.027 587.104 118.6C580.477 116.08 574.69 112.533 569.744 107.96C564.89 103.387 561.11 97.9733 558.404 91.72C555.697 85.4667 554.344 78.56 554.344 71C554.344 63.44 555.697 56.5333 558.404 50.28C561.11 44.0267 564.89 38.6133 569.744 34.04C574.69 29.4667 580.477 25.9667 587.104 23.54C593.824 21.02 601.104 19.76 608.944 19.76C618.557 19.76 627.05 21.44 634.424 24.8C641.89 28.16 648.05 33.0133 652.904 39.36L632.044 57.98C629.15 54.34 625.93 51.54 622.384 49.58C618.93 47.5267 615.01 46.5 610.624 46.5C607.17 46.5 604.044 47.06 601.244 48.18C598.444 49.3 596.017 50.9333 593.964 53.08C592.004 55.2267 590.464 57.84 589.344 60.92C588.224 63.9067 587.664 67.2667 587.664 71C587.664 74.7333 588.224 78.14 589.344 81.22C590.464 84.2067 592.004 86.7733 593.964 88.92C596.017 91.0667 598.444 92.7 601.244 93.82C604.044 94.94 607.17 95.5 610.624 95.5C615.01 95.5 618.93 94.52 622.384 92.56C625.93 90.5067 629.15 87.66 632.044 84.02L652.904 102.64C648.05 108.893 641.89 113.747 634.424 117.2C627.05 120.56 618.557 122.24 608.944 122.24ZM668.636 120L711.476 22H743.956L786.796 120H752.636L720.996 37.68H733.876L702.236 120H668.636ZM694.116 102.92L702.516 79.12H747.596L755.996 102.92H694.116ZM846.809 122.24C838.596 122.24 830.662 121.307 823.009 119.44C815.356 117.573 809.056 115.147 804.109 112.16L814.749 88.08C819.416 90.7867 824.596 92.98 830.289 94.66C836.076 96.2467 841.676 97.04 847.089 97.04C850.262 97.04 852.736 96.8533 854.509 96.48C856.376 96.0133 857.729 95.4067 858.569 94.66C859.409 93.82 859.829 92.84 859.829 91.72C859.829 89.9467 858.849 88.5467 856.889 87.52C854.929 86.4933 852.316 85.6533 849.049 85C845.876 84.2533 842.376 83.5067 838.549 82.76C834.722 81.92 830.849 80.8467 826.929 79.54C823.102 78.2333 819.556 76.5067 816.289 74.36C813.116 72.2133 810.549 69.4133 808.589 65.96C806.629 62.4133 805.649 58.0267 805.649 52.8C805.649 46.7333 807.329 41.2267 810.689 36.28C814.142 31.24 819.229 27.2267 825.949 24.24C832.762 21.2533 841.209 19.76 851.289 19.76C857.916 19.76 864.449 20.46 870.889 21.86C877.329 23.26 883.116 25.4067 888.249 28.3L878.309 52.24C873.456 49.8133 868.742 47.9933 864.169 46.78C859.689 45.5667 855.302 44.96 851.009 44.96C847.836 44.96 845.316 45.24 843.449 45.8C841.582 46.36 840.229 47.1067 839.389 48.04C838.642 48.9733 838.269 50 838.269 51.12C838.269 52.8 839.249 54.1533 841.209 55.18C843.169 56.1133 845.736 56.9067 848.909 57.56C852.176 58.2133 855.722 58.9133 859.549 59.66C863.469 60.4067 867.342 61.4333 871.169 62.74C874.996 64.0467 878.496 65.7733 881.669 67.92C884.936 70.0667 887.549 72.8667 889.509 76.32C891.469 79.7733 892.449 84.0667 892.449 89.2C892.449 95.1733 890.722 100.68 887.269 105.72C883.909 110.667 878.869 114.68 872.149 117.76C865.429 120.747 856.982 122.24 846.809 122.24Z"/>
</mask>
<path d="M152.98 120H150.98V122H152.98V120ZM152.98 22V20H150.98V22H152.98ZM180.14 22L181.845 20.9551L181.26 20H180.14V22ZM219.34 85.98V87.98H222.911L221.045 84.9351L219.34 85.98ZM205.06 85.98L203.341 84.9571L201.542 87.98H205.06V85.98ZM243.14 22V20H242.003L241.421 20.9771L243.14 22ZM270.3 22L272.3 21.9943L272.294 20H270.3V22ZM270.58 120V122H272.586L272.58 119.994L270.58 120ZM240.48 120L238.48 120.011L238.491 122H240.48V120ZM240.2 67.36V65.36H238.189L238.2 67.3706L240.2 67.36ZM244.96 67.36L246.679 68.3817L248.475 65.36H244.96V67.36ZM218.92 111.18V113.18H220.058L220.639 112.202L218.92 111.18ZM204.36 111.18L202.66 112.234L203.247 113.18H204.36V111.18ZM177.2 67.36V65.36H173.607L175.5 68.4136L177.2 67.36ZM183.08 67.36H185.08V65.36H183.08V67.36ZM183.08 120V122H185.08V120H183.08ZM152.98 120H154.98V22H152.98H150.98V120H152.98ZM152.98 22V24H180.14V22V20H152.98V22ZM180.14 22L178.435 23.0449L217.635 87.0249L219.34 85.98L221.045 84.9351L181.845 20.9551L180.14 22ZM219.34 85.98V83.98H205.06V85.98V87.98H219.34V85.98ZM205.06 85.98L206.779 87.0029L244.859 23.0229L243.14 22L241.421 20.9771L203.341 84.9571L205.06 85.98ZM243.14 22V24H270.3V22V20H243.14V22ZM270.3 22L268.3 22.0057L268.58 120.006L270.58 120L272.58 119.994L272.3 21.9943L270.3 22ZM270.58 120V118H240.48V120V122H270.58V120ZM240.48 120L242.48 119.989L242.2 67.3494L240.2 67.36L238.2 67.3706L238.48 120.011L240.48 120ZM240.2 67.36V69.36H244.96V67.36V65.36H240.2V67.36ZM244.96 67.36L243.241 66.3383L217.201 110.158L218.92 111.18L220.639 112.202L246.679 68.3817L244.96 67.36ZM218.92 111.18V109.18H204.36V111.18V113.18H218.92V111.18ZM204.36 111.18L206.06 110.126L178.9 66.3064L177.2 67.36L175.5 68.4136L202.66 112.234L204.36 111.18ZM177.2 67.36V69.36H183.08V67.36V65.36H177.2V67.36ZM183.08 67.36H181.08V120H183.08H185.08V67.36H183.08ZM183.08 120V118H152.98V120V122H183.08V120ZM294.114 120L292.282 119.199L291.057 122H294.114V120ZM336.954 22V20H335.646L335.122 21.1989L336.954 22ZM369.434 22L371.267 21.1989L370.743 20H369.434V22ZM412.274 120V122H415.331L414.107 119.199L412.274 120ZM378.114 120L376.247 120.718L376.74 122H378.114V120ZM346.474 37.68V35.68H343.563L344.607 38.3975L346.474 37.68ZM359.354 37.68L361.221 38.3975L362.266 35.68H359.354V37.68ZM327.714 120V122H329.088L329.581 120.718L327.714 120ZM319.594 102.92L317.708 102.254L316.767 104.92H319.594V102.92ZM327.994 79.12V77.12H326.579L326.108 78.4544L327.994 79.12ZM373.074 79.12L374.96 78.4544L374.489 77.12H373.074V79.12ZM381.474 102.92V104.92H384.301L383.36 102.254L381.474 102.92ZM294.114 120L295.947 120.801L338.787 22.8011L336.954 22L335.122 21.1989L292.282 119.199L294.114 120ZM336.954 22V24H369.434V22V20H336.954V22ZM369.434 22L367.602 22.8011L410.442 120.801L412.274 120L414.107 119.199L371.267 21.1989L369.434 22ZM412.274 120V118H378.114V120V122H412.274V120ZM378.114 120L379.981 119.282L348.341 36.9625L346.474 37.68L344.607 38.3975L376.247 120.718L378.114 120ZM346.474 37.68V39.68H359.354V37.68V35.68H346.474V37.68ZM359.354 37.68L357.487 36.9625L325.847 119.282L327.714 120L329.581 120.718L361.221 38.3975L359.354 37.68ZM327.714 120V118H294.114V120V122H327.714V120ZM319.594 102.92L321.48 103.586L329.88 79.7856L327.994 79.12L326.108 78.4544L317.708 102.254L319.594 102.92ZM327.994 79.12V81.12H373.074V79.12V77.12H327.994V79.12ZM373.074 79.12L371.188 79.7856L379.588 103.586L381.474 102.92L383.36 102.254L374.96 78.4544L373.074 79.12ZM381.474 102.92V100.92H319.594V102.92V104.92H381.474V102.92ZM435.747 120H433.747V122H435.747V120ZM435.747 22V20H433.747V22H435.747ZM506.587 26.48L505.765 28.3034L505.775 28.3076L506.587 26.48ZM522.127 39.36L520.45 40.45L520.454 40.4564L520.459 40.4629L522.127 39.36ZM522.127 78.56L523.787 79.676L523.791 79.6694L523.796 79.6629L522.127 78.56ZM506.587 91.02L505.796 89.183L505.787 89.1871L506.587 91.02ZM454.087 95.36L452.73 93.8909L448.975 97.36H454.087V95.36ZM468.787 81.78H470.787V77.2096L467.43 80.3109L468.787 81.78ZM468.787 120V122H470.787V120H468.787ZM494.407 120L492.749 121.118L493.344 122H494.407V120ZM470.327 84.3V82.3H466.566L468.669 85.4184L470.327 84.3ZM505.327 84.3L506.979 83.1727L506.384 82.3H505.327V84.3ZM529.687 120V122H533.473L531.339 118.873L529.687 120ZM468.787 85.42L467.36 86.8208L470.787 90.3136V85.42H468.787ZM454.087 70.44V68.44H449.322L452.66 71.8408L454.087 70.44ZM490.907 67.36L489.556 65.8857L489.54 65.9L489.525 65.9147L490.907 67.36ZM490.907 50.56L489.525 52.0053L489.54 52.02L489.556 52.0343L490.907 50.56ZM454.087 47.48L452.66 46.0792L449.322 49.48H454.087V47.48ZM468.787 32.5H470.787V27.6064L467.36 31.0992L468.787 32.5ZM435.747 120H437.747V22H435.747H433.747V120H435.747ZM435.747 22V24H482.927V22V20H435.747V22ZM482.927 22V24C491.861 24 499.455 25.4591 505.765 28.3034L506.587 26.48L507.409 24.6566C500.466 21.5276 492.286 20 482.927 20V22ZM506.587 26.48L505.775 28.3076C512.179 31.1537 517.042 35.2067 520.45 40.45L522.127 39.36L523.804 38.27C519.932 32.3133 514.436 27.7797 507.399 24.6524L506.587 26.48ZM522.127 39.36L520.459 40.4629C523.852 45.5967 525.587 51.7336 525.587 58.96H527.587H529.587C529.587 51.0664 527.682 44.1366 523.796 38.2571L522.127 39.36ZM527.587 58.96H525.587C525.587 66.1864 523.852 72.3233 520.459 77.4571L522.127 78.56L523.796 79.6629C527.682 73.7833 529.587 66.8536 529.587 58.96H527.587ZM522.127 78.56L520.467 77.444C517.067 82.5008 512.208 86.4225 505.796 89.183L506.587 91.02L507.378 92.857C514.407 89.8308 519.907 85.4459 523.787 79.676L522.127 78.56ZM506.587 91.02L505.787 89.1871C499.47 91.9452 491.869 93.36 482.927 93.36V95.36V97.36C492.279 97.36 500.451 95.8815 507.387 92.8529L506.587 91.02ZM482.927 95.36V93.36H454.087V95.36V97.36H482.927V95.36ZM454.087 95.36L455.444 96.8291L470.144 83.2491L468.787 81.78L467.43 80.3109L452.73 93.8909L454.087 95.36ZM468.787 81.78H466.787V120H468.787H470.787V81.78H468.787ZM468.787 120V118H435.747V120V122H468.787V120ZM494.407 120L496.065 118.882L471.985 83.1816L470.327 84.3L468.669 85.4184L492.749 121.118L494.407 120ZM470.327 84.3V86.3H505.327V84.3V82.3H470.327V84.3ZM505.327 84.3L503.675 85.4273L528.035 121.127L529.687 120L531.339 118.873L506.979 83.1727L505.327 84.3ZM529.687 120V118H494.407V120V122H529.687V120ZM468.787 85.42L470.215 84.0192L455.515 69.0392L454.087 70.44L452.66 71.8408L467.36 86.8208L468.787 85.42ZM454.087 70.44V72.44H480.827V70.44V68.44H454.087V70.44ZM480.827 70.44V72.44C485.646 72.44 489.613 71.3654 492.29 68.8053L490.907 67.36L489.525 65.9147C487.908 67.4612 485.155 68.44 480.827 68.44V70.44ZM490.907 67.36L492.259 68.8343C494.982 66.338 496.267 62.9647 496.267 58.96H494.267H492.267C492.267 62.0487 491.312 64.2754 489.556 65.8857L490.907 67.36ZM494.267 58.96H496.267C496.267 54.9553 494.982 51.582 492.259 49.0857L490.907 50.56L489.556 52.0343C491.312 53.6446 492.267 55.8713 492.267 58.96H494.267ZM490.907 50.56L492.29 49.1147C489.613 46.5546 485.646 45.48 480.827 45.48V47.48V49.48C485.155 49.48 487.908 50.4588 489.525 52.0053L490.907 50.56ZM480.827 47.48V45.48H454.087V47.48V49.48H480.827V47.48ZM454.087 47.48L455.515 48.8808L470.215 33.9008L468.787 32.5L467.36 31.0992L452.66 46.0792L454.087 47.48ZM468.787 32.5H466.787V85.42H468.787H470.787V32.5H468.787ZM587.104 118.6L586.393 120.469L586.408 120.475L586.424 120.481L587.104 118.6ZM569.744 107.96L568.372 109.416L568.379 109.422L568.386 109.429L569.744 107.96ZM558.404 91.72L556.568 92.5144L558.404 91.72ZM558.404 50.28L556.568 49.4855L558.404 50.28ZM569.744 34.04L568.386 32.5715L568.379 32.5779L568.372 32.5844L569.744 34.04ZM587.104 23.54L587.791 25.418L587.799 25.4154L587.806 25.4127L587.104 23.54ZM634.424 24.8L633.594 26.62L633.603 26.6238L634.424 24.8ZM652.904 39.36L654.235 40.852L655.618 39.6176L654.492 38.1451L652.904 39.36ZM632.044 57.98L630.478 59.2245L631.796 60.8822L633.375 59.472L632.044 57.98ZM622.384 49.58L621.361 51.2991L621.389 51.3152L621.416 51.3305L622.384 49.58ZM601.244 48.18L601.986 50.037L601.244 48.18ZM593.964 53.08L592.518 51.6976L592.502 51.7143L592.487 51.7315L593.964 53.08ZM589.344 60.92L591.216 61.6222L591.22 61.6129L591.223 61.6035L589.344 60.92ZM589.344 81.22L587.464 81.9035L587.467 81.9129L587.471 81.9222L589.344 81.22ZM593.964 88.92L592.487 90.2685L592.502 90.2857L592.518 90.3024L593.964 88.92ZM601.244 93.82L600.501 95.6769V95.677L601.244 93.82ZM622.384 92.56L623.371 94.2994L623.378 94.2951L623.386 94.2908L622.384 92.56ZM632.044 84.02L633.375 82.5279L631.796 81.1178L630.478 82.7755L632.044 84.02ZM652.904 102.64L654.484 103.866L655.628 102.391L654.235 101.148L652.904 102.64ZM634.424 117.2L635.253 119.02L635.263 119.015L634.424 117.2ZM608.944 122.24V120.24C601.313 120.24 594.265 119.06 587.783 116.719L587.104 118.6L586.424 120.481C593.382 122.994 600.895 124.24 608.944 124.24V122.24ZM587.104 118.6L587.814 116.731C581.414 114.297 575.85 110.882 571.101 106.491L569.744 107.96L568.386 109.429C573.53 114.185 579.539 117.863 586.393 120.469L587.104 118.6ZM569.744 107.96L571.115 106.504C566.464 102.122 562.84 96.9348 560.239 90.9256L558.404 91.72L556.568 92.5144C559.38 99.0118 563.316 104.652 568.372 109.416L569.744 107.96ZM558.404 91.72L560.239 90.9256C557.652 84.9492 556.344 78.3168 556.344 71H554.344H552.344C552.344 78.8032 553.742 85.9841 556.568 92.5144L558.404 91.72ZM554.344 71H556.344C556.344 63.6832 557.652 57.0508 560.239 51.0744L558.404 50.28L556.568 49.4855C553.742 56.0158 552.344 63.1968 552.344 71H554.344ZM558.404 50.28L560.239 51.0744C562.84 45.0652 566.464 39.8782 571.115 35.4956L569.744 34.04L568.372 32.5844C563.316 37.3484 559.38 42.9882 556.568 49.4855L558.404 50.28ZM569.744 34.04L571.101 35.5085C575.845 31.1231 581.401 27.7582 587.791 25.418L587.104 23.54L586.416 21.662C579.553 24.1751 573.536 27.8102 568.386 32.5715L569.744 34.04ZM587.104 23.54L587.806 25.4127C594.281 22.9843 601.321 21.76 608.944 21.76V19.76V17.76C600.886 17.76 593.366 19.0557 586.401 21.6673L587.104 23.54ZM608.944 19.76V21.76C618.323 21.76 626.525 23.3986 633.594 26.6199L634.424 24.8L635.253 22.9801C627.575 19.4813 618.79 17.76 608.944 17.76V19.76ZM634.424 24.8L633.603 26.6238C640.775 29.8512 646.668 34.4985 651.315 40.5749L652.904 39.36L654.492 38.1451C649.432 31.5282 643.006 26.4688 635.244 22.9762L634.424 24.8ZM652.904 39.36L651.572 37.8679L630.712 56.4879L632.044 57.98L633.375 59.472L654.235 40.852L652.904 39.36ZM632.044 57.98L633.609 56.7355C630.576 52.9193 627.16 49.9345 623.351 47.8295L622.384 49.58L621.416 51.3305C624.701 53.1455 627.725 55.7607 630.478 59.2245L632.044 57.98ZM622.384 49.58L623.406 47.8609C619.615 45.607 615.336 44.5 610.624 44.5V46.5V48.5C614.685 48.5 618.245 49.4463 621.361 51.2991L622.384 49.58ZM610.624 46.5V44.5C606.952 44.5 603.569 45.0959 600.501 46.323L601.244 48.18L601.986 50.037C604.518 49.0241 607.388 48.5 610.624 48.5V46.5ZM601.244 48.18L600.501 46.323C597.44 47.5475 594.772 49.3411 592.518 51.6976L593.964 53.08L595.409 54.4624C597.262 52.5255 599.448 51.0525 601.986 50.037L601.244 48.18ZM593.964 53.08L592.487 51.7315C590.329 54.0945 588.662 56.9419 587.464 60.2365L589.344 60.92L591.223 61.6035C592.265 58.7381 593.678 56.3589 595.441 54.4285L593.964 53.08ZM589.344 60.92L587.471 60.2178C586.254 63.4637 585.664 67.0669 585.664 71H587.664H589.664C589.664 67.4664 590.193 64.3496 591.216 61.6222L589.344 60.92ZM587.664 71H585.664C585.664 74.9344 586.254 78.5762 587.464 81.9035L589.344 81.22L591.223 80.5365C590.193 77.7038 589.664 74.5323 589.664 71H587.664ZM589.344 81.22L587.471 81.9222C588.672 85.1243 590.339 87.9161 592.487 90.2685L593.964 88.92L595.441 87.5715C593.668 85.6306 592.255 83.289 591.216 80.5178L589.344 81.22ZM593.964 88.92L592.518 90.3024C594.772 92.6589 597.44 94.4525 600.501 95.6769L601.244 93.82L601.986 91.963C599.448 90.9475 597.262 89.4745 595.409 87.5376L593.964 88.92ZM601.244 93.82L600.501 95.677C603.569 96.9041 606.952 97.5 610.624 97.5V95.5V93.5C607.388 93.5 604.518 92.9759 601.986 91.963L601.244 93.82ZM610.624 95.5V97.5C615.319 97.5 619.586 96.4476 623.371 94.2994L622.384 92.56L621.396 90.8206C618.275 92.5924 614.701 93.5 610.624 93.5V95.5ZM622.384 92.56L623.386 94.2908C627.176 92.0964 630.581 89.0743 633.609 85.2645L632.044 84.02L630.478 82.7755C627.72 86.2457 624.684 88.917 621.382 90.8291L622.384 92.56ZM632.044 84.02L630.712 85.5121L651.572 104.132L652.904 102.64L654.235 101.148L633.375 82.5279L632.044 84.02ZM652.904 102.64L651.324 101.414C646.674 107.404 640.772 112.06 633.584 115.385L634.424 117.2L635.263 119.015C643.008 115.433 649.426 110.382 654.484 103.866L652.904 102.64ZM634.424 117.2L633.594 115.38C626.525 118.601 618.323 120.24 608.944 120.24V122.24V124.24C618.79 124.24 627.575 122.519 635.253 119.02L634.424 117.2ZM668.636 120L666.804 119.199L665.579 122H668.636V120ZM711.476 22V20H710.168L709.644 21.1989L711.476 22ZM743.956 22L745.789 21.1989L745.265 20H743.956V22ZM786.796 120V122H789.853L788.629 119.199L786.796 120ZM752.636 120L750.769 120.718L751.262 122H752.636V120ZM720.996 37.68V35.68H718.085L719.129 38.3975L720.996 37.68ZM733.876 37.68L735.743 38.3975L736.787 35.68H733.876V37.68ZM702.236 120V122H703.61L704.103 120.718L702.236 120ZM694.116 102.92L692.23 102.254L691.289 104.92H694.116V102.92ZM702.516 79.12V77.12H701.101L700.63 78.4544L702.516 79.12ZM747.596 79.12L749.482 78.4544L749.011 77.12H747.596V79.12ZM755.996 102.92V104.92H758.823L757.882 102.254L755.996 102.92ZM668.636 120L670.469 120.801L713.309 22.8011L711.476 22L709.644 21.1989L666.804 119.199L668.636 120ZM711.476 22V24H743.956V22V20H711.476V22ZM743.956 22L742.124 22.8011L784.964 120.801L786.796 120L788.629 119.199L745.789 21.1989L743.956 22ZM786.796 120V118H752.636V120V122H786.796V120ZM752.636 120L754.503 119.282L722.863 36.9625L720.996 37.68L719.129 38.3975L750.769 120.718L752.636 120ZM720.996 37.68V39.68H733.876V37.68V35.68H720.996V37.68ZM733.876 37.68L732.009 36.9625L700.369 119.282L702.236 120L704.103 120.718L735.743 38.3975L733.876 37.68ZM702.236 120V118H668.636V120V122H702.236V120ZM694.116 102.92L696.002 103.586L704.402 79.7856L702.516 79.12L700.63 78.4544L692.23 102.254L694.116 102.92ZM702.516 79.12V81.12H747.596V79.12V77.12H702.516V79.12ZM747.596 79.12L745.71 79.7856L754.11 103.586L755.996 102.92L757.882 102.254L749.482 78.4544L747.596 79.12ZM755.996 102.92V100.92H694.116V102.92V104.92H755.996V102.92ZM823.009 119.44L823.483 117.497L823.009 119.44ZM804.109 112.16L802.28 111.352L801.568 112.962L803.075 113.872L804.109 112.16ZM814.749 88.08L815.753 86.3499L813.822 85.2301L812.92 87.2717L814.749 88.08ZM830.289 94.66L829.723 96.5782L829.742 96.5837L829.76 96.5888L830.289 94.66ZM854.509 96.48L854.921 98.4371L854.958 98.4294L854.994 98.4203L854.509 96.48ZM858.569 94.66L859.898 96.1548L859.942 96.1158L859.983 96.0742L858.569 94.66ZM856.889 87.52L855.961 89.2917L856.889 87.52ZM849.049 85L848.591 86.9468L848.624 86.9546L848.657 86.9612L849.049 85ZM838.549 82.76L838.12 84.7135L838.143 84.7185L838.166 84.723L838.549 82.76ZM826.929 79.54L826.283 81.4327L826.29 81.4351L826.297 81.4374L826.929 79.54ZM816.289 74.36L815.168 76.0166L815.18 76.0241L815.191 76.0314L816.289 74.36ZM808.589 65.96L806.839 66.9274L806.844 66.9373L806.85 66.9472L808.589 65.96ZM810.689 36.28L809.039 35.1495L809.035 35.1562L810.689 36.28ZM825.949 24.24L825.146 22.4082L825.137 22.4124L825.949 24.24ZM870.889 21.86L870.464 23.8143L870.889 21.86ZM888.249 28.3L890.096 29.0669L890.776 27.4287L889.231 26.5577L888.249 28.3ZM878.309 52.24L877.415 54.0289L879.333 54.9883L880.156 53.0069L878.309 52.24ZM864.169 46.78L863.646 48.7105L863.656 48.7131L864.169 46.78ZM843.449 45.8L842.874 43.8843L843.449 45.8ZM839.389 48.04L837.902 46.7021L837.864 46.7453L837.827 46.7906L839.389 48.04ZM841.209 55.18L840.281 56.9517L840.315 56.9693L840.349 56.9857L841.209 55.18ZM848.909 57.56L848.506 59.5189L848.517 59.5212L848.909 57.56ZM859.549 59.66L859.166 61.623L859.175 61.6247L859.549 59.66ZM871.169 62.74L870.523 64.6327L871.169 62.74ZM881.669 67.92L880.548 69.5766L880.56 69.5841L880.571 69.5914L881.669 67.92ZM889.509 76.32L887.77 77.3072V77.3072L889.509 76.32ZM887.269 105.72L885.619 104.59L885.615 104.596L887.269 105.72ZM872.149 117.76L872.961 119.588L872.972 119.583L872.982 119.578L872.149 117.76ZM846.809 122.24V120.24C838.749 120.24 830.975 119.324 823.483 117.497L823.009 119.44L822.535 121.383C830.35 123.289 838.443 124.24 846.809 124.24V122.24ZM823.009 119.44L823.483 117.497C815.96 115.662 809.865 113.299 805.143 110.448L804.109 112.16L803.075 113.872C808.246 116.994 814.751 119.484 822.535 121.383L823.009 119.44ZM804.109 112.16L805.938 112.968L816.578 88.8883L814.749 88.08L812.92 87.2717L802.28 111.352L804.109 112.16ZM814.749 88.08L813.746 89.8101C818.563 92.6042 823.892 94.8576 829.723 96.5782L830.289 94.66L830.855 92.7418C825.299 91.1024 820.268 88.9692 815.753 86.3499L814.749 88.08ZM830.289 94.66L829.76 96.5888C835.701 98.2177 841.479 99.04 847.089 99.04V97.04V95.04C841.873 95.04 836.451 94.2757 830.818 92.7312L830.289 94.66ZM847.089 97.04V99.04C850.314 99.04 852.948 98.8525 854.921 98.4371L854.509 96.48L854.097 94.5229C852.524 94.8542 850.211 95.04 847.089 95.04V97.04ZM854.509 96.48L854.994 98.4203C856.98 97.9238 858.702 97.2178 859.898 96.1548L858.569 94.66L857.24 93.1652C856.756 93.5955 855.772 94.1028 854.024 94.5397L854.509 96.48ZM858.569 94.66L859.983 96.0742C861.173 94.8844 861.829 93.4051 861.829 91.72H859.829H857.829C857.829 92.2749 857.645 92.7556 857.155 93.2458L858.569 94.66ZM859.829 91.72H861.829C861.829 89.0067 860.242 87.0187 857.817 85.7483L856.889 87.52L855.961 89.2917C857.456 90.0746 857.829 90.8866 857.829 91.72H859.829ZM856.889 87.52L857.817 85.7483C855.626 84.6008 852.81 83.7127 849.441 83.0388L849.049 85L848.657 86.9612C851.821 87.594 854.232 88.3859 855.961 89.2917L856.889 87.52ZM849.049 85L849.507 83.0532C846.305 82.2996 842.779 81.5477 838.932 80.797L838.549 82.76L838.166 84.723C841.972 85.4657 845.447 86.207 848.591 86.9468L849.049 85ZM838.549 82.76L838.978 80.8065C835.224 79.9824 831.418 78.9282 827.562 77.6426L826.929 79.54L826.297 81.4374C830.28 82.7651 834.221 83.8576 838.12 84.7135L838.549 82.76ZM826.929 79.54L827.575 77.6473C823.903 76.3932 820.509 74.7396 817.387 72.6886L816.289 74.36L815.191 76.0314C818.603 78.2737 822.302 80.0735 826.283 81.4327L826.929 79.54ZM816.289 74.36L817.41 72.7034C814.501 70.7356 812.142 68.1684 810.328 64.9728L808.589 65.96L806.85 66.9472C808.956 70.6583 811.731 73.691 815.168 76.0166L816.289 74.36ZM808.589 65.96L810.34 64.9926C808.584 61.8158 807.649 57.7838 807.649 52.8H805.649H803.649C803.649 58.2695 804.674 63.0109 806.839 66.9274L808.589 65.96ZM805.649 52.8H807.649C807.649 47.1279 809.212 42.0138 812.344 37.4038L810.689 36.28L809.035 35.1562C805.446 40.4395 803.649 46.3388 803.649 52.8H805.649ZM810.689 36.28L812.339 37.4105C815.544 32.7329 820.31 28.9347 826.761 26.0676L825.949 24.24L825.137 22.4124C818.148 25.5186 812.741 29.7471 809.039 35.1495L810.689 36.28ZM825.949 24.24L826.752 26.0717C833.239 23.228 841.393 21.76 851.289 21.76V19.76V17.76C841.025 17.76 832.285 19.2787 825.146 22.4083L825.949 24.24ZM851.289 19.76V21.76C857.774 21.76 864.165 22.4449 870.464 23.8143L870.889 21.86L871.314 19.9056C864.734 18.4751 858.058 17.76 851.289 17.76V19.76ZM870.889 21.86L870.464 23.8143C876.732 25.1769 882.327 27.2579 887.267 30.0423L888.249 28.3L889.231 26.5577C883.904 23.5554 877.926 21.3431 871.314 19.9056L870.889 21.86ZM888.249 28.3L886.402 27.5331L876.462 51.4731L878.309 52.24L880.156 53.0069L890.096 29.0669L888.249 28.3ZM878.309 52.24L879.203 50.4511C874.246 47.9722 869.405 46.0998 864.682 44.8469L864.169 46.78L863.656 48.7131C868.08 49.8868 872.666 51.6545 877.415 54.0289L878.309 52.24ZM864.169 46.78L864.692 44.8495C860.055 43.5938 855.493 42.96 851.009 42.96V44.96V46.96C855.112 46.96 859.323 47.5396 863.646 48.7105L864.169 46.78ZM851.009 44.96V42.96C847.747 42.96 845.007 43.2445 842.874 43.8843L843.449 45.8L844.024 47.7156C845.624 47.2355 847.925 46.96 851.009 46.96V44.96ZM843.449 45.8L842.874 43.8843C840.834 44.4963 839.088 45.3851 837.902 46.7021L839.389 48.04L840.876 49.3779C841.37 48.8282 842.33 48.2237 844.024 47.7156L843.449 45.8ZM839.389 48.04L837.827 46.7906C836.817 48.053 836.269 49.5142 836.269 51.12H838.269H840.269C840.269 50.4858 840.467 49.8937 840.951 49.2894L839.389 48.04ZM838.269 51.12H836.269C836.269 53.7836 837.905 55.7073 840.281 56.9517L841.209 55.18L842.137 53.4083C840.593 52.5994 840.269 51.8164 840.269 51.12H838.269ZM841.209 55.18L840.349 56.9857C842.507 58.0133 845.244 58.8473 848.506 59.5189L848.909 57.56L849.312 55.6011C846.228 54.966 843.831 54.2134 842.069 53.3743L841.209 55.18ZM848.909 57.56L848.517 59.5212C851.787 60.1752 855.337 60.8758 859.166 61.623L859.549 59.66L859.932 57.697C856.108 56.9509 852.564 56.2515 849.301 55.5988L848.909 57.56ZM859.549 59.66L859.175 61.6247C863.001 62.3535 866.784 63.356 870.523 64.6327L871.169 62.74L871.815 60.8473C867.901 59.5107 863.937 58.4598 859.923 57.6953L859.549 59.66ZM871.169 62.74L870.523 64.6327C874.191 65.8852 877.53 67.5347 880.548 69.5766L881.669 67.92L882.79 66.2634C879.461 64.012 875.801 62.2081 871.815 60.8473L871.169 62.74ZM881.669 67.92L880.571 69.5914C883.568 71.5612 885.964 74.125 887.77 77.3072L889.509 76.32L891.248 75.3328C889.135 71.6084 886.303 68.5722 882.767 66.2486L881.669 67.92ZM889.509 76.32L887.77 77.3072C889.516 80.3839 890.449 84.3139 890.449 89.2H892.449H894.449C894.449 83.8194 893.422 79.1628 891.248 75.3328L889.509 76.32ZM892.449 89.2H890.449C890.449 94.7601 888.85 99.8743 885.619 104.59L887.269 105.72L888.919 106.85C892.595 101.486 894.449 95.5865 894.449 89.2H892.449ZM887.269 105.72L885.615 104.596C882.503 109.177 877.782 112.978 871.316 115.942L872.149 117.76L872.982 119.578C879.956 116.382 885.315 112.156 888.924 106.844L887.269 105.72ZM872.149 117.76L871.337 115.932C864.951 118.771 856.803 120.24 846.809 120.24V122.24V124.24C857.162 124.24 865.907 122.723 872.961 119.588L872.149 117.76Z" fill="#F2F2F2" mask="url(#path-3-outside-2_2123_470)"/>
</g>
</g>
</svg>
