<svg width="166" height="144" viewBox="0 0 166 144" fill="none" xmlns="http://www.w3.org/2000/svg">
<path d="M83.5085 0.836045C108.316 0.836045 133.123 0.836045 157.931 0.836045C159.824 0.790086 161.674 1.29936 163.149 2.27219C164.022 2.82217 164.728 3.53006 165.212 4.34055C165.695 5.15105 165.944 6.04221 165.938 6.94443V7.56038C165.938 34.1066 165.938 60.654 165.938 87.2024C165.999 88.2811 165.743 89.356 165.19 90.3363C164.441 91.6236 163.155 92.6491 161.564 93.2278C161.311 93.2879 161.093 93.4207 160.95 93.6018C160.807 93.7829 160.749 94.0003 160.785 94.2139C160.82 95.4905 160.785 96.7671 160.785 98.0628C160.791 98.6239 160.66 99.1803 160.401 99.6995C160.141 100.219 159.758 100.69 159.274 101.087C158.79 101.484 158.214 101.797 157.58 102.009C156.946 102.222 156.267 102.328 155.583 102.323C153.705 102.279 151.828 102.323 149.951 102.323C148.941 102.362 147.941 102.152 147.078 101.72C146.215 101.288 145.53 100.655 145.11 99.901C144.016 98.1458 142.926 96.3905 141.89 94.6033C141.783 94.3554 141.576 94.1446 141.303 94.0055C141.031 93.8663 140.709 93.8071 140.39 93.8373C102.443 93.8501 64.4973 93.8501 26.5527 93.8373C26.2333 93.8069 25.9108 93.866 25.6378 94.0052C25.3648 94.1443 25.1574 94.3551 25.0494 94.6033C24.0564 96.3139 22.9698 97.9926 21.9573 99.7096C20.9058 101.484 19.2312 102.368 16.8011 102.339C14.9551 102.317 13.1092 102.339 11.2632 102.339C10.5889 102.348 9.91925 102.246 9.29368 102.039C8.6681 101.833 8.09917 101.526 7.6203 101.137C7.14142 100.748 6.76226 100.284 6.50506 99.7731C6.24786 99.2622 6.11782 98.7144 6.12257 98.1617C6.12257 96.8532 6.09531 95.5447 6.12257 94.2363C6.15131 94.0235 6.08949 93.8092 5.94756 93.6294C5.80563 93.4498 5.59231 93.3158 5.34369 93.2501C2.50466 92.0565 0.974152 90.1544 0.974152 87.5151C0.955978 60.7625 0.946892 34.0098 0.946892 7.25719C0.932268 5.71784 1.59701 4.22602 2.81863 3.0566C4.04024 1.88719 5.73643 1.11897 7.59466 0.893491C8.18351 0.832704 8.77765 0.813485 9.37051 0.836045H83.5085ZM125 4.89234C124.513 4.87001 124.147 4.8349 123.781 4.8349H9.28484C9.00444 4.8349 8.72015 4.8349 8.44364 4.8349C7.73162 4.86257 7.05947 5.11235 6.56493 5.53304C6.07039 5.95374 5.79091 6.5135 5.78376 7.09762C5.78376 7.41676 5.78376 7.71356 5.78376 8.01994V86.6566C5.78376 86.9758 5.78376 87.2726 5.78376 87.5789C5.7798 88.1676 6.05278 88.7348 6.54598 89.1627C7.03917 89.5907 7.71463 89.8464 8.43196 89.8768C8.70846 89.8959 8.99276 89.8768 9.27315 89.8768H124.419C124.498 89.886 124.577 89.88 124.652 89.8595C124.727 89.839 124.795 89.8044 124.85 89.7585C124.906 89.7126 124.948 89.6567 124.972 89.5952C124.997 89.5337 125.004 89.4684 124.992 89.4044C124.992 89.2481 124.992 89.0853 124.992 88.9417C124.992 85.2247 124.992 81.5014 124.992 77.7717C124.992 77.5196 124.965 77.2675 124.949 76.9451C124.587 76.9196 124.287 76.8845 123.983 76.8813C123.36 76.8813 122.733 76.8973 122.106 76.8813C118.878 76.7249 116.564 75.4515 115.225 73.0261C114.783 72.1138 114.589 71.1337 114.656 70.1538C114.656 54.9434 114.656 39.731 114.656 24.5164C114.656 24.2356 114.656 23.9515 114.676 23.6707C114.754 22.3017 115.393 20.9942 116.49 19.9595C117.586 18.9247 119.077 18.223 120.72 17.9676C121.74 17.8631 122.768 17.8066 123.796 17.7985C124.162 17.7985 124.525 17.757 124.996 17.7314C124.996 16.9719 124.972 16.2857 124.996 15.5964C124.983 15.0753 125.221 14.571 125.658 14.1924C126.095 13.8138 126.697 13.5914 127.332 13.573C127.968 13.5697 128.58 13.7666 129.043 14.123C129.507 14.4794 129.785 14.9681 129.821 15.4879C129.86 15.8453 129.821 16.2059 129.821 16.5634V88.6002C129.821 88.8077 129.821 89.0119 129.821 89.2162C129.821 89.4204 129.887 89.6055 129.938 89.8864H157.65C157.962 89.8933 158.274 89.8858 158.585 89.864C159.263 89.8148 159.896 89.5647 160.366 89.1605C160.836 88.7564 161.109 88.2259 161.136 87.6683C161.155 87.413 161.136 87.1577 161.136 86.8992C161.136 60.5614 161.136 34.2215 161.136 7.87952C161.157 7.57233 161.157 7.26439 161.136 6.9572C161.105 6.50233 160.9 6.06702 160.55 5.71261C160.201 5.3582 159.725 5.10256 159.189 4.9817C158.737 4.87983 158.27 4.83358 157.802 4.84447C148.827 4.84447 139.85 4.84447 130.872 4.84447C130.569 4.84447 130.265 4.87001 129.875 4.88596C129.848 5.2051 129.821 5.48914 129.813 5.76041C129.813 6.2487 129.837 6.74018 129.782 7.22208C129.746 7.66162 129.534 8.07908 129.178 8.40932C128.822 8.73955 128.343 8.96398 127.815 9.04758C127.288 9.13375 126.74 9.06808 126.265 8.86167C125.789 8.65526 125.415 8.32076 125.206 7.91462C125.054 7.5544 124.978 7.17562 124.98 6.79443C124.972 6.17849 125 5.56893 125 4.89234ZM125 47.4244V22.9558C125 22.726 125 22.4962 125 22.2633C125.011 22.1992 125.004 22.1338 124.98 22.0722C124.955 22.0107 124.914 21.9546 124.858 21.9085C124.803 21.8624 124.735 21.8275 124.66 21.8065C124.585 21.7856 124.506 21.7791 124.427 21.7877C123.614 21.7648 122.801 21.7755 121.989 21.8197C120.529 21.9473 119.594 22.825 119.52 24.0537C119.52 24.309 119.52 24.5643 119.52 24.8228V69.9048C119.52 70.1378 119.52 70.3676 119.52 70.5974C119.511 70.9 119.576 71.2011 119.711 71.4829C119.846 71.7647 120.048 72.0215 120.306 72.238C120.564 72.4546 120.873 72.6266 121.213 72.7439C121.554 72.8611 121.92 72.9213 122.289 72.9207C122.76 72.9207 123.228 72.9207 123.699 72.9207C125.015 72.9207 125.015 72.9207 125.015 71.8101L125 47.4244ZM11.0062 98.2543C11.1326 98.2917 11.2629 98.3195 11.3956 98.3372C13.2065 98.3372 15.0174 98.3372 16.8478 98.3564C17.0316 98.3541 17.2098 98.3044 17.3573 98.2145C17.5048 98.1246 17.614 97.9989 17.6695 97.8553C18.3783 96.6841 19.0949 95.5192 19.7959 94.3448C19.8533 94.1991 19.886 94.0477 19.8932 93.8948H11.0062V98.2543ZM155.945 93.8469H151.482C150.73 93.8469 149.982 93.8278 149.231 93.8469C148.479 93.8661 147.759 93.7352 146.995 93.9586C147.015 94.0673 147.048 94.1742 147.093 94.2778C147.817 95.4714 148.553 96.6554 149.266 97.8521C149.35 98.0164 149.496 98.1538 149.684 98.2436C149.872 98.3334 150.09 98.3707 150.306 98.35C151.93 98.3309 153.554 98.35 155.177 98.35C155.439 98.3348 155.699 98.3071 155.956 98.267L155.945 93.8469Z" fill="url(#paint0_linear_2014_61)"/>
<path d="M65.3644 17.8208C77.2527 17.8208 89.1411 17.8208 101.029 17.8208C102.285 17.7824 103.534 17.9788 104.682 18.3952C105.819 18.806 106.811 19.4446 107.567 20.2522C108.323 21.0598 108.819 22.0104 109.009 23.0164C109.111 23.5441 109.159 24.0779 109.153 24.6121C109.153 39.7714 109.153 54.9296 109.153 70.0867C109.221 71.3237 108.885 72.5532 108.18 73.6483C106.754 75.6749 104.577 76.7185 101.746 76.8685C101.357 76.8876 100.998 76.8685 100.621 76.8685H29.968C28.8103 76.92 27.6514 76.7855 26.5565 76.4727C23.5851 75.4802 21.8832 73.6515 21.6534 71.0473C21.5055 69.5186 21.5872 67.9708 21.6223 66.4325C21.6222 65.9795 21.8145 65.5407 22.1663 65.1912C22.5181 64.8418 23.0073 64.6037 23.55 64.5177C24.1078 64.4119 24.6935 64.4777 25.196 64.7024C25.6985 64.9271 26.0828 65.2952 26.2761 65.7368C26.3986 66.0523 26.4552 66.3824 26.4436 66.7134C26.4436 67.9197 26.4436 69.1261 26.4436 70.3324C26.4436 72.0399 27.5457 72.9335 29.6487 72.9366C37.91 72.9366 46.1688 72.9366 54.425 72.9366H100.601C100.944 72.9366 101.29 72.9366 101.633 72.9366C102.337 72.9135 103.003 72.6729 103.499 72.2631C103.995 71.8533 104.283 71.3049 104.305 70.7282C104.332 70.4729 104.324 70.2144 104.324 69.959V24.8004C104.337 24.4679 104.32 24.1351 104.273 23.8047C104.207 23.2742 103.912 22.7806 103.441 22.413C102.969 22.0454 102.353 21.8282 101.703 21.8005C101.36 21.7797 101.015 21.7733 100.671 21.7813H30.007C29.5384 21.7693 29.0695 21.7993 28.6089 21.8707C28.0225 21.9747 27.4944 22.2344 27.1064 22.6095C26.7185 22.9845 26.4923 23.454 26.463 23.9451C26.4319 24.2642 26.463 24.6121 26.463 24.944V57.1104C26.463 57.4295 26.463 57.7263 26.463 58.0327C26.4407 58.5256 26.1913 58.9934 25.7649 59.3416C25.3385 59.6898 24.767 59.8926 24.1653 59.9093C23.5646 59.9274 22.9771 59.7621 22.5166 59.4455C22.0561 59.1288 21.7555 58.6834 21.6729 58.1955C21.6398 57.94 21.6281 57.6831 21.6379 57.4263C21.6379 46.4223 21.6379 35.4193 21.6379 24.4174C21.6379 21.9696 22.8062 20.0484 25.3454 18.7271C26.4975 18.1445 27.8236 17.8341 29.1775 17.8303C30.1472 17.8112 31.1247 17.8303 32.0866 17.8303L65.3644 17.8208Z" fill="url(#paint1_linear_2014_61)"/>
<path d="M145.48 28.142C143.763 28.142 142.042 28.142 140.324 28.142C139.252 28.1391 138.209 27.854 137.35 27.3289C136.49 26.8037 135.859 26.0662 135.55 25.225C135.413 24.8316 135.343 24.4246 135.343 24.0155C135.324 21.9155 135.374 19.8124 135.324 17.7092C135.323 16.6454 135.826 15.6228 136.726 14.8567C137.627 14.0905 138.856 13.6407 140.153 13.6019C143.718 13.5295 147.281 13.5295 150.843 13.6019C152.144 13.6336 153.378 14.0835 154.278 14.8544C155.178 15.6253 155.672 16.6553 155.653 17.722C155.681 19.7964 155.681 21.873 155.653 23.9516C155.67 24.492 155.556 25.0298 155.317 25.5335C155.078 26.0373 154.719 26.497 154.261 26.8857C153.802 27.2744 153.254 27.5843 152.648 27.7972C152.042 28.0102 151.39 28.122 150.73 28.126C148.985 28.1803 147.225 28.126 145.48 28.126V28.142ZM150.761 17.6358C150.558 17.5931 150.351 17.5632 150.142 17.5465C147.081 17.5465 144.02 17.5465 140.959 17.5465C140.25 17.5465 140.18 17.6103 140.18 18.2326C140.18 19.973 140.18 21.7134 140.18 23.4538C140.18 24.1368 140.238 24.1814 141.103 24.1814C144.039 24.1814 146.975 24.1814 149.908 24.1814C150.808 24.1814 150.839 24.1463 150.843 23.3804C150.843 21.7187 150.843 20.0549 150.843 18.389C150.831 18.1401 150.785 17.8943 150.761 17.6358Z" fill="url(#paint2_linear_2014_61)"/>
<path d="M135.339 68.4942C135.355 66.8485 135.965 65.2435 137.094 63.882C138.222 62.5206 139.817 61.4638 141.678 60.8452C143.539 60.2267 145.583 60.0741 147.549 60.4069C149.516 60.7396 151.318 61.5427 152.728 62.7147C154.138 63.8866 155.093 65.3748 155.471 66.9911C155.849 68.6074 155.634 70.2793 154.853 71.7955C154.072 73.3117 152.76 74.6041 151.082 75.5093C149.405 76.4145 147.438 76.892 145.43 76.8813C144.094 76.8776 142.772 76.6572 141.54 76.2329C140.309 75.8087 139.192 75.1889 138.254 74.4092C137.316 73.6296 136.576 72.7056 136.075 71.6904C135.575 70.6752 135.325 69.589 135.339 68.4942ZM140.18 68.5421C140.179 69.6959 140.735 70.8032 141.727 71.6223C142.718 72.4414 144.065 72.9059 145.473 72.9143C146.881 72.9037 148.228 72.4432 149.228 71.6308C150.229 70.8184 150.802 69.7182 150.828 68.5644C150.83 67.9868 150.692 67.4145 150.423 66.8807C150.153 66.3468 149.757 65.862 149.258 65.4543C148.759 65.0466 148.166 64.724 147.513 64.5052C146.861 64.2863 146.162 64.1756 145.457 64.1794C144.759 64.1785 144.067 64.2914 143.423 64.5114C142.778 64.7314 142.194 65.0542 141.703 65.461C141.212 65.8678 140.824 66.3505 140.563 66.8811C140.302 67.4117 140.171 67.9795 140.18 68.5517V68.5421Z" fill="url(#paint3_linear_2014_61)"/>
<path d="M54.8456 32.9768C54.7847 34.7882 53.9776 36.5294 52.5557 37.9171C52.0455 38.4373 51.5392 38.9607 50.9979 39.4618C50.162 40.2875 49.7022 41.3257 49.6973 42.3986C49.6923 43.4716 50.1424 44.5126 50.9707 45.3435C51.5548 45.9116 52.1156 46.4956 52.6959 47.0701C55.5427 49.8977 55.531 54.4934 52.9451 57.2539C52.4116 57.8252 51.8742 58.3933 51.2939 58.9294C50.2821 59.8209 49.7067 60.9866 49.6777 62.2038C49.6936 62.6048 49.5503 62.9992 49.2694 63.3277C48.9885 63.6563 48.5852 63.9014 48.1199 64.0261C46.4726 64.5176 44.8642 63.5315 44.8915 62.0411C44.8843 60.229 45.6209 58.4677 46.9828 57.0401C47.5202 56.4752 48.0576 55.904 48.6496 55.3774C50.5306 53.6923 50.4722 50.8296 48.6496 49.2467C48.1355 48.7999 47.6955 48.2892 47.2125 47.8233C44.0581 44.7563 44.1204 39.9437 47.2554 36.9724C47.785 36.4682 48.2952 35.948 48.8132 35.4278C49.5537 34.7208 49.9782 33.8282 50.0165 32.897C50.0211 32.6655 50.0511 32.4348 50.1061 32.2076C50.207 31.7225 50.5243 31.2853 50.9964 30.981C51.4685 30.6767 52.0616 30.527 52.6608 30.5609C53.2761 30.6024 53.848 30.8371 54.2573 31.2159C54.6665 31.5946 54.8815 32.0883 54.8573 32.5938L54.8456 32.9768Z" fill="url(#paint4_linear_2014_61)"/>
<path d="M70.3495 52.4668C70.3757 54.4039 69.5457 56.2834 68.0129 57.7582C67.5144 58.2529 67.0237 58.7507 66.5213 59.2422C65.7582 59.9668 65.3091 60.878 65.2439 61.8336C65.2439 62.0634 65.205 62.2932 65.1583 62.5198C65.0723 62.9532 64.8101 63.3501 64.4142 63.646C64.0183 63.9419 63.512 64.1194 62.9774 64.1497C62.4428 64.18 61.9115 64.0614 61.4696 63.813C61.0277 63.5646 60.7013 63.2011 60.5434 62.7815C60.4526 62.5374 60.408 62.2834 60.411 62.0283C60.4026 60.1902 61.1596 58.4047 62.5568 56.9667C63.1176 56.3859 63.6862 55.805 64.282 55.2433C65.9956 53.6476 65.9488 50.887 64.282 49.3584C63.7212 48.8413 63.1994 48.2956 62.6736 47.7626C61.1747 46.2278 60.3678 44.3163 60.3891 42.3505C60.4104 40.3848 61.2585 38.4852 62.7905 36.9724C63.285 36.4746 63.7835 35.9799 64.2781 35.4852C65.0457 34.7629 65.4894 33.8476 65.536 32.8906C65.5417 32.66 65.573 32.4304 65.6295 32.2045C65.7261 31.719 66.0424 31.2812 66.5152 30.9783C66.988 30.6753 67.5828 30.5294 68.181 30.5697C68.7791 30.6099 69.3369 30.8333 69.7431 31.1954C70.1493 31.5575 70.3742 32.0317 70.3729 32.5236C70.4274 34.4671 69.6224 36.3612 68.1063 37.8565C67.6195 38.3575 67.1444 38.8681 66.6148 39.3405C65.7238 40.1791 65.2279 41.251 65.2165 42.3629C65.205 43.4748 65.6789 44.5534 66.5525 45.4042C67.1094 45.9244 67.6312 46.4669 68.157 46.9999C69.6797 48.5408 70.4599 50.486 70.3495 52.4668Z" fill="url(#paint5_linear_2014_61)"/>
<path d="M85.8646 32.9738C85.789 34.8381 84.9353 36.6247 83.4462 38.0354C82.9672 38.5077 82.5076 38.9928 82.013 39.4556C80.2878 41.0705 80.3268 43.7417 81.9313 45.2831C82.5193 45.848 83.0723 46.4352 83.6565 47.0065C86.6007 49.8979 86.6591 54.6946 83.5747 57.685C83.0723 58.1733 82.5933 58.6807 82.087 59.169C81.2651 59.9206 80.7874 60.8829 80.7357 61.8913C80.7286 62.0709 80.7078 62.25 80.6734 62.4275C80.5998 62.9158 80.3062 63.364 79.8501 63.6841C79.394 64.0041 78.8083 64.1729 78.2082 64.1572C77.5894 64.1398 77.0032 63.9254 76.5742 63.5595C76.1452 63.1936 75.9071 62.7051 75.9105 62.1977C75.8375 61.1433 76.0627 60.0893 76.5686 59.118C77.0528 58.3166 77.6059 57.5444 78.2238 56.8074C78.6743 56.283 79.1688 55.785 79.7036 55.317C81.5107 53.667 81.4522 50.9288 79.7815 49.3714C79.2052 48.832 78.6716 48.2607 78.1147 47.7086C75.1238 44.747 75.1394 39.9311 78.2549 36.9727C78.7885 36.4684 79.2947 35.945 79.8127 35.428C80.527 34.7372 80.9528 33.8772 81.0277 32.9738C81.0392 32.7182 81.0705 32.4634 81.1212 32.2111C81.231 31.7462 81.5427 31.3297 81.9987 31.0389C82.4546 30.7481 83.0238 30.6026 83.6006 30.6295C84.1774 30.6564 84.7228 30.8538 85.1356 31.1851C85.5483 31.5165 85.8004 31.9592 85.8451 32.4313C85.8763 32.6164 85.8646 32.7951 85.8646 32.9738Z" fill="url(#paint6_linear_2014_61)"/>
<path d="M139.039 43.2819C139.51 43.2819 139.981 43.2532 140.445 43.2819C141.06 43.311 141.639 43.5306 142.064 43.8962C142.489 44.2618 142.729 44.7461 142.735 45.251C142.73 45.7435 142.498 46.2163 142.086 46.5745C141.673 46.9326 141.111 47.1496 140.511 47.1819C139.516 47.2505 138.515 47.2505 137.52 47.1819C136.918 47.1554 136.353 46.9361 135.947 46.5714C135.54 46.2066 135.325 45.7255 135.347 45.2319C135.338 44.7389 135.561 44.2621 135.97 43.9007C136.379 43.5392 136.943 43.321 137.543 43.2915C138.042 43.2708 138.541 43.2708 139.039 43.2915V43.2819Z" fill="url(#paint7_linear_2014_61)"/>
<path d="M139.043 55.7286C138.457 55.7186 137.872 55.6835 137.291 55.6233C136.728 55.5506 136.218 55.31 135.858 54.9477C135.499 54.5853 135.315 54.1269 135.343 53.6605C135.335 53.1934 135.542 52.741 135.924 52.3937C136.305 52.0463 136.832 51.8297 137.4 51.7872C138.488 51.709 139.583 51.709 140.671 51.7872C141.237 51.8424 141.759 52.0653 142.138 52.4139C142.518 52.7624 142.728 53.2126 142.731 53.6797C142.735 54.145 142.537 54.5964 142.171 54.9526C141.806 55.3088 141.297 55.5466 140.737 55.6233C140.175 55.683 139.61 55.7181 139.043 55.7286Z" fill="url(#paint8_linear_2014_61)"/>
<path d="M151.973 43.2819C152.44 43.2819 152.915 43.2532 153.379 43.2819C153.981 43.3083 154.55 43.5203 154.97 43.8753C155.39 44.2303 155.631 44.7023 155.645 45.1968C155.667 45.7024 155.447 46.1951 155.031 46.5692C154.616 46.9432 154.038 47.1689 153.421 47.1978C152.425 47.2664 151.423 47.2664 150.427 47.1978C149.825 47.1665 149.263 46.9443 148.858 46.5784C148.454 46.2124 148.24 45.7316 148.261 45.2383C148.247 44.7379 148.473 44.2529 148.89 43.8873C149.307 43.5216 149.883 43.3043 150.493 43.2819C150.992 43.2612 151.493 43.2612 151.992 43.2819H151.973Z" fill="url(#paint9_linear_2014_61)"/>
<path d="M139.067 34.748C139.658 34.7578 140.248 34.7951 140.835 34.8597C141.314 34.9385 141.752 35.1371 142.087 35.4281C142.423 35.7192 142.641 36.0884 142.71 36.4849C142.779 36.8814 142.697 37.2858 142.474 37.6423C142.251 37.9988 141.899 38.29 141.466 38.4756C141.134 38.6151 140.77 38.6956 140.398 38.7118C139.49 38.7519 138.58 38.7519 137.672 38.7118C137.358 38.712 137.046 38.6601 136.757 38.5593C136.467 38.4586 136.206 38.3109 135.988 38.1252C135.769 37.9396 135.599 37.7197 135.487 37.4789C135.375 37.238 135.324 36.9811 135.336 36.7235C135.336 35.6672 136.27 34.8853 137.649 34.7895C138.112 34.7576 138.584 34.7895 139.055 34.7895L139.067 34.748Z" fill="url(#paint10_linear_2014_61)"/>
<path d="M151.851 38.763C151.326 38.7407 150.788 38.763 150.266 38.6832C149.721 38.6186 149.221 38.3981 148.854 38.0605C148.488 37.7229 148.279 37.2901 148.265 36.8386C148.226 35.8811 148.938 35.0003 150.087 34.8886C151.324 34.7705 152.574 34.7705 153.81 34.8886C154.951 35.0003 155.691 35.9131 155.645 36.8386C155.624 37.29 155.411 37.7213 155.043 38.0581C154.676 38.3948 154.176 38.6159 153.631 38.6832C153.047 38.7502 152.44 38.7407 151.851 38.763Z" fill="url(#paint11_linear_2014_61)"/>
<path d="M151.922 51.7552C152.42 51.7552 152.926 51.7232 153.421 51.7552C154.004 51.7873 154.552 51.9935 154.962 52.3346C155.372 52.6757 155.615 53.1281 155.645 53.6062C155.682 54.0984 155.487 54.5835 155.098 54.9605C154.71 55.3374 154.16 55.5771 153.561 55.6295C152.475 55.7205 151.38 55.7205 150.294 55.6295C149.71 55.5787 149.173 55.3452 148.794 54.9778C148.416 54.6103 148.225 54.1373 148.261 53.6572C148.268 53.1778 148.495 52.718 148.896 52.3687C149.297 52.0195 149.843 51.8062 150.426 51.7711C150.924 51.7487 151.424 51.7487 151.922 51.7711V51.7552Z" fill="url(#paint12_linear_2014_61)"/>
<mask id="path-14-outside-1_2014_61" maskUnits="userSpaceOnUse" x="45.6364" y="62.1697" width="79" height="82" fill="black">
<rect fill="white" x="45.6364" y="62.1697" width="79" height="82"/>
<path d="M91.942 117.545C90.2982 118.587 88.5325 119.412 86.6869 120C86.3898 120.095 86.3656 120.129 86.3634 120.471C86.3634 121.896 86.3634 123.324 86.3634 124.754C86.3634 124.883 86.3634 125.009 86.3634 125.138C86.3665 125.33 86.3313 125.521 86.2599 125.699C86.1885 125.877 86.0823 126.038 85.948 126.172C85.8137 126.307 85.654 126.412 85.4787 126.481C85.3034 126.55 85.1162 126.581 84.9286 126.574C81.3723 126.556 77.8183 126.574 74.2643 126.574C73.5821 126.574 73.1243 126.274 72.9197 125.672C72.8582 125.465 72.8307 125.248 72.8382 125.032C72.8382 123.542 72.8382 122.054 72.8382 120.566C72.8382 120.127 72.8382 120.127 72.4135 119.987C71.1514 119.57 69.924 119.051 68.7429 118.434C68.3776 118.242 68.3753 118.244 68.0827 118.549L65.0392 121.581C64.9666 121.65 64.8961 121.725 64.8191 121.792C64.698 121.919 64.5534 122.02 64.3937 122.089C64.234 122.158 64.0626 122.193 63.8893 122.193C63.7161 122.193 63.5447 122.158 63.385 122.089C63.2253 122.02 63.0807 121.919 62.9596 121.792C62.6647 121.515 62.3874 121.218 62.1035 120.929L55.4004 114.076C55.1803 113.884 55.0146 113.635 54.9206 113.355C54.8527 113.133 54.8417 112.897 54.8887 112.67C54.9357 112.442 55.0392 112.231 55.1891 112.056C55.3212 111.901 55.4642 111.757 55.605 111.605L58.4989 108.648C58.7476 108.395 58.752 108.391 58.5847 108.066C57.9425 106.791 57.4072 105.462 56.9848 104.094C56.9606 104.022 56.9298 103.952 56.8858 103.837H56.4457C55.0065 103.837 53.5673 103.837 52.128 103.837C51.9035 103.84 51.6802 103.804 51.4678 103.729C51.2457 103.654 51.0499 103.514 50.9047 103.326C50.7596 103.138 50.6715 102.911 50.6514 102.672C50.6379 102.503 50.6334 102.334 50.6382 102.165V91.5698C50.6353 91.4194 50.6397 91.2689 50.6514 91.1189C50.6812 90.8164 50.812 90.5337 51.0217 90.3186C51.2314 90.1034 51.5071 89.9688 51.8023 89.9377C51.963 89.9197 52.128 89.9219 52.2887 89.9197H56.8968C56.9826 89.6582 57.0597 89.4192 57.1389 89.1803C57.5267 87.9893 58.0057 86.8315 58.5715 85.7178C58.7564 85.3616 58.752 85.3571 58.4703 85.0708C57.433 84.0098 56.3958 82.9503 55.3586 81.8923C54.9779 81.5023 54.771 81.056 54.9052 80.5059C54.9718 80.2869 55.0729 80.0806 55.2045 79.895C55.3113 79.7533 55.4314 79.6227 55.5632 79.5051C57.9355 77.072 60.3078 74.6404 62.6801 72.2103C62.801 72.0805 62.9296 71.9586 63.0652 71.8451C63.2976 71.6555 63.5852 71.5509 63.8823 71.5481C64.1794 71.5452 64.4689 71.6442 64.7047 71.8294C64.8238 71.9208 64.9364 72.021 65.0414 72.1292C66.0566 73.1571 67.0696 74.1873 68.0805 75.2197C68.3665 75.5083 68.3687 75.5128 68.7142 75.3302C69.9152 74.6962 71.1668 74.1683 72.4553 73.7522C72.7744 73.6508 72.7964 73.6102 72.7964 73.254C72.7964 71.7775 72.7964 70.301 72.7964 68.8267C72.7865 68.5713 72.8185 68.3161 72.8911 68.0715C72.9631 67.8511 73.0933 67.6554 73.2674 67.5061C73.4414 67.3569 73.6524 67.26 73.8769 67.2262C74.0737 67.1895 74.2733 67.1706 74.4733 67.1698H84.6887C84.8358 67.1684 84.9828 67.1767 85.1288 67.1946C85.4779 67.2167 85.8048 67.3775 86.0399 67.6428C86.275 67.908 86.3997 68.2568 86.3876 68.6148C86.4008 69.0882 86.3876 69.5638 86.3876 70.0395C86.3876 71.117 86.3876 72.1946 86.3876 73.2721C86.3876 73.6328 86.3876 73.6508 86.7375 73.759C88.0378 74.1796 89.301 74.712 90.5138 75.3505C90.8329 75.5173 90.8351 75.5196 91.0881 75.2603C92.1166 74.2249 93.1399 73.1812 94.158 72.1292C94.2867 71.9901 94.4282 71.864 94.5806 71.7527C94.7962 71.6061 95.0507 71.5311 95.3094 71.5379C95.5681 71.5448 95.8185 71.6332 96.0264 71.791C96.1474 71.8819 96.2607 71.9829 96.3653 72.0931C98.8271 74.6134 101.288 77.1351 103.748 79.6584C103.985 79.8763 104.158 80.1573 104.248 80.4699C104.298 80.6559 104.308 80.8509 104.276 81.0411C104.244 81.2313 104.171 81.4119 104.063 81.5699C103.954 81.7263 103.831 81.8719 103.696 82.005C102.705 83.0209 101.714 84.0361 100.72 85.0505C100.615 85.1564 100.52 85.2759 100.43 85.3729C100.751 86.0784 101.09 86.7412 101.356 87.4265C101.623 88.1118 101.898 88.8602 102.133 89.5883C102.232 89.8971 102.281 89.9332 102.613 89.9332C104.054 89.9332 105.494 89.9332 106.933 89.9332C107.155 89.924 107.378 89.9499 107.593 90.0098C107.853 90.0911 108.082 90.2525 108.249 90.4719C108.416 90.6914 108.512 90.9582 108.526 91.2361C108.532 91.3383 108.532 91.4406 108.526 91.5427C108.526 95.1089 108.526 98.6759 108.526 102.244C108.529 102.487 108.495 102.728 108.425 102.96C108.352 103.21 108.206 103.43 108.007 103.592C107.808 103.753 107.565 103.847 107.311 103.862C107.086 103.879 106.861 103.884 106.636 103.876H102.628C102.208 103.876 102.219 103.941 102.129 104.241C101.626 105.881 100.954 107.461 100.124 108.954C99.9479 109.27 99.9479 109.275 100.205 109.538L104.624 114.047C105.397 114.834 106.165 115.625 106.937 116.412C107.092 116.577 107.298 116.682 107.52 116.709C109.602 117.01 111.682 117.324 113.759 117.651C114.217 117.738 114.649 117.93 115.022 118.215C115.817 118.802 116.491 119.545 117.003 120.402C117.676 121.498 118.213 122.676 118.601 123.909C119.221 125.705 119.452 127.618 119.278 129.515C119.183 130.656 118.856 131.764 118.319 132.768C117.929 133.474 117.329 133.744 116.657 133.528C116.312 133.402 116.026 133.147 115.856 132.813C115.201 131.706 114.54 130.604 113.876 129.509C113.653 129.137 113.412 128.778 113.154 128.431C112.978 128.198 112.778 127.985 112.558 127.795C112.364 127.619 112.131 127.494 111.879 127.433C111.627 127.372 111.364 127.377 111.114 127.446C110.086 127.698 109.17 128.298 108.515 129.148C108.191 129.561 108.002 130.068 107.974 130.597C107.941 130.97 108.022 131.344 108.207 131.666C108.988 132.994 109.747 134.331 110.526 135.665C110.618 135.817 110.698 135.977 110.764 136.143C110.834 136.334 110.861 136.54 110.842 136.743C110.823 136.947 110.758 137.143 110.654 137.317C110.549 137.491 110.407 137.639 110.238 137.748C110.069 137.857 109.878 137.925 109.679 137.946C109.182 137.994 108.68 137.971 108.178 137.976C107.815 137.976 107.452 137.976 107.089 137.976C106.749 137.983 106.416 137.875 106.143 137.669C104.301 136.251 102.448 134.847 100.751 133.246C100.38 132.883 100.029 132.5 99.6992 132.097C99.3646 131.692 99.1875 131.175 99.2019 130.645C99.1843 128.823 99.1293 127.004 99.1007 125.183C99.1011 125.062 99.0768 124.943 99.0294 124.833C98.9821 124.723 98.9126 124.624 98.8256 124.543C96.6161 122.288 94.4111 120.034 92.2105 117.78C92.1224 117.701 92.0366 117.631 91.942 117.545ZM83.5906 108.979C83.5532 108.919 83.5128 108.861 83.4695 108.806C83.0184 108.326 82.5629 107.848 82.1139 107.365C82.0603 107.303 81.9946 107.254 81.921 107.22C81.8475 107.185 81.7678 107.167 81.687 107.167C81.2997 107.153 80.9124 107.106 80.5251 107.099C79.0749 107.07 77.6224 107.032 76.1722 107.043C75.7321 107.043 75.3162 106.989 74.9839 106.689C74.4755 106.254 73.9921 105.79 73.5358 105.298C72.024 103.598 70.7036 101.741 69.3546 99.906C69.1848 99.6802 69.0906 99.4043 69.0862 99.1192C69.0862 98.2333 69.062 97.3474 69.0862 96.4615C69.0911 96.1293 69.2151 95.8107 69.4347 95.5662C69.6543 95.3217 69.954 95.1686 70.2767 95.136C70.6293 95.108 70.9805 95.2051 71.2714 95.411C72.5918 96.227 73.9408 97.0318 75.27 97.8523C75.6374 98.0798 76.074 98.16 76.4957 98.0778C76.9832 97.9999 77.4402 97.7853 77.8161 97.4579C78.5057 96.8556 79.0286 96.0782 79.3323 95.2036C79.4708 94.8688 79.5045 94.4982 79.4288 94.143C79.3532 93.7877 79.1718 93.4652 78.9098 93.2199C78.7458 93.0446 78.5668 92.8847 78.3751 92.742C77.6202 92.2145 76.8632 91.6892 76.093 91.1866C75.4328 90.7628 74.7726 90.3705 74.0948 89.9648C73.8814 89.8473 73.7031 89.6729 73.5788 89.4599C73.4545 89.247 73.3888 89.0035 73.3888 88.7553C73.3888 88.5072 73.4545 88.2637 73.5788 88.0508C73.7031 87.8378 73.8814 87.6634 74.0948 87.5459C74.9365 87.0595 75.8586 86.7362 76.8148 86.5924C78.1901 86.3698 79.5934 86.4049 80.9564 86.6961C82.6427 87.0275 84.2628 87.6463 85.7494 88.5265C86.7785 89.0947 87.6715 89.8901 88.3638 90.8552C88.6667 91.2658 88.8771 91.74 88.9799 92.2438C89.0944 92.8885 89.1802 93.5355 89.2682 94.1847C89.4663 95.6454 89.6592 97.1062 89.847 98.5669C89.8714 98.7846 89.9686 98.9869 90.1221 99.1395C90.5314 99.5566 90.9275 99.9826 91.3302 100.404C91.3826 100.453 91.4377 100.499 91.4953 100.542C91.5305 100.515 91.5569 100.503 91.5679 100.483C91.5789 100.463 91.6031 100.388 91.6185 100.341C91.83 99.5755 91.9707 98.7914 92.0388 97.9989C92.1938 96.3597 92.0255 94.7054 91.5437 93.1342C90.8666 90.8651 89.5838 88.835 87.84 87.2732C87.7069 87.156 87.5805 87.0311 87.4615 86.899C87.2789 86.701 87.1621 86.449 87.1277 86.179C87.0933 85.909 87.1431 85.6347 87.27 85.3954C87.3814 85.1556 87.5606 84.9557 87.7842 84.8214C88.0079 84.6872 88.2657 84.6248 88.5244 84.6425C88.8882 84.6691 89.2304 84.8292 89.4883 85.0933C91.058 86.4624 92.3321 88.1514 93.2294 90.0527C93.933 91.5297 94.4011 93.1127 94.6158 94.7415C94.8379 96.3968 94.8008 98.0778 94.5057 99.7211C94.3499 100.647 94.0999 101.554 93.7597 102.426C93.7089 102.528 93.6948 102.644 93.7197 102.755C93.7447 102.866 93.8072 102.964 93.8962 103.033C95.1703 104.322 96.4313 105.623 97.6989 106.919C97.7759 106.998 97.8617 107.065 97.9321 107.131C97.9871 107.099 98.018 107.092 98.029 107.074C98.0994 106.955 98.172 106.836 98.2358 106.709C98.9484 105.297 99.5028 103.806 99.8885 102.266C99.9567 101.908 100.15 101.587 100.432 101.364C100.712 101.166 101.047 101.067 101.387 101.083H105.788C105.892 100.661 105.879 92.9967 105.773 92.6698H105.381C104.061 92.6698 102.727 92.6698 101.4 92.6698C100.54 92.6698 100.08 92.2821 99.8599 91.439C99.7587 91.031 99.6398 90.6252 99.5122 90.224C99.0458 88.761 98.4314 87.352 97.6791 86.0198C97.5532 85.8 97.4647 85.5599 97.4172 85.3097C97.3889 85.0863 97.4155 84.8591 97.4947 84.6489C97.5739 84.4387 97.703 84.2521 97.8705 84.106C98.8344 83.1141 99.7946 82.12 100.751 81.1236C100.844 81.0267 100.929 80.9207 100.989 80.8508L95.1923 74.9244C95.1439 74.9718 95.0515 75.0552 94.9723 75.1499C94.0062 76.1372 93.0467 77.1336 92.0696 78.1097C91.8784 78.2934 91.6542 78.4373 91.4094 78.5335C90.9693 78.7071 90.5732 78.5583 90.1947 78.3261C89.3201 77.7763 88.3969 77.3121 87.4373 76.9397C86.546 76.6039 85.6372 76.3176 84.7305 76.038C84.5099 75.982 84.3067 75.87 84.1394 75.7125C83.9721 75.5549 83.8462 75.3568 83.7732 75.1363C83.715 74.9269 83.6897 74.7092 83.6984 74.4916C83.6984 73.1053 83.6984 71.7212 83.6984 70.3348C83.6984 69.9583 83.6764 69.9403 83.3221 69.9313H76.0688C75.4966 69.9313 75.4966 69.9313 75.4966 70.5242C75.4966 71.8767 75.4966 73.2292 75.4966 74.566C75.4966 75.373 75.1445 75.8284 74.3831 76.0403C73.04 76.4014 71.7352 76.8983 70.488 77.5236C69.929 77.8121 69.3876 78.1277 68.8331 78.4253C68.5873 78.5847 68.2971 78.6566 68.0074 78.6297C67.7177 78.6027 67.4448 78.4786 67.231 78.2765C67.1276 78.1841 67.0308 78.0826 66.9339 77.9834C66.0199 77.0472 65.1067 76.1117 64.1941 75.1769C64.1017 75.0822 63.9983 74.9966 63.875 74.8839L58.0632 80.7674C58.2106 80.941 58.2832 81.0379 58.3712 81.1259C58.873 81.6443 59.3791 82.1606 59.8831 82.679L61.2893 84.124C61.4534 84.2751 61.5769 84.4667 61.6482 84.6806C61.7195 84.8945 61.7361 85.1235 61.6964 85.3458C61.6428 85.5948 61.5499 85.8331 61.4213 86.0514C60.4585 87.7487 59.7284 89.5738 59.2515 91.4751C59.1459 91.8989 58.9654 92.2911 58.5561 92.4737C58.294 92.5907 58.0122 92.6542 57.7265 92.6608C56.4061 92.6811 55.0857 92.6608 53.7477 92.6608C53.6135 92.6608 53.4792 92.6721 53.3692 92.6766C53.347 92.7105 53.3285 92.7468 53.3142 92.7848C53.3047 92.8475 53.2996 92.9108 53.2988 92.9742C53.2988 95.5936 53.2988 98.2115 53.2988 100.828C53.3018 100.879 53.3092 100.929 53.3208 100.979C53.3208 100.99 53.334 100.999 53.3428 101.008C53.3604 101.031 53.3795 101.052 53.4 101.071H53.7741C55.0945 101.071 56.4149 101.071 57.7177 101.071C58.5979 101.071 59.038 101.452 59.2581 102.329C59.5062 103.363 59.8495 104.37 60.2836 105.336C60.6643 106.171 61.0912 106.984 61.516 107.798C61.718 108.097 61.8034 108.463 61.7553 108.824C61.7073 109.184 61.5292 109.513 61.2563 109.746L58.4175 112.674C58.325 112.769 58.2414 112.875 58.16 112.969C58.4175 113.353 63.7012 118.747 63.9653 118.893C64.0577 118.801 64.1567 118.706 64.2514 118.607C65.1521 117.692 66.0463 116.777 66.9339 115.861C66.9526 115.845 66.9703 115.827 66.9867 115.807C67.5897 115.097 68.3203 115.059 69.0355 115.503C69.9464 116.067 70.9099 116.537 71.9118 116.905C72.7568 117.219 73.6239 117.476 74.4843 117.746C74.6857 117.799 74.8714 117.901 75.0249 118.045C75.1784 118.188 75.2951 118.368 75.3646 118.569C75.4351 118.801 75.4663 119.043 75.457 119.286C75.457 120.609 75.457 121.93 75.457 123.251C75.457 123.341 75.457 123.431 75.457 123.521C75.4702 123.787 75.5032 123.819 75.7739 123.833C75.8223 123.833 75.8729 123.833 75.9235 123.833H83.2847C83.4057 123.833 83.5267 123.819 83.6786 123.81C83.6786 123.63 83.7028 123.479 83.7028 123.33C83.7028 121.93 83.7028 120.532 83.7028 119.135C83.6916 118.839 83.7743 118.547 83.9385 118.303C84.1027 118.059 84.3397 117.876 84.6139 117.782C84.7547 117.733 84.8999 117.687 85.054 117.647C86.697 117.19 88.2787 116.528 89.7634 115.674C89.8329 115.624 89.8971 115.565 89.9548 115.501C89.9219 115.452 89.8867 115.406 89.8492 115.361C88.5288 114.022 87.2084 112.688 85.91 111.339C85.8439 111.265 85.7542 111.217 85.6567 111.204C85.5592 111.19 85.4603 111.213 85.3775 111.267C83.1538 112.221 80.7372 112.608 78.3354 112.394C75.8255 112.2 73.4069 111.346 71.3132 109.915C67.2794 107.156 64.9908 103.278 64.478 98.3438C64.2039 95.7267 64.6124 93.0819 65.662 90.6793C66.7855 88.0365 68.6016 85.764 70.9089 84.1139C73.2162 82.4638 75.9246 81.5006 78.7338 81.331C79.0333 81.3092 79.3337 81.3032 79.6338 81.313C79.9563 81.3232 80.264 81.4541 80.4988 81.6808C80.7335 81.9076 80.8791 82.2146 80.908 82.5438C80.9482 82.872 80.8667 83.2037 80.6797 83.4733C80.4926 83.743 80.2137 83.9309 79.8979 84C79.6893 84.0429 79.4769 84.0633 79.2641 84.0609C77.6074 84.1039 75.9761 84.4871 74.4667 85.188C72.4186 86.1333 70.6564 87.6255 69.3648 89.5082C68.0732 91.3908 67.2997 93.5947 67.1254 95.8889C66.8962 98.8629 67.6868 101.826 69.3612 104.267C71.0355 106.708 73.4885 108.474 76.2976 109.261C78.5917 109.924 81.0254 109.881 83.2957 109.137C83.3771 109.099 83.4607 109.042 83.5906 108.984V108.979ZM116.6 128.645L116.671 128.618C116.684 128.523 116.692 128.428 116.693 128.332C116.646 127.717 116.633 127.099 116.536 126.493C116.301 125.1 115.843 123.758 115.181 122.518C114.826 121.794 114.338 121.146 113.744 120.611C113.513 120.391 113.219 120.254 112.905 120.221C112.608 120.201 112.311 120.145 112.014 120.102C110.243 119.84 108.473 119.563 106.699 119.329C106.19 119.271 105.716 119.032 105.361 118.652C100.583 113.767 95.8004 108.888 91.0133 104.015C89.9306 102.911 88.8523 101.804 87.7652 100.704C87.502 100.462 87.3254 100.136 87.2634 99.7797C87.1182 98.7653 86.9795 97.7509 86.8409 96.732C86.6825 95.5778 86.5086 94.4236 86.3788 93.265C86.322 92.7663 86.0868 92.3069 85.7186 91.9755C85.1058 91.3968 84.4067 90.9219 83.6478 90.5689C82.0678 89.7506 80.3317 89.2974 78.5621 89.2411C78.4301 89.2411 78.298 89.2411 78.1682 89.2547C78.2147 89.3581 78.2917 89.444 78.3883 89.5004C78.6721 89.6897 78.9604 89.8678 79.2421 90.0617C79.9253 90.4901 80.5412 91.0221 81.0686 91.6397C81.9973 92.8119 82.3296 94.1193 81.9731 95.6004C81.6166 97.0547 80.8415 98.3655 79.7483 99.3627C79.1829 99.9127 78.5042 100.326 77.7623 100.572C77.0204 100.817 76.2342 100.89 75.4614 100.783C74.9991 100.74 74.5522 100.59 74.1542 100.346C73.6107 100.003 73.0539 99.6693 72.5059 99.3447C72.4154 99.3018 72.322 99.2657 72.2265 99.2365C72.2594 99.3143 72.2976 99.3896 72.3409 99.4619C73.5058 101.071 74.7546 102.614 76.082 104.085C76.1454 104.154 76.2227 104.209 76.3086 104.244C76.3945 104.279 76.4869 104.295 76.5793 104.29C78.4675 104.351 80.3556 104.435 82.246 104.48C82.5202 104.484 82.7908 104.546 83.0404 104.662C83.29 104.778 83.5134 104.947 83.6962 105.156C84.8977 106.412 86.1169 107.636 87.3339 108.887C91.9038 113.565 96.4768 118.241 101.053 122.915C101.284 123.137 101.468 123.405 101.594 123.704C101.719 124.002 101.783 124.324 101.781 124.649C101.825 126.535 101.922 128.418 101.99 130.304C101.993 130.4 102.015 130.493 102.055 130.579C102.095 130.665 102.152 130.741 102.223 130.803C103.651 132.149 105.146 133.418 106.704 134.603C106.788 134.651 106.874 134.693 106.964 134.73C106.862 134.538 106.81 134.427 106.743 134.319C106.42 133.756 106.083 133.192 105.777 132.626C105.632 132.357 105.526 132.068 105.463 131.767C105.31 131.05 105.308 130.308 105.458 129.59C105.607 128.872 105.905 128.195 106.33 127.604C107.247 126.323 108.533 125.37 110.007 124.878C110.739 124.601 111.53 124.529 112.298 124.671C113.262 124.873 114.14 125.381 114.807 126.123C115.434 126.779 115.894 127.561 116.373 128.327C116.437 128.433 116.521 128.542 116.596 128.65L116.6 128.645Z"/>
</mask>
<path d="M91.942 117.545C90.2982 118.587 88.5325 119.412 86.6869 120C86.3898 120.095 86.3656 120.129 86.3634 120.471C86.3634 121.896 86.3634 123.324 86.3634 124.754C86.3634 124.883 86.3634 125.009 86.3634 125.138C86.3665 125.33 86.3313 125.521 86.2599 125.699C86.1885 125.877 86.0823 126.038 85.948 126.172C85.8137 126.307 85.654 126.412 85.4787 126.481C85.3034 126.55 85.1162 126.581 84.9286 126.574C81.3723 126.556 77.8183 126.574 74.2643 126.574C73.5821 126.574 73.1243 126.274 72.9197 125.672C72.8582 125.465 72.8307 125.248 72.8382 125.032C72.8382 123.542 72.8382 122.054 72.8382 120.566C72.8382 120.127 72.8382 120.127 72.4135 119.987C71.1514 119.57 69.924 119.051 68.7429 118.434C68.3776 118.242 68.3753 118.244 68.0827 118.549L65.0392 121.581C64.9666 121.65 64.8961 121.725 64.8191 121.792C64.698 121.919 64.5534 122.02 64.3937 122.089C64.234 122.158 64.0626 122.193 63.8893 122.193C63.7161 122.193 63.5447 122.158 63.385 122.089C63.2253 122.02 63.0807 121.919 62.9596 121.792C62.6647 121.515 62.3874 121.218 62.1035 120.929L55.4004 114.076C55.1803 113.884 55.0146 113.635 54.9206 113.355C54.8527 113.133 54.8417 112.897 54.8887 112.67C54.9357 112.442 55.0392 112.231 55.1891 112.056C55.3212 111.901 55.4642 111.757 55.605 111.605L58.4989 108.648C58.7476 108.395 58.752 108.391 58.5847 108.066C57.9425 106.791 57.4072 105.462 56.9848 104.094C56.9606 104.022 56.9298 103.952 56.8858 103.837H56.4457C55.0065 103.837 53.5673 103.837 52.128 103.837C51.9035 103.84 51.6802 103.804 51.4678 103.729C51.2457 103.654 51.0499 103.514 50.9047 103.326C50.7596 103.138 50.6715 102.911 50.6514 102.672C50.6379 102.503 50.6334 102.334 50.6382 102.165V91.5698C50.6353 91.4194 50.6397 91.2689 50.6514 91.1189C50.6812 90.8164 50.812 90.5337 51.0217 90.3186C51.2314 90.1034 51.5071 89.9688 51.8023 89.9377C51.963 89.9197 52.128 89.9219 52.2887 89.9197H56.8968C56.9826 89.6582 57.0597 89.4192 57.1389 89.1803C57.5267 87.9893 58.0057 86.8315 58.5715 85.7178C58.7564 85.3616 58.752 85.3571 58.4703 85.0708C57.433 84.0098 56.3958 82.9503 55.3586 81.8923C54.9779 81.5023 54.771 81.056 54.9052 80.5059C54.9718 80.2869 55.0729 80.0806 55.2045 79.895C55.3113 79.7533 55.4314 79.6227 55.5632 79.5051C57.9355 77.072 60.3078 74.6404 62.6801 72.2103C62.801 72.0805 62.9296 71.9586 63.0652 71.8451C63.2976 71.6555 63.5852 71.5509 63.8823 71.5481C64.1794 71.5452 64.4689 71.6442 64.7047 71.8294C64.8238 71.9208 64.9364 72.021 65.0414 72.1292C66.0566 73.1571 67.0696 74.1873 68.0805 75.2197C68.3665 75.5083 68.3687 75.5128 68.7142 75.3302C69.9152 74.6962 71.1668 74.1683 72.4553 73.7522C72.7744 73.6508 72.7964 73.6102 72.7964 73.254C72.7964 71.7775 72.7964 70.301 72.7964 68.8267C72.7865 68.5713 72.8185 68.3161 72.8911 68.0715C72.9631 67.8511 73.0933 67.6554 73.2674 67.5061C73.4414 67.3569 73.6524 67.26 73.8769 67.2262C74.0737 67.1895 74.2733 67.1706 74.4733 67.1698H84.6887C84.8358 67.1684 84.9828 67.1767 85.1288 67.1946C85.4779 67.2167 85.8048 67.3775 86.0399 67.6428C86.275 67.908 86.3997 68.2568 86.3876 68.6148C86.4008 69.0882 86.3876 69.5638 86.3876 70.0395C86.3876 71.117 86.3876 72.1946 86.3876 73.2721C86.3876 73.6328 86.3876 73.6508 86.7375 73.759C88.0378 74.1796 89.301 74.712 90.5138 75.3505C90.8329 75.5173 90.8351 75.5196 91.0881 75.2603C92.1166 74.2249 93.1399 73.1812 94.158 72.1292C94.2867 71.9901 94.4282 71.864 94.5806 71.7527C94.7962 71.6061 95.0507 71.5311 95.3094 71.5379C95.5681 71.5448 95.8185 71.6332 96.0264 71.791C96.1474 71.8819 96.2607 71.9829 96.3653 72.0931C98.8271 74.6134 101.288 77.1351 103.748 79.6584C103.985 79.8763 104.158 80.1573 104.248 80.4699C104.298 80.6559 104.308 80.8509 104.276 81.0411C104.244 81.2313 104.171 81.4119 104.063 81.5699C103.954 81.7263 103.831 81.8719 103.696 82.005C102.705 83.0209 101.714 84.0361 100.72 85.0505C100.615 85.1564 100.52 85.2759 100.43 85.3729C100.751 86.0784 101.09 86.7412 101.356 87.4265C101.623 88.1118 101.898 88.8602 102.133 89.5883C102.232 89.8971 102.281 89.9332 102.613 89.9332C104.054 89.9332 105.494 89.9332 106.933 89.9332C107.155 89.924 107.378 89.9499 107.593 90.0098C107.853 90.0911 108.082 90.2525 108.249 90.4719C108.416 90.6914 108.512 90.9582 108.526 91.2361C108.532 91.3383 108.532 91.4406 108.526 91.5427C108.526 95.1089 108.526 98.6759 108.526 102.244C108.529 102.487 108.495 102.728 108.425 102.96C108.352 103.21 108.206 103.43 108.007 103.592C107.808 103.753 107.565 103.847 107.311 103.862C107.086 103.879 106.861 103.884 106.636 103.876H102.628C102.208 103.876 102.219 103.941 102.129 104.241C101.626 105.881 100.954 107.461 100.124 108.954C99.9479 109.27 99.9479 109.275 100.205 109.538L104.624 114.047C105.397 114.834 106.165 115.625 106.937 116.412C107.092 116.577 107.298 116.682 107.52 116.709C109.602 117.01 111.682 117.324 113.759 117.651C114.217 117.738 114.649 117.93 115.022 118.215C115.817 118.802 116.491 119.545 117.003 120.402C117.676 121.498 118.213 122.676 118.601 123.909C119.221 125.705 119.452 127.618 119.278 129.515C119.183 130.656 118.856 131.764 118.319 132.768C117.929 133.474 117.329 133.744 116.657 133.528C116.312 133.402 116.026 133.147 115.856 132.813C115.201 131.706 114.54 130.604 113.876 129.509C113.653 129.137 113.412 128.778 113.154 128.431C112.978 128.198 112.778 127.985 112.558 127.795C112.364 127.619 112.131 127.494 111.879 127.433C111.627 127.372 111.364 127.377 111.114 127.446C110.086 127.698 109.17 128.298 108.515 129.148C108.191 129.561 108.002 130.068 107.974 130.597C107.941 130.97 108.022 131.344 108.207 131.666C108.988 132.994 109.747 134.331 110.526 135.665C110.618 135.817 110.698 135.977 110.764 136.143C110.834 136.334 110.861 136.54 110.842 136.743C110.823 136.947 110.758 137.143 110.654 137.317C110.549 137.491 110.407 137.639 110.238 137.748C110.069 137.857 109.878 137.925 109.679 137.946C109.182 137.994 108.68 137.971 108.178 137.976C107.815 137.976 107.452 137.976 107.089 137.976C106.749 137.983 106.416 137.875 106.143 137.669C104.301 136.251 102.448 134.847 100.751 133.246C100.38 132.883 100.029 132.5 99.6992 132.097C99.3646 131.692 99.1875 131.175 99.2019 130.645C99.1843 128.823 99.1293 127.004 99.1007 125.183C99.1011 125.062 99.0768 124.943 99.0294 124.833C98.9821 124.723 98.9126 124.624 98.8256 124.543C96.6161 122.288 94.4111 120.034 92.2105 117.78C92.1224 117.701 92.0366 117.631 91.942 117.545ZM83.5906 108.979C83.5532 108.919 83.5128 108.861 83.4695 108.806C83.0184 108.326 82.5629 107.848 82.1139 107.365C82.0603 107.303 81.9946 107.254 81.921 107.22C81.8475 107.185 81.7678 107.167 81.687 107.167C81.2997 107.153 80.9124 107.106 80.5251 107.099C79.0749 107.07 77.6224 107.032 76.1722 107.043C75.7321 107.043 75.3162 106.989 74.9839 106.689C74.4755 106.254 73.9921 105.79 73.5358 105.298C72.024 103.598 70.7036 101.741 69.3546 99.906C69.1848 99.6802 69.0906 99.4043 69.0862 99.1192C69.0862 98.2333 69.062 97.3474 69.0862 96.4615C69.0911 96.1293 69.2151 95.8107 69.4347 95.5662C69.6543 95.3217 69.954 95.1686 70.2767 95.136C70.6293 95.108 70.9805 95.2051 71.2714 95.411C72.5918 96.227 73.9408 97.0318 75.27 97.8523C75.6374 98.0798 76.074 98.16 76.4957 98.0778C76.9832 97.9999 77.4402 97.7853 77.8161 97.4579C78.5057 96.8556 79.0286 96.0782 79.3323 95.2036C79.4708 94.8688 79.5045 94.4982 79.4288 94.143C79.3532 93.7877 79.1718 93.4652 78.9098 93.2199C78.7458 93.0446 78.5668 92.8847 78.3751 92.742C77.6202 92.2145 76.8632 91.6892 76.093 91.1866C75.4328 90.7628 74.7726 90.3705 74.0948 89.9648C73.8814 89.8473 73.7031 89.6729 73.5788 89.4599C73.4545 89.247 73.3888 89.0035 73.3888 88.7553C73.3888 88.5072 73.4545 88.2637 73.5788 88.0508C73.7031 87.8378 73.8814 87.6634 74.0948 87.5459C74.9365 87.0595 75.8586 86.7362 76.8148 86.5924C78.1901 86.3698 79.5934 86.4049 80.9564 86.6961C82.6427 87.0275 84.2628 87.6463 85.7494 88.5265C86.7785 89.0947 87.6715 89.8901 88.3638 90.8552C88.6667 91.2658 88.8771 91.74 88.9799 92.2438C89.0944 92.8885 89.1802 93.5355 89.2682 94.1847C89.4663 95.6454 89.6592 97.1062 89.847 98.5669C89.8714 98.7846 89.9686 98.9869 90.1221 99.1395C90.5314 99.5566 90.9275 99.9826 91.3302 100.404C91.3826 100.453 91.4377 100.499 91.4953 100.542C91.5305 100.515 91.5569 100.503 91.5679 100.483C91.5789 100.463 91.6031 100.388 91.6185 100.341C91.83 99.5755 91.9707 98.7914 92.0388 97.9989C92.1938 96.3597 92.0255 94.7054 91.5437 93.1342C90.8666 90.8651 89.5838 88.835 87.84 87.2732C87.7069 87.156 87.5805 87.0311 87.4615 86.899C87.2789 86.701 87.1621 86.449 87.1277 86.179C87.0933 85.909 87.1431 85.6347 87.27 85.3954C87.3814 85.1556 87.5606 84.9557 87.7842 84.8214C88.0079 84.6872 88.2657 84.6248 88.5244 84.6425C88.8882 84.6691 89.2304 84.8292 89.4883 85.0933C91.058 86.4624 92.3321 88.1514 93.2294 90.0527C93.933 91.5297 94.4011 93.1127 94.6158 94.7415C94.8379 96.3968 94.8008 98.0778 94.5057 99.7211C94.3499 100.647 94.0999 101.554 93.7597 102.426C93.7089 102.528 93.6948 102.644 93.7197 102.755C93.7447 102.866 93.8072 102.964 93.8962 103.033C95.1703 104.322 96.4313 105.623 97.6989 106.919C97.7759 106.998 97.8617 107.065 97.9321 107.131C97.9871 107.099 98.018 107.092 98.029 107.074C98.0994 106.955 98.172 106.836 98.2358 106.709C98.9484 105.297 99.5028 103.806 99.8885 102.266C99.9567 101.908 100.15 101.587 100.432 101.364C100.712 101.166 101.047 101.067 101.387 101.083H105.788C105.892 100.661 105.879 92.9967 105.773 92.6698H105.381C104.061 92.6698 102.727 92.6698 101.4 92.6698C100.54 92.6698 100.08 92.2821 99.8599 91.439C99.7587 91.031 99.6398 90.6252 99.5122 90.224C99.0458 88.761 98.4314 87.352 97.6791 86.0198C97.5532 85.8 97.4647 85.5599 97.4172 85.3097C97.3889 85.0863 97.4155 84.8591 97.4947 84.6489C97.5739 84.4387 97.703 84.2521 97.8705 84.106C98.8344 83.1141 99.7946 82.12 100.751 81.1236C100.844 81.0267 100.929 80.9207 100.989 80.8508L95.1923 74.9244C95.1439 74.9718 95.0515 75.0552 94.9723 75.1499C94.0062 76.1372 93.0467 77.1336 92.0696 78.1097C91.8784 78.2934 91.6542 78.4373 91.4094 78.5335C90.9693 78.7071 90.5732 78.5583 90.1947 78.3261C89.3201 77.7763 88.3969 77.3121 87.4373 76.9397C86.546 76.6039 85.6372 76.3176 84.7305 76.038C84.5099 75.982 84.3067 75.87 84.1394 75.7125C83.9721 75.5549 83.8462 75.3568 83.7732 75.1363C83.715 74.9269 83.6897 74.7092 83.6984 74.4916C83.6984 73.1053 83.6984 71.7212 83.6984 70.3348C83.6984 69.9583 83.6764 69.9403 83.3221 69.9313H76.0688C75.4966 69.9313 75.4966 69.9313 75.4966 70.5242C75.4966 71.8767 75.4966 73.2292 75.4966 74.566C75.4966 75.373 75.1445 75.8284 74.3831 76.0403C73.04 76.4014 71.7352 76.8983 70.488 77.5236C69.929 77.8121 69.3876 78.1277 68.8331 78.4253C68.5873 78.5847 68.2971 78.6566 68.0074 78.6297C67.7177 78.6027 67.4448 78.4786 67.231 78.2765C67.1276 78.1841 67.0308 78.0826 66.9339 77.9834C66.0199 77.0472 65.1067 76.1117 64.1941 75.1769C64.1017 75.0822 63.9983 74.9966 63.875 74.8839L58.0632 80.7674C58.2106 80.941 58.2832 81.0379 58.3712 81.1259C58.873 81.6443 59.3791 82.1606 59.8831 82.679L61.2893 84.124C61.4534 84.2751 61.5769 84.4667 61.6482 84.6806C61.7195 84.8945 61.7361 85.1235 61.6964 85.3458C61.6428 85.5948 61.5499 85.8331 61.4213 86.0514C60.4585 87.7487 59.7284 89.5738 59.2515 91.4751C59.1459 91.8989 58.9654 92.2911 58.5561 92.4737C58.294 92.5907 58.0122 92.6542 57.7265 92.6608C56.4061 92.6811 55.0857 92.6608 53.7477 92.6608C53.6135 92.6608 53.4792 92.6721 53.3692 92.6766C53.347 92.7105 53.3285 92.7468 53.3142 92.7848C53.3047 92.8475 53.2996 92.9108 53.2988 92.9742C53.2988 95.5936 53.2988 98.2115 53.2988 100.828C53.3018 100.879 53.3092 100.929 53.3208 100.979C53.3208 100.99 53.334 100.999 53.3428 101.008C53.3604 101.031 53.3795 101.052 53.4 101.071H53.7741C55.0945 101.071 56.4149 101.071 57.7177 101.071C58.5979 101.071 59.038 101.452 59.2581 102.329C59.5062 103.363 59.8495 104.37 60.2836 105.336C60.6643 106.171 61.0912 106.984 61.516 107.798C61.718 108.097 61.8034 108.463 61.7553 108.824C61.7073 109.184 61.5292 109.513 61.2563 109.746L58.4175 112.674C58.325 112.769 58.2414 112.875 58.16 112.969C58.4175 113.353 63.7012 118.747 63.9653 118.893C64.0577 118.801 64.1567 118.706 64.2514 118.607C65.1521 117.692 66.0463 116.777 66.9339 115.861C66.9526 115.845 66.9703 115.827 66.9867 115.807C67.5897 115.097 68.3203 115.059 69.0355 115.503C69.9464 116.067 70.9099 116.537 71.9118 116.905C72.7568 117.219 73.6239 117.476 74.4843 117.746C74.6857 117.799 74.8714 117.901 75.0249 118.045C75.1784 118.188 75.2951 118.368 75.3646 118.569C75.4351 118.801 75.4663 119.043 75.457 119.286C75.457 120.609 75.457 121.93 75.457 123.251C75.457 123.341 75.457 123.431 75.457 123.521C75.4702 123.787 75.5032 123.819 75.7739 123.833C75.8223 123.833 75.8729 123.833 75.9235 123.833H83.2847C83.4057 123.833 83.5267 123.819 83.6786 123.81C83.6786 123.63 83.7028 123.479 83.7028 123.33C83.7028 121.93 83.7028 120.532 83.7028 119.135C83.6916 118.839 83.7743 118.547 83.9385 118.303C84.1027 118.059 84.3397 117.876 84.6139 117.782C84.7547 117.733 84.8999 117.687 85.054 117.647C86.697 117.19 88.2787 116.528 89.7634 115.674C89.8329 115.624 89.8971 115.565 89.9548 115.501C89.9219 115.452 89.8867 115.406 89.8492 115.361C88.5288 114.022 87.2084 112.688 85.91 111.339C85.8439 111.265 85.7542 111.217 85.6567 111.204C85.5592 111.19 85.4603 111.213 85.3775 111.267C83.1538 112.221 80.7372 112.608 78.3354 112.394C75.8255 112.2 73.4069 111.346 71.3132 109.915C67.2794 107.156 64.9908 103.278 64.478 98.3438C64.2039 95.7267 64.6124 93.0819 65.662 90.6793C66.7855 88.0365 68.6016 85.764 70.9089 84.1139C73.2162 82.4638 75.9246 81.5006 78.7338 81.331C79.0333 81.3092 79.3337 81.3032 79.6338 81.313C79.9563 81.3232 80.264 81.4541 80.4988 81.6808C80.7335 81.9076 80.8791 82.2146 80.908 82.5438C80.9482 82.872 80.8667 83.2037 80.6797 83.4733C80.4926 83.743 80.2137 83.9309 79.8979 84C79.6893 84.0429 79.4769 84.0633 79.2641 84.0609C77.6074 84.1039 75.9761 84.4871 74.4667 85.188C72.4186 86.1333 70.6564 87.6255 69.3648 89.5082C68.0732 91.3908 67.2997 93.5947 67.1254 95.8889C66.8962 98.8629 67.6868 101.826 69.3612 104.267C71.0355 106.708 73.4885 108.474 76.2976 109.261C78.5917 109.924 81.0254 109.881 83.2957 109.137C83.3771 109.099 83.4607 109.042 83.5906 108.984V108.979ZM116.6 128.645L116.671 128.618C116.684 128.523 116.692 128.428 116.693 128.332C116.646 127.717 116.633 127.099 116.536 126.493C116.301 125.1 115.843 123.758 115.181 122.518C114.826 121.794 114.338 121.146 113.744 120.611C113.513 120.391 113.219 120.254 112.905 120.221C112.608 120.201 112.311 120.145 112.014 120.102C110.243 119.84 108.473 119.563 106.699 119.329C106.19 119.271 105.716 119.032 105.361 118.652C100.583 113.767 95.8004 108.888 91.0133 104.015C89.9306 102.911 88.8523 101.804 87.7652 100.704C87.502 100.462 87.3254 100.136 87.2634 99.7797C87.1182 98.7653 86.9795 97.7509 86.8409 96.732C86.6825 95.5778 86.5086 94.4236 86.3788 93.265C86.322 92.7663 86.0868 92.3069 85.7186 91.9755C85.1058 91.3968 84.4067 90.9219 83.6478 90.5689C82.0678 89.7506 80.3317 89.2974 78.5621 89.2411C78.4301 89.2411 78.298 89.2411 78.1682 89.2547C78.2147 89.3581 78.2917 89.444 78.3883 89.5004C78.6721 89.6897 78.9604 89.8678 79.2421 90.0617C79.9253 90.4901 80.5412 91.0221 81.0686 91.6397C81.9973 92.8119 82.3296 94.1193 81.9731 95.6004C81.6166 97.0547 80.8415 98.3655 79.7483 99.3627C79.1829 99.9127 78.5042 100.326 77.7623 100.572C77.0204 100.817 76.2342 100.89 75.4614 100.783C74.9991 100.74 74.5522 100.59 74.1542 100.346C73.6107 100.003 73.0539 99.6693 72.5059 99.3447C72.4154 99.3018 72.322 99.2657 72.2265 99.2365C72.2594 99.3143 72.2976 99.3896 72.3409 99.4619C73.5058 101.071 74.7546 102.614 76.082 104.085C76.1454 104.154 76.2227 104.209 76.3086 104.244C76.3945 104.279 76.4869 104.295 76.5793 104.29C78.4675 104.351 80.3556 104.435 82.246 104.48C82.5202 104.484 82.7908 104.546 83.0404 104.662C83.29 104.778 83.5134 104.947 83.6962 105.156C84.8977 106.412 86.1169 107.636 87.3339 108.887C91.9038 113.565 96.4768 118.241 101.053 122.915C101.284 123.137 101.468 123.405 101.594 123.704C101.719 124.002 101.783 124.324 101.781 124.649C101.825 126.535 101.922 128.418 101.99 130.304C101.993 130.4 102.015 130.493 102.055 130.579C102.095 130.665 102.152 130.741 102.223 130.803C103.651 132.149 105.146 133.418 106.704 134.603C106.788 134.651 106.874 134.693 106.964 134.73C106.862 134.538 106.81 134.427 106.743 134.319C106.42 133.756 106.083 133.192 105.777 132.626C105.632 132.357 105.526 132.068 105.463 131.767C105.31 131.05 105.308 130.308 105.458 129.59C105.607 128.872 105.905 128.195 106.33 127.604C107.247 126.323 108.533 125.37 110.007 124.878C110.739 124.601 111.53 124.529 112.298 124.671C113.262 124.873 114.14 125.381 114.807 126.123C115.434 126.779 115.894 127.561 116.373 128.327C116.437 128.433 116.521 128.542 116.596 128.65L116.6 128.645Z" fill="url(#paint13_linear_2014_61)"/>
<path d="M91.942 117.545C90.2982 118.587 88.5325 119.412 86.6869 120C86.3898 120.095 86.3656 120.129 86.3634 120.471C86.3634 121.896 86.3634 123.324 86.3634 124.754C86.3634 124.883 86.3634 125.009 86.3634 125.138C86.3665 125.33 86.3313 125.521 86.2599 125.699C86.1885 125.877 86.0823 126.038 85.948 126.172C85.8137 126.307 85.654 126.412 85.4787 126.481C85.3034 126.55 85.1162 126.581 84.9286 126.574C81.3723 126.556 77.8183 126.574 74.2643 126.574C73.5821 126.574 73.1243 126.274 72.9197 125.672C72.8582 125.465 72.8307 125.248 72.8382 125.032C72.8382 123.542 72.8382 122.054 72.8382 120.566C72.8382 120.127 72.8382 120.127 72.4135 119.987C71.1514 119.57 69.924 119.051 68.7429 118.434C68.3776 118.242 68.3753 118.244 68.0827 118.549L65.0392 121.581C64.9666 121.65 64.8961 121.725 64.8191 121.792C64.698 121.919 64.5534 122.02 64.3937 122.089C64.234 122.158 64.0626 122.193 63.8893 122.193C63.7161 122.193 63.5447 122.158 63.385 122.089C63.2253 122.02 63.0807 121.919 62.9596 121.792C62.6647 121.515 62.3874 121.218 62.1035 120.929L55.4004 114.076C55.1803 113.884 55.0146 113.635 54.9206 113.355C54.8527 113.133 54.8417 112.897 54.8887 112.67C54.9357 112.442 55.0392 112.231 55.1891 112.056C55.3212 111.901 55.4642 111.757 55.605 111.605L58.4989 108.648C58.7476 108.395 58.752 108.391 58.5847 108.066C57.9425 106.791 57.4072 105.462 56.9848 104.094C56.9606 104.022 56.9298 103.952 56.8858 103.837H56.4457C55.0065 103.837 53.5673 103.837 52.128 103.837C51.9035 103.84 51.6802 103.804 51.4678 103.729C51.2457 103.654 51.0499 103.514 50.9047 103.326C50.7596 103.138 50.6715 102.911 50.6514 102.672C50.6379 102.503 50.6334 102.334 50.6382 102.165V91.5698C50.6353 91.4194 50.6397 91.2689 50.6514 91.1189C50.6812 90.8164 50.812 90.5337 51.0217 90.3186C51.2314 90.1034 51.5071 89.9688 51.8023 89.9377C51.963 89.9197 52.128 89.9219 52.2887 89.9197H56.8968C56.9826 89.6582 57.0597 89.4192 57.1389 89.1803C57.5267 87.9893 58.0057 86.8315 58.5715 85.7178C58.7564 85.3616 58.752 85.3571 58.4703 85.0708C57.433 84.0098 56.3958 82.9503 55.3586 81.8923C54.9779 81.5023 54.771 81.056 54.9052 80.5059C54.9718 80.2869 55.0729 80.0806 55.2045 79.895C55.3113 79.7533 55.4314 79.6227 55.5632 79.5051C57.9355 77.072 60.3078 74.6404 62.6801 72.2103C62.801 72.0805 62.9296 71.9586 63.0652 71.8451C63.2976 71.6555 63.5852 71.5509 63.8823 71.5481C64.1794 71.5452 64.4689 71.6442 64.7047 71.8294C64.8238 71.9208 64.9364 72.021 65.0414 72.1292C66.0566 73.1571 67.0696 74.1873 68.0805 75.2197C68.3665 75.5083 68.3687 75.5128 68.7142 75.3302C69.9152 74.6962 71.1668 74.1683 72.4553 73.7522C72.7744 73.6508 72.7964 73.6102 72.7964 73.254C72.7964 71.7775 72.7964 70.301 72.7964 68.8267C72.7865 68.5713 72.8185 68.3161 72.8911 68.0715C72.9631 67.8511 73.0933 67.6554 73.2674 67.5061C73.4414 67.3569 73.6524 67.26 73.8769 67.2262C74.0737 67.1895 74.2733 67.1706 74.4733 67.1698H84.6887C84.8358 67.1684 84.9828 67.1767 85.1288 67.1946C85.4779 67.2167 85.8048 67.3775 86.0399 67.6428C86.275 67.908 86.3997 68.2568 86.3876 68.6148C86.4008 69.0882 86.3876 69.5638 86.3876 70.0395C86.3876 71.117 86.3876 72.1946 86.3876 73.2721C86.3876 73.6328 86.3876 73.6508 86.7375 73.759C88.0378 74.1796 89.301 74.712 90.5138 75.3505C90.8329 75.5173 90.8351 75.5196 91.0881 75.2603C92.1166 74.2249 93.1399 73.1812 94.158 72.1292C94.2867 71.9901 94.4282 71.864 94.5806 71.7527C94.7962 71.6061 95.0507 71.5311 95.3094 71.5379C95.5681 71.5448 95.8185 71.6332 96.0264 71.791C96.1474 71.8819 96.2607 71.9829 96.3653 72.0931C98.8271 74.6134 101.288 77.1351 103.748 79.6584C103.985 79.8763 104.158 80.1573 104.248 80.4699C104.298 80.6559 104.308 80.8509 104.276 81.0411C104.244 81.2313 104.171 81.4119 104.063 81.5699C103.954 81.7263 103.831 81.8719 103.696 82.005C102.705 83.0209 101.714 84.0361 100.72 85.0505C100.615 85.1564 100.52 85.2759 100.43 85.3729C100.751 86.0784 101.09 86.7412 101.356 87.4265C101.623 88.1118 101.898 88.8602 102.133 89.5883C102.232 89.8971 102.281 89.9332 102.613 89.9332C104.054 89.9332 105.494 89.9332 106.933 89.9332C107.155 89.924 107.378 89.9499 107.593 90.0098C107.853 90.0911 108.082 90.2525 108.249 90.4719C108.416 90.6914 108.512 90.9582 108.526 91.2361C108.532 91.3383 108.532 91.4406 108.526 91.5427C108.526 95.1089 108.526 98.6759 108.526 102.244C108.529 102.487 108.495 102.728 108.425 102.96C108.352 103.21 108.206 103.43 108.007 103.592C107.808 103.753 107.565 103.847 107.311 103.862C107.086 103.879 106.861 103.884 106.636 103.876H102.628C102.208 103.876 102.219 103.941 102.129 104.241C101.626 105.881 100.954 107.461 100.124 108.954C99.9479 109.27 99.9479 109.275 100.205 109.538L104.624 114.047C105.397 114.834 106.165 115.625 106.937 116.412C107.092 116.577 107.298 116.682 107.52 116.709C109.602 117.01 111.682 117.324 113.759 117.651C114.217 117.738 114.649 117.93 115.022 118.215C115.817 118.802 116.491 119.545 117.003 120.402C117.676 121.498 118.213 122.676 118.601 123.909C119.221 125.705 119.452 127.618 119.278 129.515C119.183 130.656 118.856 131.764 118.319 132.768C117.929 133.474 117.329 133.744 116.657 133.528C116.312 133.402 116.026 133.147 115.856 132.813C115.201 131.706 114.54 130.604 113.876 129.509C113.653 129.137 113.412 128.778 113.154 128.431C112.978 128.198 112.778 127.985 112.558 127.795C112.364 127.619 112.131 127.494 111.879 127.433C111.627 127.372 111.364 127.377 111.114 127.446C110.086 127.698 109.17 128.298 108.515 129.148C108.191 129.561 108.002 130.068 107.974 130.597C107.941 130.97 108.022 131.344 108.207 131.666C108.988 132.994 109.747 134.331 110.526 135.665C110.618 135.817 110.698 135.977 110.764 136.143C110.834 136.334 110.861 136.54 110.842 136.743C110.823 136.947 110.758 137.143 110.654 137.317C110.549 137.491 110.407 137.639 110.238 137.748C110.069 137.857 109.878 137.925 109.679 137.946C109.182 137.994 108.68 137.971 108.178 137.976C107.815 137.976 107.452 137.976 107.089 137.976C106.749 137.983 106.416 137.875 106.143 137.669C104.301 136.251 102.448 134.847 100.751 133.246C100.38 132.883 100.029 132.5 99.6992 132.097C99.3646 131.692 99.1875 131.175 99.2019 130.645C99.1843 128.823 99.1293 127.004 99.1007 125.183C99.1011 125.062 99.0768 124.943 99.0294 124.833C98.9821 124.723 98.9126 124.624 98.8256 124.543C96.6161 122.288 94.4111 120.034 92.2105 117.78C92.1224 117.701 92.0366 117.631 91.942 117.545ZM83.5906 108.979C83.5532 108.919 83.5128 108.861 83.4695 108.806C83.0184 108.326 82.5629 107.848 82.1139 107.365C82.0603 107.303 81.9946 107.254 81.921 107.22C81.8475 107.185 81.7678 107.167 81.687 107.167C81.2997 107.153 80.9124 107.106 80.5251 107.099C79.0749 107.07 77.6224 107.032 76.1722 107.043C75.7321 107.043 75.3162 106.989 74.9839 106.689C74.4755 106.254 73.9921 105.79 73.5358 105.298C72.024 103.598 70.7036 101.741 69.3546 99.906C69.1848 99.6802 69.0906 99.4043 69.0862 99.1192C69.0862 98.2333 69.062 97.3474 69.0862 96.4615C69.0911 96.1293 69.2151 95.8107 69.4347 95.5662C69.6543 95.3217 69.954 95.1686 70.2767 95.136C70.6293 95.108 70.9805 95.2051 71.2714 95.411C72.5918 96.227 73.9408 97.0318 75.27 97.8523C75.6374 98.0798 76.074 98.16 76.4957 98.0778C76.9832 97.9999 77.4402 97.7853 77.8161 97.4579C78.5057 96.8556 79.0286 96.0782 79.3323 95.2036C79.4708 94.8688 79.5045 94.4982 79.4288 94.143C79.3532 93.7877 79.1718 93.4652 78.9098 93.2199C78.7458 93.0446 78.5668 92.8847 78.3751 92.742C77.6202 92.2145 76.8632 91.6892 76.093 91.1866C75.4328 90.7628 74.7726 90.3705 74.0948 89.9648C73.8814 89.8473 73.7031 89.6729 73.5788 89.4599C73.4545 89.247 73.3888 89.0035 73.3888 88.7553C73.3888 88.5072 73.4545 88.2637 73.5788 88.0508C73.7031 87.8378 73.8814 87.6634 74.0948 87.5459C74.9365 87.0595 75.8586 86.7362 76.8148 86.5924C78.1901 86.3698 79.5934 86.4049 80.9564 86.6961C82.6427 87.0275 84.2628 87.6463 85.7494 88.5265C86.7785 89.0947 87.6715 89.8901 88.3638 90.8552C88.6667 91.2658 88.8771 91.74 88.9799 92.2438C89.0944 92.8885 89.1802 93.5355 89.2682 94.1847C89.4663 95.6454 89.6592 97.1062 89.847 98.5669C89.8714 98.7846 89.9686 98.9869 90.1221 99.1395C90.5314 99.5566 90.9275 99.9826 91.3302 100.404C91.3826 100.453 91.4377 100.499 91.4953 100.542C91.5305 100.515 91.5569 100.503 91.5679 100.483C91.5789 100.463 91.6031 100.388 91.6185 100.341C91.83 99.5755 91.9707 98.7914 92.0388 97.9989C92.1938 96.3597 92.0255 94.7054 91.5437 93.1342C90.8666 90.8651 89.5838 88.835 87.84 87.2732C87.7069 87.156 87.5805 87.0311 87.4615 86.899C87.2789 86.701 87.1621 86.449 87.1277 86.179C87.0933 85.909 87.1431 85.6347 87.27 85.3954C87.3814 85.1556 87.5606 84.9557 87.7842 84.8214C88.0079 84.6872 88.2657 84.6248 88.5244 84.6425C88.8882 84.6691 89.2304 84.8292 89.4883 85.0933C91.058 86.4624 92.3321 88.1514 93.2294 90.0527C93.933 91.5297 94.4011 93.1127 94.6158 94.7415C94.8379 96.3968 94.8008 98.0778 94.5057 99.7211C94.3499 100.647 94.0999 101.554 93.7597 102.426C93.7089 102.528 93.6948 102.644 93.7197 102.755C93.7447 102.866 93.8072 102.964 93.8962 103.033C95.1703 104.322 96.4313 105.623 97.6989 106.919C97.7759 106.998 97.8617 107.065 97.9321 107.131C97.9871 107.099 98.018 107.092 98.029 107.074C98.0994 106.955 98.172 106.836 98.2358 106.709C98.9484 105.297 99.5028 103.806 99.8885 102.266C99.9567 101.908 100.15 101.587 100.432 101.364C100.712 101.166 101.047 101.067 101.387 101.083H105.788C105.892 100.661 105.879 92.9967 105.773 92.6698H105.381C104.061 92.6698 102.727 92.6698 101.4 92.6698C100.54 92.6698 100.08 92.2821 99.8599 91.439C99.7587 91.031 99.6398 90.6252 99.5122 90.224C99.0458 88.761 98.4314 87.352 97.6791 86.0198C97.5532 85.8 97.4647 85.5599 97.4172 85.3097C97.3889 85.0863 97.4155 84.8591 97.4947 84.6489C97.5739 84.4387 97.703 84.2521 97.8705 84.106C98.8344 83.1141 99.7946 82.12 100.751 81.1236C100.844 81.0267 100.929 80.9207 100.989 80.8508L95.1923 74.9244C95.1439 74.9718 95.0515 75.0552 94.9723 75.1499C94.0062 76.1372 93.0467 77.1336 92.0696 78.1097C91.8784 78.2934 91.6542 78.4373 91.4094 78.5335C90.9693 78.7071 90.5732 78.5583 90.1947 78.3261C89.3201 77.7763 88.3969 77.3121 87.4373 76.9397C86.546 76.6039 85.6372 76.3176 84.7305 76.038C84.5099 75.982 84.3067 75.87 84.1394 75.7125C83.9721 75.5549 83.8462 75.3568 83.7732 75.1363C83.715 74.9269 83.6897 74.7092 83.6984 74.4916C83.6984 73.1053 83.6984 71.7212 83.6984 70.3348C83.6984 69.9583 83.6764 69.9403 83.3221 69.9313H76.0688C75.4966 69.9313 75.4966 69.9313 75.4966 70.5242C75.4966 71.8767 75.4966 73.2292 75.4966 74.566C75.4966 75.373 75.1445 75.8284 74.3831 76.0403C73.04 76.4014 71.7352 76.8983 70.488 77.5236C69.929 77.8121 69.3876 78.1277 68.8331 78.4253C68.5873 78.5847 68.2971 78.6566 68.0074 78.6297C67.7177 78.6027 67.4448 78.4786 67.231 78.2765C67.1276 78.1841 67.0308 78.0826 66.9339 77.9834C66.0199 77.0472 65.1067 76.1117 64.1941 75.1769C64.1017 75.0822 63.9983 74.9966 63.875 74.8839L58.0632 80.7674C58.2106 80.941 58.2832 81.0379 58.3712 81.1259C58.873 81.6443 59.3791 82.1606 59.8831 82.679L61.2893 84.124C61.4534 84.2751 61.5769 84.4667 61.6482 84.6806C61.7195 84.8945 61.7361 85.1235 61.6964 85.3458C61.6428 85.5948 61.5499 85.8331 61.4213 86.0514C60.4585 87.7487 59.7284 89.5738 59.2515 91.4751C59.1459 91.8989 58.9654 92.2911 58.5561 92.4737C58.294 92.5907 58.0122 92.6542 57.7265 92.6608C56.4061 92.6811 55.0857 92.6608 53.7477 92.6608C53.6135 92.6608 53.4792 92.6721 53.3692 92.6766C53.347 92.7105 53.3285 92.7468 53.3142 92.7848C53.3047 92.8475 53.2996 92.9108 53.2988 92.9742C53.2988 95.5936 53.2988 98.2115 53.2988 100.828C53.3018 100.879 53.3092 100.929 53.3208 100.979C53.3208 100.99 53.334 100.999 53.3428 101.008C53.3604 101.031 53.3795 101.052 53.4 101.071H53.7741C55.0945 101.071 56.4149 101.071 57.7177 101.071C58.5979 101.071 59.038 101.452 59.2581 102.329C59.5062 103.363 59.8495 104.37 60.2836 105.336C60.6643 106.171 61.0912 106.984 61.516 107.798C61.718 108.097 61.8034 108.463 61.7553 108.824C61.7073 109.184 61.5292 109.513 61.2563 109.746L58.4175 112.674C58.325 112.769 58.2414 112.875 58.16 112.969C58.4175 113.353 63.7012 118.747 63.9653 118.893C64.0577 118.801 64.1567 118.706 64.2514 118.607C65.1521 117.692 66.0463 116.777 66.9339 115.861C66.9526 115.845 66.9703 115.827 66.9867 115.807C67.5897 115.097 68.3203 115.059 69.0355 115.503C69.9464 116.067 70.9099 116.537 71.9118 116.905C72.7568 117.219 73.6239 117.476 74.4843 117.746C74.6857 117.799 74.8714 117.901 75.0249 118.045C75.1784 118.188 75.2951 118.368 75.3646 118.569C75.4351 118.801 75.4663 119.043 75.457 119.286C75.457 120.609 75.457 121.93 75.457 123.251C75.457 123.341 75.457 123.431 75.457 123.521C75.4702 123.787 75.5032 123.819 75.7739 123.833C75.8223 123.833 75.8729 123.833 75.9235 123.833H83.2847C83.4057 123.833 83.5267 123.819 83.6786 123.81C83.6786 123.63 83.7028 123.479 83.7028 123.33C83.7028 121.93 83.7028 120.532 83.7028 119.135C83.6916 118.839 83.7743 118.547 83.9385 118.303C84.1027 118.059 84.3397 117.876 84.6139 117.782C84.7547 117.733 84.8999 117.687 85.054 117.647C86.697 117.19 88.2787 116.528 89.7634 115.674C89.8329 115.624 89.8971 115.565 89.9548 115.501C89.9219 115.452 89.8867 115.406 89.8492 115.361C88.5288 114.022 87.2084 112.688 85.91 111.339C85.8439 111.265 85.7542 111.217 85.6567 111.204C85.5592 111.19 85.4603 111.213 85.3775 111.267C83.1538 112.221 80.7372 112.608 78.3354 112.394C75.8255 112.2 73.4069 111.346 71.3132 109.915C67.2794 107.156 64.9908 103.278 64.478 98.3438C64.2039 95.7267 64.6124 93.0819 65.662 90.6793C66.7855 88.0365 68.6016 85.764 70.9089 84.1139C73.2162 82.4638 75.9246 81.5006 78.7338 81.331C79.0333 81.3092 79.3337 81.3032 79.6338 81.313C79.9563 81.3232 80.264 81.4541 80.4988 81.6808C80.7335 81.9076 80.8791 82.2146 80.908 82.5438C80.9482 82.872 80.8667 83.2037 80.6797 83.4733C80.4926 83.743 80.2137 83.9309 79.8979 84C79.6893 84.0429 79.4769 84.0633 79.2641 84.0609C77.6074 84.1039 75.9761 84.4871 74.4667 85.188C72.4186 86.1333 70.6564 87.6255 69.3648 89.5082C68.0732 91.3908 67.2997 93.5947 67.1254 95.8889C66.8962 98.8629 67.6868 101.826 69.3612 104.267C71.0355 106.708 73.4885 108.474 76.2976 109.261C78.5917 109.924 81.0254 109.881 83.2957 109.137C83.3771 109.099 83.4607 109.042 83.5906 108.984V108.979ZM116.6 128.645L116.671 128.618C116.684 128.523 116.692 128.428 116.693 128.332C116.646 127.717 116.633 127.099 116.536 126.493C116.301 125.1 115.843 123.758 115.181 122.518C114.826 121.794 114.338 121.146 113.744 120.611C113.513 120.391 113.219 120.254 112.905 120.221C112.608 120.201 112.311 120.145 112.014 120.102C110.243 119.84 108.473 119.563 106.699 119.329C106.19 119.271 105.716 119.032 105.361 118.652C100.583 113.767 95.8004 108.888 91.0133 104.015C89.9306 102.911 88.8523 101.804 87.7652 100.704C87.502 100.462 87.3254 100.136 87.2634 99.7797C87.1182 98.7653 86.9795 97.7509 86.8409 96.732C86.6825 95.5778 86.5086 94.4236 86.3788 93.265C86.322 92.7663 86.0868 92.3069 85.7186 91.9755C85.1058 91.3968 84.4067 90.9219 83.6478 90.5689C82.0678 89.7506 80.3317 89.2974 78.5621 89.2411C78.4301 89.2411 78.298 89.2411 78.1682 89.2547C78.2147 89.3581 78.2917 89.444 78.3883 89.5004C78.6721 89.6897 78.9604 89.8678 79.2421 90.0617C79.9253 90.4901 80.5412 91.0221 81.0686 91.6397C81.9973 92.8119 82.3296 94.1193 81.9731 95.6004C81.6166 97.0547 80.8415 98.3655 79.7483 99.3627C79.1829 99.9127 78.5042 100.326 77.7623 100.572C77.0204 100.817 76.2342 100.89 75.4614 100.783C74.9991 100.74 74.5522 100.59 74.1542 100.346C73.6107 100.003 73.0539 99.6693 72.5059 99.3447C72.4154 99.3018 72.322 99.2657 72.2265 99.2365C72.2594 99.3143 72.2976 99.3896 72.3409 99.4619C73.5058 101.071 74.7546 102.614 76.082 104.085C76.1454 104.154 76.2227 104.209 76.3086 104.244C76.3945 104.279 76.4869 104.295 76.5793 104.29C78.4675 104.351 80.3556 104.435 82.246 104.48C82.5202 104.484 82.7908 104.546 83.0404 104.662C83.29 104.778 83.5134 104.947 83.6962 105.156C84.8977 106.412 86.1169 107.636 87.3339 108.887C91.9038 113.565 96.4768 118.241 101.053 122.915C101.284 123.137 101.468 123.405 101.594 123.704C101.719 124.002 101.783 124.324 101.781 124.649C101.825 126.535 101.922 128.418 101.99 130.304C101.993 130.4 102.015 130.493 102.055 130.579C102.095 130.665 102.152 130.741 102.223 130.803C103.651 132.149 105.146 133.418 106.704 134.603C106.788 134.651 106.874 134.693 106.964 134.73C106.862 134.538 106.81 134.427 106.743 134.319C106.42 133.756 106.083 133.192 105.777 132.626C105.632 132.357 105.526 132.068 105.463 131.767C105.31 131.05 105.308 130.308 105.458 129.59C105.607 128.872 105.905 128.195 106.33 127.604C107.247 126.323 108.533 125.37 110.007 124.878C110.739 124.601 111.53 124.529 112.298 124.671C113.262 124.873 114.14 125.381 114.807 126.123C115.434 126.779 115.894 127.561 116.373 128.327C116.437 128.433 116.521 128.542 116.596 128.65L116.6 128.645Z" stroke="#1B1B1B" stroke-width="8.80256" mask="url(#path-14-outside-1_2014_61)"/>
<defs>
<linearGradient id="paint0_linear_2014_61" x1="83.4467" y1="0.826904" x2="83.4467" y2="102.34" gradientUnits="userSpaceOnUse">
<stop stop-color="#68E0CF"/>
<stop offset="1" stop-color="#209CFF"/>
</linearGradient>
<linearGradient id="paint1_linear_2014_61" x1="65.3649" y1="17.816" x2="65.3649" y2="76.8792" gradientUnits="userSpaceOnUse">
<stop stop-color="#68E0CF"/>
<stop offset="1" stop-color="#209CFF"/>
</linearGradient>
<linearGradient id="paint2_linear_2014_61" x1="145.499" y1="13.5476" x2="145.499" y2="28.1501" gradientUnits="userSpaceOnUse">
<stop stop-color="#68E0CF"/>
<stop offset="1" stop-color="#209CFF"/>
</linearGradient>
<linearGradient id="paint3_linear_2014_61" x1="145.496" y1="60.235" x2="145.496" y2="76.8815" gradientUnits="userSpaceOnUse">
<stop stop-color="#68E0CF"/>
<stop offset="1" stop-color="#209CFF"/>
</linearGradient>
<linearGradient id="paint4_linear_2014_61" x1="49.8672" y1="30.5562" x2="49.8672" y2="64.1536" gradientUnits="userSpaceOnUse">
<stop stop-color="#68E0CF"/>
<stop offset="1" stop-color="#209CFF"/>
</linearGradient>
<linearGradient id="paint5_linear_2014_61" x1="65.3821" y1="30.5631" x2="65.3821" y2="64.1544" gradientUnits="userSpaceOnUse">
<stop stop-color="#68E0CF"/>
<stop offset="1" stop-color="#209CFF"/>
</linearGradient>
<linearGradient id="paint6_linear_2014_61" x1="80.8854" y1="30.6263" x2="80.8854" y2="64.1582" gradientUnits="userSpaceOnUse">
<stop stop-color="#68E0CF"/>
<stop offset="1" stop-color="#209CFF"/>
</linearGradient>
<linearGradient id="paint7_linear_2014_61" x1="139.04" y1="43.2692" x2="139.04" y2="47.2333" gradientUnits="userSpaceOnUse">
<stop stop-color="#68E0CF"/>
<stop offset="1" stop-color="#209CFF"/>
</linearGradient>
<linearGradient id="paint8_linear_2014_61" x1="139.036" y1="51.7285" x2="139.036" y2="55.7286" gradientUnits="userSpaceOnUse">
<stop stop-color="#68E0CF"/>
<stop offset="1" stop-color="#209CFF"/>
</linearGradient>
<linearGradient id="paint9_linear_2014_61" x1="151.953" y1="43.2664" x2="151.953" y2="47.2493" gradientUnits="userSpaceOnUse">
<stop stop-color="#68E0CF"/>
<stop offset="1" stop-color="#209CFF"/>
</linearGradient>
<linearGradient id="paint10_linear_2014_61" x1="139.034" y1="34.748" x2="139.034" y2="38.7419" gradientUnits="userSpaceOnUse">
<stop stop-color="#68E0CF"/>
<stop offset="1" stop-color="#209CFF"/>
</linearGradient>
<linearGradient id="paint11_linear_2014_61" x1="151.955" y1="34.8" x2="151.955" y2="38.763" gradientUnits="userSpaceOnUse">
<stop stop-color="#68E0CF"/>
<stop offset="1" stop-color="#209CFF"/>
</linearGradient>
<linearGradient id="paint12_linear_2014_61" x1="151.953" y1="51.741" x2="151.953" y2="55.6978" gradientUnits="userSpaceOnUse">
<stop stop-color="#68E0CF"/>
<stop offset="1" stop-color="#209CFF"/>
</linearGradient>
<linearGradient id="paint13_linear_2014_61" x1="82.9304" y1="67.1697" x2="95.7464" y2="136.365" gradientUnits="userSpaceOnUse">
<stop stop-color="#FFBB00"/>
<stop offset="1" stop-color="#FF3300"/>
</linearGradient>
</defs>
</svg>
