<svg width="354" height="55" viewBox="0 0 354 55" fill="none" xmlns="http://www.w3.org/2000/svg">
<g id="logo samsung">
<path id="Vector" d="M23.4608 37.9667C23.947 39.1883 23.7929 40.754 23.5556 41.7028C23.1405 43.3871 22.0019 45.1069 18.6334 45.1069C15.4784 45.1069 13.5569 43.2803 13.5569 40.5286V35.6301H0V39.5204C0 50.7882 8.86005 54.1923 18.3606 54.1923C27.4934 54.1923 35.0132 51.0848 36.2112 42.6517C36.8279 38.2869 36.3772 35.4284 36.1637 34.3728C34.0288 23.7929 14.8616 20.638 13.4265 14.7194C13.2272 13.8464 13.2106 12.9415 13.379 12.0626C13.7349 10.4376 14.8379 8.67036 17.9929 8.67036C20.9581 8.67036 22.6779 10.4969 22.6779 13.2486V16.3799H35.286V12.8217C35.286 1.81479 25.4059 0.0949707 18.2657 0.0949707C9.27518 0.0949707 1.93332 3.07204 0.593042 11.3153C0.237217 13.5689 0.177913 15.5852 0.711651 18.1235C2.90591 28.4424 20.8514 31.4313 23.4608 37.9667Z" fill="#F2F2F2"/>
<path id="Vector_2" d="M54.0854 1.70791L44.7153 52.2233H58.3672L65.282 6.38108H65.5667L72.2918 52.2233H85.8725L76.5617 1.69604L54.0854 1.70791ZM130.41 1.70791L124.183 40.3268H123.886L117.671 1.70791H97.0691L95.9542 52.2233H108.598L108.906 6.80807H109.191L117.624 52.2233H130.446L138.89 6.81993H139.163L139.483 52.2233H152.115L151 1.69604L130.41 1.70791Z" fill="#F2F2F2"/>
<path id="Vector_3" d="M187.698 37.8717C188.184 39.0933 188.03 40.659 187.793 41.6078C187.378 43.2921 186.239 45.0119 182.871 45.0119C179.716 45.0119 177.794 43.1853 177.794 40.4336V35.5351H164.237V39.4255C164.237 50.6933 173.097 54.0973 182.598 54.0973C191.731 54.0973 199.251 50.9898 200.448 42.5567C201.065 38.1919 200.615 35.3335 200.401 34.2778C198.266 23.698 179.099 20.543 177.664 14.6244C177.465 13.7515 177.448 12.8465 177.616 11.9676C177.972 10.3427 179.075 8.57539 182.23 8.57539C185.195 8.57539 186.915 10.402 186.915 13.1537V16.2849H199.523V12.7267C199.523 1.71982 189.643 0 182.503 0C173.512 0 166.171 2.97707 164.83 11.2204C164.475 13.4739 164.415 15.4903 164.949 18.0285C167.143 28.3474 185.089 31.3364 187.698 37.8717Z" fill="#F2F2F2"/>
<path id="Vector_4" d="M230.1 44.656C233.611 44.656 234.691 42.2364 234.94 41.0029C235.046 40.4573 235.058 39.7219 235.058 39.0696V1.70789H247.844V37.9191C247.847 39.0269 247.808 40.1347 247.726 41.2401C246.836 50.6695 239.387 53.7296 230.1 53.7296C220.802 53.7296 213.353 50.6695 212.463 41.2401C212.428 40.7419 212.333 38.8442 212.345 37.9191V1.69603H225.131V39.0577C225.119 39.7219 225.143 40.4573 225.249 41.0029C225.487 42.2364 226.578 44.656 230.1 44.656ZM291.872 1.70789L292.56 41.3587H292.287L280.663 1.70789H261.923V51.6895H274.341L273.653 10.6628H273.926L286.392 51.6895H304.385V1.70789H291.872ZM335.46 44.1341C339.113 44.1341 340.394 41.8213 340.62 40.4573C340.727 39.8998 340.738 39.1882 340.738 38.5595V31.2058H335.555V23.8521H353.453V37.3972C353.453 38.346 353.43 39.034 353.275 40.7182C352.445 49.9222 344.463 53.2077 335.508 53.2077C326.553 53.2077 318.582 49.9222 317.74 40.7182C317.598 39.034 317.562 38.346 317.562 37.3972V16.1425C317.562 15.2411 317.681 13.6518 317.776 12.8215C318.903 3.36841 326.553 0.332031 335.508 0.332031C344.463 0.332031 352.315 3.34469 353.24 12.8096C353.406 14.4227 353.358 16.1307 353.358 16.1307V17.8268H340.62V14.992C340.62 14.992 340.62 13.806 340.466 13.0706C340.228 11.9557 339.28 9.39372 335.413 9.39372C331.736 9.39372 330.657 11.8252 330.384 13.0706C330.23 13.7348 330.17 14.6362 330.17 15.4546V38.5477C330.17 39.1882 330.194 39.8998 330.289 40.4691C330.526 41.8213 331.807 44.1341 335.46 44.1341Z" fill="#F2F2F2"/>
</g>
</svg>
