<svg width="221" height="107" viewBox="0 0 221 107" fill="none" xmlns="http://www.w3.org/2000/svg">
<g id="logo_tcl">
<g id="g3">
<g id="g5">
<g id="g7">
<path id="SVGID_3_" d="M7.31744 0C3.29458 0 0 3.32282 0 7.37439V99.342C0 103.402 3.29458 106.724 7.31744 106.724H61.8556C65.8797 106.724 69.1719 103.402 69.1719 99.342V7.37439C69.1719 3.32282 65.8797 0 61.8556 0H7.31744Z" fill="#F2F2F2"/>
</g>
<g id="g10">
<g id="Clip path group">
<mask id="mask0_2123_439" style="mask-type:luminance" maskUnits="userSpaceOnUse" x="0" y="0" width="70" height="107">
<g id="SVGID_2_">
<path id="use16" d="M7.31744 0C3.29458 0 0 3.32282 0 7.37439V99.342C0 103.402 3.29458 106.724 7.31744 106.724H61.8556C65.8797 106.724 69.1719 103.402 69.1719 99.342V7.37439C69.1719 3.32282 65.8797 0 61.8556 0H7.31744Z" fill="white"/>
</g>
</mask>
<g mask="url(#mask0_2123_439)">
<path id="rect18" d="M69.1737 0H0.00183105V106.724H69.1737V0Z" fill="#F2F2F2"/>
</g>
</g>
</g>
</g>
</g>
<g id="g20">
<g id="g22">
<g id="g24">
<path id="SVGID_9_" d="M83.0676 0C79.0507 0 75.7573 3.32282 75.7573 7.37439V99.342C75.7573 103.402 79.0507 106.724 83.0676 106.724H137.608C141.635 106.724 144.933 103.402 144.933 99.342V7.37439C144.933 3.32282 141.635 0 137.608 0H83.0676Z" fill="#F2F2F2"/>
</g>
<g id="g27">
<g id="Clip path group_2">
<mask id="mask1_2123_439" style="mask-type:luminance" maskUnits="userSpaceOnUse" x="75" y="0" width="70" height="107">
<g id="SVGID_5_">
<path id="use33" d="M83.0676 0C79.0507 0 75.7573 3.32282 75.7573 7.37439V99.342C75.7573 103.402 79.0507 106.724 83.0676 106.724H137.608C141.635 106.724 144.933 103.402 144.933 99.342V7.37439C144.933 3.32282 141.635 0 137.608 0H83.0676Z" fill="white"/>
</g>
</mask>
<g mask="url(#mask1_2123_439)">
<path id="rect35" d="M144.934 0H75.756V106.724H144.934V0Z" fill="#F2F2F2"/>
</g>
</g>
</g>
</g>
</g>
<g id="g37">
<g id="g39">
<g id="g41">
<path id="SVGID_15_" d="M158.832 0C154.805 0 151.512 3.32282 151.512 7.37439V99.342C151.512 103.402 154.805 106.724 158.832 106.724H213.375C217.388 106.724 220.691 103.402 220.691 99.342V7.37439C220.691 3.32282 217.388 0 213.375 0H158.832Z" fill="#F2F2F2"/>
</g>
<g id="g44">
<g id="Clip path group_3">
<mask id="mask2_2123_439" style="mask-type:luminance" maskUnits="userSpaceOnUse" x="151" y="0" width="70" height="107">
<g id="SVGID_7_">
<path id="use50" d="M158.831 0C154.805 0 151.512 3.32282 151.512 7.37439V99.342C151.512 103.402 154.805 106.724 158.831 106.724H213.374C217.388 106.724 220.691 103.402 220.691 99.342V7.37439C220.691 3.32282 217.388 0 213.374 0H158.831Z" fill="white"/>
</g>
</mask>
<g mask="url(#mask2_2123_439)">
<path id="rect52" d="M220.693 0H151.512V106.724H220.693V0Z" fill="#F2F2F2"/>
</g>
</g>
</g>
</g>
</g>
<path id="path56" d="M53.8074 29.4314H13.4497C12.9845 29.4314 12.5958 29.8151 12.5958 30.2844V38.3309C12.5958 38.805 12.9845 39.1911 13.4497 39.1911H25.407C27.4197 39.1911 29.0353 40.8284 29.0353 42.8518V79.1989C29.0353 79.6755 29.4155 80.0592 29.8879 80.0592H37.8631C38.3366 80.0592 38.7145 79.6755 38.7145 79.1989V42.8506C38.7145 40.8272 40.3373 39.1899 42.3439 39.1899H53.8062C54.2786 39.1899 54.6696 38.8038 54.6696 38.3297V30.2832C54.672 29.8151 54.2798 29.4314 53.8074 29.4314Z" fill="#1B1B1B"/>
<path id="path58" d="M124.92 70.2922H110.21C107.641 70.2922 105.569 68.1988 105.569 65.6132V30.2832C105.569 29.8151 105.19 29.4302 104.717 29.4302H96.7504C96.2793 29.4302 95.8954 29.8139 95.8954 30.2832V68.714C95.8954 75.1256 99.1983 80.0603 106.833 80.0603H124.92C125.4 80.0603 125.77 79.6718 125.77 79.1941V71.1621C125.77 70.6903 125.401 70.2922 124.92 70.2922Z" fill="#1B1B1B"/>
<path id="path60" d="M205.314 72.1758L199.674 66.4918C199.343 66.1624 198.77 66.1624 198.433 66.4918L198.441 66.4773C195.687 68.964 192.038 70.4855 188.052 70.4855C179.436 70.4855 172.441 63.4272 172.441 54.7497C172.441 46.0529 179.436 39.0152 188.052 39.0152C192.038 39.0152 195.684 40.5318 198.441 43.0137L198.433 43.0052C198.77 43.3443 199.343 43.3443 199.674 43.0137L205.314 37.3212C205.61 37.0099 205.624 36.5261 205.357 36.1834C200.831 31.8809 194.75 29.241 188.049 29.241C174.084 29.241 162.765 40.6597 162.765 54.7497C162.765 68.818 174.084 80.2428 188.049 80.2428C194.75 80.2428 200.844 77.598 205.357 73.3088C205.624 72.9794 205.61 72.4847 205.314 72.1758Z" fill="#1B1B1B"/>
</g>
</svg>
