<svg width="220" height="107" viewBox="0 0 220 107" fill="none" xmlns="http://www.w3.org/2000/svg">
<g id="logo_fujitsu">
<path id="Vector" d="M90.4108 14.3536C88.769 12.9292 86.2515 12.0526 83.6245 12.0526C77.495 12.0526 72.46 16.8737 72.46 23.2287C72.46 29.3646 77.495 34.2952 83.6245 34.2952C87.1271 34.2952 90.0824 32.8708 92.1621 30.4602V24.3244C91.0675 26.187 88.8784 28.7071 86.9082 29.4741C85.9231 29.9124 84.8285 30.1315 83.734 30.1315C79.903 30.1315 76.7288 27.1732 76.7288 23.2287C76.7288 19.6129 79.6841 16.2162 83.734 16.2162C85.7042 16.2162 87.346 16.9832 88.6595 18.2981C89.973 19.6129 92.0526 22.2426 93.0378 23.3382C95.5553 26.0775 99.1673 27.721 103.108 27.721C110.66 27.721 116.899 21.5851 116.899 14.0249C116.68 6.35502 110.551 0 102.889 0C98.5106 0 94.5701 2.30095 92.0526 5.58803V13.8057C94.0229 8.5464 97.5255 4.38277 102.889 4.38277C108.143 4.38277 112.412 8.65597 112.302 13.9153C112.302 19.1746 108.033 23.3382 102.889 23.3382C100.59 23.3382 98.4011 22.4617 96.7593 21.0373C94.7891 19.5033 92.4905 16.1067 90.4108 14.3536Z" fill="#F2F2F2"/>
<path id="Vector_2" d="M0 37.3633H30.4289V45.8001C30.4289 45.8001 28.8965 42.4035 25.6128 42.4035H11.4929V57.0857H26.8168V64.8652C26.8168 64.8652 26.379 62.3451 22.6575 62.3451H11.4929V82.3962C11.4929 85.3546 14.6671 87.1077 14.6671 87.1077H0.218913C0.218913 87.1077 3.28369 85.5737 3.28369 82.3962V42.513C3.28369 39.226 0 37.3633 0 37.3633Z" fill="#F2F2F2"/>
<path id="Vector_3" d="M76.5103 37.3633H92.0531C92.0531 37.3633 88.5505 39.0068 88.5505 41.746V88.4225C88.5505 104.201 72.7887 106.83 71.9131 106.721C73.2266 105.844 79.7939 100.256 79.9034 88.4225V41.746C79.9034 39.1164 76.5103 37.3633 76.5103 37.3633Z" fill="#F2F2F2"/>
<path id="Vector_4" d="M94.2419 37.3633H109.785C109.785 37.3633 106.282 39.0068 106.282 41.746V82.3962C106.282 85.3546 109.785 87.1077 109.785 87.1077H94.2419C94.2419 87.1077 97.7446 85.3546 97.7446 82.3962V41.746C97.6351 39.0068 94.2419 37.3633 94.2419 37.3633Z" fill="#F2F2F2"/>
<path id="Vector_5" d="M112.849 37.3633H146.999L144.044 46.4575C144.044 46.4575 143.168 42.6226 139.885 42.6226H132.77V82.3962C132.77 84.9163 136.163 87.1077 136.163 87.1077H120.949C120.949 87.1077 124.232 85.1355 124.232 82.3962V42.6226H115.695C113.287 42.6226 109.784 47.2245 109.784 47.2245L112.849 37.3633Z" fill="#F2F2F2"/>
<path id="Vector_6" d="M204.136 37.3633H219.132C219.132 37.3633 215.958 39.0068 215.958 41.7461V71.8776C215.958 84.1493 205.778 87.8747 198.773 87.8747C191.768 87.8747 180.822 84.0398 180.822 71.8776V41.7461C180.822 39.0068 177.538 37.3633 177.538 37.3633H192.972C192.972 37.3633 189.579 39.0068 189.579 41.7461V71.8776C189.579 78.3422 193.847 82.5058 198.773 82.5058C203.808 82.5058 207.529 78.123 207.529 71.8776V41.7461C207.529 39.0068 204.136 37.3633 204.136 37.3633Z" fill="#F2F2F2"/>
<path id="Vector_7" d="M58.559 37.3633H73.7734C73.7734 37.3633 70.4897 39.1164 70.4897 41.8556V71.8776C70.4897 84.1493 59.8725 88.0938 52.7578 88.0938C45.7526 88.0938 34.807 84.1493 34.807 71.8776V41.8556C34.807 39.1164 31.7422 37.3633 31.7422 37.3633H47.1755C47.1755 37.3633 43.5635 39.1164 43.5635 41.8556V71.8776C43.5635 78.2326 47.8323 82.6154 52.7578 82.6154C57.7928 82.6154 61.7332 78.123 61.7332 71.8776V41.8556C61.8427 39.1164 58.559 37.3633 58.559 37.3633Z" fill="#F2F2F2"/>
<path id="Vector_8" d="M172.941 45.3618C172.941 45.3618 170.752 41.5269 164.513 41.5269C158.274 41.5269 154.881 44.814 154.881 49.0872C154.881 53.9082 158.493 55.7709 164.075 58.4006C169.438 60.9207 177.429 64.5364 177.429 73.4116C177.429 81.4101 170.314 88.0938 157.617 88.0938C153.677 88.0938 148.313 86.779 148.313 86.779L145.358 77.2465C148.094 79.8761 152.801 82.6154 157.726 82.6154C162.761 82.6154 168.891 79.4379 168.891 74.3977C168.891 64.646 146.234 66.2895 146.234 49.9637C146.234 44.3757 150.174 36.2676 163.637 36.2676C168.015 36.2676 172.941 37.5824 172.941 37.5824V45.3618Z" fill="#F2F2F2"/>
</g>
</svg>
