<svg width="157" height="62" viewBox="0 0 157 62" fill="none" xmlns="http://www.w3.org/2000/svg">
<path d="M61.9836 57.8459C61.5667 58.2628 61.0696 58.5875 60.4924 58.82C59.9192 59.0525 59.2918 59.1687 58.6103 59.1687C57.9329 59.1687 57.3055 59.0525 56.7282 58.82C56.151 58.5875 55.6499 58.2608 55.225 57.8398C54.8001 57.4149 54.4693 56.9178 54.2328 56.3486C54.0003 55.7754 53.8841 55.152 53.8841 54.4786C53.8841 53.8011 54.0003 53.1777 54.2328 52.6085C54.4693 52.0393 54.8001 51.5442 55.225 51.1233C55.6499 50.6984 56.151 50.3697 56.7282 50.1372C57.3055 49.9047 57.9329 49.7884 58.6103 49.7884C59.2878 49.7884 59.9131 49.9047 60.4864 50.1372C61.0596 50.3697 61.5547 50.6924 61.9716 51.1053L60.8652 52.2297C60.5886 51.901 60.2559 51.6444 59.867 51.46C59.4782 51.2756 59.0513 51.1834 58.5863 51.1834C58.1453 51.1834 57.7364 51.2656 57.3596 51.43C56.9868 51.5943 56.6621 51.8248 56.3855 52.1215C56.1089 52.4181 55.8924 52.7669 55.7361 53.1677C55.5838 53.5686 55.5076 54.0055 55.5076 54.4786C55.5076 54.9516 55.5838 55.3885 55.7361 55.7894C55.8924 56.1863 56.1089 56.535 56.3855 56.8357C56.6621 57.1323 56.9868 57.3628 57.3596 57.5272C57.7364 57.6915 58.1453 57.7737 58.5863 57.7737C59.0513 57.7737 59.4782 57.6815 59.867 57.4971C60.2559 57.3127 60.5886 57.0561 60.8652 56.7274L61.9836 57.8459ZM69.0249 58.9883H63.2524V49.9688H64.8398V57.5933H69.0249V58.9883ZM70.1433 58.9883V49.9688H71.7307V58.9883H70.1433ZM82.7887 58.9883H81.2012V52.2237L78.6938 57.473H77.413L74.9176 52.2537V58.9883H73.3302V49.9688H75.3506L78.0564 55.7353L80.7563 49.9688H82.7887V58.9883ZM85.4464 58.9883H83.7808L87.4127 49.9688H89.1024L92.7282 58.9883H91.0626L90.2388 56.8838H86.2702L85.4464 58.9883ZM86.7934 55.4948H89.7157L88.2545 51.7607L86.7934 55.4948ZM96.793 58.9883H95.2056V51.3638H92.4636V49.9688H99.5289V51.3638H96.793V58.9883ZM100.485 58.9883V49.9688H102.072V58.9883H100.485ZM110.16 58.9883H103.323V57.8038L108.007 51.3638H103.564V49.9688H110.082V51.2135L105.44 57.5933H110.16V58.9883ZM112.469 58.9883H110.803L114.435 49.9688H116.125L119.751 58.9883H118.085L117.261 56.8838H113.293L112.469 58.9883ZM113.816 55.4948H116.738L115.277 51.7607L113.816 55.4948ZM128.488 57.8459C128.071 58.2628 127.574 58.5875 126.996 58.82C126.423 59.0525 125.796 59.1687 125.114 59.1687C124.437 59.1687 123.81 59.0525 123.232 58.82C122.655 58.5875 122.154 58.2608 121.729 57.8398C121.304 57.4149 120.973 56.9178 120.737 56.3486C120.504 55.7754 120.388 55.152 120.388 54.4786C120.388 53.8011 120.504 53.1777 120.737 52.6085C120.973 52.0393 121.304 51.5442 121.729 51.1233C122.154 50.6984 122.655 50.3697 123.232 50.1372C123.81 49.9047 124.437 49.7884 125.114 49.7884C125.792 49.7884 126.417 49.9047 126.99 50.1372C127.564 50.3697 128.059 50.6924 128.476 51.1053L127.369 52.2297C127.093 51.901 126.76 51.6444 126.371 51.46C125.982 51.2756 125.555 51.1834 125.09 51.1834C124.649 51.1834 124.24 51.2656 123.864 51.43C123.491 51.5943 123.166 51.8248 122.89 52.1215C122.613 52.4181 122.396 52.7669 122.24 53.1677C122.088 53.5686 122.012 54.0055 122.012 54.4786C122.012 54.9516 122.088 55.3885 122.24 55.7894C122.396 56.1863 122.613 56.535 122.89 56.8357C123.166 57.1323 123.491 57.3628 123.864 57.5272C124.24 57.6915 124.649 57.7737 125.09 57.7737C125.555 57.7737 125.982 57.6815 126.371 57.4971C126.76 57.3127 127.093 57.0561 127.369 56.7274L128.488 57.8459ZM124.122 61.3514L124.363 60.7261C124.527 60.8023 124.695 60.8403 124.868 60.8403C125.064 60.8403 125.225 60.7922 125.349 60.696C125.477 60.5998 125.541 60.4755 125.541 60.3232C125.541 60.1709 125.471 60.0446 125.331 59.9444C125.195 59.8442 125.01 59.7941 124.778 59.7941C124.758 59.7941 124.736 59.7941 124.711 59.7941C124.687 59.7941 124.665 59.7961 124.645 59.8001L124.976 58.9462H125.559L125.307 59.5115C125.607 59.5395 125.846 59.6377 126.022 59.8061C126.203 59.9745 126.293 60.1909 126.293 60.4555C126.293 60.7642 126.171 61.0187 125.926 61.2192C125.682 61.4236 125.365 61.5258 124.976 61.5258C124.695 61.5258 124.411 61.4677 124.122 61.3514ZM130.688 58.9883H129.023L132.655 49.9688H134.344L137.97 58.9883H136.305L135.481 56.8838H131.512L130.688 58.9883ZM132.035 55.4948H134.958L133.496 51.7607L132.035 55.4948ZM135.661 47.1968C135.641 47.6658 135.525 48.0246 135.312 48.2731C135.104 48.5217 134.809 48.6459 134.429 48.6459C134.188 48.6459 133.988 48.6038 133.827 48.5197C133.671 48.4355 133.515 48.3373 133.358 48.225C133.242 48.1368 133.124 48.0587 133.003 47.9905C132.883 47.9224 132.745 47.8883 132.589 47.8883C132.176 47.8883 131.945 48.1208 131.897 48.5858H131.32C131.364 47.6237 131.781 47.1427 132.57 47.1427C132.831 47.1427 133.046 47.1888 133.214 47.281C133.386 47.3692 133.545 47.4634 133.689 47.5636C133.809 47.6518 133.927 47.7279 134.044 47.7921C134.164 47.8562 134.298 47.8883 134.447 47.8883C134.827 47.8883 135.042 47.6578 135.09 47.1968H135.661ZM143.334 59.1687C142.652 59.1687 142.023 59.0525 141.446 58.82C140.872 58.5875 140.373 58.2608 139.948 57.8398C139.524 57.4149 139.193 56.9178 138.956 56.3486C138.724 55.7754 138.608 55.152 138.608 54.4786C138.608 53.8011 138.724 53.1777 138.956 52.6085C139.193 52.0393 139.524 51.5442 139.948 51.1233C140.373 50.6984 140.872 50.3697 141.446 50.1372C142.023 49.9047 142.654 49.7884 143.34 49.7884C144.021 49.7884 144.649 49.9047 145.222 50.1372C145.795 50.3697 146.294 50.6984 146.719 51.1233C147.144 51.5442 147.473 52.0393 147.705 52.6085C147.938 53.1777 148.054 53.8011 148.054 54.4786C148.054 55.152 147.938 55.7754 147.705 56.3486C147.473 56.9178 147.144 57.4149 146.719 57.8398C146.294 58.2608 145.795 58.5875 145.222 58.82C144.649 59.0525 144.019 59.1687 143.334 59.1687ZM143.334 57.7737C143.779 57.7737 144.19 57.6915 144.566 57.5272C144.943 57.3628 145.27 57.1323 145.547 56.8357C145.827 56.535 146.044 56.1843 146.196 55.7834C146.352 55.3825 146.431 54.9476 146.431 54.4786C146.431 54.0095 146.352 53.5746 146.196 53.1737C146.044 52.7729 145.827 52.4241 145.547 52.1275C145.27 51.8268 144.943 51.5943 144.566 51.43C144.19 51.2656 143.779 51.1834 143.334 51.1834C142.893 51.1834 142.482 51.2656 142.101 51.43C141.724 51.5943 141.396 51.8268 141.115 52.1275C140.838 52.4241 140.622 52.7729 140.466 53.1737C140.309 53.5746 140.231 54.0095 140.231 54.4786C140.231 54.9476 140.309 55.3825 140.466 55.7834C140.622 56.1843 140.838 56.535 141.115 56.8357C141.396 57.1323 141.724 57.3628 142.101 57.5272C142.482 57.6915 142.893 57.7737 143.334 57.7737Z" fill="#F2F2F2"/>
<path d="M79.1995 14.659L61.1827 43H56.0003L49.3199 14.659H54.7452L59.8061 36.4411L73.7337 14.659H79.1995ZM83.8049 21.3799H88.8658L84.5741 43H79.5132L83.8049 21.3799ZM87.4892 17.817C86.5985 17.817 85.8697 17.5471 85.3029 17.0073C84.7361 16.4404 84.4527 15.7656 84.4527 14.9829C84.4527 14.0652 84.7631 13.2959 85.3839 12.6751C86.0317 12.0543 86.8684 11.7439 87.8941 11.7439C88.7848 11.7439 89.5136 12.0138 90.0804 12.5537C90.6472 13.0665 90.9306 13.7008 90.9306 14.4566C90.9306 15.4552 90.6067 16.265 89.9589 16.8858C89.3381 17.5066 88.5149 17.817 87.4892 17.817ZM100.772 35.7528C100.718 36.1847 100.691 36.4951 100.691 36.684C100.691 38.3035 101.527 39.1132 103.201 39.1132C104.253 39.1132 105.198 38.8298 106.035 38.263L106.926 41.9878C105.549 42.8515 103.808 43.2834 101.703 43.2834C99.8673 43.2834 98.3828 42.7706 97.2491 41.7449C96.1155 40.7192 95.5487 39.3157 95.5487 37.5342C95.5487 36.9134 95.6027 36.3331 95.7106 35.7933L99.5569 16.6024H104.618L103.606 21.5418H109.395L108.586 25.5905H102.796L100.772 35.7528ZM120.34 35.7528C120.286 36.1847 120.259 36.4951 120.259 36.684C120.259 38.3035 121.096 39.1132 122.769 39.1132C123.822 39.1132 124.766 38.8298 125.603 38.263L126.494 41.9878C125.117 42.8515 123.376 43.2834 121.271 43.2834C119.436 43.2834 117.951 42.7706 116.817 41.7449C115.684 40.7192 115.117 39.3157 115.117 37.5342C115.117 36.9134 115.171 36.3331 115.279 35.7933L119.125 16.6024H124.186L123.174 21.5418H128.964L128.154 25.5905H122.364L120.34 35.7528ZM145.512 21.1369C148.535 21.1369 150.951 21.9737 152.76 23.6471C154.595 25.3206 155.513 27.7363 155.513 30.8943C155.513 31.3802 155.499 31.7446 155.472 31.9875L138.184 35.1455C138.751 37.7097 140.775 38.9918 144.257 38.9918C145.499 38.9918 146.659 38.8028 147.739 38.425C148.846 38.0471 149.763 37.4937 150.492 36.765L152.598 40.2874C151.491 41.286 150.168 42.0418 148.63 42.5546C147.091 43.0405 145.472 43.2834 143.771 43.2834C141.612 43.2834 139.723 42.892 138.103 42.1093C136.484 41.3265 135.242 40.2199 134.378 38.7893C133.515 37.3588 133.083 35.6853 133.083 33.7689C133.083 31.3937 133.609 29.2479 134.662 27.3315C135.714 25.3881 137.185 23.8766 139.075 22.7969C140.964 21.6903 143.11 21.1369 145.512 21.1369ZM145.31 25.1857C143.367 25.1857 141.761 25.7795 140.492 26.9671C139.223 28.1547 138.441 29.7607 138.144 31.7851L150.816 29.4368C150.654 28.0872 150.074 27.0481 149.075 26.3193C148.104 25.5635 146.848 25.1857 145.31 25.1857Z" fill="#F2F2F2"/>
<path d="M0 27.6402C0 27.6402 5.00159 20.7108 27.377 21.6515C49.7524 22.5922 54.4199 5.22307 54.7539 4.2118C54.7539 4.2118 46.8568 17.637 25.2052 17.637C3.55375 17.637 0 27.6402 0 27.6402Z" fill="url(#paint0_linear_2002_17)"/>
<path d="M8.5553 41.197C8.5553 41.197 13.5569 34.2676 35.9323 35.2083C58.3077 36.149 62.9752 18.7799 63.3092 17.7687C63.3092 17.7687 55.412 31.1939 33.7605 31.1939C12.109 31.1939 8.5553 41.197 8.5553 41.197Z" fill="url(#paint1_linear_2002_17)"/>
<path d="M3.55371 34.4844C3.55371 34.4844 8.55531 27.555 30.9307 28.4957C53.3061 29.4364 57.9736 12.0673 58.3076 11.056C58.3076 11.056 50.4105 24.4813 28.759 24.4813C7.10746 24.4813 3.55371 34.4844 3.55371 34.4844Z" fill="url(#paint2_linear_2002_17)"/>
<path d="M9.60247 43.1625C9.53961 43.1011 9.55332 42.9966 9.62987 42.9536L11.4956 41.9041C11.547 41.8751 11.6115 41.884 11.6532 41.9257L25.7701 56.0427C25.8216 56.0941 25.9051 56.0941 25.9565 56.0425L44.3046 37.6293C44.3815 37.5521 44.4765 37.4952 44.5808 37.4638L49.2259 36.0639L26.1392 58.7604C25.9859 58.9111 25.7404 58.9115 25.5866 58.7614L9.60247 43.1625Z" fill="url(#paint3_linear_2002_17)"/>
<path d="M39.2228 13.0962L36.9936 13.7331C36.9478 13.7462 36.8985 13.7335 36.8647 13.6999L25.9564 2.85651C25.905 2.80538 25.8218 2.8055 25.7705 2.85679L11.5665 17.0608C11.4906 17.1367 11.3973 17.1929 11.2947 17.2244L7.17329 18.4926L25.5869 0.273518C25.7403 0.121789 25.987 0.121217 26.141 0.272231L39.2228 13.0962Z" fill="url(#paint4_linear_2002_17)"/>
<defs>
<linearGradient id="paint0_linear_2002_17" x1="51.9081" y1="5.83761" x2="7.45746" y2="35.627" gradientUnits="userSpaceOnUse">
<stop stop-color="#00FFEA"/>
<stop offset="0.480769" stop-color="#41C9FF"/>
<stop offset="1" stop-color="#0095FF"/>
</linearGradient>
<linearGradient id="paint1_linear_2002_17" x1="60.4634" y1="19.3945" x2="16.0128" y2="49.1839" gradientUnits="userSpaceOnUse">
<stop stop-color="#00FFEA"/>
<stop offset="0.480769" stop-color="#41C9FF"/>
<stop offset="1" stop-color="#0095FF"/>
</linearGradient>
<linearGradient id="paint2_linear_2002_17" x1="55.4618" y1="12.6819" x2="11.0112" y2="42.4713" gradientUnits="userSpaceOnUse">
<stop stop-color="#00FFEA"/>
<stop offset="0.480769" stop-color="#41C9FF"/>
<stop offset="1" stop-color="#0095FF"/>
</linearGradient>
<linearGradient id="paint3_linear_2002_17" x1="39.2886" y1="31.1281" x2="24.6032" y2="71.2305" gradientUnits="userSpaceOnUse">
<stop stop-color="#41FFEF"/>
<stop offset="0.5" stop-color="#21AEFE"/>
<stop offset="1" stop-color="#0194FE"/>
</linearGradient>
<linearGradient id="paint4_linear_2002_17" x1="24.1567" y1="18.4926" x2="22.2393" y2="2.27711e-06" gradientUnits="userSpaceOnUse">
<stop stop-color="#FFBB00"/>
<stop offset="1" stop-color="#FF3300"/>
</linearGradient>
</defs>
</svg>
