<svg width="295" height="107" viewBox="0 0 295 107" fill="none" xmlns="http://www.w3.org/2000/svg">
<g id="logo_lg">
<path id="Vector" fill-rule="evenodd" clip-rule="evenodd" d="M53.3573 106.724C82.8244 106.724 106.715 82.8321 106.715 53.3618C106.715 23.8915 82.8257 0 53.3573 0C23.8889 0 0 23.8915 0 53.3618C0 82.8321 23.8889 106.724 53.3573 106.724Z" fill="#F2F2F2"/>
<path id="Vector_2" fill-rule="evenodd" clip-rule="evenodd" d="M66.3132 72.0855H55.2458V30.3464H51.1414V76.2069H55.2458V76.1785H66.3132V72.0855Z" fill="#1B1B1B"/>
<path id="Vector_3" fill-rule="evenodd" clip-rule="evenodd" d="M93.9286 55.0694H66.4152V50.9729H97.9585C98.0004 51.7652 98.0207 52.5588 98.0207 53.3619C98.0207 78.0317 78.0238 98.029 53.3574 98.029C28.6911 98.029 8.69409 78.0317 8.69409 53.3619C8.69409 28.6921 28.6911 8.69482 53.3588 8.69482C54.009 8.69482 54.6579 8.70834 55.3027 8.73673L55.2973 12.8035C54.6516 12.7737 54.0052 12.7588 53.3588 12.7589C30.9365 12.7589 12.7578 30.9378 12.7578 53.3619C12.7578 75.7873 30.9352 93.9649 53.3588 93.9649C75.1699 93.9649 92.9633 76.7662 93.9178 55.1871L93.9286 55.0694Z" fill="#1B1B1B"/>
<path id="Vector_4" fill-rule="evenodd" clip-rule="evenodd" d="M36.6512 42.6214C38.324 42.6214 39.9283 41.9658 41.1112 40.7988C42.294 39.6319 42.9586 38.0491 42.9586 36.3987C42.9586 34.7484 42.294 33.1656 41.1112 31.9986C39.9283 30.8316 38.324 30.176 36.6512 30.176C34.9783 30.176 33.374 30.8316 32.1911 31.9986C31.0083 33.1656 30.3438 34.7484 30.3438 36.3987C30.3438 38.0491 31.0083 39.6319 32.1911 40.7988C33.374 41.9658 34.9783 42.6214 36.6512 42.6214Z" fill="#1B1B1B"/>
<path id="Vector_5" fill-rule="evenodd" clip-rule="evenodd" d="M146.251 96.514H208.602V77.6838H169.146V10.246H146.251V96.514ZM283.939 16.32C276.789 10.7811 267.587 7.9729 256.6 7.9729C243.556 7.9729 232.66 11.9795 225.085 19.5505C217.174 27.4642 212.989 39.1214 212.989 53.2617C212.989 68.3661 217.415 81.1155 225.452 89.1464C231.758 95.4526 240.168 98.7848 249.786 98.7848C270.903 98.7848 275.76 86.126 275.76 86.126V96.5118H294.83V47.7891H256.872V63.035H274.343C274.343 63.035 274.511 82.2277 256.479 82.2277C251.897 82.2277 247.816 80.5649 244.676 77.4251C239.784 72.5363 237.197 64.2997 237.197 53.6177C237.197 35.9285 244.228 25.368 255.999 25.368C263.353 25.368 268.88 29.8832 270.297 36.7267H294.582C293.322 26.7854 290.594 21.6024 283.939 16.32Z" fill="#F2F2F2"/>
</g>
</svg>
