<svg width="196" height="107" viewBox="0 0 196 107" fill="none" xmlns="http://www.w3.org/2000/svg">
<g id="logo_brastemp">
<path id="Vector" d="M195.055 49.6995C195.046 43.9961 191.749 36.024 187.716 31.983L163.462 7.75115C159.432 3.70712 151.456 0.414795 145.742 0.414795H10.7897C10.6768 0.414795 10.5721 0.414795 10.4674 0.416448C10.3578 0.414795 10.2556 0.414795 10.1386 0.414795C4.76088 0.414795 0.40625 4.76675 0.40625 10.1394C0.40625 10.2539 0.40625 10.3626 0.407068 10.4787C0.40625 10.585 0.411158 10.6847 0.411158 10.7918V57.0336C0.411158 62.7411 3.7103 70.7068 7.74645 74.7381L31.9919 98.9812C36.0273 103.014 44.0045 106.311 49.7146 106.311H184.674C184.78 106.311 184.889 106.309 185.001 106.309C185.104 106.309 185.213 106.311 185.325 106.311C190.7 106.311 195.057 101.958 195.057 96.5921C195.057 96.4752 195.055 96.3755 195.055 96.2602C195.055 96.1547 195.057 96.0444 195.057 95.9405V49.6987L195.055 49.6995Z" fill="#F2F2F2"/>
<g id="Group">
<path id="Vector_2" d="M185.327 106.724L184.837 106.723L184.675 106.724H49.7227C43.9024 106.724 35.8201 103.381 31.7091 99.2748L7.46287 75.0264C3.35311 70.92 0.00818057 62.847 0.00818057 57.0304L0 10.1356C0 4.54731 4.55318 0 10.1473 0L10.4811 0.00330615L10.7992 0H145.751C151.582 0 159.663 3.34628 163.765 7.45703L188.018 31.6889C192.121 35.8029 195.468 43.8803 195.477 49.6946V96.5894C195.477 102.176 190.927 106.719 185.335 106.719M185.01 105.895L185.335 105.896C190.472 105.896 194.653 101.722 194.653 96.5896V49.7016C194.644 44.0734 191.406 36.2568 187.435 32.2766L163.181 8.04252C159.219 4.06484 151.393 0.828116 145.754 0.828116H10.1555C5.0142 0.828116 0.832191 5.00672 0.832191 10.1402L0.839552 10.7926V57.0359C0.839552 62.6649 4.07486 70.4755 8.0529 74.4496L32.2984 98.6927C36.2764 102.668 44.0967 105.901 49.7301 105.901L185.013 105.9L185.01 105.895Z" fill="#1B1B1B"/>
<path id="Vector_3" d="M37.184 53.2564C38.452 52.4527 38.8626 51.1945 38.8626 50.2584C38.8626 48.535 37.652 46.5344 35.2625 46.5344H21.0132V60.2046H35.6496C37.653 60.2046 39.3365 58.5678 39.3365 56.5672C39.3365 55.0572 38.452 53.8059 37.184 53.2564ZM25.6017 49.7478H32.9771C33.3681 49.7478 33.9735 50.0838 33.9735 50.7845C33.9735 51.4786 33.3149 51.7574 32.9771 51.7574H29.9847L25.6018 51.8015L25.6017 49.7478ZM33.4439 57.0331H25.6009V54.9711H33.4432C33.925 54.9711 34.4273 55.4012 34.4273 56.0087C34.4273 56.6088 33.8751 57.033 33.4432 57.033" fill="#1B1B1B"/>
<path id="Vector_4" d="M59.0863 50.7303C59.0863 48.5359 57.1721 46.5713 54.8882 46.5713H41.2073V60.1468H45.7302V55.0214H50.6432L53.5832 60.1468H58.4047L55.4082 54.97C57.5073 54.8302 59.0863 52.8723 59.0863 50.7303ZM52.231 51.7577H45.7302V49.7915H52.231C53.6871 49.7915 54.0846 49.7915 54.0846 50.7301C54.0846 51.6629 53.6871 51.7577 52.231 51.7577Z" fill="#1B1B1B"/>
<path id="Vector_5" d="M93.1161 51.7582H85.2588C84.6551 51.7582 84.2796 51.2889 84.2796 50.7836C84.2796 50.2588 84.6543 49.792 85.2588 49.792H96.8444V46.5715H84.401C81.8962 46.5715 79.5541 47.452 79.4143 50.4542V50.9651C79.51 53.7114 81.0455 55.0228 84.3126 55.0228H91.6594C92.1625 55.0228 92.6778 55.4021 92.6778 56.0088C92.6778 56.6546 92.07 57.034 91.7469 57.034H79.9839V60.1481H92.2679C96.0496 60.1481 97.5916 58.6634 97.5916 55.9686C97.5909 53.7767 96.8439 51.7582 93.1113 51.7582" fill="#1B1B1B"/>
<path id="Vector_6" d="M70.4447 46.572H68.1109C67.3133 46.572 66.6704 47.0519 66.3816 47.5572L59.0867 60.1469H63.6668L65.0697 57.7285H73.4368L74.8373 60.1469H79.4149L72.1711 47.6158C71.8937 47.1462 71.2419 46.5728 70.442 46.5728M69.2419 55.117H66.6234L69.2419 50.5517L71.8939 55.117H69.2419Z" fill="#1B1B1B"/>
<path id="Vector_7" d="M152.991 46.5713H150.201C149.449 46.5713 148.703 47.1861 148.51 47.7878L145.805 55.1157L143.095 47.6464C142.862 47.0512 142.156 46.5713 141.372 46.5713H138.655C137.819 46.5713 137.067 47.2286 136.881 47.8753L133.554 60.1472H138.189L140.256 51.1958L143.526 60.1472H148.088L151.368 51.1958L153.455 60.1472H158.046L154.772 47.9272C154.586 47.2699 153.832 46.5713 152.991 46.5713Z" fill="#1B1B1B"/>
<path id="Vector_8" d="M172.719 55.0217C174.963 55.0217 176.739 52.9622 176.739 50.7818C176.739 48.5351 174.817 46.5713 172.48 46.5713H159.118V60.1468H163.692V55.0214H172.713L172.719 55.0217ZM163.699 51.8004V49.7925H169.862C171.261 49.7925 171.748 49.8358 171.748 50.7294C171.748 51.6622 171.314 51.8004 169.862 51.8004H163.699Z" fill="#1B1B1B"/>
<path id="Vector_9" d="M103.95 60.147H108.523V49.7909H114.086V46.5713H98.4368V49.7909H103.95V60.147Z" fill="#1B1B1B"/>
<path id="Vector_10" d="M115.333 50.6883V56.0434C115.333 58.4413 117.122 60.1476 119.358 60.1476H132.583V57.0319H121.879C120.847 57.0319 119.728 56.1947 119.728 55.0231V52.5066L121.328 54.8317H132.582L130.525 51.9383H119.736V51.5671C119.883 50.7316 120.67 49.7497 121.792 49.7497H132.591V46.5718H119.409C116.889 46.5718 115.342 48.6353 115.342 50.6891" fill="#1B1B1B"/>
</g>
</g>
</svg>
