<svg width="173" height="115" viewBox="0 0 173 115" fill="none" xmlns="http://www.w3.org/2000/svg">
<g id="logo_consul" filter="url(#filter0_d_2123_245)">
<path id="Vector" d="M11.2333 0.221783C11.8603 -0.0551997 12.5178 0.0056757 13.1813 0.0056757H158.923C164.639 0.0056757 168.133 3.46948 168.136 9.13698C168.136 28.7794 168.136 48.4219 168.136 68.0643C168.136 68.8192 168.164 69.5862 167.878 70.2985C167.004 70.7794 166.325 71.9056 165.071 71.1355C164.554 70.2498 164.712 69.2697 164.712 68.3261C164.712 48.7912 164.712 29.2573 164.712 9.72443C164.712 4.74787 163.741 3.63689 158.801 2.96422C157.845 2.8456 156.882 2.79373 155.919 2.80899C108.016 2.80899 60.1142 2.80899 12.2134 2.80899C11.0507 2.80899 9.89098 3.06771 8.73131 2.80899C7.9308 2.09674 8.56086 1.63714 9.06917 1.25971C9.74384 0.823771 10.471 0.475022 11.2333 0.221783Z" fill="#F2F2F2"/>
<path id="Vector_2" d="M11.2335 0.221924C10.3569 0.970691 9.13022 1.26898 8.49407 2.32517C8.46807 2.47008 8.4241 2.61118 8.36319 2.74521C6.50041 5.49982 6.85653 8.61055 6.85653 11.6634C6.85653 33.7044 6.85653 55.7423 6.85653 77.7771C6.85653 78.7146 7.06046 79.7008 6.44257 80.5561C5.40769 80.413 5.62989 79.5517 5.61467 78.949C5.55582 76.2887 5.55582 73.6275 5.61467 70.9652C5.56901 68.3384 5.56292 65.7116 5.61467 63.0849C5.55379 60.5646 5.54771 58.0413 5.61467 55.5181C5.56292 52.4225 5.53857 49.324 5.61467 46.2254C5.55988 41.8546 5.59641 37.4837 5.59641 33.1129C5.59641 32.1358 5.48683 31.2257 4.86894 30.41C4.40906 29.7418 4.18324 28.9402 4.22671 28.1302C4.22671 27.0284 4.36064 25.9174 4.09887 24.8247C4.07757 19.4098 4.09278 14.0071 4.09278 8.58011C4.09278 8.18747 4.0106 7.77656 4.21453 7.39913C4.37394 5.57565 5.16053 3.86382 6.44033 2.55516C7.72013 1.2465 9.414 0.421949 11.2335 0.221924Z" fill="#F2F2F2"/>
<path id="Vector_3" d="M6.05595 70.9255C6.05595 73.6253 6.05595 76.3221 6.07117 79.0219C6.07117 79.5515 5.89463 80.1298 6.32989 80.5986C8.5214 84.8811 12.8222 86.6222 16.6513 88.8502C21.57 91.7144 26.5192 94.5542 31.8701 96.621C32.1515 96.7361 32.411 96.8988 32.6372 97.1019C33.0176 97.7106 33.2459 98.2707 32.2171 98.4472C29.4991 97.7198 27.0214 96.414 24.5225 95.1965C18.7496 92.4207 13.1709 89.2582 7.82438 85.7304C6.09247 84.5737 4.47623 83.2527 4.20838 80.9669C3.93749 77.2169 4.16577 73.464 4.08663 69.7049C4.08663 69.0962 4.26013 68.7492 4.76235 69.4005C5.17021 69.9332 5.34675 70.6454 6.05595 70.9255Z" fill="#F2F2F2"/>
<path id="Vector_4" d="M94.3012 104.781C93.6725 105.066 92.979 105.179 92.2924 105.107C91.7749 105.375 91.154 105.025 90.6518 105.378L90.5483 105.439L90.4326 105.402C89.8239 105.706 89.1147 105.299 88.5211 105.679C82.8575 106.58 77.1164 106.899 71.3878 106.632C71.4882 106.519 71.6039 106.385 71.7591 106.397C72.9462 106.492 74.1454 106.373 75.3355 106.467C73.8958 106.358 72.4013 106.617 71.0256 106.023C70.6877 105.877 69.9755 105.962 70.3985 105.213C70.7009 105.021 71.0541 104.925 71.4121 104.936C76.4313 105.079 81.4231 104.535 86.424 104.306C87.0354 104.395 87.6589 104.349 88.2502 104.169C90.3413 103.844 92.4172 103.424 94.5265 103.195C96.1519 103.338 96.2493 103.433 95.8444 104.486C95.3757 104.812 94.7609 104.407 94.3012 104.781Z" fill="#F2F2F2"/>
<path id="Vector_5" d="M32.217 98.4319C32.6493 98.1275 32.8258 97.7349 32.5214 97.2357C33.2458 96.7395 33.882 97.2174 34.512 97.4548C39.9391 99.5033 45.3722 101.524 51.0823 102.687C51.7915 102.943 52.5829 103.104 53.0334 103.762C53.4412 104.355 53.3378 104.739 52.4977 104.504C49.6883 104.245 47.0189 103.427 44.3069 102.678C40.1804 101.554 36.14 100.135 32.217 98.4319Z" fill="#F2F2F2"/>
<path id="Vector_6" d="M52.5098 104.504C52.936 104.444 53.289 104.285 52.7716 103.896C52.2333 103.546 51.6731 103.23 51.0945 102.952C51.4597 102.578 51.9224 102.593 52.3698 102.681C56.3796 103.507 60.432 104.111 64.5084 104.489C64.8085 104.535 65.1032 104.612 65.388 104.717C66.4868 105.122 67.6252 104.903 68.7362 104.931C69.281 104.946 69.835 104.931 70.258 105.366C72.0234 106.017 73.8071 106.562 75.7703 106.209L75.7307 106.623H71.3873L70.882 106.602C69.2323 106.118 67.5339 106.672 65.8689 106.297C61.3663 106.158 56.8899 105.557 52.5098 104.504Z" fill="#F2F2F2"/>
<path id="Vector_7" d="M113.151 98.718C113.775 98.7515 113.787 99.1898 113.778 99.6464C108.634 101.649 103.299 102.995 97.9141 104.166C97.2293 104.316 96.5262 104.382 95.8322 104.486C96.1731 103.186 95.1291 103.701 94.5903 103.555C94.6573 102.833 95.2782 102.918 95.7287 102.824C101.116 101.686 106.498 100.544 111.708 98.7302C112.171 98.5689 112.658 98.3528 113.151 98.718Z" fill="#F2F2F2"/>
<path id="Vector_8" d="M4.29978 69.1541C4.27137 73.0866 4.24093 77.0192 4.20846 80.9517C3.90409 80.4404 4.02279 79.8742 4.02279 79.3324C4.02279 55.8954 4.02787 32.4584 4.03801 9.02137C4.03801 8.47958 3.91626 7.91344 4.21455 7.396C4.24296 13.2806 4.26832 19.1652 4.29065 25.0499C4.76852 31.1557 4.802 37.2736 4.71069 43.3946C4.63155 46.8158 4.802 50.237 4.71069 53.6582C4.6559 55.6002 4.78374 57.5421 4.71069 59.484C4.60415 62.0377 4.81113 64.5945 4.73504 67.1482C4.70155 67.8331 4.81113 68.5575 4.29978 69.1541Z" fill="#F2F2F2"/>
<path id="Vector_9" d="M65.8689 106.315C67.5399 106.422 69.2444 105.911 70.882 106.62C69.2018 106.626 67.5217 106.723 65.8689 106.315Z" fill="#F2F2F2"/>
<path id="Vector_10" d="M88.521 105.68C89.0902 105.126 89.7902 105.454 90.4325 105.403C89.8298 105.722 89.1754 105.707 88.521 105.68Z" fill="#F2F2F2"/>
<path id="Vector_11" d="M94.301 104.781C94.7332 104.261 95.3207 104.529 95.8442 104.477C95.3755 104.741 94.8347 104.847 94.301 104.781Z" fill="#F2F2F2"/>
<path id="Vector_12" d="M90.6516 105.378C91.1264 104.861 91.7352 105.131 92.2922 105.107C91.7874 105.368 91.2134 105.462 90.6516 105.378Z" fill="#F2F2F2"/>
<path id="Vector_13" d="M113.151 98.7182C109.566 99.8322 105.998 101.01 102.331 101.844C99.7555 102.429 97.1714 102.986 94.5903 103.555L88.2166 104.468C87.7479 104.803 87.1422 104.407 86.6734 104.751C81.2099 105.055 75.7493 105.548 70.2645 105.36H68.7669C67.6712 104.961 66.4963 105.46 65.4005 105.074C60.5975 104.608 55.8431 103.798 51.0948 102.943C47.5849 102.337 44.1395 101.404 40.8038 100.155C38.0644 99.0986 35.2916 98.1916 32.5339 97.2176C25.2076 94.4173 18.5326 90.4087 11.8363 86.4244C10.3631 85.5478 8.91427 84.6468 7.75764 83.3441C7.03931 82.5314 6.46404 81.6791 6.34229 80.5834C6.34229 64.7923 6.34939 49.0012 6.36359 33.2102C6.36359 24.5598 6.36359 15.9104 6.36359 7.26204C6.35407 6.33325 6.53867 5.4127 6.90557 4.55939C7.27248 3.70608 7.81358 2.93883 8.49423 2.30679C9.26126 2.93685 10.0313 2.27026 10.7984 2.27026C59.6813 2.31085 108.564 2.33114 157.447 2.33114C158.806 2.35142 160.155 2.55621 161.459 2.93989C164.198 3.7191 165.203 5.17402 165.203 8.02603C165.203 20.0124 165.203 31.9988 165.203 43.9851C165.203 52.4955 165.203 61.0069 165.203 69.5193C165.203 70.0976 164.983 70.7368 165.507 71.2329C162.098 73.8201 158.439 76.039 154.814 78.3066C147.896 82.6528 140.745 86.6156 133.392 90.1773C133.223 90.28 133.065 90.4004 132.92 90.5365C126.916 93.3799 120.767 95.9047 114.497 98.1003C114.052 98.2951 113.605 98.5203 113.151 98.7182Z" fill="#F2F2F2"/>
<path id="Vector_14" d="M4.2998 43.4649C4.2998 37.3226 4.2998 31.1813 4.2998 25.041C4.82029 25.9815 4.51287 26.9982 4.52504 27.9722C4.52504 28.8244 4.68636 29.6949 5.25859 30.1941C6.11998 30.952 6.07432 31.8195 6.07432 32.7661C6.07432 37.2303 6.07432 41.6945 6.07432 46.1587C5.03031 46.6853 4.58592 46.0948 4.45808 45.206C4.35764 44.6307 4.43677 44.0372 4.2998 43.4649Z" fill="#F2F2F2"/>
<path id="Vector_15" d="M4.2998 43.4646C4.68941 43.8025 4.67723 44.3351 4.64984 44.7095C4.56461 45.8053 5.11858 46.1249 6.0591 46.1462V55.5118C4.65288 55.7066 4.75637 54.4496 4.2998 53.7282C4.2998 50.307 4.2998 46.8858 4.2998 43.4646Z" fill="#F2F2F2"/>
<path id="Vector_16" d="M4.2998 69.1542C4.2998 65.9339 4.2998 62.7126 4.2998 59.4902C5.21294 59.8464 5.00292 60.7077 5.06075 61.3652C5.13075 62.1444 5.38339 62.6953 6.05302 63.0697V70.9257C5.47166 71.2544 5.05162 71.2087 4.83551 70.4813C4.68055 70.0298 4.50173 69.5868 4.2998 69.1542Z" fill="#F2F2F2"/>
<path id="Vector_17" d="M6.05606 63.0696C5.01205 63.3527 4.65593 62.7013 4.71071 61.8977C4.74531 61.0752 4.60527 60.2546 4.2998 59.4901V53.7283C5.08205 54.13 5.0577 55.3141 6.05302 55.5119L6.05606 63.0696Z" fill="#F2F2F2"/>
<path id="Vector_18" d="M86.6731 104.76C87.1205 104.313 87.6928 104.523 88.2163 104.477C87.7749 104.97 87.1936 104.711 86.6731 104.76Z" fill="#F2F2F2"/>
<path id="Vector_19" d="M65.4006 105.08C66.5207 105.196 67.6835 104.797 68.767 105.366C67.6469 105.229 66.4751 105.707 65.4006 105.08Z" fill="#F2F2F2"/>
<path id="Vector_20" d="M148.185 66.4207C141.616 70.822 134.625 74.4684 127.472 77.8135C121.427 80.649 115.21 83.105 108.859 85.1673C100.455 87.9315 91.7979 89.8604 83.0148 90.9261C68.983 92.5667 55.2495 91.5135 41.9239 86.6374C35.8363 84.4094 29.7488 82.1661 24.5531 78.1361C23.3965 77.223 22.2916 76.2551 21.5093 74.998C20.0392 72.6391 19.9874 70.5967 21.3054 68.9501C22.6233 67.3034 24.9579 66.7403 27.4142 67.489C29.5449 68.1374 31.2585 69.4492 32.9722 70.8068C38.3627 75.068 44.5598 77.7496 51.11 79.6854C61.2214 82.6683 71.5976 83.4384 82.056 82.9392C94.6328 82.3305 106.905 79.862 118.986 76.3921C128.655 73.5897 138.136 70.1758 147.372 66.1711C147.516 66.121 147.663 66.0844 147.814 66.0615C148.161 65.9702 148.249 66.1224 148.185 66.4207Z" fill="#1B1B1B"/>
<path id="Vector_21" d="M29.8037 19.5619C32.6375 19.4889 35.456 19.3732 38.2136 20.335C39.2698 20.7033 39.6442 21.1995 39.5833 22.2861C39.4981 23.8415 39.5468 25.4059 39.5651 26.9644C39.5651 28.0571 39.2607 28.4162 38.1101 27.9445C35.2247 26.7726 32.3574 26.2643 29.3593 27.8744C26.8086 29.2411 25.7494 32.4401 26.4921 35.7395C27.1008 38.412 29.7794 40.5852 32.4974 40.7131C34.4485 40.8044 36.3387 40.5761 38.1193 39.7421C39.2029 39.2338 39.5986 39.5777 39.5712 40.7191C39.5316 42.381 39.5346 44.0429 39.5712 45.7018C39.5894 46.4567 39.3642 47.0137 38.6032 47.1932C33.2158 48.4625 27.9227 48.8582 22.9583 45.7596C19.9602 43.8847 18.277 41.0783 17.5099 37.7271C16.3989 32.8936 17.0047 28.3493 20.1093 24.3071C20.3722 24.0063 20.6581 23.7264 20.9646 23.4701C21.2964 23.4214 21.3755 23.6193 21.3786 23.8902C21.2507 24.6115 20.7698 25.1442 20.4045 25.7438C17.2542 30.8999 17.2969 36.1718 20.1763 41.3583C22.0756 44.7795 25.3689 46.3775 29.1523 46.8371C31.7717 47.1491 34.4242 47.0382 37.0083 46.5084C38.0919 46.2892 38.585 45.7688 38.5302 44.6578C38.4754 43.7051 38.5089 42.7463 38.5302 41.7936C38.5302 41.124 38.3171 40.8805 37.6171 41.0935C36.6065 41.3979 35.5838 41.7023 34.4942 41.5897C33.7524 41.3613 32.9591 41.3613 32.2174 41.5897C28.8327 41.6171 25.7951 38.7133 25.445 35.1277C25.445 34.2146 25.445 33.3015 25.445 32.3884C25.6307 28.9793 27.9074 26.7209 31.7761 26.0938C32.7896 26.0938 33.8032 26.0512 34.8198 26.1334C35.9856 26.3252 37.0814 26.797 38.241 27.01C38.4419 27.01 38.725 26.9552 38.7402 26.7726C38.8833 25.1137 39.002 23.4518 38.6793 21.7991C38.655 21.6773 38.4693 21.6012 38.3323 21.5343C37.0844 20.9955 35.7147 20.8829 34.4424 20.4385C33.4014 20.1341 32.3118 20.3563 31.2769 20.2559C30.6986 20.2011 29.9802 20.4142 29.8037 19.5619Z" fill="#1B1B1B"/>
<path id="Vector_22" d="M79.3894 29.8349C77.8889 28.6996 76.1752 29.3114 74.562 29.3448C73.7554 29.3601 73.9533 30.258 73.9533 30.8241C73.9411 35.8463 73.9411 40.8696 73.9533 45.8938C73.9533 47.9575 73.9533 47.9575 71.8226 47.9605H67.4244C66.8643 47.9605 66.2891 48.0092 65.9908 47.3761C65.7412 46.8465 65.8873 46.2865 65.8629 45.7386C65.7381 42.9322 65.8173 40.1259 65.662 37.3104C65.4338 33.113 65.8934 28.8944 65.9816 24.6818C66.0608 24.0517 66.5691 23.9087 67.0591 23.8295C68.8184 23.5434 70.5473 22.9895 72.3675 23.1751C72.6353 23.0168 72.888 22.9742 73.0828 23.2847C73.0817 23.3774 73.0579 23.4684 73.0133 23.5496C72.9687 23.6308 72.9047 23.6998 72.8271 23.7504C71.5365 24.4383 70.0694 24.3591 68.6936 24.6635C67.5492 24.9131 67.0774 25.4549 67.0804 26.6176C67.0967 32.8614 67.0967 39.1062 67.0804 45.352C67.0804 46.5482 67.6161 46.9287 68.7423 46.9135C73.3993 46.8526 72.8027 47.37 72.8332 43.0692C72.8636 39.0392 72.8332 35.0093 72.8332 30.9793C72.8332 30.2367 72.7297 29.4575 73.3323 28.8487C74.1237 28.3343 75.0703 28.6813 75.8982 28.383C76.3796 28.27 76.8793 28.2586 77.3653 28.3495C77.8742 28.4908 78.3932 28.5926 78.9177 28.6539C79.1384 28.6834 79.3454 28.7779 79.5123 28.9253C79.6792 29.0727 79.7986 29.2664 79.8551 29.4818C79.8593 29.6257 79.8234 29.7679 79.7516 29.8927C79.6948 29.9296 79.6263 29.944 79.5594 29.9334C79.4925 29.9227 79.432 29.8876 79.3894 29.8349Z" fill="#1B1B1B"/>
<path id="Vector_23" d="M104.318 29.2261C102.9 29.2261 101.481 29.2109 100.057 29.2109C99.4481 29.2109 98.6141 29.1165 98.4467 29.7314C98.2488 30.4497 99.0859 30.751 99.6246 31.0858C101.719 32.3946 103.886 33.5878 105.892 35.0427C108.455 36.8964 109.626 39.2736 108.85 42.3234C108.102 45.2728 105.807 46.6973 102.976 47.3426C99.8287 48.0572 96.5861 48.2536 93.3758 47.924C92.9009 47.6196 92.3105 47.9696 91.8326 47.6622L90.9499 47.6287C90.9266 47.5945 90.9105 47.5559 90.9026 47.5152C90.8947 47.4746 90.8951 47.4327 90.904 47.3923C90.9128 47.3518 90.9298 47.3136 90.9539 47.2799C90.978 47.2463 91.0088 47.2179 91.0442 47.1965C91.58 46.8921 92.1796 46.9713 92.7609 46.9256C95.5003 46.8921 98.2215 47.0991 100.94 46.6212C102.089 46.4395 103.218 46.1438 104.309 45.7385C108.409 44.1405 109.2 39.1031 105.791 36.3272C103.941 34.8236 101.859 33.673 99.8194 32.4555C99.1501 32.1032 98.535 31.6563 97.9932 31.1284C96.8122 29.8531 97.1714 28.6447 98.9063 28.313C100.207 28.0968 101.535 28.0968 102.836 28.313C103.706 28.593 104.601 28.4591 105.487 28.4895C105.799 28.496 106.11 28.5317 106.415 28.596C106.908 28.6995 107.541 28.9004 107.538 28.1151C107.538 26.8519 107.904 25.5523 107.301 24.3287C106.762 23.9573 106.032 24.006 105.545 23.5312C105.505 23.4663 105.483 23.3914 105.483 23.3151C105.483 23.2387 105.505 23.1639 105.545 23.099C105.647 23.0427 105.764 23.017 105.88 23.0251C105.997 23.0332 106.109 23.0747 106.202 23.1446C106.921 23.1629 107.666 22.9894 108.302 23.4886C108.54 25.3952 108.549 27.3236 108.327 29.2322C107.733 30.3462 106.887 29.3904 106.172 29.4878C105.587 29.1561 104.899 29.5639 104.318 29.2261Z" fill="#1B1B1B"/>
<path id="Vector_24" d="M117.753 23.4426C118.182 23.9143 118.009 24.4957 118.012 25.0284C118.012 29.804 118.012 34.5767 118.012 39.3493C118.012 41.2699 118.292 41.5469 120.167 41.5865C123.488 41.6595 123.488 41.6595 123.488 38.3692C123.488 33.7457 123.521 29.1222 123.466 24.5018C123.451 23.2569 123.859 22.7821 125.125 22.846C126.79 22.9251 128.473 22.846 130.132 22.8703C130.568 22.8703 131.064 22.7273 131.38 23.199C131.167 23.6313 131.261 24.0909 131.261 24.5383C131.261 31.3868 131.261 38.2353 131.261 45.0837C131.261 45.5312 131.167 45.9969 131.383 46.423C131.191 46.8096 130.838 46.7548 130.501 46.7456C130.365 46.6994 130.25 46.6069 130.176 46.4845C130.102 46.362 130.074 46.2174 130.096 46.076C130.23 45.4367 130.309 44.787 130.33 44.1341C130.33 38.0039 130.33 31.8768 130.33 25.7467C130.33 24.1152 130.163 23.9874 128.473 23.9539C127.764 23.9387 127.055 23.9326 126.343 23.9539C124.797 24.0026 124.608 24.1639 124.599 25.7284C124.574 30.0506 124.599 34.3697 124.599 38.6888C124.599 42.4052 124.209 42.7735 120.395 42.6761C118.14 42.6213 117.415 42.11 117.132 40.3902C117.437 39.0571 117.291 37.7026 117.297 36.3573C117.318 32.7047 117.297 29.0522 117.312 25.418C117.315 24.7392 117.157 24.0026 117.753 23.4426Z" fill="#1B1B1B"/>
<path id="Vector_25" d="M140.56 18.0311L140.865 18.3355C141.078 18.7099 140.992 19.1208 140.992 19.5165C140.992 28.5017 140.992 37.4879 140.992 46.4751C140.992 46.8648 141.096 47.2817 140.84 47.644C138.32 47.8951 135.781 47.8951 133.261 47.644C132.796 47.2544 132.957 46.7308 132.957 46.2347C132.957 37.3509 132.957 28.4662 132.957 19.5804C132.957 18.993 132.817 18.3386 133.544 18.0159C135.878 17.7944 138.228 17.7995 140.56 18.0311Z" fill="#1B1B1B"/>
<path id="Vector_26" d="M90.959 47.3484C90.959 47.4458 90.959 47.5401 90.959 47.6528C88.801 47.3971 88.801 47.3971 88.798 45.3669C88.798 44.3624 88.8741 43.3489 88.7797 42.3536C88.664 41.1178 89.3032 40.8134 90.3016 41.0204C92.904 41.5561 95.5308 41.2608 98.1484 41.3248C98.6537 41.3248 99.3325 41.3582 99.4877 40.8743C99.6429 40.3903 99.0068 40.022 98.6111 39.7724C96.6996 38.5549 94.712 37.4561 92.8279 36.196C90.5025 34.6376 88.6214 32.79 88.7645 29.6367C88.8923 26.8577 90.4964 24.6845 93.6071 23.5766C94.8837 23.0911 96.2411 22.8535 97.6066 22.8765C98.3493 22.7152 99.092 22.5721 99.8103 22.9769C99.3416 23.9327 98.3798 23.7622 97.5884 23.8627C95.9721 24.0666 94.3833 24.304 92.9223 25.0802C89.2698 27.016 88.728 31.1677 91.7565 33.9832C93.3271 35.4351 95.1808 36.4669 97.0314 37.5079C98.0125 38.0306 98.9367 38.6538 99.789 39.3676C100.294 39.8181 100.733 40.3295 100.565 41.06C100.376 41.8635 99.6916 42.1009 98.9794 42.2775C97.0547 42.7511 95.0417 42.7322 93.1262 42.2227C92.5175 42.0066 91.9087 42.0461 91.2817 42.0157C91.0565 41.9986 90.8328 41.9661 90.6121 41.9183C89.9333 41.7144 89.5102 41.9031 89.5376 42.664C89.5833 43.8968 89.3337 45.1417 89.7111 46.3531C90.0155 46.7579 90.5877 46.694 90.953 46.9984C90.9899 47.049 91.0103 47.1098 91.0114 47.1724C91.0124 47.2351 90.9942 47.2965 90.959 47.3484Z" fill="#1B1B1B"/>
<path id="Vector_27" d="M48.0238 47.3669C44.1004 46.402 41.3275 44.1131 40.0735 40.2597C38.3963 35.0853 39.0173 30.3066 42.9589 26.2979C44.8156 24.4108 47.1928 23.4216 49.8531 23.1628C50.4101 22.9011 50.9975 23.0715 51.5698 23.0472C51.6467 23.0706 51.712 23.1221 51.7526 23.1915C51.7932 23.2609 51.8062 23.343 51.7889 23.4216C51.2197 24.1399 50.3583 24.0821 49.5761 24.219C45.0104 25.0348 41.6836 28.0816 40.6731 32.4372C39.4951 37.502 41.1266 42.2138 44.9344 44.9349C46.1275 45.7841 47.6737 45.9941 48.7178 47.1021C48.6447 47.5617 48.3647 47.5495 48.0238 47.3669Z" fill="#1B1B1B"/>
<path id="Vector_28" d="M73.0038 23.1749H72.3677C72.9034 22.6513 73.5852 22.9496 74.1939 22.8705C76.1331 22.6574 78.0897 22.6574 80.0288 22.8705C81.7984 22.798 83.5584 23.165 85.1515 23.9389C86.7038 24.7241 87.6109 25.9873 87.6139 27.771C87.6261 34.0391 87.6261 40.3062 87.6139 46.5723C87.6139 46.965 87.6961 47.388 87.3095 47.6742C87.1752 47.6396 87.0516 47.5723 86.9496 47.4783C86.8476 47.3843 86.7705 47.2665 86.7251 47.1354C86.4847 46.4049 86.5516 45.644 86.5516 44.8952C86.5516 39.8222 86.5516 34.7493 86.5516 29.6764C86.5516 25.9508 85.7937 25.0072 82.1717 24.161C81.776 24.0667 81.3864 23.9723 80.9998 23.8567C80.1628 23.5006 79.2862 23.604 78.4156 23.6345C77.5451 23.6649 76.6137 23.6527 75.7097 23.6345C74.8027 23.4914 73.8196 23.8384 73.0038 23.1749Z" fill="#1B1B1B"/>
<path id="Vector_29" d="M114.046 47.3669C111.648 46.9682 110.339 45.845 110.129 44.0187C109.873 37.0637 109.897 30.1057 110.129 23.1476C112.643 22.6631 115.228 22.6755 117.738 23.1841C117.658 23.3503 117.541 23.4954 117.395 23.608C117.249 23.7205 117.079 23.7974 116.898 23.8325C115.434 24.0273 113.964 23.9329 112.497 23.9238C111.425 23.9238 110.914 24.3073 110.917 25.4213C110.932 31.0066 110.856 36.5919 110.957 42.1773C111.005 44.7371 112.119 45.915 114.795 46.472C118.052 47.1508 121.348 46.959 124.635 46.7429C125.342 46.6973 126.042 46.5207 126.723 46.8525C127.165 47.2512 126.897 47.4034 126.489 47.4825C126.212 47.5373 125.899 47.4278 125.664 47.6682H125.536H125.405C122.157 48.0867 118.868 48.0867 115.62 47.6682C115.139 47.2725 114.518 47.6956 114.046 47.3669Z" fill="#1B1B1B"/>
<path id="Vector_30" d="M48.0234 47.3668C48.1474 47.3771 48.2718 47.3544 48.3841 47.3009C48.4964 47.2475 48.5925 47.1652 48.6626 47.0624C49.1344 46.5967 49.6945 46.8037 50.2393 46.8524C52.8782 47.0959 55.4928 47.0502 57.9918 46.0245C62.8892 44.0095 65.5099 38.8777 64.542 33.2802C64.3624 32.2423 63.9515 31.2531 63.8815 30.1939C63.9545 29.8621 63.988 29.4968 64.475 29.5364L65.4247 32.5041C65.6243 32.7482 65.7214 33.0603 65.6956 33.3746C65.723 33.9073 65.6408 34.446 65.8051 34.9665C65.8638 35.268 65.8638 35.5781 65.8051 35.8796C65.6377 36.4031 65.7199 36.9449 65.6925 37.4776C65.7194 37.7943 65.6235 38.1092 65.4247 38.3572C64.9072 42.7068 61.1634 46.7367 56.7164 47.6346C53.8127 48.2038 50.8876 48.5447 48.0234 47.3668Z" fill="#1B1B1B"/>
<path id="Vector_31" d="M71.765 55.2441C72.4042 55.5485 72.8882 55.9777 73.0221 56.7082C73.3082 57.5726 73.0556 58.4645 73.1652 59.2315C73.2321 58.4614 73.0251 57.5726 73.2839 56.7021C73.0678 54.471 74.7114 55.3507 75.7645 55.2411C75.9472 55.442 76.4007 55.2563 76.4189 55.6946C76.1602 56.2486 75.661 56.3673 75.1162 56.4038C74.5075 56.2942 74.334 56.626 74.3279 57.1617C74.3279 58.0383 74.2822 58.9149 74.3583 60.0168C74.5166 58.8236 74.3066 57.7826 74.9671 56.9243C75.4267 56.5073 75.8985 56.2516 76.425 56.8239C76.453 56.9009 76.461 56.9837 76.4482 57.0646C76.4354 57.1455 76.4023 57.2219 76.352 57.2865C75.2349 57.46 75.4602 58.3244 75.4389 59.0458C75.4084 61.2921 75.4054 61.1765 73.2078 61.4108C72.0968 61.5265 70.998 61.4686 69.8992 61.5691C69.5225 61.6334 69.1351 61.5678 68.8005 61.3831C68.4659 61.1984 68.204 60.9055 68.0577 60.5525C67.6803 59.7733 67.7533 59.1067 68.4473 58.5436C68.7334 58.4462 68.8217 58.6349 68.8978 58.848C68.9708 60.5981 68.9708 60.5981 71.4698 60.4307C71.7559 60.3668 72.4316 60.7016 72.252 60.1811C71.7498 58.6958 72.4742 56.9 71.0771 55.6642C71.1532 55.2594 71.5672 55.4359 71.765 55.2441Z" fill="#3D804C"/>
<path id="Vector_32" d="M86.874 47.2846L87.3093 47.659C84.9564 48.2678 82.5762 47.8599 80.2081 47.8508C80.0346 47.8508 79.8642 47.5464 79.6907 47.3638C79.3863 46.3837 79.5659 45.3792 79.5598 44.387C79.5385 40.0344 79.5598 35.6788 79.5598 31.3231C79.5598 30.8331 79.4442 30.3217 79.6877 29.8469L79.7394 29.7891C80.9569 30.2091 80.753 31.3109 80.7652 32.1906C80.8139 36.3088 80.7651 40.427 80.7865 44.5453C80.7865 46.8463 80.823 46.8311 83.1728 46.895C84.4085 46.9285 85.7052 46.5754 86.874 47.2846Z" fill="#1B1B1B"/>
<path id="Vector_33" d="M90.6453 55.8101C91.0501 55.6153 91.3454 55.2014 91.8445 55.2014C92.992 55.1527 93.686 54.7722 93.4456 53.4177C93.3269 52.739 93.8778 52.5046 94.5291 52.4742C95.1805 52.4437 95.6432 52.6903 95.7284 53.3447C95.8258 54.0813 95.8258 54.83 95.8714 55.6092C97.3507 55.2501 98.7722 54.6657 100.09 55.8162C100.218 56.0932 100.035 56.1937 99.8253 56.2789C98.9913 56.3458 98.1847 55.7127 97.3294 56.1906C96.9155 56.4219 97.1407 56.5224 97.3994 56.638C97.5145 56.7038 97.6074 56.8023 97.6665 56.921C97.7256 57.0396 97.7481 57.1732 97.7312 57.3046C97.4725 57.7247 96.9429 57.6486 96.6141 57.9134C96.5167 57.9134 96.4315 58.0047 96.4893 58.0564C96.6415 58.1873 96.3585 57.9895 96.5654 57.9864C96.6637 57.8928 96.7865 57.8291 96.9197 57.8027C97.0528 57.7763 97.1907 57.7883 97.3172 57.8373C97.3622 57.8844 97.3953 57.9416 97.4138 58.004C97.4323 58.0665 97.4358 58.1324 97.4238 58.1964C96.6963 59.0183 96.2063 59.8918 96.8424 60.9906C96.7968 61.2189 96.7115 61.3985 96.4224 61.2767C96.1332 61.155 95.8136 60.7867 95.5092 61.2524C95.2049 61.3163 95.0649 61.1246 94.9492 60.8993C94.5565 58.6774 94.9705 56.4189 94.6661 53.8347C94.243 54.8483 94.5444 56.0871 93.2325 56.0202C92.3742 55.9775 91.5706 56.498 90.7001 56.215C90.665 56.196 90.6349 56.1691 90.6123 56.1364C90.5896 56.1036 90.575 56.066 90.5697 56.0265C90.5643 55.987 90.5684 55.9468 90.5815 55.9092C90.5947 55.8716 90.6165 55.8377 90.6453 55.8101Z" fill="#327942"/>
<path id="Vector_34" d="M126.227 61.5112C123.165 61.7121 122.069 61.0821 121.634 58.8753C121.247 56.906 123.065 54.541 124.949 55.0645C126.833 55.5881 128.68 54.9245 130.513 55.2472C130.594 55.3249 130.644 55.4291 130.654 55.5408C130.665 55.6525 130.635 55.7643 130.57 55.8559C129.819 56.3003 128.863 55.6002 128.075 56.3581C128.82 56.5073 129.803 56.2273 130.016 57.2348C130.141 57.8252 129.688 58.1083 129.137 58.2088C128.939 58.2088 128.607 58.1935 128.598 58.0809C128.537 57.2439 128.221 57.6852 127.919 57.9166C127.758 58.0274 127.576 58.1031 127.384 58.1388C126.938 58.1784 126.489 58.103 126.081 57.9196C124.982 57.533 124.255 57.8009 124.011 59.0093C123.972 59.0713 123.921 59.1243 123.86 59.1647C123.799 59.2052 123.73 59.2321 123.658 59.2436C123.585 59.227 123.517 59.1954 123.457 59.1509C123.398 59.1063 123.348 59.0498 123.311 58.9849C123.152 58.5637 123.107 58.1081 123.18 57.6639C123.485 56.3186 124.602 56.4708 125.554 56.2394C124.58 55.8437 123.771 56.1907 123.119 56.9608C122.468 57.7309 122.304 58.6684 122.925 59.5876C123.265 60.0278 123.691 60.3935 124.179 60.662C124.769 61.1369 125.871 60.452 126.227 61.5112Z" fill="#1B1B1B" fill-opacity="0.4"/>
<path id="Vector_35" d="M117.102 23.485L117.711 23.1807C117.741 23.2634 117.756 23.3512 117.753 23.4394C117.753 28.5712 117.743 33.703 117.723 38.8348C117.723 39.3613 117.927 39.9549 117.418 40.3993C116.688 39.9062 116.657 39.1331 116.651 38.3843C116.612 33.9343 116.621 29.4813 116.651 25.0313C116.654 24.4804 116.7 23.9294 117.102 23.485Z" fill="#1B1B1B"/>
<path id="Vector_36" d="M132.019 56.0933C132.911 54.7054 134.22 54.8119 135.459 55.3415C135.733 55.4866 136.039 55.5643 136.349 55.568C136.66 55.5717 136.967 55.5014 137.245 55.3628C137.717 55.1277 138.241 55.019 138.767 55.0472C139.293 55.0755 139.803 55.2398 140.246 55.5241C140.323 55.792 140.161 55.9138 139.942 56.0081C139.263 56.1238 138.572 55.8407 137.891 56.1207C137.306 56.3612 136.935 56.6443 137.282 57.32C137.09 58.1722 136.396 57.8526 135.918 57.9287C136.256 58.1479 136.728 57.8831 137.12 58.0992C137.178 58.1423 137.224 58.1985 137.254 58.2632C137.285 58.3279 137.3 58.399 137.297 58.4705C137.245 58.6098 137.164 58.7364 137.059 58.8414C136.954 58.9465 136.828 59.0276 136.688 59.0793C136.42 59.2023 136.127 59.2607 135.833 59.2497C135.16 58.994 134.664 58.4644 134.049 58.1174C133.559 57.8405 133.017 57.4569 133.231 56.8299C133.471 56.1207 134.159 56.1846 134.822 56.3003C133.797 55.4754 132.932 56.6351 131.986 56.4555C131.951 56.4257 131.926 56.3865 131.914 56.3427C131.902 56.2989 131.902 56.2525 131.916 56.209C131.964 56.1329 131.992 56.0933 132.019 56.0933Z" fill="#357B46"/>
<path id="Vector_37" d="M64.4753 29.5304C64.3697 29.59 64.2843 29.6798 64.2301 29.7883C64.1758 29.8967 64.1552 30.0189 64.1709 30.1392C63.6991 30.2457 63.5469 29.8652 63.3886 29.5791C61.2002 25.5735 57.4198 24.4017 53.262 23.8812C52.7233 23.8112 52.1297 23.9451 51.7036 23.4642V23.175C52.8202 22.9508 53.9697 22.9456 55.0883 23.1598C59.2765 23.7472 62.6825 25.4609 64.4753 29.5304Z" fill="#1B1B1B"/>
<path id="Vector_38" d="M140.849 47.6319C140.849 37.8614 140.857 28.092 140.874 18.3235C141.303 18.7314 141.151 19.264 141.151 19.748C141.151 28.5749 141.151 37.4018 141.151 46.2288C141.148 46.7066 141.327 47.2454 140.849 47.6319Z" fill="#1B1B1B"/>
<path id="Vector_39" d="M82.1501 55.816C83.252 54.7872 84.4573 54.8116 85.7235 55.4782C86.2191 55.7283 86.6248 56.1263 86.8843 56.6171C87.1439 57.1078 87.2445 57.6671 87.1724 58.2176C87.0141 59.4351 87.565 61.2126 85.477 61.514C85.3811 61.4278 85.3195 61.3101 85.3035 61.1822C85.3116 61.0552 85.3502 60.932 85.4161 60.823C85.6344 60.6045 85.8752 60.4096 86.1344 60.2417C86.2562 60.1108 86.3932 59.9373 86.2988 59.7942C86.2044 59.6512 86.1588 59.9129 86.0523 59.9495C84.2777 60.7043 83.6386 60.5948 82.832 59.3985C82.8563 58.5889 83.4651 58.528 84.0647 58.4428C84.6643 58.3576 85.3461 58.5767 85.9336 58.2328C86.0097 56.7809 85.2791 55.9804 83.8547 55.9743C83.4042 55.9743 82.9598 56.1691 82.5002 56.0504C82.3642 56.0059 82.2431 55.9248 82.1501 55.816Z" fill="#1B1B1B"/>
<path id="Vector_40" d="M123.484 59.1675L123.88 59.1188C125.195 59.2131 126.33 58.6196 127.508 58.1843C127.655 58.3528 127.735 58.5694 127.733 58.7931C127.627 60.4276 127.761 60.5737 129.392 60.4976C129.733 60.4471 130.081 60.5012 130.391 60.6528C130.695 60.9724 131.429 60.8415 131.41 61.5416L126.236 61.5264C125.545 60.875 124.498 61.6938 123.828 60.9511C124.294 60.4611 124.961 60.6924 125.618 60.4611C124.665 60.2906 123.585 60.4702 123.484 59.1675Z" fill="#1B1B1B"/>
<path id="Vector_41" d="M131.395 46.4229C130.997 46.0607 131.137 45.5798 131.137 45.1445C131.137 38.2555 131.137 31.3674 131.137 24.4804C131.137 24.0451 130.993 23.5673 131.392 23.199C131.392 30.9403 131.393 38.6816 131.395 46.4229Z" fill="#1B1B1B"/>
<path id="Vector_42" d="M85.4801 61.2463C85.4801 61.3376 85.4801 61.429 85.4801 61.5203C84.3813 61.5903 83.2429 61.7912 82.3176 60.9785C81.7424 60.4732 81.5597 61.0546 81.2341 61.2829C81.0179 61.4168 80.8901 61.3011 80.7866 61.1215C80.6892 60.8385 80.814 60.528 80.674 60.251C80.3696 60.0106 79.9039 60.0745 79.6026 59.7884C79.5123 59.6666 79.4423 59.5309 79.3956 59.3866C79.28 58.5191 79.1704 57.6547 79.5235 56.8146C79.7517 56.4828 80.1322 56.4189 80.4762 56.2819C80.9601 56.218 80.8749 55.3688 81.5171 55.524C81.5354 56.0232 81.8215 55.9776 82.1533 55.8284L82.4942 55.8467C82.5916 56.2332 82.3268 56.5041 82.1898 56.8207C81.4623 58.5769 81.855 59.694 83.5443 60.6924C84.1591 60.9724 84.9414 60.7106 85.4801 61.2463Z" fill="#377C43"/>
<path id="Vector_43" d="M111.677 55.5333C112.591 54.5075 113.504 55.8377 114.417 55.5333C114.516 55.5583 114.608 55.6063 114.685 55.6735C114.762 55.7406 114.823 55.825 114.861 55.9199C115.144 56.6321 115.814 56.2486 116.286 56.416C116.955 56.6504 117.722 56.8634 116.922 57.7826C116.653 57.8558 116.366 57.8254 116.118 57.6974C115.394 57.4326 114.971 57.9196 114.523 58.3336C114.294 58.6046 114 58.8139 113.668 58.9423C113.599 58.9367 113.532 58.9164 113.472 58.8828C113.412 58.8492 113.359 58.8031 113.318 58.7475C112.877 58.0322 113.367 57.1617 112.935 56.4556C112.463 57.1282 112.761 57.8983 112.63 58.6045C112.511 59.2132 112.518 59.2132 111.83 59.2558C111.726 58.0109 111.964 56.763 111.677 55.5333Z" fill="#387D46"/>
<path id="Vector_44" d="M117.418 55.2529C118.264 55.6091 118.581 56.3213 118.654 57.1583C118.739 58.1171 118.529 59.0546 119.381 59.9221C119.871 60.4213 119.266 61.2918 118.593 61.38C116.983 61.587 115.306 62.0131 113.79 60.9661C113.766 60.8961 113.741 60.8261 113.714 60.7561C113.734 60.647 113.78 60.5444 113.849 60.457C113.917 60.3695 114.006 60.2999 114.107 60.2538C115.052 60.5135 116.041 60.5726 117.01 60.4273C117.446 60.3573 118.304 61.0117 118.066 59.8186C117.799 58.9055 118.118 57.9467 117.786 57.0488C117.604 56.6531 117.299 56.3152 117.211 55.8739C117.198 55.7615 117.21 55.6476 117.245 55.5403C117.281 55.433 117.34 55.3349 117.418 55.2529Z" fill="#1B1B1B"/>
<path id="Vector_45" d="M110.116 23.1384C110.116 30.0965 110.116 37.0545 110.116 44.0126C109.736 43.7082 109.812 43.2912 109.812 42.9016C109.812 36.6862 109.812 30.4699 109.812 24.2524C109.818 23.8689 109.748 23.4428 110.116 23.1384Z" fill="#1B1B1B"/>
<path id="Vector_46" d="M66.2984 52.5078C67.5555 52.7574 68.5843 53.2596 68.77 54.6963C68.7858 54.8464 68.8569 54.9853 68.9694 55.086C69.0819 55.1867 69.2278 55.2419 69.3787 55.2411C69.6496 55.4968 70.094 55.2168 70.3406 55.5455C70.1488 56.3217 69.4274 56.0842 68.9343 56.2638C68.7891 56.2782 68.6424 56.2647 68.5021 56.2243C68.3803 56.1513 68.2812 56.0459 68.216 55.9199C68.0364 55.3903 68.1003 54.7663 67.6073 54.3676C67.1946 53.9221 66.6388 53.6356 66.0367 53.5579C64.0826 53.3053 63.7751 53.6036 63.699 55.5485C63.629 57.3291 64.0034 59.1341 63.4129 60.8873C63.3871 60.9231 63.3538 60.9529 63.3153 60.9745C63.2768 60.9962 63.2341 61.0092 63.1901 61.0126C63.146 61.0161 63.1018 61.01 63.0604 60.9946C63.019 60.9793 62.9814 60.9551 62.9503 60.9238C62.6977 58.434 62.9077 55.9412 62.8285 53.4514C62.8072 52.7422 63.206 52.663 63.7812 52.6478C64.6091 52.6113 65.4797 52.7878 66.2984 52.5078Z" fill="#3E8049"/>
<path id="Vector_47" d="M108.287 55.4907C109.98 54.882 110.394 55.1377 110.418 56.7935C110.418 57.6823 110.418 58.5741 110.418 59.4659C110.448 59.7703 110.257 59.8494 109.998 59.8433C108.933 59.0215 109.724 57.7584 109.188 56.6139C108.863 57.7492 109.14 58.7841 108.942 59.7703C108.829 60.0747 108.744 60.4034 108.303 60.3456C107.791 60.1508 107.694 59.6516 107.456 59.2437C107.378 59.1274 107.329 58.9941 107.312 58.8549C107.296 58.7157 107.313 58.5745 107.362 58.4432C107.442 58.3255 107.535 58.2172 107.639 58.1206C108.208 57.3292 107.584 56.2486 108.287 55.4907Z" fill="#337A44"/>
<path id="Vector_48" d="M107.666 60.9419C106.65 61.9311 105.432 61.7241 104.3 61.3376C103.037 60.9084 103.082 59.6665 104.321 58.5464C104.345 58.438 104.4 58.339 104.479 58.2616C104.559 58.1842 104.66 58.1319 104.769 58.1112C104.92 58.0972 105.072 58.1159 105.216 58.166C105.916 58.4703 106.768 58.7169 106.631 59.6665C106.504 60.5614 105.642 60.3118 105.024 60.394C104.823 60.4214 105.067 60.3697 104.884 60.4488C104.778 60.4945 104.802 60.6253 104.915 60.7045C105.505 61.0088 106.093 60.8719 106.68 60.7471C106.887 60.6936 107.103 60.6843 107.313 60.7197C107.449 60.7599 107.571 60.8367 107.666 60.9419Z" fill="#1B1B1B"/>
<path id="Vector_49" d="M21.278 23.7806L20.9736 23.4762C22.8456 21.3882 25.3019 20.399 27.9834 19.8694C28.3517 20.192 28.8966 19.8024 29.2527 20.1738C29.1979 20.7003 28.7565 20.7521 28.3791 20.8312C26.2094 21.2536 24.1611 22.154 22.3829 23.4671C22.0755 23.7167 21.7194 23.948 21.278 23.7806Z" fill="#1B1B1B"/>
<path id="Vector_50" d="M68.7426 57.9288C67.4155 57.1344 66.2893 58.2332 65.09 58.4128C64.5452 58.498 64.8496 59.4842 64.8283 60.0594C64.7765 61.6818 64.5878 61.8187 62.929 61.277C62.929 61.0882 63.1177 61.0639 63.2333 60.9726L63.2973 60.9421C63.5012 60.7626 63.696 60.5708 63.8877 60.376C64.3808 59.5298 63.839 58.5041 64.3595 57.661C65.577 57.0826 67.0411 57.1222 68.0121 56.0447C68.0842 56.0153 68.1632 56.0066 68.24 56.0195C68.3169 56.0324 68.3887 56.0664 68.4473 56.1178C68.6847 56.3308 68.8156 56.6656 69.1748 56.7265C69.3057 56.7265 69.4304 56.7448 69.5583 56.76C69.6566 56.7712 69.7511 56.8044 69.8349 56.8571C69.9187 56.9098 69.9895 56.9806 70.0422 57.0644C69.8687 57.7584 69.3391 57.8953 68.7426 57.9288Z" fill="#1B1B1B"/>
<path id="Vector_51" d="M79.685 29.8344C79.685 35.6724 79.685 41.5113 79.685 47.3513C79.2346 46.8886 79.4202 46.3042 79.4202 45.7716C79.3959 40.4511 79.3928 35.1184 79.3837 29.8101C79.4811 29.8344 79.5876 29.8344 79.685 29.8344Z" fill="#1B1B1B"/>
<path id="Vector_52" d="M139.891 55.8376L140.247 55.5332C140.989 55.9076 141.035 56.6594 141.129 57.3199C141.251 58.1813 141.053 59.0609 141.699 59.8554C142.003 60.2237 141.823 60.8354 141.373 61.1885C141.093 61.4428 140.734 61.5923 140.357 61.6118C139.98 61.6312 139.607 61.5193 139.303 61.2951C139.323 61.187 139.365 61.0844 139.428 60.9941C139.49 60.9038 139.571 60.8279 139.665 60.7715C140.198 60.5646 140.347 60.2297 140.274 59.6271C140.168 58.3578 140.022 57.0977 139.891 55.8376Z" fill="#1B1B1B"/>
<path id="Vector_53" d="M132.019 56.0934C132.019 56.2181 132.044 56.3399 132.053 56.4647C132.436 56.836 132.47 57.3291 132.543 57.807C132.54 57.9405 132.51 58.0719 132.455 58.1936C132.372 59.1067 132.914 58.8327 133.395 58.6714C133.538 58.644 133.685 58.644 133.827 58.6714C134.345 58.8693 135.03 59.1219 134.74 59.7611C134.357 60.6347 133.523 60.4246 132.798 60.1598C132.36 59.8341 131.91 60.1964 131.462 60.1598C131.341 60.0867 131.243 59.9813 131.179 59.8555C130.854 58.9423 131.179 57.9866 130.875 57.0856C130.735 56.696 130.382 56.3764 130.467 55.9077C130.467 55.6946 130.482 55.4816 130.491 55.2685C131.185 55.2289 131.13 56.4921 132.019 56.0934Z" fill="#1B1B1B"/>
<path id="Vector_54" d="M90.6456 55.8103L90.6974 56.2182C90.953 56.6108 90.7187 56.97 90.6274 57.3413C90.2073 59.0306 90.463 59.6668 91.9666 60.6682C92.5754 60.9725 93.2024 60.8477 93.8203 60.6682C94.2829 60.589 94.7334 60.5373 95.1565 60.8386L95.5156 61.2495C91.7962 62.2083 89.976 61.2191 89.6655 58.7597C89.5255 57.6366 89.7447 56.6199 90.6456 55.8103Z" fill="#3F824D"/>
<path id="Vector_55" d="M99.7341 56.1331L100.09 55.8135C100.699 56.3248 100.699 57.031 100.699 57.7432C100.699 58.2363 100.665 58.7781 100.848 59.2164C101.612 61.0701 101.283 61.554 99.1771 61.5358C99.0644 60.9118 99.868 61.0275 99.9593 60.5678C99.664 59.109 99.5881 57.6143 99.7341 56.1331Z" fill="#3C7F4A"/>
<path id="Vector_56" d="M63.215 60.9695L62.9107 61.2738C62.3019 59.5693 62.6854 57.81 62.6519 56.0781C62.585 52.3891 62.6337 52.3891 66.2862 52.5017C65.8327 52.9705 65.23 52.8244 64.7217 52.7604C63.2242 52.5656 62.7889 53.2018 62.9289 54.605C63.1511 56.7234 62.6519 58.8693 63.215 60.9695Z" fill="#347A45"/>
<path id="Vector_57" d="M108.302 60.3452C108.573 60.19 108.606 59.913 108.655 59.6482C109.873 60.8961 111.468 60.2813 112.901 60.4517C113.105 60.4752 113.302 60.5438 113.476 60.6526C113.582 60.7368 113.679 60.8316 113.766 60.9357L113.79 60.9661C112.353 62.0984 109.532 61.7941 108.302 60.3452Z" fill="#1B1B1B"/>
<path id="Vector_58" d="M99.7825 23.1566C99.1251 22.6027 98.3337 22.9984 97.6184 22.8522C100.504 22.2435 103.356 22.49 106.196 23.1566H105.557C104.823 23.7806 103.919 23.4823 103.094 23.6071C101.98 23.5401 100.787 23.9419 99.7825 23.1566Z" fill="#1B1B1B"/>
<path id="Vector_59" d="M108.287 55.491C107.983 56.4832 108.996 57.7373 107.678 58.5347C107.398 58.1512 106.896 58.1208 106.552 57.8377C106.09 57.4572 105.873 57.0829 106.552 56.7115C106.963 56.4924 106.927 56.1241 106.857 55.7497C106.847 55.6506 106.86 55.5506 106.895 55.4573C106.93 55.364 106.986 55.2798 107.057 55.2109C107.465 55.3783 107.843 55.5762 108.287 55.491Z" fill="#4A883C"/>
<path id="Vector_60" d="M115.592 47.665H125.378C122.115 48.3255 118.855 48.4473 115.592 47.665Z" fill="#1B1B1B"/>
<path id="Vector_61" d="M131.411 61.5265C131.149 61.0699 130.443 61.4535 130.224 60.9178C130.708 60.4703 131.362 60.5616 131.934 60.3912C132.082 60.3775 132.231 60.3775 132.379 60.3912C133.433 60.6638 134.546 60.6086 135.568 60.2329C135.952 60.3181 136.32 60.4155 136.293 60.9238C134.999 61.5326 133.69 61.8735 132.263 61.3378C132.035 61.2404 131.697 61.4504 131.411 61.5265Z" fill="#1B1B1B"/>
<path id="Vector_62" d="M81.5138 55.5119C81.0299 55.7554 81.456 56.5133 80.8442 56.6868C79.9706 56.1815 79.2249 55.3901 78.0866 55.4693C78.0383 55.3741 78.0198 55.2666 78.0334 55.1608C78.0469 55.055 78.092 54.9557 78.1626 54.8757C78.8079 54.1757 79.4258 53.1347 80.1015 54.8757C80.3298 55.4754 81.2003 54.9397 81.5138 55.5119Z" fill="#40824E"/>
<path id="Vector_63" d="M107.082 55.2133V55.8038C106.993 55.9237 106.861 56.0036 106.713 56.026C104.494 56.2269 104.494 56.2238 104.643 58.2236L104.312 58.5462C103.545 57.9648 103.237 57.2587 103.63 56.3151C104.023 55.3716 104.75 55.0976 105.706 55.1889C106.168 55.2315 106.625 55.2072 107.082 55.2133Z" fill="#1B1B1B"/>
<path id="Vector_64" d="M80.8929 60.8812L81.2307 61.2587C79.3497 61.9466 78.54 61.6452 77.8826 60.0199C78.2539 58.9515 77.8247 57.8344 78.0774 56.76C78.1353 56.6994 78.2123 56.6606 78.2954 56.6501C78.3785 56.6396 78.4627 56.658 78.5339 56.7021C78.6798 56.873 78.786 57.0741 78.845 57.2909C78.9039 57.5078 78.9141 57.7349 78.8748 57.9562C78.6192 59.5998 79.2279 60.5921 80.8929 60.8812Z" fill="#41834E"/>
<path id="Vector_65" d="M125.637 47.6681C125.883 47.1629 126.626 47.5525 126.854 47.0076C127.843 45.9697 129.012 46.0123 130.245 46.4445L130.516 46.7489C128.967 47.4581 127.305 47.5829 125.637 47.6681Z" fill="#1B1B1B"/>
<path id="Vector_66" d="M133.258 47.6533H140.837C139.778 48.3138 138.606 47.9364 137.489 47.9273C136.095 47.909 134.634 48.2864 133.258 47.6533Z" fill="#1B1B1B"/>
<path id="Vector_67" d="M29.283 20.2013C28.8507 20.0826 28.3303 20.3018 27.9802 19.8696C28.589 19.8178 29.2373 19.9122 29.8065 19.5652C30.7683 20.1557 31.8275 19.7174 32.832 19.8696C33.4407 19.9548 34.1256 19.6382 34.6583 20.1739C32.8776 20.9197 31.0849 20.8436 29.283 20.2013Z" fill="#1B1B1B"/>
<path id="Vector_68" d="M140.56 18.0311H133.541C135.86 17.5867 138.242 17.5867 140.56 18.0311Z" fill="#1B1B1B"/>
<path id="Vector_69" d="M100.388 60.951C100.133 61.441 99.4509 61.0697 99.1709 61.5354C98.2577 61.438 97.2807 61.8672 96.4102 61.2736L96.7145 60.9693C97.3963 60.397 98.2364 60.5279 99.0369 60.4214C99.5422 60.4975 100.038 60.5492 100.388 60.951Z" fill="#43844F"/>
<path id="Vector_70" d="M78.1693 56.7995C77.9988 57.8709 78.4554 58.994 77.8893 60.032C77.8696 59.8868 77.8635 59.74 77.871 59.5937C78.0262 58.3975 77.9319 57.3687 76.3491 57.2865V56.9821C76.9244 56.5255 77.4966 56.1755 78.1693 56.7995Z" fill="#1B1B1B" fill-opacity="0.137255"/>
<path id="Vector_71" d="M80.0288 22.8557H74.1938C76.1127 22.4052 78.1099 22.4052 80.0288 22.8557Z" fill="#1B1B1B"/>
<path id="Vector_72" d="M108.321 29.2504C108.321 27.3369 108.313 25.4224 108.296 23.5068C108.767 25.3914 108.775 27.3619 108.321 29.2504Z" fill="#1B1B1B"/>
<path id="Vector_73" d="M55.0878 23.1597L51.7032 23.1749H49.8525C51.5648 22.7011 53.3728 22.6959 55.0878 23.1597Z" fill="#1B1B1B"/>
<path id="Vector_74" d="M117.419 55.2534C117.419 55.4604 117.419 55.6674 117.419 55.8622C116.542 55.9992 115.665 56.1666 114.792 55.8622L114.411 55.5578C115.364 54.9673 116.399 55.2017 117.419 55.2534Z" fill="#1B1B1B"/>
<path id="Vector_75" d="M111.678 55.5332C112.25 56.7964 111.778 58.1326 111.949 59.4262C112.071 59.6971 111.903 59.7975 111.684 59.8645C111.45 59.8371 111.285 59.7488 111.355 59.4688C111.97 58.1965 111.441 56.8329 111.678 55.5332Z" fill="#1B1B1B"/>
<path id="Vector_76" d="M139.068 61.2864C138.183 61.6882 137.324 61.8677 136.588 61.0033C136.556 60.9808 136.53 60.9514 136.512 60.9174C136.493 60.8834 136.483 60.8456 136.481 60.8069C136.479 60.7682 136.486 60.7296 136.502 60.694C136.517 60.6584 136.54 60.6268 136.57 60.6015C137.264 60.463 137.983 60.5135 138.651 60.7476C138.759 60.7979 138.853 60.8729 138.925 60.9666C138.998 61.0603 139.047 61.1699 139.068 61.2864Z" fill="#1B1B1B"/>
<path id="Vector_77" d="M68.758 58.8726L68.4536 58.5439L68.7123 58.2212C69.1812 57.7085 69.8206 57.384 70.5112 57.3081C70.7438 57.3104 70.9689 57.3908 71.1504 57.5364C71.2904 57.7829 71.1717 57.9595 70.986 58.1177C70.2677 58.413 69.6407 59.0217 68.758 58.8726Z" fill="#438452"/>
<path id="Vector_78" d="M136.637 60.5767C136.619 60.7198 136.604 60.8628 136.588 61.0059L136.284 60.9146L135.675 60.3606C135.438 59.9193 135.633 59.5662 135.922 59.2375C135.987 59.1093 136.089 59.004 136.215 58.9355C136.341 58.8669 136.485 58.8385 136.628 58.8539C136.738 59.4227 136.741 60.0068 136.637 60.5767Z" fill="#1B1B1B"/>
<path id="Vector_79" d="M70.5477 57.6244C69.8507 57.5452 69.3302 57.9988 68.7214 58.2331C68.7331 58.1321 68.7382 58.0304 68.7367 57.9288L69.9724 57.0156C70.0748 56.8988 70.2159 56.8231 70.3698 56.8024C70.5237 56.7817 70.6799 56.8174 70.8095 56.903C71.1199 57.3017 70.7882 57.4448 70.5477 57.6244Z" fill="#59913C"/>
<path id="Vector_80" d="M78.1629 54.885C78.1781 55.1224 78.1964 55.3629 78.2116 55.6003C78.2301 55.7453 78.1973 55.8922 78.1189 56.0156C78.0405 56.1389 77.9215 56.2311 77.7824 56.276C77.2285 56.3399 76.7841 56.1938 76.5649 55.6307C76.6593 55.2777 77.0519 55.4329 77.2376 55.2411L78.1629 54.885Z" fill="#42834B"/>
<path id="Vector_81" d="M107.666 60.9424L107.267 60.8937C107.164 60.588 107.153 60.259 107.235 59.947C107.317 59.635 107.487 59.3536 107.727 59.1375C107.919 59.5392 108.11 59.941 108.299 60.355C108.092 60.5437 107.879 60.7446 107.666 60.9424Z" fill="#1B1B1B"/>
<path id="Vector_82" d="M73.2837 56.7024V59.0765H73.022V56.7024C73.109 56.7115 73.1967 56.7115 73.2837 56.7024Z" fill="#60963B"/>
<path id="Vector_83" d="M148.185 66.4209L147.826 66.0557C148.203 65.733 148.59 65.4469 149.247 65.5626C149.176 65.7954 149.037 66.0017 148.848 66.1547C148.658 66.3077 148.427 66.4004 148.185 66.4209Z" fill="#1B1B1B"/>
<path id="Vector_84" d="M70.331 55.5456C70.0053 55.4664 69.6187 55.5791 69.3752 55.2412H71.7646L71.0798 55.5669C70.9759 55.6597 70.8404 55.7093 70.7011 55.7053C70.5619 55.7014 70.4294 55.6442 70.331 55.5456Z" fill="#1B1B1B"/>
<path id="Vector_85" d="M150.772 64.5762C150.586 65.1088 150.303 65.4893 150.005 65.3493C149.506 65.118 149.962 64.9353 150.175 64.8014C150.368 64.7108 150.567 64.6354 150.772 64.5762Z" fill="#1B1B1B"/>
<path id="Vector_86" d="M111.355 59.4686L111.66 59.7455C111.142 60.6861 110.616 60.6069 110.086 59.7455L110.421 59.4412C110.564 59.5163 110.723 59.5577 110.885 59.5625C111.047 59.5672 111.208 59.5351 111.355 59.4686Z" fill="#347A4A"/>
<path id="Vector_87" d="M104.318 29.2261C104.927 29.287 105.612 28.9765 106.166 29.494C105.542 29.4544 104.878 29.704 104.318 29.2261Z" fill="#1B1B1B"/>
<path id="Vector_88" d="M77.2406 55.2412L76.5923 55.5456H76.4127L75.7644 55.2412H77.2406Z" fill="#1B1B1B" fill-opacity="0.262745"/>
<path id="Vector_89" d="M91.8386 47.6713C92.3622 47.7169 92.9313 47.4612 93.3818 47.933C92.8552 47.9117 92.2952 48.0974 91.8386 47.6713Z" fill="#1B1B1B"/>
<path id="Vector_90" d="M114.046 47.3668C114.572 47.4216 115.166 47.1355 115.598 47.6712C115.071 47.6225 114.484 47.793 114.046 47.3668Z" fill="#1B1B1B"/>
<path id="Vector_91" d="M139.069 61.2859L138.734 60.9998C139.014 60.4641 139.303 60.1658 139.647 60.9632L139.312 61.2859H139.078H139.069Z" fill="#1B1B1B"/>
<path id="Vector_92" d="M29.2832 20.2013L34.6645 20.1465L38.5788 21.0596C38.7453 21.1277 38.8842 21.2494 38.9736 21.4055C39.0629 21.5616 39.0975 21.743 39.0719 21.921C39.0719 23.522 39.0719 25.123 39.0719 26.7271C39.0719 27.205 39.0476 27.692 38.3262 27.4424L35.1333 26.4867C33.9163 26.2812 32.6734 26.2812 31.4564 26.4867C28.5435 26.8671 25.4389 29.6948 25.8102 32.145C25.6033 33.2054 25.6033 34.2958 25.8102 35.3562C25.7067 37.8551 29.131 41.5655 32.2265 41.3098C32.9212 41.1001 33.6624 41.1001 34.3571 41.3098C35.9064 41.3646 37.3065 40.7741 38.9563 40.2019C38.9563 42.156 38.9563 43.9792 38.9563 45.7994C38.9563 46.3107 38.6793 46.5147 38.2501 46.6151C33.3801 47.7626 28.51 48.1826 23.9444 45.562C18.7487 42.5638 17.4399 37.6482 17.7595 32.1115C17.9421 28.9521 19.3118 26.2432 21.2628 23.796C23.6044 21.9638 26.3573 20.7299 29.2832 20.2013Z" fill="#1B1B1B"/>
<path id="Vector_93" d="M38.3232 27.4392C38.5059 27.3784 38.8468 27.3144 38.8468 27.2536C38.8468 25.1899 39.3855 23.1019 38.5789 21.0747C39.2151 21.1082 39.2303 21.5556 39.2303 22.0244C39.2303 23.6102 39.2303 25.196 39.2303 26.7818C39.2242 27.3997 39.1694 27.9597 38.3232 27.4392Z" fill="#1B1B1B"/>
<path id="Vector_94" d="M31.4563 26.4868C32.6453 26.0633 33.9441 26.0633 35.1332 26.4868H31.4563Z" fill="#1B1B1B"/>
<path id="Vector_95" d="M25.8162 35.3411C25.4769 34.2976 25.4769 33.1734 25.8162 32.1299C25.8132 33.2013 25.8132 34.2697 25.8162 35.3411Z" fill="#1B1B1B"/>
<path id="Vector_96" d="M34.357 41.2946C33.6575 41.4691 32.9258 41.4691 32.2263 41.2946C32.5368 41.0716 32.9094 40.9517 33.2916 40.9517C33.6739 40.9517 34.0465 41.0716 34.357 41.2946Z" fill="#1B1B1B"/>
<path id="Vector_97" d="M86.8741 47.2846C85.0478 47.2846 83.2216 47.2176 81.3953 47.2846C80.4396 47.315 80.1991 46.9802 80.2083 46.0671C80.2448 41.3371 80.2448 36.6071 80.2083 31.877C80.2083 31.1709 80.4731 30.3552 79.7273 29.7921C79.7669 29.3568 79.5051 29.1042 79.1795 28.8789C78.6711 28.6111 78.0746 28.9155 77.5632 28.6385H76.0413C75.2378 28.9703 74.3551 28.5472 73.5515 28.8942C73.1163 29.3142 73.3385 29.8469 73.3385 30.3217C73.3202 35.4565 73.2806 40.5914 73.3567 45.7262C73.375 47.0137 72.9732 47.3729 71.7344 47.2755C70.3678 47.1979 68.998 47.1979 67.6314 47.2755C66.8492 47.3029 66.5722 47.0533 66.5752 46.2528C66.6036 39.3536 66.6036 32.4544 66.5752 25.5551C66.5752 24.7607 66.9222 24.5081 67.6192 24.3955C69.4181 24.0911 71.2078 23.7867 73.0037 23.458C73.9442 23.1353 74.9425 23.5341 75.8831 23.2175H78.3424C79.1764 23.5219 80.0774 23.1475 80.9114 23.4549C82.0376 23.7198 83.1911 23.9085 84.2869 24.2676C85.8666 24.7851 86.9106 25.9265 86.9289 27.5914C86.9959 34.1538 87.1176 40.7192 86.8741 47.2846Z" fill="#1B1B1B"/>
<path id="Vector_98" d="M75.8831 23.2116C74.9428 23.448 73.9702 23.5292 73.0037 23.452V23.175L75.8831 23.2116Z" fill="#1B1B1B"/>
<path id="Vector_99" d="M73.5515 28.8942C74.349 28.4924 75.1982 28.5898 76.0413 28.6385C75.2591 29.1925 74.3825 28.809 73.5515 28.8942Z" fill="#1B1B1B"/>
<path id="Vector_100" d="M77.5725 28.6418C78.1326 28.5839 78.6987 28.4865 79.1888 28.8822C78.6409 28.8579 78.0534 29.1136 77.5725 28.6418Z" fill="#1B1B1B"/>
<path id="Vector_101" d="M99.7829 23.1567L103.028 23.2146C103.849 23.5189 104.744 23.1293 105.566 23.455C106.257 23.6194 106.927 23.8964 107.66 23.7868C108.047 25.3087 107.806 26.861 107.815 28.3951C107.815 29.4026 107.042 29.0312 106.479 28.949L105.657 28.8821C104.744 28.5564 103.743 28.9703 102.818 28.6355C101.56 28.4818 100.289 28.4818 99.0311 28.6355C98.4223 28.7025 97.7862 28.8668 97.5701 29.5487C97.354 30.2305 97.8562 30.6992 98.3584 31.031C99.6185 31.865 100.93 32.6289 102.2 33.466C103.469 34.303 104.872 35.1187 106.077 36.1049C109.763 39.1274 109.002 44.2774 104.556 46.122C101.661 47.3395 98.5593 47.4856 95.4547 47.4186C94.5963 47.4004 93.738 47.3669 92.8796 47.3364C92.2709 47.0321 91.5465 47.4217 90.9347 47.0716C90.4446 46.8099 89.7872 47.376 89.3671 46.7673C89.151 45.3793 89.3519 43.9852 89.2575 42.5973C89.1814 41.4833 89.705 41.3006 90.6272 41.6081L91.1568 41.6659C91.7656 41.9703 92.4535 41.6172 93.0622 41.9094C94.8089 42.2055 96.5901 42.2373 98.3462 42.0038C99.095 41.8942 100.002 41.9033 100.258 41.0571C100.562 40.077 99.6216 39.66 98.9915 39.2309C97.914 38.4912 96.7726 37.8368 95.6434 37.1855C94.1767 36.3938 92.8 35.4458 91.5373 34.3578C88.0644 31.2075 88.8223 26.444 93.1079 24.5203C95.2355 23.5403 97.5396 23.4916 99.7829 23.1567Z" fill="#1B1B1B"/>
<path id="Vector_102" d="M106.479 28.9489C107.514 29.1284 107.916 28.7419 107.8 27.6705C107.663 26.383 107.925 25.0741 107.66 23.7866C108.403 25.4029 107.992 27.1013 107.907 28.7449C107.867 29.5302 107.033 29.2898 106.479 28.9489Z" fill="#1B1B1B"/>
<path id="Vector_103" d="M102.827 28.6355C103.78 28.5374 104.744 28.6211 105.666 28.882C104.717 28.8394 103.734 29.1803 102.827 28.6355Z" fill="#1B1B1B"/>
<path id="Vector_104" d="M105.566 23.4428C104.711 23.4701 103.852 23.5036 103.027 23.2023L105.557 23.1658L105.566 23.4428Z" fill="#1B1B1B"/>
<path id="Vector_105" d="M90.9561 47.0503C91.6149 46.9959 92.2777 47.0863 92.898 47.3151L90.9591 47.3486L90.9561 47.0503Z" fill="#1B1B1B"/>
<path id="Vector_106" d="M130.242 46.4444C129.09 46.4608 127.946 46.6506 126.851 47.0075C123.019 47.3667 119.193 47.7045 115.348 47.0623C111.602 46.4353 110.478 45.1904 110.478 41.4587C110.478 35.9251 110.503 30.3916 110.454 24.858C110.454 23.8322 110.679 23.4335 111.787 23.4883C113.553 23.5735 115.33 23.4883 117.102 23.4883C117.406 27.3813 117.138 31.2804 117.248 35.1733C117.296 36.9174 117.05 38.6706 117.424 40.4056C117.342 41.6687 118.143 42.1131 119.208 42.1618C120.425 42.2166 121.643 42.1253 122.86 42.1344C123.901 42.1344 124.175 41.6748 124.166 40.6612C124.115 35.4321 124.181 30.2029 124.111 24.9737C124.096 23.7562 124.449 23.4 125.633 23.4913C126.95 23.5909 128.273 23.5909 129.59 23.4913C130.704 23.4122 130.917 23.8566 130.911 24.8671C130.872 31.5634 130.884 38.2415 130.911 44.9256C130.884 45.5495 130.847 46.1005 130.242 46.4444Z" fill="#1B1B1B"/>
<path id="Vector_107" d="M140.085 47.324C138.475 47.2936 136.856 47.1688 135.252 47.2601C133.986 47.3332 133.569 47.0623 133.584 45.6743C133.663 37.2491 133.623 28.821 133.62 20.411C133.62 19.8601 133.599 19.3092 133.587 18.7583C135.663 18.1952 137.778 18.5848 139.872 18.5543C140.715 18.5543 140.381 19.4066 140.384 19.8845C140.408 25.1654 140.399 30.4494 140.399 35.7303C140.399 39.1515 140.399 42.5727 140.384 45.9909C140.378 46.4231 140.685 46.9892 140.085 47.324Z" fill="#1B1B1B"/>
<path id="Vector_108" d="M140.085 47.3244C140.472 46.8434 140.359 46.2712 140.359 45.7264C140.359 37.1764 140.341 28.6265 140.39 20.0796C140.39 18.8956 140.085 18.4847 138.883 18.5881C137.127 18.7373 135.346 18.4573 133.587 18.7403C134.5 17.882 135.599 18.3781 136.597 18.3599C140.569 18.2929 140.569 18.3325 140.569 22.2254C140.569 30.0662 140.569 37.9039 140.554 45.7446C140.554 46.2864 140.883 46.9895 140.085 47.3244Z" fill="#1B1B1B"/>
<path id="Vector_109" d="M90.6485 41.5804C89.7354 41.4191 89.2971 41.6656 89.3731 42.7157C89.4675 44.0519 89.3914 45.3973 89.3884 46.7396C88.8435 45.1538 89.1175 43.5162 89.1905 41.9183C89.2362 40.9777 90.0367 41.206 90.6485 41.5804Z" fill="#1B1B1B"/>
<path id="Vector_110" d="M93.0834 41.8819C92.4379 41.9722 91.78 41.8881 91.178 41.6384C91.8202 41.6749 92.502 41.3827 93.0834 41.8819Z" fill="#1B1B1B"/>
<path id="Vector_111" d="M51.7035 23.4639C54.1994 23.5187 56.6314 23.8322 58.9324 24.9066C61.2378 25.9781 63.0954 27.8228 64.1829 30.1206C64.6882 32.0473 65.1661 33.9679 65.0961 35.9981C64.88 42.3352 60.7465 46.7304 54.385 47.3392C52.472 47.4838 50.5484 47.3866 48.6597 47.05C43.0835 45.7869 39.4554 40.6033 39.9515 34.6071C40.4598 28.4404 44.0301 24.6479 50.2029 23.7104C50.7082 23.6343 51.2043 23.546 51.7035 23.4639Z" fill="#1B1B1B"/>
<path id="Vector_112" d="M80.9115 23.4432C80.0479 23.5122 79.1788 23.4319 78.3425 23.2058C79.2009 23.2514 80.0897 22.9014 80.9115 23.4432Z" fill="#1B1B1B"/>
<path id="Vector_113" d="M65.702 35.8674C65.638 36.3818 65.8907 36.9571 65.3976 37.3893C65.4798 36.8749 65.1936 36.2966 65.702 35.8674Z" fill="#1B1B1B"/>
<path id="Vector_114" d="M65.4034 33.4417C65.8873 33.8739 65.6377 34.4461 65.7077 34.9635C65.1933 34.5313 65.4795 33.953 65.4034 33.4417Z" fill="#1B1B1B"/>
<path id="Vector_115" d="M70.3311 55.5457L71.0799 55.57C72.1604 55.92 72.4191 56.7053 72.5044 57.7676C72.5713 58.5894 71.8073 59.7004 73.1314 60.2544C73.2805 60.3152 73.1314 60.6379 72.9548 60.7414C72.4496 61.0457 71.9382 61.2162 71.4817 60.6531C71.2838 60.4887 71.0464 60.3487 71.0434 60.0443C71.1199 59.6265 71.1312 59.1994 71.0768 58.7781C71.0403 58.4951 70.7268 58.2759 70.882 57.9533L71.1864 57.6276C71.1671 57.3836 71.0807 57.1498 70.9368 56.9519C70.3861 56.7958 69.8014 56.8064 69.2567 56.9823C69.2115 56.9745 69.165 56.9808 69.1236 57.0004C69.0822 57.0201 69.0479 57.052 69.0253 57.0919C68.3861 56.9427 68.6053 56.5014 68.6905 56.1088L70.3311 55.5457Z" fill="#F2F6F3"/>
<path id="Vector_116" d="M75.168 57.0308C74.7997 58.0474 74.8636 59.1005 74.8636 60.1506C74.8636 60.4824 74.9305 60.9025 74.4009 60.9207C73.8713 60.939 73.9048 60.5281 73.9017 60.1841C73.9017 59.0336 73.917 57.88 73.9017 56.7295C73.8865 55.5789 74.334 55.5424 75.1193 56.1724C75.3262 56.4464 75.1284 56.7477 75.168 57.0308Z" fill="#FBFBFB"/>
<path id="Vector_117" d="M71.1835 60.1141L71.4878 60.6528C71.1659 60.7722 70.8377 60.8738 70.5047 60.9572C68.9006 61.2616 68.2493 60.4794 68.7637 58.8753C69.4394 58.4948 70.0725 58.023 70.8943 57.9622L71.4787 58.5709C71.3718 58.674 71.2521 58.763 71.1226 58.8357C69.969 59.3288 70.1821 59.7428 71.1835 60.1141Z" fill="#1B1B1B"/>
<path id="Vector_118" d="M75.1677 57.031C74.6655 56.7753 75.0094 56.4649 75.116 56.1727L76.4126 55.5457C76.4383 55.5656 76.4699 55.5765 76.5024 55.5765C76.5349 55.5765 76.5665 55.5656 76.5922 55.5457L77.8828 56.1301C78.2815 56.2001 78.6954 56.2579 78.4245 56.8362C78.3446 56.7996 78.2564 56.7849 78.1689 56.7936C77.5175 56.3857 76.9879 57.1649 76.3609 56.9762C75.9378 56.3614 75.5573 56.8453 75.1677 57.031Z" fill="#E3ECE6"/>
<path id="Vector_119" d="M91.875 60.9786C89.8753 60.2725 89.8966 58.4188 90.3349 57.1617C90.4445 56.8421 90.5753 56.5317 90.6971 56.2182C92.4807 55.5546 92.4807 55.5546 93.9113 55.7403C94.1792 55.2776 93.9844 54.7602 94.0635 54.2793C94.1426 53.7984 93.7591 53.1044 94.5596 53.0892C95.491 53.0709 95.1105 53.8927 95.1197 54.3523C95.1684 56.5165 95.1501 58.6806 95.1562 60.8416L93.6982 60.9421C93.1137 61.1684 92.4681 61.1814 91.875 60.9786Z" fill="#1B1B1B"/>
<path id="Vector_120" d="M100.388 60.951C99.9652 60.9297 99.4752 61.1945 99.1708 60.6862C98.9943 60.4792 98.7142 60.3514 98.6899 60.0379C98.8725 59.2769 98.5529 58.8477 97.798 58.6986C97.6786 58.6296 97.5874 58.5205 97.5406 58.3907C97.4938 58.2609 97.4944 58.1188 97.5424 57.9894C98.6533 57.4202 98.279 57.0611 97.3658 56.7719C96.9915 56.641 96.5075 57.4598 96.267 56.7354C96.0966 56.221 96.6171 55.9927 97.0615 55.8375C97.5004 55.6759 97.9706 55.6177 98.4357 55.6673C98.9007 55.7169 99.3481 55.8731 99.743 56.1236C100.166 56.7871 100.066 57.5359 100.114 58.2542C100.163 58.9725 99.7826 59.8218 100.702 60.3453C100.863 60.464 100.553 60.7744 100.388 60.951Z" fill="#EEF3F0"/>
<path id="Vector_121" d="M98.8756 60.0685L99.1617 60.6773C98.3673 60.8751 97.5759 61.1247 96.7267 60.9482C95.2048 59.5815 96.471 58.8175 97.3659 57.9531C97.3821 57.9308 97.4038 57.9131 97.4288 57.9015C97.4538 57.89 97.4814 57.8851 97.5088 57.8872C97.5363 57.8893 97.5628 57.8985 97.5857 57.9137C97.6086 57.929 97.6273 57.9499 97.6398 57.9744C97.643 58.1082 97.6865 58.238 97.7647 58.3466C97.8429 58.4553 97.9522 58.5377 98.0781 58.5831C97.6398 59.4658 97.859 59.9681 98.8756 60.0685Z" fill="#ECF2EE"/>
<path id="Vector_122" d="M97.6524 57.9835L97.5185 57.9531H97.3784L97.3419 57.9135C97.1471 57.5604 97.6159 57.5422 97.6463 57.3048L97.3419 56.7691C97.9507 56.5986 98.7512 56.349 98.8973 57.2135C99.0434 58.0779 98.1637 57.8618 97.6524 57.9835Z" fill="#1B1B1B"/>
<path id="Vector_123" d="M97.6522 57.3167C97.9749 57.7336 97.2718 57.621 97.3478 57.9254L96.4347 58.1933C96.3525 58.1324 96.3251 58.0776 96.3556 58.0228C96.386 57.968 96.4165 57.9406 96.4438 57.9406C96.5896 57.757 96.7727 57.6064 96.981 57.4989C97.1893 57.3913 97.4181 57.3292 97.6522 57.3167Z" fill="#6A9D3A"/>
<path id="Vector_124" d="M96.4344 57.9378C96.4344 58.023 96.4344 58.1052 96.4344 58.1904L95.7647 58.4156C95.7343 58.2878 95.6399 58.1113 95.6856 58.0321C95.8682 57.6395 96.1635 57.8373 96.4344 57.9378Z" fill="#73A239"/>
<path id="Vector_125" d="M131.916 60.604C131.681 60.7915 131.404 60.9175 131.108 60.9707C130.813 61.0238 130.509 61.0024 130.224 60.9084C129.84 60.4244 129.505 60.9327 129.161 60.9814C127.506 61.2188 126.891 60.4549 127.469 58.8295C127.728 58.0594 128.443 58.099 129.052 57.9498C129.548 57.9103 130.044 57.6729 129.877 57.1706C129.682 56.5923 129.067 56.6228 128.48 56.6623C128.102 56.6867 127.518 57.5389 127.326 56.5862C127.171 55.8283 127.959 55.8922 128.44 55.7157C129.158 55.4479 129.816 55.7309 130.488 55.8831C130.705 56.1601 130.918 56.4401 131.134 56.7202C131.523 57.8007 131.003 58.9604 131.438 60.0409L131.742 60.0805C131.959 60.0135 132.099 60.0805 132.15 60.3057C132.202 60.531 132.035 60.5401 131.916 60.604Z" fill="#EDF3EE"/>
<path id="Vector_126" d="M123.485 59.1674C123.929 60.1536 124.79 60.0805 125.661 60.0258C125.95 60.0014 126.379 59.6088 126.492 60.2236C126.589 60.7532 126.212 60.9419 125.773 60.9602C125.125 60.9815 124.474 60.9602 123.822 60.9358C122.605 60.1932 121.829 59.2252 122.2 57.7064C122.504 56.4219 123.418 55.7858 124.693 55.6336C125.094 55.6077 125.496 55.6551 125.88 55.7736C126.248 55.871 126.516 56.148 126.364 56.5559C126.233 56.8968 125.944 56.8602 125.606 56.7689C124.757 56.568 123.911 56.495 123.475 57.5146C123.282 58.0496 123.282 58.6355 123.475 59.1705L123.485 59.1674Z" fill="#1B1B1B"/>
<path id="Vector_127" d="M127.472 58.2298C126.446 59.219 125.341 59.913 123.877 59.1186C123.804 57.3745 124.255 57.0154 125.932 57.478C126.449 57.6211 126.973 57.755 127.493 57.892C127.524 57.9441 127.538 58.004 127.534 58.0641C127.53 58.1243 127.509 58.1819 127.472 58.2298Z" fill="#75A33A"/>
<path id="Vector_128" d="M127.472 58.2298C127.472 58.1172 127.472 58.0046 127.494 57.892C127.913 57.5207 128.412 57.2501 128.952 57.1006C129.481 57.4232 127.956 57.688 129.052 57.9528L127.469 58.8325C127.469 58.6316 127.469 58.4459 127.472 58.2298Z" fill="#3D804E"/>
<path id="Vector_129" d="M123.491 59.1705C123.288 58.9422 123.177 58.6476 123.177 58.3426C123.177 58.0375 123.288 57.7429 123.491 57.5146V59.1705Z" fill="#1B1B1B"/>
<path id="Vector_130" d="M139.638 60.9634C139.316 60.4734 139.029 60.8599 138.725 60.9999C137.988 61.0425 137.252 61.076 136.628 60.5708C136.053 59.9955 136.211 59.4202 136.628 58.848L137.188 58.4736C137.441 58.0353 137.906 57.9014 138.314 57.6944C138.454 57.5848 138.728 57.4722 138.634 57.3017C138.421 56.9213 138.055 57.1526 137.748 57.1983C137.569 57.2713 137.375 57.3005 137.182 57.2835C136.433 56.7173 136.439 56.3095 137.246 55.9138C137.657 55.7269 138.101 55.6239 138.553 55.6108C139.005 55.5977 139.454 55.6749 139.876 55.8377C140.269 56.3457 140.502 56.9592 140.545 57.6C140.658 58.5132 140.302 59.3806 140.987 60.3607C141.431 60.9725 140.229 60.9512 139.638 60.9634Z" fill="#E8EFE8"/>
<path id="Vector_131" d="M135.936 59.2313L135.69 60.3544C134.637 61.3223 133.477 61.1245 132.293 60.6588C132.205 60.2631 131.964 59.8157 132.631 59.6756C132.79 59.8003 132.965 59.9027 133.151 59.98C133.681 60.1079 134.369 60.3635 134.618 59.7091C134.868 59.0547 133.891 59.2282 133.681 58.796C133.112 58.6438 132.491 58.5525 132.387 57.8007C131.906 57.4507 132.062 56.9393 132.053 56.4706C132.89 55.9166 133.699 55.3291 134.813 55.7248C135.325 55.9075 135.787 56.0475 135.602 56.7293C135.528 56.778 135.455 56.8663 135.388 56.8602C134.734 56.8084 133.867 56.0779 133.504 56.8997C133.2 57.5907 134.305 57.7216 134.765 58.1172C135.182 58.4703 135.547 58.8599 135.936 59.2313Z" fill="#F0F5F2"/>
<path id="Vector_132" d="M137.197 57.2834L137.37 56.979C137.549 56.9071 137.74 56.8699 137.933 56.8694C138.238 56.8877 138.67 56.7446 138.801 57.1738C138.968 57.7369 138.414 57.7217 138.116 57.9043C137.812 58.0261 137.507 58.1143 137.203 58.2087C136.29 58.6409 135.629 58.2087 134.893 57.4812C135.724 57.3625 136.573 58.0413 137.197 57.2834Z" fill="#428351"/>
<path id="Vector_133" d="M137.209 58.2269C137.27 58.1229 137.36 58.0389 137.468 57.9849C137.576 57.9309 137.698 57.9093 137.818 57.9225C137.858 57.8807 137.907 57.8475 137.961 57.8249C138.015 57.8022 138.073 57.7905 138.131 57.7905C138.19 57.7905 138.247 57.8022 138.301 57.8249C138.355 57.8475 138.404 57.8807 138.445 57.9225L137.206 58.4613C137.206 58.3913 137.206 58.3091 137.209 58.2269Z" fill="#3D7F50"/>
<path id="Vector_134" d="M83.3556 60.9908C81.1976 59.892 80.8658 57.9105 82.4912 55.8346C83.0691 55.73 83.6542 55.6699 84.2414 55.655C85.9428 55.7281 86.3294 57.0308 86.6764 58.3488C85.8028 59.0458 84.7862 58.5162 83.8487 58.6744C83.4043 58.7475 82.7256 58.5253 83.0634 59.408C84.1379 60.7503 85.2641 59.8889 86.3781 59.4841C86.5759 59.8828 86.7312 60.2785 86.2715 60.6194C86.1243 60.6156 85.9779 60.6435 85.8424 60.7012C85.7069 60.759 85.5854 60.8453 85.4863 60.9542C84.7929 61.1621 84.0557 61.1747 83.3556 60.9908Z" fill="#F1F6F3"/>
<path id="Vector_135" d="M83.0574 59.4081C82.4242 58.6593 82.8504 58.5406 83.5626 58.5102C84.6005 58.4615 85.6506 58.6898 86.6703 58.3489C86.1285 59.262 85.2367 58.6533 84.5214 58.8328C84.004 58.9546 83.2643 58.5072 83.0574 59.4081Z" fill="#1B1B1B"/>
<path id="Vector_136" d="M83.3555 60.9909L85.4861 60.9543V61.2587C84.7708 61.1613 84.0099 61.5114 83.3555 60.9909Z" fill="#41834F"/>
<path id="Vector_137" d="M85.3793 59.2102C84.7706 59.5451 84.3475 59.4355 83.7783 59.3533C84.3505 59.0154 84.7706 59.1646 85.3793 59.2102Z" fill="#6E9E3A"/>
<path id="Vector_138" d="M86.2656 60.6195C86.3679 60.4505 86.4306 60.2606 86.449 60.064C86.4675 59.8674 86.4412 59.6691 86.3722 59.4841C86.9931 59.9224 86.7496 60.2725 86.2656 60.6195Z" fill="#1B1B1B"/>
<path id="Vector_139" d="M78.4244 56.842C78.4244 56.4615 78.0135 56.4098 77.8826 56.1358L78.2113 55.6001L79.2066 54.687C79.4592 55.2075 79.5323 55.9045 80.4059 55.7706C81.1424 55.658 81.0146 56.2089 80.8442 56.6837L79.6997 56.7416C79.4487 57.7316 79.4425 58.7679 79.6814 59.761C80.1167 60.1536 80.8502 59.557 81.2033 60.2115L80.8989 60.8963C78.7683 61.2007 78.4244 60.8963 78.3939 58.7657C78.3817 58.1417 78.4122 57.4873 78.4244 56.842Z" fill="#EBF1ED"/>
<path id="Vector_140" d="M80.9359 58.2393C80.9359 58.708 81.3255 59.3655 80.4611 59.3624C79.8523 59.3624 80.0167 58.7993 80.0197 58.4493C80.0197 57.9897 79.8402 57.3261 80.6285 57.3596C81.362 57.3809 80.805 57.9653 80.9359 58.2393Z" fill="#1B1B1B"/>
<path id="Vector_141" d="M79.6817 59.7638C79.4672 59.2889 79.3578 58.7732 79.3609 58.2521C79.3641 57.731 79.4797 57.2167 79.7 56.7444L79.6817 59.7638Z" fill="#1B1B1B" fill-opacity="0.4"/>
<path id="Vector_142" d="M81.2004 60.2084C80.7864 59.7397 80.0468 60.3637 79.6785 59.758C80.202 59.8432 80.8747 59.4444 81.2004 60.2084Z" fill="#1B1B1B" fill-opacity="0.4"/>
<path id="Vector_143" d="M110.083 59.755C110.613 60.309 111.136 60.3029 111.657 59.755L111.961 59.4354C112.433 58.4888 112.098 57.4844 112.165 56.5103C112.232 55.5363 112.625 55.6855 113.182 56.1207C113.166 57.6274 113.897 59.131 113.182 60.6347C110.838 61.4382 109.584 61.1643 108.677 59.6576C108.677 58.6592 108.677 57.6639 108.698 56.6686C108.698 56.2882 108.607 55.8012 109.2 55.7707C109.922 55.7342 109.751 56.3034 109.809 56.7204C109.919 57.7248 109.48 58.7901 110.083 59.755Z" fill="#EAF1EC"/>
<path id="Vector_144" d="M114.789 55.8619C115.638 55.5591 116.566 55.5591 117.415 55.8619L118.097 56.7172C118.401 57.7977 117.942 58.9361 118.347 60.0075C118.481 60.1992 119.095 60.1536 118.761 60.5493C118.307 61.0819 117.708 61.2585 117.129 60.6345C116.919 60.4732 116.685 60.3301 116.688 60.0258C116.756 59.6237 116.773 59.2145 116.737 58.8082C116.688 58.5039 116.432 58.2817 116.432 57.959C116.517 57.7794 116.703 57.7247 116.855 57.6242C117.038 56.1389 116.03 56.6746 115.306 56.7263C115.002 56.7476 114.67 57.2559 114.393 56.8541C114.116 56.4524 114.524 56.1541 114.789 55.8619Z" fill="#1B1B1B"/>
<path id="Vector_145" d="M116.855 57.6395L116.523 57.9591C115.857 58.5586 115.063 58.9988 114.201 59.2466C114.096 59.23 113.999 59.1813 113.923 59.1071C113.848 59.0329 113.797 58.937 113.778 58.8327C113.769 58.7506 113.779 58.6677 113.807 58.5899C113.834 58.5121 113.879 58.4415 113.937 58.3831C113.995 58.3248 114.066 58.2802 114.144 58.2527C114.222 58.2251 114.305 58.2153 114.387 58.2239C114.883 57.7034 115.44 57.3108 116.213 57.3108C116.281 57.4183 116.376 57.5055 116.489 57.5634C116.602 57.6212 116.728 57.6475 116.855 57.6395Z" fill="#3E814A"/>
<path id="Vector_146" d="M113.16 60.6255V56.1116C113.833 56.9577 113.27 57.9378 113.465 58.851C114.016 59.5602 113.864 60.2602 113.45 60.9603L113.16 60.6255Z" fill="#49875C"/>
<path id="Vector_147" d="M113.465 60.9482C113.465 60.2451 113.465 59.542 113.48 58.8389H113.784L114.156 59.2528C114.284 59.3973 114.352 59.5854 114.346 59.7785C114.339 59.9715 114.259 60.1549 114.122 60.2907C114.006 60.5069 113.891 60.726 113.772 60.9421C113.665 60.9452 113.571 60.9482 113.465 60.9482Z" fill="#1B1B1B"/>
<path id="Vector_148" d="M116.213 57.3289L114.387 58.2421C114.749 57.4355 115.272 56.9667 116.213 57.3289Z" fill="#63983B"/>
<path id="Vector_149" d="M114.116 60.2725C114.116 59.9255 114.137 59.5785 114.149 59.2345C114.756 58.5283 115.601 58.07 116.523 57.947L117.114 58.5558C117.007 58.6591 116.889 58.749 116.761 58.8236C115.628 59.3137 115.811 59.7368 116.825 60.1111L117.129 60.6408C116.061 61.0304 114.998 61.3895 114.116 60.2725Z" fill="#1B1B1B"/>
<path id="Vector_150" d="M118.343 60.0198C117.838 58.9545 118.249 57.8222 118.094 56.7295C118.636 57.7918 118.219 58.9271 118.343 60.0198Z" fill="#418350"/>
<path id="Vector_151" d="M64.1706 60.948H63.2788C63.2575 58.6104 63.2301 56.2698 63.2179 53.9291C63.2179 53.6247 63.1296 53.2564 63.6045 53.0768C64.7824 52.6325 67.187 53.2625 68.1245 54.3157C68.3503 54.8954 68.3675 55.5357 68.1732 56.1267C67.3513 57.5908 65.8721 57.5329 64.4872 57.6912C64.0519 58.7504 64.6028 59.8918 64.1706 60.948Z" fill="#F3F6F4"/>
<path id="Vector_152" d="M68.173 56.1177C68.173 55.5089 68.1425 54.9002 68.1243 54.3066C68.6995 54.8271 68.3465 55.5089 68.4286 56.1146L68.173 56.1177Z" fill="#458554"/>
<path id="Vector_153" d="M68.697 56.1145C68.7396 56.4645 68.4809 56.9181 69.0318 57.0976C67.9208 57.3168 68.6696 56.428 68.4413 56.1175L68.697 56.1145Z" fill="#1B1B1B"/>
<path id="Vector_154" d="M107.727 59.1373C107.803 59.7825 107.465 60.3182 107.267 60.8935L106.777 60.9605C106.083 61.167 105.344 61.1734 104.647 60.9787C103.962 60.9422 104.004 60.4522 104.102 60.0139C104.175 59.6882 104.47 59.7886 104.711 59.8708C105.319 60.0778 106.153 60.4522 106.418 59.7125C106.698 58.9211 105.639 58.8724 105.173 58.495C105.007 58.3858 104.829 58.294 104.644 58.2211C104.129 57.5971 103.846 56.8818 104.37 56.1909C104.851 55.5547 105.587 55.4756 106.342 55.78C106.585 55.8302 106.836 55.8374 107.082 55.8013C107.441 56.2974 107.666 56.7601 106.826 57.0188C106.506 56.8727 106.123 56.7144 105.928 57.0918C105.77 57.4114 106.156 57.5728 106.382 57.7432C106.72 58.0019 107.237 58.0476 107.371 58.5468L107.727 59.1373Z" fill="#1B1B1B"/>
<path id="Vector_155" d="M107.38 58.5344C106.974 58.3362 106.577 58.1178 106.193 57.88C105.803 57.6213 105.018 57.4204 105.35 56.8603C105.724 56.2516 106.382 56.4586 106.835 57.0064C106.041 57.1586 106.458 57.3291 106.771 57.6517C107.085 57.9744 108.062 57.5756 107.684 58.5375L107.38 58.5344Z" fill="#3C7F4D"/>
<path id="Vector_156" d="M104.653 60.9785L106.783 60.9602C106.473 61.1824 106.102 61.3035 105.721 61.3067C105.34 61.31 104.967 61.1954 104.653 60.9785Z" fill="#40824C"/>
<path id="Vector_157" d="M64.1707 60.9483C64.475 59.8769 63.9637 58.7294 64.475 57.6824C64.3259 58.766 64.8494 59.9135 64.1707 60.9483Z" fill="#428451"/>
<path id="Vector_158" d="M69.2629 56.9883C69.9143 56.6078 70.5657 56.3126 71.2049 57.0126C71.1824 57.0379 71.155 57.0583 71.1245 57.0728C71.0939 57.0872 71.0608 57.0954 71.027 57.0968C70.9932 57.0983 70.9595 57.0929 70.9278 57.081C70.8962 57.0692 70.8672 57.0511 70.8427 57.0279H69.9782L69.2629 56.9883Z" fill="#1B1B1B"/>
<path id="Vector_159" d="M133.222 58.8509C133.222 59.0244 133.55 59.4931 133.142 59.3013C132.674 59.0792 131.812 59.347 131.745 58.4978C131.703 57.9773 132.05 58.1325 132.33 58.2543C132.681 58.3576 132.992 58.5658 133.222 58.8509Z" fill="#61973B"/>
<path id="Vector_160" d="M131.425 60.0441C130.817 58.9819 131.319 57.8222 131.121 56.7234C131.763 57.7826 131.273 58.9423 131.425 60.0441Z" fill="#1B1B1B"/>
<path id="Vector_161" d="M132.33 58.2543C132.351 58.1021 132.369 57.9499 132.388 57.7947L133.681 58.79" fill="#1B1B1B"/>
<path id="Vector_162" d="M132.632 59.6785C132.069 59.852 132.242 60.2873 132.294 60.6616L131.916 60.6038C131.96 60.5093 131.964 60.4015 131.928 60.3039C131.892 60.2063 131.819 60.127 131.725 60.0833C131.932 59.7394 132.072 59.2402 132.632 59.6785Z" fill="#1B1B1B"/>
<path id="Vector_163" d="M91.8752 60.9784L93.7015 60.9419C93.451 61.1638 93.1297 61.2894 92.7951 61.2961C92.4605 61.3028 92.1344 61.1902 91.8752 60.9784Z" fill="#428350"/>
<path id="Vector_164" d="M70.8426 57.0274L71.2048 57.0122C71.4149 57.2222 71.5397 57.4322 71.2048 57.621H70.5596L70.8426 57.0274Z" fill="#1B1B1B"/>
<path id="Vector_165" d="M58.479 35.3956C58.479 38.622 56.9753 41.0753 54.4795 41.8636C51.9836 42.6519 49.2564 41.8362 47.8197 39.8334C45.9934 37.304 46.1274 33.2102 48.0906 30.7721C50.2517 28.0875 54.7351 27.9962 56.9175 30.6108C58.065 31.9896 58.4607 33.6363 58.479 35.3956Z" fill="#1B1B1B"/>
<path id="Vector_166" d="M71.1836 60.1141C70.5748 60.248 69.6799 60.6194 69.6799 59.6393C69.6799 58.6592 70.5931 58.4918 71.4666 58.5709C71.3875 59.0883 71.5975 59.6636 71.1836 60.1141Z" fill="#428355"/>
<path id="Vector_167" d="M91.5163 57.4752C91.8207 56.1421 92.9651 56.6108 93.6074 56.7965C94.5449 57.0674 93.9422 58.0779 94.0426 58.7536C94.1187 59.2589 94.2405 59.9711 93.4339 60.0594C92.6273 60.1477 91.7537 60.4125 91.5254 59.2254C91.3641 58.6536 91.361 58.0487 91.5163 57.4752Z" fill="#3D8046"/>
<path id="Vector_168" d="M91.5163 57.4751C91.5163 58.0595 91.5163 58.6409 91.5163 59.2253C91.3301 58.9715 91.2297 58.6649 91.2297 58.3502C91.2297 58.0354 91.3301 57.7289 91.5163 57.4751Z" fill="#468655"/>
<path id="Vector_169" d="M98.8758 60.0685C98.3066 60.2389 97.6583 60.6163 97.29 59.8523C96.9552 59.1432 97.7374 58.9697 98.0905 58.6014C99.7707 58.3426 98.9184 59.4201 98.8758 60.0685Z" fill="#4A895D"/>
<path id="Vector_170" d="M129.152 60.2939C128.695 60.2939 128.294 60.1265 128.309 59.6395C128.336 58.8816 129.015 58.7264 129.581 58.5529C130.147 58.3794 130.099 58.8573 130.126 59.1982C130.178 59.8952 129.785 60.1965 129.152 60.2939Z" fill="#49885C"/>
<path id="Vector_171" d="M139.443 59.3594C139.51 59.9042 139.16 60.239 138.512 60.2877C138.064 60.3212 137.653 60.1112 137.671 59.6607C137.702 58.9424 138.35 58.7476 138.916 58.5923C139.483 58.4371 139.397 58.8754 139.443 59.3594Z" fill="#1B1B1B"/>
<path id="Vector_172" d="M138.442 57.9344H137.815C138.067 57.7274 138.572 57.4261 138.536 57.3256C138.326 56.7899 137.769 57.1095 137.37 56.9878C137.601 56.656 137.979 56.6621 138.308 56.6469C138.758 56.6256 139.276 56.6256 139.346 57.2221C139.416 57.8187 138.886 57.8735 138.442 57.9344Z" fill="#327947"/>
<path id="Vector_173" d="M83.0328 56.9882C83.9094 56.6504 84.8591 56.1055 85.1634 57.6183C84.6186 57.9226 84.0312 57.7552 83.462 57.7552C82.9689 57.7552 82.7863 57.4691 83.0328 56.9882Z" fill="#46863C"/>
<path id="Vector_174" d="M83.0329 56.9883C83.4681 58.1327 84.4695 57.387 85.1635 57.6183C84.5548 58.0779 83.8334 57.8527 83.179 57.8071C82.5246 57.7614 82.7833 57.3261 83.0329 56.9883Z" fill="#59926A"/>
<path id="Vector_175" d="M116.825 60.1176C116.216 60.2454 115.33 60.6137 115.334 59.6367C115.337 58.6596 116.247 58.5075 117.114 58.5622C117.044 59.0858 117.26 59.6641 116.825 60.1176Z" fill="#418353"/>
<path id="Vector_176" d="M65.4245 56.5196C64.6179 56.6688 64.137 56.3979 64.2587 55.4239C64.3348 54.7908 63.9939 53.9355 65.1932 54.0116C66.0698 54.0664 66.9981 54.0451 67.0712 55.2108C67.1412 56.2761 66.3924 56.5288 65.4245 56.5196Z" fill="#3F8152"/>
<path id="Vector_177" d="M52.601 29.4998C55.9492 29.4998 57.812 31.6822 57.7754 35.5417C57.7572 39.1637 55.523 41.6475 52.3788 41.5409C49.4294 41.4374 47.1709 38.8715 47.1466 35.5934C47.1283 31.9439 49.3198 29.4906 52.601 29.4998Z" fill="#F2F2F2"/>
<path id="Vector_178" d="M93.4091 58.2604C93.3574 58.7931 93.5582 59.4779 92.6634 59.411C92.0364 59.3592 91.872 58.8935 91.8842 58.3487C91.8994 57.676 92.1885 57.1099 92.8947 57.1312C93.6709 57.1373 93.2904 57.8647 93.4091 58.2604Z" fill="#1B1B1B"/>
<path id="Vector_179" d="M98.1149 59.7212C97.914 59.6664 97.7923 59.572 97.9018 59.4168C97.9457 59.366 97.9999 59.3251 98.0607 59.2968C98.1216 59.2684 98.1878 59.2533 98.2549 59.2524C98.3188 59.2524 98.3767 59.4412 98.4375 59.5568L98.1149 59.7212Z" fill="#558F3B"/>
<path id="Vector_180" d="M129.578 59.3867C129.423 59.5298 129.338 59.6637 129.237 59.6911C129.137 59.7185 129.012 59.6089 128.896 59.5633C128.981 59.4628 129.048 59.3167 129.158 59.2741C129.268 59.2315 129.377 59.3228 129.578 59.3867Z" fill="#558F3C"/>
<path id="Vector_181" d="M139.004 59.3866C138.849 59.5296 138.767 59.6635 138.663 59.6909C138.56 59.7183 138.441 59.6118 138.329 59.5631C138.411 59.4657 138.478 59.3226 138.587 59.28C138.697 59.2374 138.806 59.3226 139.004 59.3866Z" fill="#548F3C"/>
<path id="Vector_182" d="M66.5292 55.1464C66.5075 55.3813 66.4043 55.6011 66.2376 55.7679C66.0708 55.9346 65.8509 56.0378 65.6161 56.0596C65.5181 56.0786 65.4171 56.0756 65.3205 56.0506C65.2238 56.0256 65.134 55.9793 65.0575 55.9151C64.9811 55.8509 64.92 55.7704 64.8786 55.6795C64.8373 55.5887 64.8168 55.4897 64.8186 55.3899C64.7608 54.9151 64.9495 54.6412 65.4639 54.6259C65.9783 54.6107 66.3497 54.6777 66.5292 55.1464Z" fill="#6A9C3A"/>
</g>
<defs>
<filter id="filter0_d_2123_245" x="0" y="0" width="172.137" height="114.723" filterUnits="userSpaceOnUse" color-interpolation-filters="sRGB">
<feFlood flood-opacity="0" result="BackgroundImageFix"/>
<feColorMatrix in="SourceAlpha" type="matrix" values="0 0 0 0 0 0 0 0 0 0 0 0 0 0 0 0 0 0 127 0" result="hardAlpha"/>
<feOffset dy="4"/>
<feGaussianBlur stdDeviation="2"/>
<feComposite in2="hardAlpha" operator="out"/>
<feColorMatrix type="matrix" values="0 0 0 0 0 0 0 0 0 0 0 0 0 0 0 0 0 0 0.25 0"/>
<feBlend mode="normal" in2="BackgroundImageFix" result="effect1_dropShadow_2123_245"/>
<feBlend mode="normal" in="SourceGraphic" in2="effect1_dropShadow_2123_245" result="shape"/>
</filter>
</defs>
</svg>
